<svg width="28" height="21" viewBox="0 0 28 21" fill="none" xmlns="http://www.w3.org/2000/svg">
<path d="M26.2815 9.15472C25.7509 14.4143 20.9753 19.6739 11.4243 20.7258C6.64881 20.7258 0.812076 18.622 0.281464 13.3624C0.281464 8.62876 7.09969 1.79129 13.5468 1.79129C20.4447 1.26533 26.2815 3.92609 26.2815 9.15472Z" fill="black"/>
<path d="M25.2815 9.37274C24.7917 14.0787 20.3835 18.7846 11.5672 19.7258C7.15901 19.7258 1.77126 17.8435 1.28146 13.1375C1.28146 8.90214 7.57521 2.7844 13.5264 2.7844C19.8937 2.31381 25.2815 4.69449 25.2815 9.37274Z" fill="#323232"/>
<path d="M6.47588 16.16C5.43054 16.16 4.44921 15.9893 3.53188 15.648C2.61454 15.296 1.81988 14.7947 1.14788 14.144C0.987875 13.984 0.907875 13.8027 0.907875 13.6C0.907875 13.3653 1.01454 13.1413 1.22787 12.928C1.39854 12.7573 1.58521 12.672 1.78788 12.672C2.00121 12.672 2.25721 12.7947 2.55588 13.04C3.05721 13.4987 3.64921 13.856 4.33188 14.112C5.02521 14.3573 5.73988 14.48 6.47588 14.48C7.17988 14.48 7.72921 14.3627 8.12388 14.128C8.51854 13.8827 8.71588 13.5413 8.71588 13.104C8.71588 12.6453 8.50254 12.2773 8.07588 12C7.64921 11.712 6.92388 11.456 5.89988 11.232C4.28921 10.88 3.11588 10.416 2.37988 9.84C1.65454 9.264 1.29188 8.52267 1.29188 7.616C1.29188 7.04 1.48388 6.528 1.86788 6.08C2.25188 5.62133 2.78521 5.26933 3.46788 5.024C4.16121 4.768 4.95054 4.64 5.83588 4.64C6.82788 4.64 7.70788 4.80533 8.47588 5.136C9.25454 5.456 9.84654 5.90933 10.2519 6.496C10.3905 6.72 10.4599 6.912 10.4599 7.072C10.4492 7.33867 10.3159 7.568 10.0599 7.76C9.92121 7.856 9.76121 7.904 9.57987 7.904C9.24921 7.904 8.97721 7.776 8.76388 7.52C8.45454 7.14667 8.03854 6.85333 7.51588 6.64C7.00388 6.42667 6.44388 6.32 5.83588 6.32C5.07854 6.32 4.48654 6.43733 4.05988 6.672C3.64388 6.896 3.43588 7.21067 3.43588 7.616C3.43588 8.02133 3.63854 8.35733 4.04388 8.624C4.45988 8.88 5.17454 9.12533 6.18788 9.36C7.30788 9.62667 8.20921 9.93067 8.89188 10.272C9.57454 10.6027 10.0705 10.9973 10.3799 11.456C10.6999 11.9147 10.8599 12.464 10.8599 13.104C10.8599 13.712 10.6785 14.2507 10.3159 14.72C9.95321 15.1787 9.44121 15.536 8.77988 15.792C8.11854 16.0373 7.35054 16.16 6.47588 16.16ZM13.5298 16C13.1564 16 12.8471 15.8827 12.6018 15.648C12.3564 15.4133 12.2338 15.1307 12.2338 14.8C12.2338 14.448 12.3564 14.1547 12.6018 13.92C12.8471 13.6747 13.1564 13.552 13.5298 13.552C13.9031 13.552 14.2071 13.6747 14.4418 13.92C14.6871 14.1653 14.8098 14.4587 14.8098 14.8C14.8098 15.1307 14.6871 15.4133 14.4418 15.648C14.2071 15.8827 13.9031 16 13.5298 16ZM22.0611 16.16C20.8558 16.16 19.8105 15.9307 18.9251 15.472C18.0398 15.0133 17.3625 14.352 16.8931 13.488C16.4238 12.624 16.1891 11.6 16.1891 10.416C16.1891 9.232 16.4238 8.208 16.8931 7.344C17.3625 6.46933 18.0345 5.80267 18.9091 5.344C19.7945 4.87467 20.8345 4.64 22.0291 4.64C23.0211 4.64 23.9385 4.81067 24.7811 5.152C25.6238 5.49333 26.2478 5.94667 26.6531 6.512C26.7811 6.68267 26.8451 6.85867 26.8451 7.04C26.8451 7.30667 26.7011 7.54667 26.4131 7.76C26.2851 7.856 26.1251 7.904 25.9331 7.904C25.7731 7.904 25.6131 7.872 25.4531 7.808C25.2931 7.73333 25.1598 7.632 25.0531 7.504C24.6905 7.088 24.2691 6.78933 23.7891 6.608C23.3091 6.416 22.7225 6.32 22.0291 6.32C20.8665 6.32 19.9598 6.68267 19.3091 7.408C18.6585 8.12267 18.3331 9.12533 18.3331 10.416C18.3331 11.696 18.6585 12.6933 19.3091 13.408C19.9705 14.1227 20.8878 14.48 22.0611 14.48C23.4051 14.48 24.4771 14.0853 25.2771 13.296C25.6078 12.9867 25.9118 12.832 26.1891 12.832C26.3811 12.832 26.5571 12.896 26.7171 13.024C26.9625 13.2373 27.0851 13.472 27.0851 13.728C27.0851 13.92 27.0158 14.1067 26.8771 14.288C26.4185 14.8747 25.7625 15.3333 24.9091 15.664C24.0665 15.9947 23.1171 16.16 22.0611 16.16Z" fill="black"/>
<path d="M3.53188 15.648L3.35274 16.1148L3.35751 16.1166L3.53188 15.648ZM1.14788 14.144L0.794276 14.4976L0.800069 14.5032L1.14788 14.144ZM2.55588 13.04L2.89338 12.6711L2.88355 12.6621L2.87324 12.6536L2.55588 13.04ZM4.33188 14.112L4.15628 14.5802L4.16509 14.5834L4.33188 14.112ZM8.12388 14.128L8.37946 14.5579L8.38784 14.5526L8.12388 14.128ZM8.07588 12L7.7961 12.4145L7.80338 12.4192L8.07588 12ZM5.89988 11.232L6.00672 10.7435L6.00663 10.7435L5.89988 11.232ZM2.37988 9.84L2.06893 10.2316L2.07172 10.2338L2.37988 9.84ZM1.86788 6.08L2.24753 6.40542L2.25125 6.40097L1.86788 6.08ZM3.46788 5.024L3.63698 5.49455L3.64106 5.49305L3.46788 5.024ZM8.47588 5.136L8.27812 5.59531L8.28582 5.59847L8.47588 5.136ZM10.2519 6.496L10.677 6.23282L10.6704 6.22213L10.6632 6.21178L10.2519 6.496ZM10.4599 7.072L10.9595 7.09198L10.9599 7.082V7.072H10.4599ZM10.0599 7.76L10.3445 8.1711L10.3523 8.16569L10.3599 8.16L10.0599 7.76ZM8.76388 7.52L8.37886 7.83901L8.37976 7.84009L8.76388 7.52ZM7.51588 6.64L7.32356 7.10155L7.32693 7.10292L7.51588 6.64ZM4.05988 6.672L4.29693 7.11225L4.30083 7.11011L4.05988 6.672ZM4.04388 8.624L3.76907 9.04171L3.77539 9.04586L3.78183 9.04983L4.04388 8.624ZM6.18788 9.36L6.30369 8.87359L6.30068 8.87289L6.18788 9.36ZM8.89188 10.272L8.66825 10.7192L8.67391 10.722L8.89188 10.272ZM10.3799 11.456L9.96529 11.7356L9.96981 11.7421L10.3799 11.456ZM10.3159 14.72L10.7081 15.0301L10.7115 15.0257L10.3159 14.72ZM8.77988 15.792L8.9538 16.2608L8.96037 16.2583L8.77988 15.792ZM6.47588 15.66C5.48599 15.66 4.56409 15.4986 3.70624 15.1794L3.35751 16.1166C4.33433 16.4801 5.37509 16.66 6.47588 16.66V15.66ZM3.711 15.1812C2.85334 14.8521 2.11685 14.3862 1.49568 13.7848L0.800069 14.5032C1.5229 15.2031 2.37574 15.7399 3.35275 16.1148L3.711 15.1812ZM1.50143 13.7904C1.42325 13.7123 1.40788 13.6541 1.40788 13.6H0.407875C0.407875 13.9513 0.552502 14.2557 0.794322 14.4976L1.50143 13.7904ZM1.40788 13.6C1.40788 13.5329 1.43384 13.4291 1.58143 13.2816L0.874322 12.5744C0.595245 12.8535 0.407875 13.1978 0.407875 13.6H1.40788ZM1.58143 13.2816C1.67753 13.1854 1.74271 13.172 1.78788 13.172V12.172C1.42771 12.172 1.11955 12.3292 0.874322 12.5744L1.58143 13.2816ZM1.78788 13.172C1.82312 13.172 1.96492 13.2016 2.23851 13.4264L2.87324 12.6536C2.5495 12.3877 2.17929 12.172 1.78788 12.172V13.172ZM2.21837 13.4089C2.7702 13.9138 3.41823 14.3034 4.15631 14.5802L4.50744 13.6438C3.88019 13.4086 3.34422 13.0836 2.89338 12.6711L2.21837 13.4089ZM4.16509 14.5834C4.91202 14.8477 5.6831 14.98 6.47588 14.98V13.98C5.79665 13.98 5.13839 13.867 4.49866 13.6406L4.16509 14.5834ZM6.47588 14.98C7.22569 14.98 7.87672 14.8567 8.37941 14.5578L7.86834 13.6982C7.5817 13.8687 7.13406 13.98 6.47588 13.98V14.98ZM8.38784 14.5526C8.9182 14.223 9.21588 13.7268 9.21588 13.104H8.21588C8.21588 13.3558 8.11888 13.5424 7.85991 13.7034L8.38784 14.5526ZM9.21588 13.104C9.21588 12.4553 8.89856 11.9384 8.34837 11.5808L7.80338 12.4192C8.10652 12.6163 8.21588 12.8354 8.21588 13.104H9.21588ZM8.35561 11.5856C7.84608 11.2416 7.0419 10.97 6.00672 10.7435L5.79303 11.7204C6.80585 11.942 7.45234 12.1824 7.79614 12.4144L8.35561 11.5856ZM6.00663 10.7435C4.42148 10.3971 3.33563 9.95307 2.68803 9.44625L2.07172 10.2338C2.89612 10.8789 4.15694 11.3629 5.79312 11.7205L6.00663 10.7435ZM2.69082 9.44844C2.08192 8.96491 1.79188 8.36635 1.79188 7.616H0.791875C0.791875 8.67898 1.22716 9.56309 2.06893 10.2316L2.69082 9.44844ZM1.79188 7.616C1.79188 7.1625 1.9391 6.76519 2.2475 6.4054L1.48825 5.7546C1.02865 6.29081 0.791875 6.91749 0.791875 7.616H1.79188ZM2.25125 6.40097C2.56737 6.02338 3.02001 5.71626 3.63697 5.49454L3.29878 4.55346C2.55041 4.82241 1.93638 5.21928 1.4845 5.75903L2.25125 6.40097ZM3.64106 5.49305C4.26919 5.26112 4.99826 5.14 5.83588 5.14V4.14C4.90282 4.14 4.05323 4.27487 3.29469 4.55495L3.64106 5.49305ZM5.83588 5.14C6.77235 5.14 7.58311 5.29599 8.27815 5.59524L8.67361 4.67676C7.83264 4.31467 6.8834 4.14 5.83588 4.14V5.14ZM8.28582 5.59847C8.99146 5.88846 9.49945 6.28658 9.84051 6.78022L10.6632 6.21178C10.1936 5.53209 9.51762 5.02354 8.66593 4.67353L8.28582 5.59847ZM9.82674 6.75918C9.94485 6.94996 9.95988 7.04717 9.95988 7.072H10.9599C10.9599 6.77683 10.8362 6.49004 10.677 6.23282L9.82674 6.75918ZM9.96027 7.05202C9.95683 7.13818 9.92211 7.23832 9.75988 7.36L10.3599 8.16C10.7096 7.89768 10.9416 7.53915 10.9595 7.09198L9.96027 7.05202ZM9.77527 7.3489C9.7266 7.3826 9.66755 7.404 9.57987 7.404V8.404C9.85486 8.404 10.1158 8.3294 10.3445 8.1711L9.77527 7.3489ZM9.57987 7.404C9.39893 7.404 9.26718 7.34294 9.14799 7.19991L8.37976 7.84009C8.68724 8.20906 9.09949 8.404 9.57987 8.404V7.404ZM9.14889 7.20099C8.77901 6.75459 8.29112 6.41638 7.70482 6.17708L7.32693 7.10292C7.78597 7.29029 8.13008 7.53875 8.37886 7.83901L9.14889 7.20099ZM7.70818 6.17846C7.12962 5.93739 6.50351 5.82 5.83588 5.82V6.82C6.38424 6.82 6.87813 6.91594 7.32357 7.10154L7.70818 6.17846ZM5.83588 5.82C5.03681 5.82 4.34937 5.94214 3.81892 6.23389L4.30083 7.11011C4.62372 6.93252 5.12027 6.82 5.83588 6.82V5.82ZM3.82283 6.23176C3.27727 6.52553 2.93588 6.99264 2.93588 7.616H3.93588C3.93588 7.42869 4.01048 7.26647 4.29692 7.11224L3.82283 6.23176ZM2.93588 7.616C2.93588 8.22452 3.25509 8.70356 3.76907 9.04171L4.31868 8.20629C4.02199 8.0111 3.93588 7.81814 3.93588 7.616H2.93588ZM3.78183 9.04983C4.2717 9.35129 5.05475 9.61082 6.07507 9.84711L6.30068 8.87289C5.29433 8.63984 4.64805 8.40871 4.30592 8.19817L3.78183 9.04983ZM6.07207 9.8464C7.17157 10.1082 8.03253 10.4013 8.66827 10.7192L9.11548 9.82479C8.38589 9.45999 7.44418 9.14514 6.30369 8.8736L6.07207 9.8464ZM8.67391 10.722C9.30539 11.0279 9.72034 11.3723 9.96534 11.7356L10.7944 11.1764C10.4207 10.6224 9.84369 10.1775 9.10984 9.82201L8.67391 10.722ZM9.96981 11.7421C10.2231 12.1051 10.3599 12.551 10.3599 13.104H11.3599C11.3599 12.377 11.1767 11.7242 10.7899 11.1699L9.96981 11.7421ZM10.3599 13.104C10.3599 13.6043 10.2134 14.0348 9.92023 14.4143L10.7115 15.0257C11.1436 14.4665 11.3599 13.8197 11.3599 13.104H10.3599ZM9.92367 14.4099C9.62706 14.785 9.19517 15.0951 8.59938 15.3257L8.96037 16.2583C9.68725 15.9769 10.2794 15.5723 10.7081 15.0301L9.92367 14.4099ZM8.60597 15.3232C8.01185 15.5436 7.3049 15.66 6.47588 15.66V16.66C7.39618 16.66 8.22523 16.5311 8.95378 16.2608L8.60597 15.3232ZM12.6018 15.648L12.2561 16.0093L12.2561 16.0093L12.6018 15.648ZM12.6018 13.92L12.9474 14.2814L12.9553 14.2736L12.6018 13.92ZM14.4418 13.92L14.0803 14.2657L14.0882 14.2736L14.4418 13.92ZM14.4418 15.648L14.0961 15.2866L14.0882 15.2944L14.4418 15.648ZM13.5298 15.5C13.2712 15.5 13.09 15.4231 12.9474 15.2867L12.2561 16.0093C12.6042 16.3422 13.0417 16.5 13.5298 16.5V15.5ZM12.9474 15.2867C12.7977 15.1435 12.7338 14.9902 12.7338 14.8H11.7338C11.7338 15.2712 11.9152 15.6832 12.2561 16.0093L12.9474 15.2867ZM12.7338 14.8C12.7338 14.5788 12.8047 14.4178 12.9474 14.2813L12.2561 13.5587C11.9082 13.8915 11.7338 14.3172 11.7338 14.8H12.7338ZM12.9553 14.2736C13.0993 14.1296 13.2779 14.052 13.5298 14.052V13.052C13.035 13.052 12.5949 13.2197 12.2482 13.5664L12.9553 14.2736ZM13.5298 14.052C13.7817 14.052 13.95 14.1293 14.0804 14.2656L14.8031 13.5744C14.4642 13.2201 14.0245 13.052 13.5298 13.052V14.052ZM14.0882 14.2736C14.2415 14.4269 14.3098 14.5937 14.3098 14.8H15.3098C15.3098 14.3236 15.1327 13.9038 14.7953 13.5664L14.0882 14.2736ZM14.3098 14.8C14.3098 14.9902 14.2458 15.1435 14.0961 15.2867L14.7874 16.0093C15.1283 15.6832 15.3098 15.2712 15.3098 14.8H14.3098ZM14.0882 15.2944C13.9594 15.4233 13.7886 15.5 13.5298 15.5V16.5C14.0176 16.5 14.4548 16.342 14.7953 16.0016L14.0882 15.2944ZM18.9251 15.472L18.6951 15.916L18.6951 15.916L18.9251 15.472ZM16.8931 7.344L17.3325 7.58267L17.3337 7.58041L16.8931 7.344ZM18.9091 5.344L19.1413 5.78681L19.1433 5.78576L18.9091 5.344ZM24.7811 5.152L24.5934 5.61542L24.5934 5.61542L24.7811 5.152ZM26.6531 6.512L26.2467 6.80341L26.2531 6.812L26.6531 6.512ZM26.4131 7.76L26.1155 7.35821L26.1131 7.36L26.4131 7.76ZM25.4531 7.808L25.2417 8.26109L25.2544 8.26703L25.2674 8.27224L25.4531 7.808ZM25.0531 7.504L25.4373 7.18383L25.43 7.17543L25.0531 7.504ZM23.7891 6.608L23.6034 7.07232L23.6124 7.07574L23.7891 6.608ZM19.3091 7.408L19.6789 7.74462L19.6813 7.74188L19.3091 7.408ZM19.3091 13.408L18.9394 13.7446L18.9421 13.7476L19.3091 13.408ZM25.2771 13.296L24.9354 12.9307L24.926 12.9401L25.2771 13.296ZM26.7171 13.024L27.0452 12.6467L27.0375 12.64L27.0295 12.6336L26.7171 13.024ZM26.8771 14.288L27.2711 14.596L27.2743 14.5917L26.8771 14.288ZM24.9091 15.664L24.7285 15.1978L24.7265 15.1986L24.9091 15.664ZM22.0611 15.66C20.9193 15.66 19.956 15.443 19.1551 15.028L18.6951 15.916C19.6649 16.4184 20.7923 16.66 22.0611 16.66V15.66ZM19.1551 15.028C18.3572 14.6147 17.7534 14.0242 17.3325 13.2493L16.4538 13.7267C16.9715 14.6798 17.7224 15.412 18.6951 15.916L19.1551 15.028ZM17.3325 13.2493C16.9103 12.4722 16.6891 11.5336 16.6891 10.416H15.6891C15.6891 11.6664 15.9373 12.7758 16.4538 13.7267L17.3325 13.2493ZM16.6891 10.416C16.6891 9.29843 16.9103 8.35985 17.3325 7.58267L16.4538 7.10533C15.9373 8.05615 15.6891 9.16557 15.6891 10.416H16.6891ZM17.3337 7.58041C17.756 6.79335 18.3557 6.1988 19.1413 5.78681L18.6769 4.90119C17.7132 5.40653 16.9689 6.14532 16.4525 7.10759L17.3337 7.58041ZM19.1433 5.78576C19.9439 5.36138 20.9005 5.14 22.0291 5.14V4.14C20.7684 4.14 19.6451 4.38795 18.6749 4.90224L19.1433 5.78576ZM22.0291 5.14C22.9627 5.14 23.8156 5.30036 24.5934 5.61542L24.9688 4.68857C24.0613 4.32097 23.0796 4.14 22.0291 4.14V5.14ZM24.5934 5.61542C25.3748 5.93194 25.9111 6.33518 26.2468 6.80334L27.0595 6.22066C26.5845 5.55815 25.8728 5.05472 24.9688 4.68857L24.5934 5.61542ZM26.2531 6.812C26.3281 6.91192 26.3451 6.98507 26.3451 7.04H27.3451C27.3451 6.73227 27.2342 6.45341 27.0531 6.212L26.2531 6.812ZM26.3451 7.04C26.3451 7.09724 26.3237 7.20403 26.1155 7.35822L26.7107 8.16178C27.0786 7.8893 27.3451 7.5161 27.3451 7.04H26.3451ZM26.1131 7.36C26.0879 7.3789 26.0392 7.404 25.9331 7.404V8.404C26.2111 8.404 26.4823 8.3331 26.7131 8.16L26.1131 7.36ZM25.9331 7.404C25.8415 7.404 25.7443 7.38597 25.6388 7.34376L25.2674 8.27224C25.4819 8.35803 25.7048 8.404 25.9331 8.404V7.404ZM25.6646 7.35491C25.5671 7.30944 25.494 7.25207 25.4372 7.18391L24.669 7.82409C24.8255 8.01193 25.0191 8.15722 25.2417 8.26109L25.6646 7.35491ZM25.43 7.17543C25.0173 6.70206 24.5288 6.35294 23.9658 6.14026L23.6124 7.07574C24.0095 7.22573 24.3636 7.47393 24.6762 7.83257L25.43 7.17543ZM23.9748 6.14376C23.4194 5.92158 22.7656 5.82 22.0291 5.82V6.82C22.6793 6.82 23.1989 6.91042 23.6034 7.07224L23.9748 6.14376ZM22.0291 5.82C20.7544 5.82 19.7007 6.22266 18.9369 7.07412L19.6813 7.74188C20.2188 7.14268 20.9785 6.82 22.0291 6.82V5.82ZM18.9394 7.07139C18.1801 7.90536 17.8331 9.04334 17.8331 10.416H18.8331C18.8331 9.20732 19.1368 8.33998 19.6788 7.74461L18.9394 7.07139ZM17.8331 10.416C17.8331 11.7793 18.1808 12.9114 18.9394 13.7446L19.6788 13.0714C19.1361 12.4753 18.8331 11.6127 18.8331 10.416H17.8331ZM18.9421 13.7476C19.7172 14.5852 20.7794 14.98 22.0611 14.98V13.98C20.9962 13.98 20.2237 13.6601 19.6761 13.0684L18.9421 13.7476ZM22.0611 14.98C23.509 14.98 24.7168 14.5513 25.6283 13.6519L24.926 12.9401C24.2374 13.6194 23.3012 13.98 22.0611 13.98V14.98ZM25.6187 13.6611C25.9121 13.3867 26.0982 13.332 26.1891 13.332V12.332C25.7254 12.332 25.3035 12.5867 24.9355 12.9309L25.6187 13.6611ZM26.1891 13.332C26.2597 13.332 26.327 13.3522 26.4048 13.4144L27.0295 12.6336C26.7872 12.4398 26.5026 12.332 26.1891 12.332V13.332ZM26.389 13.4013C26.5569 13.5472 26.5851 13.654 26.5851 13.728H27.5851C27.5851 13.29 27.3681 12.9274 27.0452 12.6467L26.389 13.4013ZM26.5851 13.728C26.5851 13.7905 26.565 13.8731 26.4799 13.9843L27.2743 14.5917C27.4666 14.3402 27.5851 14.0495 27.5851 13.728H26.5851ZM26.4832 13.98C26.0915 14.4811 25.5169 14.8923 24.7285 15.1978L25.0898 16.1302C26.008 15.7744 26.7454 15.2683 27.271 14.596L26.4832 13.98ZM24.7265 15.1986C23.9508 15.5029 23.0649 15.66 22.0611 15.66V16.66C23.1694 16.66 24.1821 16.4864 25.0918 16.1294L24.7265 15.1986Z" fill="white" fill-opacity="0.5"/>
</svg>
