<svg width="98" height="50" viewBox="0 0 98 50" fill="none" xmlns="http://www.w3.org/2000/svg">
<path d="M27.9357 32.2621C28.7116 34.6016 28.1177 37.2146 26.4408 39.5692C24.7645 41.9231 22.0264 43.9816 18.6137 45.1573C15.201 46.3331 11.7992 46.3904 9.06566 45.556C6.33126 44.7214 4.30375 43.0117 3.52763 40.6716C2.75152 38.3314 3.34552 35.7186 5.02235 33.3643C6.69867 31.0106 9.43684 28.9525 12.8493 27.7768C16.2618 26.6011 19.6637 26.5441 22.3975 27.3784C25.1322 28.2131 27.1598 29.9227 27.9357 32.2621ZM41.8425 27.4708C42.6025 29.7623 42.6012 32.0533 42.0081 33.8973C41.4149 35.7416 40.2453 37.1053 38.6806 37.6443C37.116 38.1834 35.3745 37.8224 33.805 36.7231C32.2356 35.6239 30.8708 33.8036 30.111 31.5127C29.3512 29.2218 29.3525 26.9308 29.9456 25.0866C30.5388 23.2421 31.7083 21.8782 33.2729 21.3391C34.8375 20.8001 36.5791 21.161 38.1486 22.2604C39.7179 23.3596 41.0828 25.1799 41.8425 27.4708ZM47.5306 25.5111C48.2281 27.6139 48.6071 29.5847 48.6652 31.0633C48.6944 31.8061 48.6413 32.3952 48.5248 32.8058C48.403 33.2354 48.251 33.3469 48.1802 33.3713C48.1094 33.3957 47.9222 33.4011 47.5696 33.1348C47.2325 32.8803 46.8396 32.4448 46.4206 31.8362C45.5865 30.6247 44.7146 28.8237 44.0174 26.7215C43.3202 24.6192 42.9411 22.6484 42.883 21.1697C42.8538 20.4268 42.9069 19.8376 43.0234 19.4268C43.1453 18.9971 43.2973 18.8855 43.3683 18.8611C43.4392 18.8367 43.6264 18.8313 43.979 19.0974C44.3159 19.3518 44.7088 19.7873 45.1277 20.3958C45.9615 21.6072 46.8332 23.4083 47.5306 25.5111Z" fill="#323232" stroke="black"/>
<path d="M70.0304 17.6334C69.2653 15.3258 69.8657 12.7403 71.5491 10.4035C73.2318 8.06771 75.9744 6.01986 79.3882 4.84333C82.802 3.66678 86.2006 3.59777 88.928 4.41347C91.6566 5.22954 93.6724 6.91334 94.4377 9.22163C95.203 11.5299 94.6026 14.1153 92.9192 16.4518C91.2365 18.7873 88.4939 20.8348 85.0803 22.0113C81.6667 23.1877 78.2679 23.2566 75.5403 22.4408C72.8115 21.6247 70.7955 19.941 70.0304 17.6334ZM56.1241 22.4261C55.3739 20.1635 55.3832 17.8985 55.9817 16.0728C56.5801 14.2472 57.7528 12.8921 59.3198 12.3521C60.8868 11.812 62.6254 12.164 64.1877 13.2452C65.75 14.3264 67.1053 16.1211 67.8552 18.3831C68.6052 20.645 68.5959 22.9101 67.9975 24.7359C67.399 26.5618 66.2264 27.9171 64.6595 28.4572C63.0925 28.9972 61.3538 28.6452 59.7916 27.564C58.2293 26.4828 56.874 24.6881 56.1241 22.4261ZM50.4362 24.3864C49.7473 22.3087 49.376 20.3608 49.3232 18.8991C49.2967 18.1647 49.3518 17.5826 49.4692 17.1768C49.5919 16.7533 49.7436 16.641 49.817 16.6157C49.8903 16.5904 50.0778 16.5858 50.4274 16.8467C50.7623 17.0967 51.1526 17.5255 51.5686 18.1257C52.3966 19.3205 53.2606 21.0986 53.9493 23.1757C54.6379 25.2528 55.0093 27.2006 55.0621 28.6626C55.0886 29.397 55.0335 29.9793 54.916 30.3852C54.7933 30.8088 54.6415 30.9212 54.568 30.9466C54.4945 30.9719 54.307 30.9765 53.9575 30.7157C53.6227 30.4658 53.2325 30.0371 52.8166 29.4369C51.9888 28.2422 51.125 26.464 50.4362 24.3864Z" fill="#323232" stroke="black"/>
<path d="M30.6702 30.2117C31.3189 32.1684 30.8245 34.361 29.4114 36.3454C27.9988 38.3291 25.6886 40.0676 22.8055 41.0612C19.9224 42.0549 17.0516 42.1023 14.7483 41.3994C12.4443 40.6962 10.7465 39.2592 10.0976 37.3019C9.44863 35.3446 9.94309 33.152 11.3562 31.1679C12.7688 29.1844 15.079 27.4463 17.962 26.4527C20.8449 25.4591 23.7159 25.4118 26.0193 26.1148C28.3235 26.818 30.0214 28.2549 30.6702 30.2117ZM42.4731 26.1439C43.1134 28.0751 43.1111 30.003 42.613 31.5513C42.1149 33.0998 41.1366 34.2349 39.8367 34.6829C38.5368 35.1309 37.0835 34.8335 35.766 33.9106C34.4486 32.9879 33.2995 31.4568 32.6594 29.5261C32.0192 27.5954 32.0215 25.6675 32.5196 24.1191C33.0177 22.5704 33.996 21.4351 35.2958 20.9871C36.5956 20.5391 38.0489 20.8364 39.3665 21.7594C40.6839 22.6821 41.833 24.2132 42.4731 26.1439ZM47.3007 24.4801C47.8909 26.2602 48.2106 27.9257 48.2595 29.1718C48.2841 29.7983 48.2388 30.2893 48.1431 30.6269C48.0419 30.9835 47.9234 31.047 47.8992 31.0554C47.875 31.0637 47.743 31.0865 47.4503 30.8656C47.1733 30.6564 46.8451 30.2939 46.4917 29.7806C45.789 28.7597 45.052 27.238 44.4619 25.4584C43.8719 23.6789 43.5522 22.0133 43.5033 20.7671C43.4788 20.1405 43.524 19.6494 43.6198 19.3117C43.7209 18.9551 43.8395 18.8915 43.8638 18.8831C43.8882 18.8747 44.0202 18.8519 44.3127 19.0727C44.5897 19.2819 44.9178 19.6442 45.2711 20.1575C45.9736 21.1783 46.7105 22.7001 47.3007 24.4801Z" fill="#FF0000" stroke="black"/>
<path d="M66.5422 17.7482C65.9026 15.8189 66.4019 13.6499 67.8206 11.6806C69.2384 9.7124 71.5526 7.98312 74.4369 6.98907C77.3212 5.995 80.1897 5.93787 82.4879 6.62522C84.7873 7.31292 86.475 8.72815 87.1148 10.658C87.7546 12.5878 87.2552 14.7567 85.8366 16.7258C84.4187 18.6938 82.1046 20.4227 79.2204 21.4167C76.3363 22.4107 73.4677 22.4677 71.1693 21.7803C68.8696 21.0926 67.1819 19.6774 66.5422 17.7482ZM54.7393 21.816C54.1072 19.9095 54.1161 18.004 54.6184 16.4715C55.1208 14.939 56.1016 13.8109 57.4039 13.3621C58.7062 12.9133 60.1573 13.2035 61.4686 14.111C62.78 15.0186 63.9211 16.5278 64.553 18.4337C65.1849 20.3396 65.176 22.2452 64.6737 23.7779C64.1714 25.3105 63.1906 26.4388 61.8884 26.8876C60.5861 27.3364 59.135 27.0462 57.8236 26.1387C56.5122 25.2311 55.3712 23.7218 54.7393 21.816ZM49.9117 23.4797C49.3286 21.7211 49.0153 20.0752 48.9708 18.8435C48.9485 18.2243 48.9953 17.7393 49.0919 17.4058C49.1935 17.0547 49.3117 16.99 49.3385 16.9808C49.3653 16.9716 49.4977 16.9499 49.7875 17.1662C50.0627 17.3716 50.3886 17.7283 50.7394 18.2344C51.4371 19.2411 52.1675 20.7433 52.7504 22.5014C53.3333 24.2595 53.6466 25.9054 53.6911 27.1372C53.7135 27.7566 53.6666 28.2417 53.5701 28.5752C53.4684 28.9264 53.3502 28.9912 53.3233 29.0005C53.2963 29.0098 53.1639 29.0314 52.8741 28.8152C52.599 28.6099 52.2732 28.2533 51.9225 27.7471C51.225 26.7405 50.4947 25.2383 49.9117 23.4797Z" fill="#FF0000" stroke="black"/>
<path d="M10.3335 23.2887C9.28815 23.2887 8.30682 23.1181 7.38948 22.7767C6.47215 22.4247 5.67748 21.9234 5.00548 21.2727C4.84548 21.1127 4.76548 20.9314 4.76548 20.7287C4.76548 20.4941 4.87215 20.2701 5.08548 20.0567C5.25615 19.8861 5.44282 19.8007 5.64548 19.8007C5.85882 19.8007 6.11482 19.9234 6.41348 20.1687C6.91482 20.6274 7.50682 20.9847 8.18948 21.2407C8.88282 21.4861 9.59748 21.6087 10.3335 21.6087C11.0375 21.6087 11.5868 21.4914 11.9815 21.2567C12.3762 21.0114 12.5735 20.6701 12.5735 20.2327C12.5735 19.7741 12.3602 19.4061 11.9335 19.1287C11.5068 18.8407 10.7815 18.5847 9.75748 18.3607C8.14682 18.0087 6.97348 17.5447 6.23748 16.9687C5.51215 16.3927 5.14948 15.6514 5.14948 14.7447C5.14948 14.1687 5.34148 13.6567 5.72548 13.2087C6.10948 12.7501 6.64282 12.3981 7.32548 12.1527C8.01882 11.8967 8.80815 11.7687 9.69348 11.7687C10.6855 11.7687 11.5655 11.9341 12.3335 12.2647C13.1122 12.5847 13.7042 13.0381 14.1095 13.6247C14.2482 13.8487 14.3175 14.0407 14.3175 14.2007C14.3068 14.4674 14.1735 14.6967 13.9175 14.8887C13.7788 14.9847 13.6188 15.0327 13.4375 15.0327C13.1068 15.0327 12.8348 14.9047 12.6215 14.6487C12.3122 14.2754 11.8962 13.9821 11.3735 13.7687C10.8615 13.5554 10.3015 13.4487 9.69348 13.4487C8.93615 13.4487 8.34415 13.5661 7.91748 13.8007C7.50148 14.0247 7.29348 14.3394 7.29348 14.7447C7.29348 15.1501 7.49615 15.4861 7.90148 15.7527C8.31748 16.0087 9.03215 16.2541 10.0455 16.4887C11.1655 16.7554 12.0668 17.0594 12.7495 17.4007C13.4322 17.7314 13.9282 18.1261 14.2375 18.5847C14.5575 19.0434 14.7175 19.5927 14.7175 20.2327C14.7175 20.8407 14.5362 21.3794 14.1735 21.8487C13.8108 22.3074 13.2988 22.6647 12.6375 22.9207C11.9762 23.1661 11.2082 23.2887 10.3335 23.2887ZM17.3234 23.2887C17.0034 23.2887 16.7474 23.2034 16.5554 23.0327C16.3634 22.8621 16.2674 22.6274 16.2674 22.3287V16.2967C16.2674 14.8781 16.71 13.7687 17.5954 12.9687C18.4807 12.1687 19.7074 11.7687 21.2754 11.7687C22.8434 11.7687 24.07 12.1687 24.9554 12.9687C25.8407 13.7687 26.2834 14.8781 26.2834 16.2967V22.3287C26.2834 22.6274 26.1874 22.8621 25.9954 23.0327C25.8034 23.2034 25.5474 23.2887 25.2274 23.2887C24.9074 23.2887 24.646 23.2034 24.4434 23.0327C24.2514 22.8514 24.1554 22.6167 24.1554 22.3287V16.2487C24.1554 15.3421 23.91 14.6487 23.4194 14.1687C22.9287 13.6887 22.214 13.4487 21.2754 13.4487C20.3367 13.4487 19.622 13.6887 19.1314 14.1687C18.6407 14.6487 18.3954 15.3421 18.3954 16.2487V22.3287C18.3954 22.6167 18.294 22.8514 18.0914 23.0327C17.8994 23.2034 17.6434 23.2887 17.3234 23.2887ZM30.548 23.1287C29.7373 23.1287 29.108 22.9154 28.66 22.4887C28.212 22.0621 27.988 21.4647 27.988 20.6967V14.2967C27.988 13.5501 28.2013 12.9687 28.628 12.5527C29.0653 12.1367 29.668 11.9287 30.436 11.9287H35.412C35.732 11.9287 35.9773 12.0034 36.148 12.1527C36.3187 12.2914 36.404 12.4941 36.404 12.7607C36.404 13.0167 36.3133 13.2194 36.132 13.3687C35.9613 13.5074 35.7213 13.5767 35.412 13.5767H30.804C30.5907 13.5767 30.42 13.6461 30.292 13.7847C30.1747 13.9234 30.116 14.1154 30.116 14.3607V16.5847H34.196C34.516 16.5847 34.7613 16.6594 34.932 16.8087C35.1027 16.9474 35.188 17.1501 35.188 17.4167C35.188 17.6727 35.0973 17.8754 34.916 18.0247C34.7453 18.1634 34.5053 18.2327 34.196 18.2327H30.116V20.6967C30.116 20.9421 30.1747 21.1341 30.292 21.2727C30.42 21.4114 30.5907 21.4807 30.804 21.4807H35.764C36.084 21.4807 36.3293 21.5554 36.5 21.7047C36.6707 21.8434 36.756 22.0461 36.756 22.3127C36.756 22.5687 36.6653 22.7714 36.484 22.9207C36.3133 23.0594 36.0733 23.1287 35.764 23.1287H30.548ZM39.3702 23.2727C39.0502 23.2727 38.7942 23.1874 38.6022 23.0167C38.4102 22.8461 38.3142 22.6114 38.3142 22.3127V16.7127C38.3142 15.1661 38.7569 13.9554 39.6422 13.0807C40.5276 12.2061 41.7596 11.7687 43.3382 11.7687C44.3729 11.7687 45.2689 11.9661 46.0262 12.3607C46.7836 12.7554 47.3596 13.3261 47.7542 14.0727C48.1596 14.8194 48.3622 15.6994 48.3622 16.7127V22.3127C48.3622 22.6114 48.2662 22.8461 48.0742 23.0167C47.8822 23.1874 47.6262 23.2727 47.3062 23.2727C46.9862 23.2727 46.7249 23.1874 46.5222 23.0167C46.3302 22.8354 46.2342 22.6007 46.2342 22.3127V19.7047H40.4422V22.3127C40.4422 22.6007 40.3409 22.8354 40.1382 23.0167C39.9462 23.1874 39.6902 23.2727 39.3702 23.2727ZM46.2342 18.0567V16.6647C46.2342 15.5981 45.9889 14.7981 45.4982 14.2647C45.0182 13.7207 44.2982 13.4487 43.3382 13.4487C41.4076 13.4487 40.4422 14.5207 40.4422 16.6647V18.0567H46.2342ZM58.7057 23.2887C58.0337 23.2887 57.6551 23.0541 57.5697 22.5847C57.3671 21.4434 56.9671 20.4941 56.3697 19.7367C55.7831 18.9794 54.9244 18.3074 53.7937 17.7207L52.2097 19.0327V22.3287C52.2097 22.6167 52.1084 22.8514 51.9057 23.0327C51.7137 23.2034 51.4577 23.2887 51.1377 23.2887C50.8177 23.2887 50.5617 23.2034 50.3697 23.0327C50.1777 22.8621 50.0817 22.6274 50.0817 22.3287V12.7287C50.0817 12.4301 50.1777 12.1954 50.3697 12.0247C50.5617 11.8541 50.8177 11.7687 51.1377 11.7687C51.4577 11.7687 51.7137 11.8594 51.9057 12.0407C52.1084 12.2114 52.2097 12.4407 52.2097 12.7287V16.7127L57.5537 12.0567C57.7457 11.8754 57.9697 11.7847 58.2257 11.7847C58.4817 11.7847 58.7057 11.8861 58.8977 12.0887C59.1004 12.3127 59.2017 12.5207 59.2017 12.7127C59.2017 12.9367 59.0737 13.1607 58.8177 13.3847L55.1377 16.5847C56.4177 17.1394 57.4364 17.9234 58.1937 18.9367C58.9617 19.9394 59.4204 21.0487 59.5697 22.2647C59.6017 22.5421 59.5324 22.7821 59.3617 22.9847C59.1911 23.1874 58.9724 23.2887 58.7057 23.2887ZM63.7667 23.1287C62.9561 23.1287 62.3267 22.9154 61.8787 22.4887C61.4307 22.0621 61.2067 21.4647 61.2067 20.6967V14.2967C61.2067 13.5501 61.4201 12.9687 61.8467 12.5527C62.2841 12.1367 62.8867 11.9287 63.6547 11.9287H68.6307C68.9507 11.9287 69.1961 12.0034 69.3667 12.1527C69.5374 12.2914 69.6227 12.4941 69.6227 12.7607C69.6227 13.0167 69.5321 13.2194 69.3507 13.3687C69.1801 13.5074 68.9401 13.5767 68.6307 13.5767H64.0227C63.8094 13.5767 63.6387 13.6461 63.5107 13.7847C63.3934 13.9234 63.3347 14.1154 63.3347 14.3607V16.5847H67.4147C67.7347 16.5847 67.9801 16.6594 68.1507 16.8087C68.3214 16.9474 68.4067 17.1501 68.4067 17.4167C68.4067 17.6727 68.3161 17.8754 68.1347 18.0247C67.9641 18.1634 67.7241 18.2327 67.4147 18.2327H63.3347V20.6967C63.3347 20.9421 63.3934 21.1341 63.5107 21.2727C63.6387 21.4114 63.8094 21.4807 64.0227 21.4807H68.9827C69.3027 21.4807 69.5481 21.5554 69.7187 21.7047C69.8894 21.8434 69.9747 22.0461 69.9747 22.3127C69.9747 22.5687 69.8841 22.7714 69.7027 22.9207C69.5321 23.0594 69.2921 23.1287 68.9827 23.1287H63.7667ZM71.613 14.2967C71.613 13.5501 71.8263 12.9687 72.253 12.5527C72.6903 12.1367 73.293 11.9287 74.061 11.9287H76.909C78.4983 11.9287 79.6983 12.2381 80.509 12.8567C81.3197 13.4754 81.725 14.3981 81.725 15.6247C81.725 16.7661 81.3837 17.6567 80.701 18.2967C80.029 18.9367 79.1223 19.2567 77.981 19.2567L80.413 21.6727C80.605 21.8647 80.701 22.0834 80.701 22.3287C80.701 22.5847 80.589 22.8087 80.365 23.0007C80.1303 23.1821 79.901 23.2727 79.677 23.2727C79.3677 23.2727 79.085 23.1341 78.829 22.8567L75.373 19.3207H73.741V22.3287C73.741 22.6274 73.6397 22.8621 73.437 23.0327C73.2343 23.2034 72.9783 23.2887 72.669 23.2887C72.349 23.2887 72.093 23.2034 71.901 23.0327C71.709 22.8621 71.613 22.6274 71.613 22.3287V14.2967ZM76.845 17.6727C77.549 17.6727 78.0983 17.6034 78.493 17.4647C78.8877 17.3261 79.165 17.1127 79.325 16.8247C79.4957 16.5261 79.581 16.1261 79.581 15.6247C79.581 14.8994 79.357 14.3767 78.909 14.0567C78.4717 13.7367 77.7837 13.5767 76.845 13.5767H74.429C74.2157 13.5767 74.045 13.6461 73.917 13.7847C73.7997 13.9234 73.741 14.1154 73.741 14.3607V17.6727H76.845ZM88.771 23.2887C87.7257 23.2887 86.7443 23.1181 85.827 22.7767C84.9097 22.4247 84.115 21.9234 83.443 21.2727C83.283 21.1127 83.203 20.9314 83.203 20.7287C83.203 20.4941 83.3097 20.2701 83.523 20.0567C83.6937 19.8861 83.8803 19.8007 84.083 19.8007C84.2963 19.8007 84.5523 19.9234 84.851 20.1687C85.3523 20.6274 85.9443 20.9847 86.627 21.2407C87.3203 21.4861 88.035 21.6087 88.771 21.6087C89.475 21.6087 90.0243 21.4914 90.419 21.2567C90.8137 21.0114 91.011 20.6701 91.011 20.2327C91.011 19.7741 90.7977 19.4061 90.371 19.1287C89.9443 18.8407 89.219 18.5847 88.195 18.3607C86.5843 18.0087 85.411 17.5447 84.675 16.9687C83.9497 16.3927 83.587 15.6514 83.587 14.7447C83.587 14.1687 83.779 13.6567 84.163 13.2087C84.547 12.7501 85.0803 12.3981 85.763 12.1527C86.4563 11.8967 87.2457 11.7687 88.131 11.7687C89.123 11.7687 90.003 11.9341 90.771 12.2647C91.5497 12.5847 92.1417 13.0381 92.547 13.6247C92.6857 13.8487 92.755 14.0407 92.755 14.2007C92.7443 14.4674 92.611 14.6967 92.355 14.8887C92.2163 14.9847 92.0563 15.0327 91.875 15.0327C91.5443 15.0327 91.2723 14.9047 91.059 14.6487C90.7497 14.2754 90.3337 13.9821 89.811 13.7687C89.299 13.5554 88.739 13.4487 88.131 13.4487C87.3737 13.4487 86.7817 13.5661 86.355 13.8007C85.939 14.0247 85.731 14.3394 85.731 14.7447C85.731 15.1501 85.9337 15.4861 86.339 15.7527C86.755 16.0087 87.4697 16.2541 88.483 16.4887C89.603 16.7554 90.5043 17.0594 91.187 17.4007C91.8697 17.7314 92.3657 18.1261 92.675 18.5847C92.995 19.0434 93.155 19.5927 93.155 20.2327C93.155 20.8407 92.9737 21.3794 92.611 21.8487C92.2483 22.3074 91.7363 22.6647 91.075 22.9207C90.4137 23.1661 89.6457 23.2887 88.771 23.2887Z" fill="black"/>
<path d="M7.38948 22.7767L7.21035 23.2436L7.21512 23.2453L7.38948 22.7767ZM5.00548 21.2727L4.65188 21.6263L4.65768 21.6319L5.00548 21.2727ZM6.41348 20.1687L6.75099 19.7998L6.74115 19.7908L6.73085 19.7824L6.41348 20.1687ZM8.18948 21.2407L8.01389 21.709L8.02269 21.7121L8.18948 21.2407ZM11.9815 21.2567L12.2371 21.6866L12.2455 21.6814L11.9815 21.2567ZM11.9335 19.1287L11.6537 19.5432L11.661 19.5479L11.9335 19.1287ZM9.75748 18.3607L9.86433 17.8723L9.86424 17.8723L9.75748 18.3607ZM6.23748 16.9687L5.92654 17.3603L5.92933 17.3625L6.23748 16.9687ZM5.72548 13.2087L6.10514 13.5341L6.10886 13.5297L5.72548 13.2087ZM7.32548 12.1527L7.49459 12.6233L7.49867 12.6218L7.32548 12.1527ZM12.3335 12.2647L12.1357 12.724L12.1434 12.7272L12.3335 12.2647ZM14.1095 13.6247L14.5346 13.3615L14.528 13.3509L14.5208 13.3405L14.1095 13.6247ZM14.3175 14.2007L14.8171 14.2207L14.8175 14.2107V14.2007H14.3175ZM13.9175 14.8887L14.2021 15.2998L14.2099 15.2944L14.2175 15.2887L13.9175 14.8887ZM12.6215 14.6487L12.2365 14.9677L12.2374 14.9688L12.6215 14.6487ZM11.3735 13.7687L11.1812 14.2303L11.1845 14.2316L11.3735 13.7687ZM7.91748 13.8007L8.15454 14.241L8.15844 14.2388L7.91748 13.8007ZM7.90148 15.7527L7.62668 16.1704L7.63299 16.1746L7.63944 16.1786L7.90148 15.7527ZM10.0455 16.4887L10.1613 16.0023L10.1583 16.0016L10.0455 16.4887ZM12.7495 17.4007L12.5259 17.848L12.5315 17.8507L12.7495 17.4007ZM14.2375 18.5847L13.8229 18.8643L13.8274 18.8708L14.2375 18.5847ZM14.1735 21.8487L14.5657 22.1589L14.5691 22.1544L14.1735 21.8487ZM12.6375 22.9207L12.8114 23.3896L12.818 23.387L12.6375 22.9207ZM10.3335 22.7887C9.3436 22.7887 8.4217 22.6273 7.56385 22.3081L7.21512 23.2453C8.19194 23.6088 9.2327 23.7887 10.3335 23.7887V22.7887ZM7.56861 22.3099C6.71095 21.9808 5.97446 21.515 5.35329 20.9135L4.65768 21.6319C5.38051 22.3318 6.23335 22.8686 7.21036 23.2435L7.56861 22.3099ZM5.35904 20.9192C5.28086 20.841 5.26548 20.7828 5.26548 20.7287H4.26548C4.26548 21.08 4.41011 21.3845 4.65193 21.6263L5.35904 20.9192ZM5.26548 20.7287C5.26548 20.6616 5.29145 20.5579 5.43904 20.4103L4.73193 19.7032C4.45285 19.9822 4.26548 20.3265 4.26548 20.7287H5.26548ZM5.43904 20.4103C5.53514 20.3142 5.60032 20.3007 5.64548 20.3007V19.3007C5.28531 19.3007 4.97716 19.4579 4.73193 19.7032L5.43904 20.4103ZM5.64548 20.3007C5.68073 20.3007 5.82253 20.3304 6.09611 20.5551L6.73085 19.7824C6.4071 19.5164 6.0369 19.3007 5.64548 19.3007V20.3007ZM6.07598 20.5376C6.62781 21.0425 7.27583 21.4321 8.01392 21.7089L8.36505 20.7726C7.7378 20.5373 7.20183 20.2123 6.75099 19.7998L6.07598 20.5376ZM8.02269 21.7121C8.76963 21.9764 9.54071 22.1087 10.3335 22.1087V21.1087C9.65426 21.1087 8.996 20.9957 8.35627 20.7694L8.02269 21.7121ZM10.3335 22.1087C11.0833 22.1087 11.7343 21.9854 12.237 21.6865L11.7259 20.827C11.4393 20.9974 10.9917 21.1087 10.3335 21.1087V22.1087ZM12.2455 21.6814C12.7758 21.3517 13.0735 20.8556 13.0735 20.2327H12.0735C12.0735 20.4846 11.9765 20.6711 11.7175 20.8321L12.2455 21.6814ZM13.0735 20.2327C13.0735 19.584 12.7562 19.0671 12.206 18.7095L11.661 19.5479C11.9641 19.745 12.0735 19.9641 12.0735 20.2327H13.0735ZM12.2132 18.7143C11.7037 18.3704 10.8995 18.0987 9.86433 17.8723L9.65064 18.8492C10.6635 19.0707 11.3099 19.3111 11.6537 19.5431L12.2132 18.7143ZM9.86424 17.8723C8.27908 17.5258 7.19324 17.0818 6.54564 16.575L5.92933 17.3625C6.75373 18.0077 8.01455 18.4916 9.65073 18.8492L9.86424 17.8723ZM6.54842 16.5772C5.93953 16.0936 5.64948 15.4951 5.64948 14.7447H4.64948C4.64948 15.8077 5.08477 16.6918 5.92654 17.3603L6.54842 16.5772ZM5.64948 14.7447C5.64948 14.2912 5.79671 13.8939 6.10511 13.5341L5.34586 12.8833C4.88625 13.4195 4.64948 14.0462 4.64948 14.7447H5.64948ZM6.10886 13.5297C6.42498 13.1521 6.87762 12.845 7.49458 12.6233L7.15638 11.6822C6.40802 11.9511 5.79399 12.348 5.3421 12.8878L6.10886 13.5297ZM7.49867 12.6218C8.1268 12.3898 8.85587 12.2687 9.69348 12.2687V11.2687C8.76043 11.2687 7.91084 11.4036 7.1523 11.6837L7.49867 12.6218ZM9.69348 12.2687C10.63 12.2687 11.4407 12.4247 12.1358 12.724L12.5312 11.8055C11.6902 11.4434 10.741 11.2687 9.69348 11.2687V12.2687ZM12.1434 12.7272C12.8491 13.0172 13.3571 13.4153 13.6981 13.9089L14.5208 13.3405C14.0512 12.6608 13.3752 12.1523 12.5235 11.8023L12.1434 12.7272ZM13.6844 13.8879C13.8025 14.0787 13.8175 14.1759 13.8175 14.2007H14.8175C14.8175 13.9056 14.6938 13.6188 14.5346 13.3615L13.6844 13.8879ZM13.8179 14.1807C13.8144 14.2669 13.7797 14.367 13.6175 14.4887L14.2175 15.2887C14.5672 15.0264 14.7992 14.6679 14.8171 14.2207L13.8179 14.1807ZM13.6329 14.4776C13.5842 14.5113 13.5252 14.5327 13.4375 14.5327V15.5327C13.7125 15.5327 13.9734 15.4581 14.2021 15.2998L13.6329 14.4776ZM13.4375 14.5327C13.2565 14.5327 13.1248 14.4717 13.0056 14.3286L12.2374 14.9688C12.5448 15.3378 12.9571 15.5327 13.4375 15.5327V14.5327ZM13.0065 14.3297C12.6366 13.8833 12.1487 13.5451 11.5624 13.3058L11.1845 14.2316C11.6436 14.419 11.9877 14.6675 12.2365 14.9677L13.0065 14.3297ZM11.5658 13.3072C10.9872 13.0661 10.3611 12.9487 9.69348 12.9487V13.9487C10.2419 13.9487 10.7357 14.0447 11.1812 14.2303L11.5658 13.3072ZM9.69348 12.9487C8.89442 12.9487 8.20698 13.0709 7.67652 13.3626L8.15844 14.2388C8.48133 14.0612 8.97788 13.9487 9.69348 13.9487V12.9487ZM7.68043 13.3605C7.13488 13.6542 6.79348 14.1214 6.79348 14.7447H7.79348C7.79348 14.5574 7.86809 14.3952 8.15453 14.241L7.68043 13.3605ZM6.79348 14.7447C6.79348 15.3532 7.1127 15.8323 7.62668 16.1704L8.17629 15.335C7.8796 15.1398 7.79348 14.9469 7.79348 14.7447H6.79348ZM7.63944 16.1786C8.12931 16.48 8.91236 16.7395 9.93268 16.9758L10.1583 16.0016C9.15194 15.7686 8.50565 15.5374 8.16353 15.3269L7.63944 16.1786ZM9.92967 16.9751C11.0292 17.2369 11.8901 17.5301 12.5259 17.8479L12.9731 16.9535C12.2435 16.5887 11.3018 16.2739 10.1613 16.0023L9.92967 16.9751ZM12.5315 17.8507C13.163 18.1566 13.5779 18.501 13.8229 18.8643L14.652 18.3052C14.2784 17.7511 13.7013 17.3062 12.9674 16.9507L12.5315 17.8507ZM13.8274 18.8708C14.0807 19.2338 14.2175 19.6798 14.2175 20.2327H15.2175C15.2175 19.5057 15.0343 18.8529 14.6475 18.2986L13.8274 18.8708ZM14.2175 20.2327C14.2175 20.7331 14.071 21.1636 13.7778 21.543L14.5691 22.1544C15.0013 21.5952 15.2175 20.9484 15.2175 20.2327H14.2175ZM13.7813 21.5386C13.4847 21.9137 13.0528 22.2238 12.457 22.4544L12.818 23.387C13.5449 23.1056 14.137 22.7011 14.5657 22.1588L13.7813 21.5386ZM12.4636 22.4519C11.8695 22.6723 11.1625 22.7887 10.3335 22.7887V23.7887C11.2538 23.7887 12.0828 23.6598 12.8114 23.3895L12.4636 22.4519ZM16.5554 23.0327L16.8875 22.659L16.8875 22.659L16.5554 23.0327ZM17.5954 12.9687L17.2601 12.5977L17.2601 12.5977L17.5954 12.9687ZM24.9554 12.9687L25.2906 12.5977L25.2906 12.5977L24.9554 12.9687ZM25.9954 23.0327L26.3275 23.4064L26.3275 23.4064L25.9954 23.0327ZM24.4434 23.0327L24.1 23.3962L24.1104 23.406L24.1213 23.4152L24.4434 23.0327ZM23.4194 14.1687L23.0697 14.5261L23.0697 14.5261L23.4194 14.1687ZM19.1314 14.1687L19.481 14.5261L19.481 14.5261L19.1314 14.1687ZM18.0914 23.0327L18.4235 23.4064L18.4248 23.4053L18.0914 23.0327ZM17.3234 22.7887C17.0946 22.7887 16.9671 22.7297 16.8875 22.659L16.2232 23.4064C16.5276 23.6771 16.9122 23.7887 17.3234 23.7887V22.7887ZM16.8875 22.659C16.82 22.599 16.7674 22.5102 16.7674 22.3287H15.7674C15.7674 22.7446 15.9067 23.1251 16.2232 23.4064L16.8875 22.659ZM16.7674 22.3287V16.2967H15.7674V22.3287H16.7674ZM16.7674 16.2967C16.7674 14.9903 17.17 14.027 17.9306 13.3397L17.2601 12.5977C16.2501 13.5105 15.7674 14.7658 15.7674 16.2967H16.7674ZM17.9306 13.3397C18.6982 12.646 19.7914 12.2687 21.2754 12.2687V11.2687C19.6233 11.2687 18.2631 11.6914 17.2601 12.5977L17.9306 13.3397ZM21.2754 12.2687C22.7593 12.2687 23.8525 12.646 24.6201 13.3397L25.2906 12.5977C24.2876 11.6914 22.9274 11.2687 21.2754 11.2687V12.2687ZM24.6201 13.3397C25.3807 14.027 25.7834 14.9903 25.7834 16.2967H26.7834C26.7834 14.7658 26.3007 13.5105 25.2906 12.5977L24.6201 13.3397ZM25.7834 16.2967V22.3287H26.7834V16.2967H25.7834ZM25.7834 22.3287C25.7834 22.5102 25.7307 22.599 25.6632 22.659L26.3275 23.4064C26.644 23.1251 26.7834 22.7446 26.7834 22.3287H25.7834ZM25.6632 22.659C25.5836 22.7297 25.4562 22.7887 25.2274 22.7887V23.7887C25.6386 23.7887 26.0231 23.6771 26.3275 23.4064L25.6632 22.659ZM25.2274 22.7887C24.9997 22.7887 24.8602 22.7301 24.7654 22.6503L24.1213 23.4152C24.4319 23.6767 24.815 23.7887 25.2274 23.7887V22.7887ZM24.7867 22.6692C24.7043 22.5914 24.6554 22.493 24.6554 22.3287H23.6554C23.6554 22.7404 23.7984 23.1113 24.1 23.3962L24.7867 22.6692ZM24.6554 22.3287V16.2487H23.6554V22.3287H24.6554ZM24.6554 16.2487C24.6554 15.2524 24.3838 14.4127 23.769 13.8113L23.0697 14.5261C23.4363 14.8847 23.6554 15.4317 23.6554 16.2487H24.6554ZM23.769 13.8113C23.1549 13.2106 22.2957 12.9487 21.2754 12.9487V13.9487C22.1323 13.9487 22.7025 14.1669 23.0697 14.5261L23.769 13.8113ZM21.2754 12.9487C20.255 12.9487 19.3958 13.2106 18.7817 13.8113L19.481 14.5261C19.8482 14.1669 20.4184 13.9487 21.2754 13.9487V12.9487ZM18.7817 13.8113C18.1669 14.4127 17.8954 15.2524 17.8954 16.2487H18.8954C18.8954 15.4317 19.1144 14.8847 19.481 14.5261L18.7817 13.8113ZM17.8954 16.2487V22.3287H18.8954V16.2487H17.8954ZM17.8954 22.3287C17.8954 22.484 17.8477 22.5798 17.758 22.6601L18.4248 23.4053C18.7403 23.123 18.8954 22.7495 18.8954 22.3287H17.8954ZM17.7592 22.659C17.6796 22.7297 17.5522 22.7887 17.3234 22.7887V23.7887C17.7346 23.7887 18.1191 23.6771 18.4235 23.4064L17.7592 22.659ZM28.66 22.4887L29.0048 22.1267L29.0048 22.1267L28.66 22.4887ZM28.628 12.5527L28.2834 12.1904L28.2789 12.1947L28.628 12.5527ZM36.148 12.1527L35.8187 12.529L35.8256 12.535L35.8327 12.5408L36.148 12.1527ZM36.132 13.3687L36.4473 13.7568L36.4498 13.7547L36.132 13.3687ZM30.292 13.7847L29.9246 13.4456L29.9173 13.4535L29.9103 13.4618L30.292 13.7847ZM30.116 16.5847H29.616V17.0847H30.116V16.5847ZM34.932 16.8087L34.6027 17.185L34.6096 17.191L34.6167 17.1968L34.932 16.8087ZM34.916 18.0247L35.2313 18.4128L35.2338 18.4107L34.916 18.0247ZM30.116 18.2327V17.7327H29.616V18.2327H30.116ZM30.292 21.2727L29.9103 21.5957L29.9173 21.6039L29.9246 21.6119L30.292 21.2727ZM36.5 21.7047L36.1707 22.081L36.1776 22.087L36.1847 22.0928L36.5 21.7047ZM36.484 22.9207L36.7993 23.3088L36.8018 23.3067L36.484 22.9207ZM30.548 22.6287C29.8246 22.6287 29.3338 22.44 29.0048 22.1267L28.3152 22.8508C28.8822 23.3908 29.65 23.6287 30.548 23.6287V22.6287ZM29.0048 22.1267C28.6788 21.8162 28.488 21.3631 28.488 20.6967H27.488C27.488 21.5663 27.7452 22.3079 28.3152 22.8508L29.0048 22.1267ZM28.488 20.6967V14.2967H27.488V20.6967H28.488ZM28.488 14.2967C28.488 13.6487 28.67 13.2101 28.977 12.9107L28.2789 12.1947C27.7326 12.7274 27.488 13.4514 27.488 14.2967H28.488ZM28.9726 12.915C29.2936 12.6097 29.7599 12.4287 30.436 12.4287V11.4287C29.5761 11.4287 28.8371 11.6638 28.2834 12.1904L28.9726 12.915ZM30.436 12.4287H35.412V11.4287H30.436V12.4287ZM35.412 12.4287C35.6603 12.4287 35.7706 12.4869 35.8187 12.529L36.4772 11.7764C36.1841 11.5199 35.8037 11.4287 35.412 11.4287V12.4287ZM35.8327 12.5408C35.8616 12.5642 35.904 12.6093 35.904 12.7607H36.904C36.904 12.3789 36.7757 12.0185 36.4633 11.7647L35.8327 12.5408ZM35.904 12.7607C35.904 12.8826 35.8688 12.9377 35.8141 12.9828L36.4498 13.7547C36.7578 13.5011 36.904 13.1509 36.904 12.7607H35.904ZM35.8167 12.9807C35.7653 13.0225 35.6524 13.0767 35.412 13.0767V14.0767C35.7902 14.0767 36.1574 13.9923 36.4473 13.7568L35.8167 12.9807ZM35.412 13.0767H30.804V14.0767H35.412V13.0767ZM30.804 13.0767C30.4712 13.0767 30.1601 13.1905 29.9246 13.4456L30.6594 14.1239C30.6799 14.1016 30.7101 14.0767 30.804 14.0767V13.0767ZM29.9103 13.4618C29.6934 13.7181 29.616 14.0387 29.616 14.3607H30.616C30.616 14.192 30.6559 14.1287 30.6737 14.1077L29.9103 13.4618ZM29.616 14.3607V16.5847H30.616V14.3607H29.616ZM30.116 17.0847H34.196V16.0847H30.116V17.0847ZM34.196 17.0847C34.4443 17.0847 34.5546 17.1429 34.6027 17.185L35.2612 16.4324C34.9681 16.1759 34.5877 16.0847 34.196 16.0847V17.0847ZM34.6167 17.1968C34.6456 17.2202 34.688 17.2653 34.688 17.4167H35.688C35.688 17.0349 35.5597 16.6745 35.2473 16.4207L34.6167 17.1968ZM34.688 17.4167C34.688 17.5386 34.6528 17.5937 34.5981 17.6388L35.2338 18.4107C35.5418 18.1571 35.688 17.8069 35.688 17.4167H34.688ZM34.6007 17.6367C34.5493 17.6785 34.4364 17.7327 34.196 17.7327V18.7327C34.5742 18.7327 34.9414 18.6483 35.2313 18.4128L34.6007 17.6367ZM34.196 17.7327H30.116V18.7327H34.196V17.7327ZM29.616 18.2327V20.6967H30.616V18.2327H29.616ZM29.616 20.6967C29.616 21.0187 29.6934 21.3394 29.9103 21.5957L30.6737 20.9498C30.6559 20.9287 30.616 20.8654 30.616 20.6967H29.616ZM29.9246 21.6119C30.1601 21.867 30.4712 21.9807 30.804 21.9807V20.9807C30.7101 20.9807 30.6799 20.9558 30.6594 20.9336L29.9246 21.6119ZM30.804 21.9807H35.764V20.9807H30.804V21.9807ZM35.764 21.9807C36.0123 21.9807 36.1226 22.0389 36.1707 22.081L36.8292 21.3284C36.5361 21.0719 36.1557 20.9807 35.764 20.9807V21.9807ZM36.1847 22.0928C36.2136 22.1162 36.256 22.1613 36.256 22.3127H37.256C37.256 21.9309 37.1277 21.5705 36.8153 21.3167L36.1847 22.0928ZM36.256 22.3127C36.256 22.4346 36.2208 22.4897 36.1661 22.5348L36.8018 23.3067C37.1098 23.0531 37.256 22.7029 37.256 22.3127H36.256ZM36.1687 22.5327C36.1173 22.5745 36.0044 22.6287 35.764 22.6287V23.6287C36.1422 23.6287 36.5094 23.5443 36.7993 23.3088L36.1687 22.5327ZM35.764 22.6287H30.548V23.6287H35.764V22.6287ZM38.6022 23.0167L38.9344 22.643L38.9344 22.643L38.6022 23.0167ZM39.6422 13.0807L39.2908 12.725L39.2908 12.725L39.6422 13.0807ZM46.0262 12.3607L46.2573 11.9173L46.2573 11.9173L46.0262 12.3607ZM47.7542 14.0727L47.3122 14.3064L47.3148 14.3113L47.7542 14.0727ZM48.0742 23.0167L48.4064 23.3904L48.4064 23.3904L48.0742 23.0167ZM46.5222 23.0167L46.1789 23.3802L46.1893 23.39L46.2002 23.3992L46.5222 23.0167ZM46.2342 19.7047H46.7342V19.2047H46.2342V19.7047ZM40.4422 19.7047V19.2047H39.9422V19.7047H40.4422ZM40.1382 23.0167L40.4704 23.3904L40.4716 23.3893L40.1382 23.0167ZM46.2342 18.0567V18.5567H46.7342V18.0567H46.2342ZM45.4982 14.2647L45.1232 14.5956L45.1303 14.6033L45.4982 14.2647ZM40.4422 18.0567H39.9422V18.5567H40.4422V18.0567ZM39.3702 22.7727C39.1414 22.7727 39.0139 22.7137 38.9344 22.643L38.2701 23.3904C38.5745 23.6611 38.959 23.7727 39.3702 23.7727V22.7727ZM38.9344 22.643C38.8669 22.583 38.8142 22.4942 38.8142 22.3127H37.8142C37.8142 22.7286 37.9536 23.1091 38.2701 23.3904L38.9344 22.643ZM38.8142 22.3127V16.7127H37.8142V22.3127H38.8142ZM38.8142 16.7127C38.8142 15.2653 39.2253 14.1954 39.9936 13.4364L39.2908 12.725C38.2885 13.7153 37.8142 15.0668 37.8142 16.7127H38.8142ZM39.9936 13.4364C40.762 12.6773 41.8541 12.2687 43.3382 12.2687V11.2687C41.6651 11.2687 40.2932 11.7348 39.2908 12.725L39.9936 13.4364ZM43.3382 12.2687C44.3093 12.2687 45.1228 12.4537 45.7952 12.8041L46.2573 11.9173C45.415 11.4784 44.4365 11.2687 43.3382 11.2687V12.2687ZM45.7952 12.8041C46.4636 13.1525 46.9655 13.6505 47.3122 14.3064L48.1963 13.8391C47.7536 13.0016 47.1035 12.3583 46.2573 11.9173L45.7952 12.8041ZM47.3148 14.3113C47.6734 14.9718 47.8622 15.7667 47.8622 16.7127H48.8622C48.8622 15.6321 48.6457 14.667 48.1937 13.8342L47.3148 14.3113ZM47.8622 16.7127V22.3127H48.8622V16.7127H47.8622ZM47.8622 22.3127C47.8622 22.4942 47.8096 22.583 47.7421 22.643L48.4064 23.3904C48.7229 23.1091 48.8622 22.7286 48.8622 22.3127H47.8622ZM47.7421 22.643C47.6625 22.7137 47.535 22.7727 47.3062 22.7727V23.7727C47.7174 23.7727 48.1019 23.6611 48.4064 23.3904L47.7421 22.643ZM47.3062 22.7727C47.0786 22.7727 46.9391 22.7141 46.8443 22.6343L46.2002 23.3992C46.5107 23.6607 46.8939 23.7727 47.3062 23.7727V22.7727ZM46.8655 22.6532C46.7832 22.5754 46.7342 22.477 46.7342 22.3127H45.7342C45.7342 22.7244 45.8773 23.0953 46.1789 23.3802L46.8655 22.6532ZM46.7342 22.3127V19.7047H45.7342V22.3127H46.7342ZM46.2342 19.2047H40.4422V20.2047H46.2342V19.2047ZM39.9422 19.7047V22.3127H40.9422V19.7047H39.9422ZM39.9422 22.3127C39.9422 22.468 39.8946 22.5638 39.8048 22.6441L40.4716 23.3893C40.7872 23.107 40.9422 22.7335 40.9422 22.3127H39.9422ZM39.8061 22.643C39.7265 22.7137 39.599 22.7727 39.3702 22.7727V23.7727C39.7814 23.7727 40.1659 23.6611 40.4704 23.3904L39.8061 22.643ZM46.7342 18.0567V16.6647H45.7342V18.0567H46.7342ZM46.7342 16.6647C46.7342 15.5308 46.4743 14.5872 45.8662 13.9262L45.1303 14.6033C45.5035 15.0089 45.7342 15.6653 45.7342 16.6647H46.7342ZM45.8732 13.9339C45.27 13.2504 44.3927 12.9487 43.3382 12.9487V13.9487C44.2038 13.9487 44.7664 14.1911 45.1233 14.5955L45.8732 13.9339ZM43.3382 12.9487C42.2815 12.9487 41.4013 13.2445 40.7947 13.9181C40.197 14.5818 39.9422 15.5278 39.9422 16.6647H40.9422C40.9422 15.6576 41.1701 14.9956 41.5378 14.5873C41.8965 14.1889 42.4643 13.9487 43.3382 13.9487V12.9487ZM39.9422 16.6647V18.0567H40.9422V16.6647H39.9422ZM40.4422 18.5567H46.2342V17.5567H40.4422V18.5567ZM57.5697 22.5847L57.0774 22.6721L57.0778 22.6742L57.5697 22.5847ZM56.3697 19.7367L55.9744 20.0429L55.9772 20.0464L56.3697 19.7367ZM53.7937 17.7207L54.024 17.2769L53.7299 17.1243L53.4748 17.3357L53.7937 17.7207ZM52.2097 19.0327L51.8908 18.6477L51.7097 18.7976V19.0327H52.2097ZM51.9057 23.0327L52.2379 23.4064L52.2391 23.4053L51.9057 23.0327ZM50.3697 23.0327L50.0376 23.4064L50.0376 23.4064L50.3697 23.0327ZM50.3697 12.0247L50.7019 12.3984L50.7019 12.3984L50.3697 12.0247ZM51.9057 12.0407L51.5624 12.4042L51.5728 12.414L51.5837 12.4232L51.9057 12.0407ZM52.2097 16.7127H51.7097V17.8115L52.5382 17.0897L52.2097 16.7127ZM57.5537 12.0567L57.8822 12.4337L57.8898 12.4271L57.897 12.4202L57.5537 12.0567ZM58.8977 12.0887L59.2686 11.7532L59.2607 11.7448L58.8977 12.0887ZM58.8177 13.3847L59.1458 13.762L59.147 13.761L58.8177 13.3847ZM55.1377 16.5847L54.8096 16.2074L54.2109 16.728L54.9389 17.0435L55.1377 16.5847ZM58.1937 18.9367L57.7932 19.2361L57.7968 19.2408L58.1937 18.9367ZM59.5697 22.2647L60.0665 22.2074L60.066 22.2038L59.5697 22.2647ZM59.3617 22.9847L59.7442 23.3068L59.7442 23.3068L59.3617 22.9847ZM58.7057 22.7887C58.4188 22.7887 58.2608 22.7371 58.1811 22.6877C58.1213 22.6506 58.0811 22.6019 58.0617 22.4953L57.0778 22.6742C57.1437 23.0369 57.3355 23.3402 57.6544 23.5377C57.9533 23.723 58.3207 23.7887 58.7057 23.7887V22.7887ZM58.062 22.4973C57.8478 21.2911 57.42 20.261 56.7623 19.4271L55.9772 20.0464C56.5141 20.7271 56.8863 21.5957 57.0774 22.6721L58.062 22.4973ZM56.765 19.4305C56.1219 18.6003 55.1988 17.8865 54.024 17.2769L53.5635 18.1645C54.65 18.7283 55.4443 19.3585 55.9745 20.0429L56.765 19.4305ZM53.4748 17.3357L51.8908 18.6477L52.5287 19.4178L54.1127 18.1058L53.4748 17.3357ZM51.7097 19.0327V22.3287H52.7097V19.0327H51.7097ZM51.7097 22.3287C51.7097 22.484 51.6621 22.5798 51.5723 22.6601L52.2391 23.4053C52.5547 23.123 52.7097 22.7495 52.7097 22.3287H51.7097ZM51.5736 22.659C51.494 22.7297 51.3665 22.7887 51.1377 22.7887V23.7887C51.5489 23.7887 51.9334 23.6771 52.2379 23.4064L51.5736 22.659ZM51.1377 22.7887C50.9089 22.7887 50.7814 22.7297 50.7019 22.659L50.0376 23.4064C50.342 23.6771 50.7265 23.7887 51.1377 23.7887V22.7887ZM50.7019 22.659C50.6344 22.599 50.5817 22.5102 50.5817 22.3287H49.5817C49.5817 22.7446 49.7211 23.1251 50.0376 23.4064L50.7019 22.659ZM50.5817 22.3287V12.7287H49.5817V22.3287H50.5817ZM50.5817 12.7287C50.5817 12.5473 50.6344 12.4584 50.7019 12.3984L50.0376 11.651C49.7211 11.9323 49.5817 12.3128 49.5817 12.7287H50.5817ZM50.7019 12.3984C50.7814 12.3277 50.9089 12.2687 51.1377 12.2687V11.2687C50.7265 11.2687 50.342 11.3804 50.0376 11.651L50.7019 12.3984ZM51.1377 12.2687C51.3587 12.2687 51.4821 12.3284 51.5624 12.4042L52.249 11.6772C51.9453 11.3904 51.5568 11.2687 51.1377 11.2687V12.2687ZM51.5837 12.4232C51.6628 12.4899 51.7097 12.5737 51.7097 12.7287H52.7097C52.7097 12.3078 52.554 11.9329 52.2278 11.6583L51.5837 12.4232ZM51.7097 12.7287V16.7127H52.7097V12.7287H51.7097ZM52.5382 17.0897L57.8822 12.4337L57.2253 11.6797L51.8813 16.3357L52.5382 17.0897ZM57.897 12.4202C57.9995 12.3235 58.1018 12.2847 58.2257 12.2847V11.2847C57.8377 11.2847 57.492 11.4273 57.2104 11.6932L57.897 12.4202ZM58.2257 12.2847C58.3312 12.2847 58.4277 12.3196 58.5348 12.4326L59.2607 11.7448C58.9838 11.4525 58.6323 11.2847 58.2257 11.2847V12.2847ZM58.527 12.4242C58.692 12.6066 58.7017 12.699 58.7017 12.7127H59.7017C59.7017 12.3424 59.5088 12.0189 59.2685 11.7533L58.527 12.4242ZM58.7017 12.7127C58.7017 12.7314 58.6925 12.8299 58.4885 13.0084L59.147 13.761C59.455 13.4915 59.7017 13.142 59.7017 12.7127H58.7017ZM58.4896 13.0074L54.8096 16.2074L55.4658 16.962L59.1458 13.762L58.4896 13.0074ZM54.9389 17.0435C56.1474 17.5672 57.0933 18.2995 57.7932 19.236L58.5942 18.6374C57.7795 17.5472 56.6881 16.7116 55.3365 16.1259L54.9389 17.0435ZM57.7968 19.2408C58.5124 20.175 58.9353 21.2009 59.0735 22.3257L60.066 22.2038C59.9055 20.8965 59.4111 19.7038 58.5907 18.6327L57.7968 19.2408ZM59.073 22.322C59.0902 22.4708 59.056 22.5715 58.9793 22.6627L59.7442 23.3068C60.0088 22.9926 60.1133 22.6133 60.0664 22.2074L59.073 22.322ZM58.9793 22.6627C58.9043 22.7517 58.826 22.7887 58.7057 22.7887V23.7887C59.1188 23.7887 59.4778 23.6231 59.7442 23.3068L58.9793 22.6627ZM61.8787 22.4887L62.2236 22.1267L62.2236 22.1267L61.8787 22.4887ZM61.8467 12.5527L61.5021 12.1904L61.4977 12.1947L61.8467 12.5527ZM69.3667 12.1527L69.0375 12.529L69.0444 12.535L69.0514 12.5408L69.3667 12.1527ZM69.3507 13.3687L69.666 13.7568L69.6686 13.7547L69.3507 13.3687ZM63.5107 13.7847L63.1433 13.4456L63.136 13.4535L63.129 13.4618L63.5107 13.7847ZM63.3347 16.5847H62.8347V17.0847H63.3347V16.5847ZM68.1507 16.8087L67.8215 17.185L67.8284 17.191L67.8354 17.1968L68.1507 16.8087ZM68.1347 18.0247L68.45 18.4128L68.4526 18.4107L68.1347 18.0247ZM63.3347 18.2327V17.7327H62.8347V18.2327H63.3347ZM63.5107 21.2727L63.129 21.5957L63.136 21.6039L63.1433 21.6119L63.5107 21.2727ZM69.7187 21.7047L69.3895 22.081L69.3964 22.087L69.4034 22.0928L69.7187 21.7047ZM69.7027 22.9207L70.018 23.3088L70.0206 23.3067L69.7027 22.9207ZM63.7667 22.6287C63.0433 22.6287 62.5526 22.44 62.2236 22.1267L61.5339 22.8508C62.1009 23.3908 62.8688 23.6287 63.7667 23.6287V22.6287ZM62.2236 22.1267C61.8976 21.8162 61.7067 21.3631 61.7067 20.6967H60.7067C60.7067 21.5663 60.9639 22.3079 61.5339 22.8508L62.2236 22.1267ZM61.7067 20.6967V14.2967H60.7067V20.6967H61.7067ZM61.7067 14.2967C61.7067 13.6487 61.8888 13.2101 62.1958 12.9107L61.4977 12.1947C60.9514 12.7274 60.7067 13.4514 60.7067 14.2967H61.7067ZM62.1913 12.915C62.5123 12.6097 62.9786 12.4287 63.6547 12.4287V11.4287C62.7949 11.4287 62.0558 11.6638 61.5021 12.1904L62.1913 12.915ZM63.6547 12.4287H68.6307V11.4287H63.6547V12.4287ZM68.6307 12.4287C68.879 12.4287 68.9893 12.4869 69.0375 12.529L69.696 11.7764C69.4028 11.5199 69.0224 11.4287 68.6307 11.4287V12.4287ZM69.0514 12.5408C69.0803 12.5642 69.1227 12.6093 69.1227 12.7607H70.1227C70.1227 12.3789 69.9945 12.0185 69.682 11.7647L69.0514 12.5408ZM69.1227 12.7607C69.1227 12.8826 69.0876 12.9377 69.0329 12.9828L69.6686 13.7547C69.9765 13.5011 70.1227 13.1509 70.1227 12.7607H69.1227ZM69.0354 12.9807C68.984 13.0225 68.8712 13.0767 68.6307 13.0767V14.0767C69.009 14.0767 69.3761 13.9923 69.666 13.7568L69.0354 12.9807ZM68.6307 13.0767H64.0227V14.0767H68.6307V13.0767ZM64.0227 13.0767C63.69 13.0767 63.3788 13.1905 63.1433 13.4456L63.8781 14.1239C63.8987 14.1016 63.9288 14.0767 64.0227 14.0767V13.0767ZM63.129 13.4618C62.9122 13.7181 62.8347 14.0387 62.8347 14.3607H63.8347C63.8347 14.192 63.8746 14.1287 63.8924 14.1077L63.129 13.4618ZM62.8347 14.3607V16.5847H63.8347V14.3607H62.8347ZM63.3347 17.0847H67.4147V16.0847H63.3347V17.0847ZM67.4147 17.0847C67.663 17.0847 67.7733 17.1429 67.8215 17.185L68.48 16.4324C68.1868 16.1759 67.8064 16.0847 67.4147 16.0847V17.0847ZM67.8354 17.1968C67.8643 17.2202 67.9067 17.2653 67.9067 17.4167H68.9067C68.9067 17.0349 68.7785 16.6745 68.466 16.4207L67.8354 17.1968ZM67.9067 17.4167C67.9067 17.5386 67.8716 17.5937 67.8169 17.6388L68.4526 18.4107C68.7605 18.1571 68.9067 17.8069 68.9067 17.4167H67.9067ZM67.8194 17.6367C67.768 17.6785 67.6552 17.7327 67.4147 17.7327V18.7327C67.793 18.7327 68.1601 18.6483 68.45 18.4128L67.8194 17.6367ZM67.4147 17.7327H63.3347V18.7327H67.4147V17.7327ZM62.8347 18.2327V20.6967H63.8347V18.2327H62.8347ZM62.8347 20.6967C62.8347 21.0187 62.9122 21.3394 63.129 21.5957L63.8924 20.9498C63.8746 20.9287 63.8347 20.8654 63.8347 20.6967H62.8347ZM63.1433 21.6119C63.3788 21.867 63.69 21.9807 64.0227 21.9807V20.9807C63.9288 20.9807 63.8987 20.9558 63.8781 20.9336L63.1433 21.6119ZM64.0227 21.9807H68.9827V20.9807H64.0227V21.9807ZM68.9827 21.9807C69.231 21.9807 69.3413 22.0389 69.3895 22.081L70.048 21.3284C69.7548 21.0719 69.3744 20.9807 68.9827 20.9807V21.9807ZM69.4034 22.0928C69.4323 22.1162 69.4747 22.1613 69.4747 22.3127H70.4747C70.4747 21.9309 70.3465 21.5705 70.034 21.3167L69.4034 22.0928ZM69.4747 22.3127C69.4747 22.4346 69.4396 22.4897 69.3849 22.5348L70.0206 23.3067C70.3285 23.0531 70.4747 22.7029 70.4747 22.3127H69.4747ZM69.3874 22.5327C69.336 22.5745 69.2232 22.6287 68.9827 22.6287V23.6287C69.361 23.6287 69.7281 23.5443 70.018 23.3088L69.3874 22.5327ZM68.9827 22.6287H63.7667V23.6287H68.9827V22.6287ZM72.253 12.5527L71.9084 12.1904L71.9039 12.1947L72.253 12.5527ZM80.509 12.8567L80.2056 13.2542L80.2056 13.2542L80.509 12.8567ZM80.701 18.2967L80.359 17.9319L80.3562 17.9347L80.701 18.2967ZM77.981 19.2567V18.7567H76.7682L77.6286 19.6114L77.981 19.2567ZM80.413 21.6727L80.7665 21.3192L80.7654 21.318L80.413 21.6727ZM80.365 23.0007L80.6707 23.3964L80.6807 23.3886L80.6904 23.3804L80.365 23.0007ZM78.829 22.8567L79.1964 22.5176L79.1915 22.5123L79.1866 22.5072L78.829 22.8567ZM75.373 19.3207L75.7306 18.9712L75.5834 18.8207H75.373V19.3207ZM73.741 19.3207V18.8207H73.241V19.3207H73.741ZM73.437 23.0327L73.1149 22.6503L73.1149 22.6503L73.437 23.0327ZM71.901 23.0327L71.5688 23.4064L71.5688 23.4064L71.901 23.0327ZM78.493 17.4647L78.6587 17.9365L78.6587 17.9365L78.493 17.4647ZM79.325 16.8247L78.8908 16.5766L78.8879 16.5819L79.325 16.8247ZM78.909 14.0567L78.6137 14.4603L78.6184 14.4636L78.909 14.0567ZM73.917 13.7847L73.5496 13.4456L73.5423 13.4535L73.5353 13.4618L73.917 13.7847ZM73.741 17.6727H73.241V18.1727H73.741V17.6727ZM72.113 14.2967C72.113 13.6487 72.295 13.2101 72.602 12.9107L71.9039 12.1947C71.3576 12.7274 71.113 13.4514 71.113 14.2967H72.113ZM72.5976 12.915C72.9186 12.6097 73.3849 12.4287 74.061 12.4287V11.4287C73.2011 11.4287 72.4621 11.6638 71.9084 12.1904L72.5976 12.915ZM74.061 12.4287H76.909V11.4287H74.061V12.4287ZM76.909 12.4287C78.4461 12.4287 79.5188 12.73 80.2056 13.2542L80.8123 12.4592C79.8778 11.7461 78.5505 11.4287 76.909 11.4287V12.4287ZM80.2056 13.2542C80.8667 13.7587 81.225 14.5185 81.225 15.6247H82.225C82.225 14.2776 81.7726 13.1921 80.8123 12.4592L80.2056 13.2542ZM81.225 15.6247C81.225 16.6605 80.9193 17.4067 80.359 17.932L81.043 18.6615C81.848 17.9067 82.225 16.8716 82.225 15.6247H81.225ZM80.3562 17.9347C79.7974 18.4668 79.025 18.7567 77.981 18.7567V19.7567C79.2196 19.7567 80.2605 19.4067 81.0458 18.6588L80.3562 17.9347ZM77.6286 19.6114L80.0606 22.0274L80.7654 21.318L78.3334 18.902L77.6286 19.6114ZM80.0594 22.0263C80.1686 22.1355 80.201 22.2308 80.201 22.3287H81.201C81.201 21.936 81.0413 21.594 80.7665 21.3192L80.0594 22.0263ZM80.201 22.3287C80.201 22.4157 80.1715 22.508 80.0396 22.6211L80.6904 23.3804C81.0064 23.1095 81.201 22.7537 81.201 22.3287H80.201ZM80.0593 22.6051C79.8838 22.7407 79.7592 22.7727 79.677 22.7727V23.7727C80.0428 23.7727 80.3768 23.6235 80.6707 23.3964L80.0593 22.6051ZM79.677 22.7727C79.5372 22.7727 79.3802 22.7167 79.1964 22.5176L78.4616 23.1959C78.7898 23.5514 79.1981 23.7727 79.677 23.7727V22.7727ZM79.1866 22.5072L75.7306 18.9712L75.0154 19.6702L78.4714 23.2062L79.1866 22.5072ZM75.373 18.8207H73.741V19.8207H75.373V18.8207ZM73.241 19.3207V22.3287H74.241V19.3207H73.241ZM73.241 22.3287C73.241 22.501 73.1896 22.5874 73.1149 22.6503L73.7591 23.4152C74.0897 23.1367 74.241 22.7538 74.241 22.3287H73.241ZM73.1149 22.6503C73.0171 22.7326 72.8812 22.7887 72.669 22.7887V23.7887C73.0754 23.7887 73.4515 23.6741 73.7591 23.4152L73.1149 22.6503ZM72.669 22.7887C72.4402 22.7887 72.3127 22.7297 72.2332 22.659L71.5688 23.4064C71.8733 23.6771 72.2578 23.7887 72.669 23.7887V22.7887ZM72.2332 22.659C72.1657 22.599 72.113 22.5102 72.113 22.3287H71.113C71.113 22.7446 71.2523 23.1251 71.5688 23.4064L72.2332 22.659ZM72.113 22.3287V14.2967H71.113V22.3287H72.113ZM76.845 18.1727C77.5724 18.1727 78.1866 18.1023 78.6587 17.9365L78.3272 16.993C78.01 17.1045 77.5256 17.1727 76.845 17.1727V18.1727ZM78.6587 17.9365C79.1367 17.7685 79.528 17.4889 79.7621 17.0675L78.8879 16.5819C78.802 16.7365 78.6386 16.8836 78.3272 16.993L78.6587 17.9365ZM79.7591 17.0728C79.9883 16.6718 80.081 16.1758 80.081 15.6247H79.081C79.081 16.0763 79.003 16.3804 78.8909 16.5767L79.7591 17.0728ZM80.081 15.6247C80.081 14.7942 79.819 14.0923 79.1996 13.6499L78.6184 14.4636C78.895 14.6612 79.081 15.0045 79.081 15.6247H80.081ZM79.2042 13.6532C78.6385 13.2392 77.8204 13.0767 76.845 13.0767V14.0767C77.7469 14.0767 78.3048 14.2342 78.6137 14.4602L79.2042 13.6532ZM76.845 13.0767H74.429V14.0767H76.845V13.0767ZM74.429 13.0767C74.0962 13.0767 73.7851 13.1905 73.5496 13.4456L74.2844 14.1239C74.3049 14.1016 74.3351 14.0767 74.429 14.0767V13.0767ZM73.5353 13.4618C73.3184 13.7181 73.241 14.0387 73.241 14.3607H74.241C74.241 14.192 74.2809 14.1287 74.2987 14.1077L73.5353 13.4618ZM73.241 14.3607V17.6727H74.241V14.3607H73.241ZM73.741 18.1727H76.845V17.1727H73.741V18.1727ZM85.827 22.7767L85.6478 23.2436L85.6526 23.2453L85.827 22.7767ZM83.443 21.2727L83.0894 21.6263L83.0952 21.6319L83.443 21.2727ZM84.851 20.1687L85.1885 19.7998L85.1787 19.7908L85.1684 19.7824L84.851 20.1687ZM86.627 21.2407L86.4514 21.709L86.4602 21.7121L86.627 21.2407ZM90.419 21.2567L90.6746 21.6866L90.683 21.6814L90.419 21.2567ZM90.371 19.1287L90.0912 19.5432L90.0985 19.5479L90.371 19.1287ZM88.195 18.3607L88.3018 17.8723L88.3017 17.8723L88.195 18.3607ZM84.675 16.9687L84.364 17.3603L84.3668 17.3625L84.675 16.9687ZM84.163 13.2087L84.5426 13.5341L84.5464 13.5297L84.163 13.2087ZM85.763 12.1527L85.9321 12.6233L85.9362 12.6218L85.763 12.1527ZM90.771 12.2647L90.5732 12.724L90.5809 12.7272L90.771 12.2647ZM92.547 13.6247L92.9721 13.3615L92.9655 13.3509L92.9583 13.3405L92.547 13.6247ZM92.755 14.2007L93.2546 14.2207L93.255 14.2107V14.2007H92.755ZM92.355 14.8887L92.6396 15.2998L92.6474 15.2944L92.655 15.2887L92.355 14.8887ZM91.059 14.6487L90.674 14.9677L90.6749 14.9688L91.059 14.6487ZM89.811 13.7687L89.6187 14.2303L89.622 14.2316L89.811 13.7687ZM86.355 13.8007L86.592 14.241L86.5959 14.2388L86.355 13.8007ZM86.339 15.7527L86.0642 16.1704L86.0705 16.1746L86.0769 16.1786L86.339 15.7527ZM88.483 16.4887L88.5988 16.0023L88.5958 16.0016L88.483 16.4887ZM91.187 17.4007L90.9634 17.848L90.969 17.8507L91.187 17.4007ZM92.675 18.5847L92.2604 18.8643L92.2649 18.8708L92.675 18.5847ZM92.611 21.8487L93.0032 22.1589L93.0066 22.1544L92.611 21.8487ZM91.075 22.9207L91.2489 23.3896L91.2555 23.387L91.075 22.9207ZM88.771 22.7887C87.7811 22.7887 86.8592 22.6273 86.0014 22.3081L85.6526 23.2453C86.6294 23.6088 87.6702 23.7887 88.771 23.7887V22.7887ZM86.0061 22.3099C85.1484 21.9808 84.412 21.515 83.7908 20.9135L83.0952 21.6319C83.818 22.3318 84.6709 22.8686 85.6479 23.2435L86.0061 22.3099ZM83.7965 20.9192C83.7184 20.841 83.703 20.7828 83.703 20.7287H82.703C82.703 21.08 82.8476 21.3845 83.0894 21.6263L83.7965 20.9192ZM83.703 20.7287C83.703 20.6616 83.7289 20.5579 83.8765 20.4103L83.1694 19.7032C82.8904 19.9822 82.703 20.3265 82.703 20.7287H83.703ZM83.8765 20.4103C83.9726 20.3142 84.0378 20.3007 84.083 20.3007V19.3007C83.7228 19.3007 83.4147 19.4579 83.1694 19.7032L83.8765 20.4103ZM84.083 20.3007C84.1182 20.3007 84.26 20.3304 84.5336 20.5551L85.1684 19.7824C84.8446 19.5164 84.4744 19.3007 84.083 19.3007V20.3007ZM84.5135 20.5376C85.0653 21.0425 85.7133 21.4321 86.4514 21.7089L86.8025 20.7726C86.1753 20.5373 85.6393 20.2123 85.1885 19.7998L84.5135 20.5376ZM86.4602 21.7121C87.2071 21.9764 87.9782 22.1087 88.771 22.1087V21.1087C88.0918 21.1087 87.4335 20.9957 86.7938 20.7694L86.4602 21.7121ZM88.771 22.1087C89.5208 22.1087 90.1718 21.9854 90.6745 21.6865L90.1634 20.827C89.8768 20.9974 89.4292 21.1087 88.771 21.1087V22.1087ZM90.683 21.6814C91.2133 21.3517 91.511 20.8556 91.511 20.2327H90.511C90.511 20.4846 90.414 20.6711 90.155 20.8321L90.683 21.6814ZM91.511 20.2327C91.511 19.584 91.1937 19.0671 90.6435 18.7095L90.0985 19.5479C90.4016 19.745 90.511 19.9641 90.511 20.2327H91.511ZM90.6507 18.7143C90.1412 18.3704 89.337 18.0987 88.3018 17.8723L88.0881 18.8492C89.101 19.0707 89.7474 19.3111 90.0912 19.5431L90.6507 18.7143ZM88.3017 17.8723C86.7166 17.5258 85.6307 17.0818 84.9831 16.575L84.3668 17.3625C85.1912 18.0077 86.4521 18.4916 88.0882 18.8492L88.3017 17.8723ZM84.9859 16.5772C84.377 16.0936 84.087 15.4951 84.087 14.7447H83.087C83.087 15.8077 83.5223 16.6918 84.364 17.3603L84.9859 16.5772ZM84.087 14.7447C84.087 14.2912 84.2342 13.8939 84.5426 13.5341L83.7834 12.8833C83.3238 13.4195 83.087 14.0462 83.087 14.7447H84.087ZM84.5464 13.5297C84.8625 13.1521 85.3151 12.845 85.9321 12.6233L85.5939 11.6822C84.8455 11.9511 84.2315 12.348 83.7796 12.8878L84.5464 13.5297ZM85.9362 12.6218C86.5643 12.3898 87.2934 12.2687 88.131 12.2687V11.2687C87.1979 11.2687 86.3483 11.4036 85.5898 11.6837L85.9362 12.6218ZM88.131 12.2687C89.0675 12.2687 89.8782 12.4247 90.5733 12.724L90.9687 11.8055C90.1277 11.4434 89.1785 11.2687 88.131 11.2687V12.2687ZM90.5809 12.7272C91.2866 13.0172 91.7946 13.4153 92.1356 13.9089L92.9583 13.3405C92.4887 12.6608 91.8127 12.1523 90.961 11.8023L90.5809 12.7272ZM92.1219 13.8879C92.24 14.0787 92.255 14.1759 92.255 14.2007H93.255C93.255 13.9056 93.1313 13.6188 92.9721 13.3615L92.1219 13.8879ZM92.2554 14.1807C92.2519 14.2669 92.2172 14.367 92.055 14.4887L92.655 15.2887C93.0047 15.0264 93.2367 14.6679 93.2546 14.2207L92.2554 14.1807ZM92.0704 14.4776C92.0217 14.5113 91.9627 14.5327 91.875 14.5327V15.5327C92.15 15.5327 92.4109 15.4581 92.6396 15.2998L92.0704 14.4776ZM91.875 14.5327C91.694 14.5327 91.5623 14.4717 91.4431 14.3286L90.6749 14.9688C90.9823 15.3378 91.3946 15.5327 91.875 15.5327V14.5327ZM91.444 14.3297C91.0741 13.8833 90.5862 13.5451 89.9999 13.3058L89.622 14.2316C90.0811 14.419 90.4252 14.6675 90.674 14.9677L91.444 14.3297ZM90.0033 13.3072C89.4247 13.0661 88.7986 12.9487 88.131 12.9487V13.9487C88.6794 13.9487 89.1732 14.0447 89.6187 14.2303L90.0033 13.3072ZM88.131 12.9487C87.3319 12.9487 86.6445 13.0709 86.114 13.3626L86.5959 14.2388C86.9188 14.0612 87.4154 13.9487 88.131 13.9487V12.9487ZM86.1179 13.3605C85.5724 13.6542 85.231 14.1214 85.231 14.7447H86.231C86.231 14.5574 86.3056 14.3952 86.592 14.241L86.1179 13.3605ZM85.231 14.7447C85.231 15.3532 85.5502 15.8323 86.0642 16.1704L86.6138 15.335C86.3171 15.1398 86.231 14.9469 86.231 14.7447H85.231ZM86.0769 16.1786C86.5668 16.48 87.3499 16.7395 88.3702 16.9758L88.5958 16.0016C87.5894 15.7686 86.9432 15.5374 86.601 15.3269L86.0769 16.1786ZM88.3672 16.9751C89.4667 17.2369 90.3276 17.5301 90.9634 17.8479L91.4106 16.9535C90.681 16.5887 89.7393 16.2739 88.5988 16.0023L88.3672 16.9751ZM90.969 17.8507C91.6005 18.1566 92.0154 18.501 92.2604 18.8643L93.0895 18.3052C92.7159 17.7511 92.1388 17.3062 91.4049 16.9507L90.969 17.8507ZM92.2649 18.8708C92.5182 19.2338 92.655 19.6798 92.655 20.2327H93.655C93.655 19.5057 93.4718 18.8529 93.085 18.2986L92.2649 18.8708ZM92.655 20.2327C92.655 20.7331 92.5085 21.1636 92.2153 21.543L93.0066 22.1544C93.4388 21.5952 93.655 20.9484 93.655 20.2327H92.655ZM92.2188 21.5386C91.9222 21.9137 91.4903 22.2238 90.8945 22.4544L91.2555 23.387C91.9824 23.1056 92.5745 22.7011 93.0032 22.1588L92.2188 21.5386ZM90.9011 22.4519C90.307 22.6723 89.6 22.7887 88.771 22.7887V23.7887C89.6913 23.7887 90.5203 23.6598 91.2489 23.3895L90.9011 22.4519Z" fill="white"/>
<path d="M17.767 37.546C16.5617 37.546 15.5163 37.3167 14.631 36.858C13.7457 36.3994 13.0683 35.738 12.599 34.874C12.1297 34.01 11.895 32.986 11.895 31.802C11.895 30.618 12.1297 29.594 12.599 28.73C13.0683 27.8554 13.7403 27.1887 14.615 26.73C15.5003 26.2607 16.5403 26.026 17.735 26.026C18.727 26.026 19.6443 26.1967 20.487 26.538C21.3297 26.8794 21.9537 27.3327 22.359 27.898C22.487 28.0687 22.551 28.2447 22.551 28.426C22.551 28.6927 22.407 28.9327 22.119 29.146C21.991 29.242 21.831 29.29 21.639 29.29C21.479 29.29 21.319 29.258 21.159 29.194C20.999 29.1194 20.8657 29.018 20.759 28.89C20.3963 28.474 19.975 28.1754 19.495 27.994C19.015 27.802 18.4283 27.706 17.735 27.706C16.5723 27.706 15.6657 28.0687 15.015 28.794C14.3643 29.5087 14.039 30.5114 14.039 31.802C14.039 33.082 14.3643 34.0794 15.015 34.794C15.6763 35.5087 16.5937 35.866 17.767 35.866C19.111 35.866 20.183 35.4714 20.983 34.682C21.3137 34.3727 21.6177 34.218 21.895 34.218C22.087 34.218 22.263 34.282 22.423 34.41C22.6683 34.6234 22.791 34.858 22.791 35.114C22.791 35.306 22.7217 35.4927 22.583 35.674C22.1243 36.2607 21.4683 36.7194 20.615 37.05C19.7723 37.3807 18.823 37.546 17.767 37.546ZM29.342 37.546C28.3393 37.546 27.4593 37.3434 26.702 36.938C25.9553 36.5327 25.374 35.9567 24.958 35.21C24.5527 34.4527 24.35 33.562 24.35 32.538V26.986C24.35 26.6874 24.446 26.4527 24.638 26.282C24.83 26.1114 25.086 26.026 25.406 26.026C25.726 26.026 25.982 26.1167 26.174 26.298C26.3767 26.4687 26.478 26.698 26.478 26.986V32.586C26.478 33.642 26.7287 34.4527 27.23 35.018C27.7313 35.5834 28.4513 35.866 29.39 35.866C30.318 35.866 31.0327 35.5834 31.534 35.018C32.046 34.442 32.302 33.6314 32.302 32.586V26.986C32.302 26.698 32.398 26.4687 32.59 26.298C32.7927 26.1167 33.054 26.026 33.374 26.026C33.694 26.026 33.95 26.1114 34.142 26.282C34.334 26.4527 34.43 26.6874 34.43 26.986V32.538C34.43 33.53 34.2167 34.4047 33.79 35.162C33.374 35.9194 32.782 36.506 32.014 36.922C31.246 37.338 30.3553 37.546 29.342 37.546ZM38.7088 37.386C37.8981 37.386 37.2688 37.1727 36.8208 36.746C36.3728 36.3194 36.1488 35.722 36.1488 34.954V26.986C36.1488 26.6874 36.2448 26.4527 36.4368 26.282C36.6288 26.1114 36.8848 26.026 37.2048 26.026C37.5248 26.026 37.7808 26.1167 37.9728 26.298C38.1754 26.4687 38.2768 26.698 38.2768 26.986V34.954C38.2768 35.1994 38.3354 35.3914 38.4528 35.53C38.5808 35.6687 38.7514 35.738 38.9648 35.738H44.0848C44.4048 35.738 44.6501 35.8127 44.8208 35.962C44.9914 36.1007 45.0768 36.3034 45.0768 36.57C45.0768 36.826 44.9861 37.0287 44.8048 37.178C44.6341 37.3167 44.3941 37.386 44.0848 37.386H38.7088ZM48.3985 37.546C48.0785 37.546 47.8225 37.4607 47.6305 37.29C47.4385 37.1194 47.3425 36.8847 47.3425 36.586V27.834H44.2545C43.9452 27.834 43.6998 27.7647 43.5185 27.626C43.3478 27.4767 43.2625 27.274 43.2625 27.018C43.2625 26.7514 43.3478 26.5487 43.5185 26.41C43.6892 26.2607 43.9345 26.186 44.2545 26.186H52.5585C52.8785 26.186 53.1238 26.2607 53.2945 26.41C53.4652 26.5487 53.5505 26.7514 53.5505 27.018C53.5505 27.274 53.4598 27.4767 53.2785 27.626C53.1078 27.7647 52.8678 27.834 52.5585 27.834H49.4705V36.586C49.4705 36.874 49.3692 37.1087 49.1665 37.29C48.9745 37.4607 48.7185 37.546 48.3985 37.546ZM59.7795 37.546C58.7768 37.546 57.8968 37.3434 57.1395 36.938C56.3928 36.5327 55.8115 35.9567 55.3955 35.21C54.9902 34.4527 54.7875 33.562 54.7875 32.538V26.986C54.7875 26.6874 54.8835 26.4527 55.0755 26.282C55.2675 26.1114 55.5235 26.026 55.8435 26.026C56.1635 26.026 56.4195 26.1167 56.6115 26.298C56.8142 26.4687 56.9155 26.698 56.9155 26.986V32.586C56.9155 33.642 57.1662 34.4527 57.6675 35.018C58.1688 35.5834 58.8888 35.866 59.8275 35.866C60.7555 35.866 61.4702 35.5834 61.9715 35.018C62.4835 34.442 62.7395 33.6314 62.7395 32.586V26.986C62.7395 26.698 62.8355 26.4687 63.0275 26.298C63.2302 26.1167 63.4915 26.026 63.8115 26.026C64.1315 26.026 64.3875 26.1114 64.5795 26.282C64.7715 26.4527 64.8675 26.6874 64.8675 26.986V32.538C64.8675 33.53 64.6542 34.4047 64.2275 35.162C63.8115 35.9194 63.2195 36.506 62.4515 36.922C61.6835 37.338 60.7928 37.546 59.7795 37.546ZM66.5863 28.554C66.5863 27.8074 66.7996 27.226 67.2263 26.81C67.6636 26.394 68.2663 26.186 69.0343 26.186H71.8823C73.4716 26.186 74.6716 26.4954 75.4823 27.114C76.2929 27.7327 76.6983 28.6554 76.6983 29.882C76.6983 31.0234 76.3569 31.914 75.6743 32.554C75.0023 33.194 74.0956 33.514 72.9543 33.514L75.3863 35.93C75.5783 36.122 75.6743 36.3407 75.6743 36.586C75.6743 36.842 75.5623 37.066 75.3383 37.258C75.1036 37.4394 74.8743 37.53 74.6503 37.53C74.3409 37.53 74.0583 37.3914 73.8023 37.114L70.3463 33.578H68.7143V36.586C68.7143 36.8847 68.6129 37.1194 68.4103 37.29C68.2076 37.4607 67.9516 37.546 67.6423 37.546C67.3223 37.546 67.0663 37.4607 66.8743 37.29C66.6823 37.1194 66.5863 36.8847 66.5863 36.586V28.554ZM71.8183 31.93C72.5223 31.93 73.0716 31.8607 73.4663 31.722C73.8609 31.5834 74.1383 31.37 74.2983 31.082C74.4689 30.7834 74.5543 30.3834 74.5543 29.882C74.5543 29.1567 74.3303 28.634 73.8823 28.314C73.4449 27.994 72.7569 27.834 71.8183 27.834H69.4023C69.1889 27.834 69.0183 27.9034 68.8903 28.042C68.7729 28.1807 68.7143 28.3727 68.7143 28.618V31.93H71.8183ZM80.8963 37.386C80.0856 37.386 79.4563 37.1727 79.0083 36.746C78.5603 36.3194 78.3363 35.722 78.3363 34.954V28.554C78.3363 27.8074 78.5496 27.226 78.9763 26.81C79.4136 26.394 80.0163 26.186 80.7843 26.186H85.7603C86.0803 26.186 86.3256 26.2607 86.4963 26.41C86.6669 26.5487 86.7523 26.7514 86.7523 27.018C86.7523 27.274 86.6616 27.4767 86.4803 27.626C86.3096 27.7647 86.0696 27.834 85.7603 27.834H81.1523C80.9389 27.834 80.7683 27.9034 80.6403 28.042C80.5229 28.1807 80.4643 28.3727 80.4643 28.618V30.842H84.5443C84.8643 30.842 85.1096 30.9167 85.2803 31.066C85.4509 31.2047 85.5363 31.4074 85.5363 31.674C85.5363 31.93 85.4456 32.1327 85.2643 32.282C85.0936 32.4207 84.8536 32.49 84.5443 32.49H80.4643V34.954C80.4643 35.1994 80.5229 35.3914 80.6403 35.53C80.7683 35.6687 80.9389 35.738 81.1523 35.738H86.1123C86.4323 35.738 86.6776 35.8127 86.8483 35.962C87.0189 36.1007 87.1043 36.3034 87.1043 36.57C87.1043 36.826 87.0136 37.0287 86.8323 37.178C86.6616 37.3167 86.4216 37.386 86.1123 37.386H80.8963Z" fill="black"/>
<path d="M14.631 36.858L14.401 37.302L14.401 37.302L14.631 36.858ZM12.599 28.73L13.0384 28.9687L13.0396 28.9665L12.599 28.73ZM14.615 26.73L14.8472 27.1729L14.8492 27.1718L14.615 26.73ZM20.487 26.538L20.2993 27.0015L20.2993 27.0015L20.487 26.538ZM22.359 27.898L21.9526 28.1895L21.959 28.198L22.359 27.898ZM22.119 29.146L21.8214 28.7443L21.819 28.746L22.119 29.146ZM21.159 29.194L20.9476 29.6471L20.9603 29.6531L20.9733 29.6583L21.159 29.194ZM20.759 28.89L21.1432 28.5699L21.1359 28.5615L20.759 28.89ZM19.495 27.994L19.3093 28.4584L19.3183 28.4618L19.495 27.994ZM15.015 28.794L15.3847 29.1307L15.3872 29.1279L15.015 28.794ZM15.015 34.794L14.6453 35.1307L14.648 35.1336L15.015 34.794ZM20.983 34.682L20.6413 34.3168L20.6318 34.3261L20.983 34.682ZM22.423 34.41L22.7511 34.0327L22.7434 34.026L22.7354 34.0196L22.423 34.41ZM22.583 35.674L22.9769 35.982L22.9802 35.9778L22.583 35.674ZM20.615 37.05L20.4343 36.5838L20.4324 36.5846L20.615 37.05ZM17.767 37.046C16.6252 37.046 15.6619 36.829 14.861 36.4141L14.401 37.302C15.3708 37.8044 16.4982 38.046 17.767 38.046V37.046ZM14.861 36.4141C14.0631 36.0007 13.4593 35.4103 13.0384 34.6354L12.1596 35.1127C12.6774 36.0658 13.4283 36.7981 14.401 37.302L14.861 36.4141ZM13.0384 34.6354C12.6162 33.8582 12.395 32.9196 12.395 31.802H11.395C11.395 33.0525 11.6431 34.1619 12.1596 35.1127L13.0384 34.6354ZM12.395 31.802C12.395 30.6845 12.6162 29.7459 13.0384 28.9687L12.1596 28.4914C11.6431 29.4422 11.395 30.5516 11.395 31.802H12.395ZM13.0396 28.9665C13.4619 28.1794 14.0615 27.5848 14.8472 27.1729L14.3828 26.2872C13.4191 26.7926 12.6748 27.5314 12.1584 28.4936L13.0396 28.9665ZM14.8492 27.1718C15.6497 26.7474 16.6064 26.526 17.735 26.526V25.526C16.4743 25.526 15.3509 25.774 14.3808 26.2883L14.8492 27.1718ZM17.735 26.526C18.6686 26.526 19.5215 26.6864 20.2993 27.0015L20.6747 26.0746C19.7672 25.707 18.7855 25.526 17.735 25.526V26.526ZM20.2993 27.0015C21.0807 27.318 21.617 27.7212 21.9527 28.1894L22.7654 27.6067C22.2903 26.9442 21.5787 26.4408 20.6747 26.0746L20.2993 27.0015ZM21.959 28.198C22.0339 28.298 22.051 28.3711 22.051 28.426H23.051C23.051 28.1183 22.9401 27.8395 22.759 27.598L21.959 28.198ZM22.051 28.426C22.051 28.4833 22.0296 28.5901 21.8214 28.7443L22.4166 29.5478C22.7845 29.2754 23.051 28.9021 23.051 28.426H22.051ZM21.819 28.746C21.7938 28.7649 21.7451 28.79 21.639 28.79V29.79C21.9169 29.79 22.1882 29.7191 22.419 29.546L21.819 28.746ZM21.639 28.79C21.5474 28.79 21.4502 28.772 21.3447 28.7298L20.9733 29.6583C21.1878 29.7441 21.4106 29.79 21.639 29.79V28.79ZM21.3704 28.741C21.273 28.6955 21.1999 28.6381 21.1431 28.57L20.3749 29.2101C20.5314 29.398 20.725 29.5433 20.9476 29.6471L21.3704 28.741ZM21.1359 28.5615C20.7232 28.0881 20.2347 27.739 19.6717 27.5263L19.3183 28.4618C19.7153 28.6118 20.0695 28.86 20.3821 29.2186L21.1359 28.5615ZM19.6807 27.5298C19.1252 27.3076 18.4715 27.206 17.735 27.206V28.206C18.3852 28.206 18.9048 28.2965 19.3093 28.4583L19.6807 27.5298ZM17.735 27.206C16.4603 27.206 15.4066 27.6087 14.6428 28.4602L15.3872 29.1279C15.9247 28.5287 16.6844 28.206 17.735 28.206V27.206ZM14.6453 28.4574C13.886 29.2914 13.539 30.4294 13.539 31.802H14.539C14.539 30.5934 14.8427 29.726 15.3847 29.1307L14.6453 28.4574ZM13.539 31.802C13.539 33.1653 13.8866 34.2974 14.6453 35.1307L15.3847 34.4574C14.842 33.8614 14.539 32.9988 14.539 31.802H13.539ZM14.648 35.1336C15.4231 35.9713 16.4853 36.366 17.767 36.366V35.366C16.7021 35.366 15.9296 35.0462 15.382 34.4545L14.648 35.1336ZM17.767 36.366C19.2149 36.366 20.4227 35.9373 21.3342 35.038L20.6318 34.3261C19.9433 35.0055 19.0071 35.366 17.767 35.366V36.366ZM21.3246 35.0472C21.618 34.7727 21.8041 34.718 21.895 34.718V33.718C21.4312 33.718 21.0094 33.9727 20.6414 34.3169L21.3246 35.0472ZM21.895 34.718C21.9655 34.718 22.0329 34.7383 22.1107 34.8005L22.7354 34.0196C22.4931 33.8258 22.2085 33.718 21.895 33.718V34.718ZM22.0949 34.7874C22.2627 34.9333 22.291 35.0401 22.291 35.114H23.291C23.291 34.676 23.0739 34.3135 22.7511 34.0327L22.0949 34.7874ZM22.291 35.114C22.291 35.1766 22.2708 35.2592 22.1858 35.3703L22.9802 35.9778C23.1725 35.7263 23.291 35.4355 23.291 35.114H22.291ZM22.1891 35.3661C21.7974 35.8671 21.2228 36.2783 20.4343 36.5838L20.7957 37.5163C21.7139 37.1605 22.4513 36.6543 22.9769 35.982L22.1891 35.3661ZM20.4324 36.5846C19.6567 36.889 18.7707 37.046 17.767 37.046V38.046C18.8753 38.046 19.888 37.8725 20.7976 37.5155L20.4324 36.5846ZM26.702 36.938L26.4635 37.3775L26.4661 37.3789L26.702 36.938ZM24.958 35.21L24.5171 35.446L24.5212 35.4534L24.958 35.21ZM24.638 26.282L24.9702 26.6558L24.9702 26.6558L24.638 26.282ZM26.174 26.298L25.8307 26.6616L25.841 26.6713L25.8519 26.6805L26.174 26.298ZM27.23 35.018L26.8559 35.3498L26.8559 35.3498L27.23 35.018ZM31.534 35.018L31.1603 34.6859L31.1599 34.6863L31.534 35.018ZM32.59 26.298L32.9222 26.6718L32.9234 26.6707L32.59 26.298ZM34.142 26.282L33.8098 26.6558L33.8098 26.6558L34.142 26.282ZM33.79 35.162L33.3544 34.9166L33.3518 34.9213L33.79 35.162ZM32.014 36.922L31.7759 36.4824L31.7759 36.4824L32.014 36.922ZM29.342 37.046C28.4078 37.046 27.6114 36.8577 26.9379 36.4972L26.4661 37.3789C27.3073 37.8291 28.2708 38.046 29.342 38.046V37.046ZM26.9406 36.4986C26.2778 36.1388 25.7649 35.6311 25.3948 34.9667L24.5212 35.4534C24.9831 36.2824 25.6329 36.9266 26.4635 37.3775L26.9406 36.4986ZM25.3988 34.9741C25.0392 34.3021 24.85 33.4955 24.85 32.538H23.85C23.85 33.6286 24.0662 34.6033 24.5172 35.446L25.3988 34.9741ZM24.85 32.538V26.986H23.85V32.538H24.85ZM24.85 26.986C24.85 26.8046 24.9027 26.7158 24.9702 26.6558L24.3058 25.9083C23.9893 26.1897 23.85 26.5702 23.85 26.986H24.85ZM24.9702 26.6558C25.0497 26.5851 25.1772 26.526 25.406 26.526V25.526C24.9948 25.526 24.6103 25.6377 24.3058 25.9083L24.9702 26.6558ZM25.406 26.526C25.6269 26.526 25.7504 26.5857 25.8307 26.6616L26.5173 25.9345C26.2136 25.6477 25.8251 25.526 25.406 25.526V26.526ZM25.8519 26.6805C25.9311 26.7472 25.978 26.831 25.978 26.986H26.978C26.978 26.5651 26.8222 26.1903 26.4961 25.9156L25.8519 26.6805ZM25.978 26.986V32.586H26.978V26.986H25.978ZM25.978 32.586C25.978 33.7158 26.2462 34.6623 26.8559 35.3498L27.6041 34.6863C27.2111 34.2432 26.978 33.5683 26.978 32.586H25.978ZM26.8559 35.3498C27.4744 36.0472 28.3457 36.366 29.39 36.366V35.366C28.557 35.366 27.9883 35.1195 27.6041 34.6863L26.8559 35.3498ZM29.39 36.366C30.4257 36.366 31.2907 36.046 31.9081 35.3498L31.1599 34.6863C30.7746 35.1208 30.2103 35.366 29.39 35.366V36.366ZM31.9077 35.3502C32.5262 34.6544 32.802 33.7098 32.802 32.586H31.802C31.802 33.553 31.5658 34.2297 31.1603 34.6859L31.9077 35.3502ZM32.802 32.586V26.986H31.802V32.586H32.802ZM32.802 26.986C32.802 26.8216 32.8505 26.7354 32.9222 26.6718L32.2578 25.9243C31.9455 26.202 31.802 26.5745 31.802 26.986H32.802ZM32.9234 26.6707C33.0186 26.5855 33.154 26.526 33.374 26.526V25.526C32.954 25.526 32.5668 25.6479 32.2566 25.9254L32.9234 26.6707ZM33.374 26.526C33.6028 26.526 33.7303 26.5851 33.8098 26.6558L34.4742 25.9083C34.1697 25.6377 33.7852 25.526 33.374 25.526V26.526ZM33.8098 26.6558C33.8773 26.7158 33.93 26.8046 33.93 26.986H34.93C34.93 26.5702 34.7907 26.1897 34.4742 25.9083L33.8098 26.6558ZM33.93 26.986V32.538H34.93V26.986H33.93ZM33.93 32.538C33.93 33.4564 33.7332 34.2442 33.3544 34.9166L34.2256 35.4075C34.7002 34.5652 34.93 33.6037 34.93 32.538H33.93ZM33.3518 34.9213C32.9825 35.5936 32.4604 36.1116 31.7759 36.4824L32.2521 37.3617C33.1036 36.9005 33.7655 36.2452 34.2282 35.4028L33.3518 34.9213ZM31.7759 36.4824C31.0919 36.8529 30.2856 37.046 29.342 37.046V38.046C30.4251 38.046 31.4001 37.8232 32.2521 37.3617L31.7759 36.4824ZM36.8208 36.746L37.1656 36.384L37.1656 36.384L36.8208 36.746ZM36.4368 26.282L36.7689 26.6558L36.7689 26.6558L36.4368 26.282ZM37.9728 26.298L37.6294 26.6616L37.6398 26.6713L37.6507 26.6805L37.9728 26.298ZM38.4528 35.53L38.0711 35.853L38.078 35.8613L38.0854 35.8692L38.4528 35.53ZM44.8208 35.962L44.4915 36.3383L44.4984 36.3443L44.5055 36.3501L44.8208 35.962ZM44.8048 37.178L45.1201 37.5661L45.1226 37.564L44.8048 37.178ZM38.7088 36.886C37.9854 36.886 37.4946 36.6973 37.1656 36.384L36.4759 37.1081C37.0429 37.6481 37.8108 37.886 38.7088 37.886V36.886ZM37.1656 36.384C36.8396 36.0735 36.6488 35.6204 36.6488 34.954H35.6488C35.6488 35.8236 35.9059 36.5653 36.4759 37.1081L37.1656 36.384ZM36.6488 34.954V26.986H35.6488V34.954H36.6488ZM36.6488 26.986C36.6488 26.8046 36.7014 26.7158 36.7689 26.6558L36.1046 25.9083C35.7881 26.1897 35.6488 26.5702 35.6488 26.986H36.6488ZM36.7689 26.6558C36.8485 26.5851 36.976 26.526 37.2048 26.526V25.526C36.7936 25.526 36.409 25.6377 36.1046 25.9083L36.7689 26.6558ZM37.2048 26.526C37.4257 26.526 37.5491 26.5857 37.6294 26.6616L38.3161 25.9345C38.0124 25.6477 37.6238 25.526 37.2048 25.526V26.526ZM37.6507 26.6805C37.7299 26.7472 37.7768 26.831 37.7768 26.986H38.7768C38.7768 26.5651 38.621 26.1903 38.2948 25.9156L37.6507 26.6805ZM37.7768 26.986V34.954H38.7768V26.986H37.7768ZM37.7768 34.954C37.7768 35.276 37.8542 35.5967 38.0711 35.853L38.8344 35.2071C38.8167 35.1861 38.7768 35.1227 38.7768 34.954H37.7768ZM38.0854 35.8692C38.3208 36.1243 38.632 36.238 38.9648 36.238V35.238C38.8709 35.238 38.8407 35.2131 38.8202 35.1909L38.0854 35.8692ZM38.9648 36.238H44.0848V35.238H38.9648V36.238ZM44.0848 36.238C44.333 36.238 44.4433 36.2962 44.4915 36.3383L45.15 35.5858C44.8568 35.3292 44.4765 35.238 44.0848 35.238V36.238ZM44.5055 36.3501C44.5343 36.3736 44.5768 36.4186 44.5768 36.57H45.5768C45.5768 36.1882 45.4485 35.8279 45.1361 35.574L44.5055 36.3501ZM44.5768 36.57C44.5768 36.6919 44.5416 36.747 44.4869 36.7921L45.1226 37.564C45.4306 37.3104 45.5768 36.9602 45.5768 36.57H44.5768ZM44.4895 36.79C44.438 36.8318 44.3252 36.886 44.0848 36.886V37.886C44.463 37.886 44.8302 37.8016 45.1201 37.5661L44.4895 36.79ZM44.0848 36.886H38.7088V37.886H44.0848V36.886ZM47.6305 37.29L47.9627 36.9163L47.9627 36.9163L47.6305 37.29ZM47.3425 27.834H47.8425V27.334H47.3425V27.834ZM43.5185 27.626L43.1893 28.0023L43.2017 28.0132L43.2148 28.0232L43.5185 27.626ZM43.5185 26.41L43.8338 26.7981L43.8409 26.7923L43.8478 26.7863L43.5185 26.41ZM53.2945 26.41L52.9653 26.7863L52.9721 26.7923L52.9792 26.7981L53.2945 26.41ZM53.2785 27.626L53.5938 28.0141L53.5964 28.012L53.2785 27.626ZM49.4705 27.834V27.334H48.9705V27.834H49.4705ZM49.1665 37.29L49.4987 37.6638L49.4999 37.6627L49.1665 37.29ZM48.3985 37.046C48.1697 37.046 48.0422 36.987 47.9627 36.9163L47.2983 37.6638C47.6028 37.9344 47.9873 38.046 48.3985 38.046V37.046ZM47.9627 36.9163C47.8952 36.8563 47.8425 36.7675 47.8425 36.586H46.8425C46.8425 37.0019 46.9818 37.3824 47.2983 37.6638L47.9627 36.9163ZM47.8425 36.586V27.834H46.8425V36.586H47.8425ZM47.3425 27.334H44.2545V28.334H47.3425V27.334ZM44.2545 27.334C44.0164 27.334 43.89 27.2807 43.8222 27.2289L43.2148 28.0232C43.5097 28.2487 43.874 28.334 44.2545 28.334V27.334ZM43.8478 27.2498C43.8003 27.2082 43.7625 27.1506 43.7625 27.018H42.7625C42.7625 27.3975 42.8954 27.7452 43.1893 28.0023L43.8478 27.2498ZM43.7625 27.018C43.7625 26.8666 43.8049 26.8216 43.8338 26.7981L43.2032 26.022C42.8908 26.2759 42.7625 26.6362 42.7625 27.018H43.7625ZM43.8478 26.7863C43.8959 26.7442 44.0062 26.686 44.2545 26.686V25.686C43.8628 25.686 43.4824 25.7772 43.1893 26.0338L43.8478 26.7863ZM44.2545 26.686H52.5585V25.686H44.2545V26.686ZM52.5585 26.686C52.8068 26.686 52.9171 26.7442 52.9653 26.7863L53.6238 26.0338C53.3306 25.7772 52.9502 25.686 52.5585 25.686V26.686ZM52.9792 26.7981C53.0081 26.8216 53.0505 26.8666 53.0505 27.018H54.0505C54.0505 26.6362 53.9223 26.2759 53.6098 26.022L52.9792 26.7981ZM53.0505 27.018C53.0505 27.1399 53.0154 27.195 52.9607 27.2401L53.5964 28.012C53.9043 27.7584 54.0505 27.4082 54.0505 27.018H53.0505ZM52.9632 27.238C52.9118 27.2798 52.7989 27.334 52.5585 27.334V28.334C52.9367 28.334 53.3039 28.2496 53.5938 28.0141L52.9632 27.238ZM52.5585 27.334H49.4705V28.334H52.5585V27.334ZM48.9705 27.834V36.586H49.9705V27.834H48.9705ZM48.9705 36.586C48.9705 36.7413 48.9229 36.8371 48.8331 36.9174L49.4999 37.6627C49.8155 37.3803 49.9705 37.0068 49.9705 36.586H48.9705ZM48.8343 36.9163C48.7548 36.987 48.6273 37.046 48.3985 37.046V38.046C48.8097 38.046 49.1942 37.9344 49.4987 37.6638L48.8343 36.9163ZM57.1395 36.938L56.901 37.3775L56.9036 37.3789L57.1395 36.938ZM55.3955 35.21L54.9546 35.446L54.9587 35.4534L55.3955 35.21ZM55.0755 26.282L55.4077 26.6558L55.4077 26.6558L55.0755 26.282ZM56.6115 26.298L56.2682 26.6616L56.2785 26.6713L56.2894 26.6805L56.6115 26.298ZM57.6675 35.018L57.2934 35.3498L57.2934 35.3498L57.6675 35.018ZM61.9715 35.018L61.5978 34.6859L61.5974 34.6863L61.9715 35.018ZM63.0275 26.298L63.3597 26.6718L63.3609 26.6707L63.0275 26.298ZM64.5795 26.282L64.2473 26.6558L64.2473 26.6558L64.5795 26.282ZM64.2275 35.162L63.7919 34.9166L63.7893 34.9213L64.2275 35.162ZM62.4515 36.922L62.2134 36.4824L62.2134 36.4824L62.4515 36.922ZM59.7795 37.046C58.8453 37.046 58.0489 36.8577 57.3754 36.4972L56.9036 37.3789C57.7448 37.8291 58.7083 38.046 59.7795 38.046V37.046ZM57.3781 36.4986C56.7153 36.1388 56.2024 35.6311 55.8323 34.9667L54.9587 35.4534C55.4206 36.2824 56.0704 36.9266 56.901 37.3775L57.3781 36.4986ZM55.8363 34.9741C55.4767 34.3021 55.2875 33.4955 55.2875 32.538H54.2875C54.2875 33.6286 54.5037 34.6033 54.9547 35.446L55.8363 34.9741ZM55.2875 32.538V26.986H54.2875V32.538H55.2875ZM55.2875 26.986C55.2875 26.8046 55.3402 26.7158 55.4077 26.6558L54.7433 25.9083C54.4268 26.1897 54.2875 26.5702 54.2875 26.986H55.2875ZM55.4077 26.6558C55.4872 26.5851 55.6147 26.526 55.8435 26.526V25.526C55.4323 25.526 55.0478 25.6377 54.7433 25.9083L55.4077 26.6558ZM55.8435 26.526C56.0644 26.526 56.1879 26.5857 56.2682 26.6616L56.9548 25.9345C56.6511 25.6477 56.2626 25.526 55.8435 25.526V26.526ZM56.2894 26.6805C56.3686 26.7472 56.4155 26.831 56.4155 26.986H57.4155C57.4155 26.5651 57.2597 26.1903 56.9336 25.9156L56.2894 26.6805ZM56.4155 26.986V32.586H57.4155V26.986H56.4155ZM56.4155 32.586C56.4155 33.7158 56.6837 34.6623 57.2934 35.3498L58.0416 34.6863C57.6486 34.2432 57.4155 33.5683 57.4155 32.586H56.4155ZM57.2934 35.3498C57.9119 36.0472 58.7832 36.366 59.8275 36.366V35.366C58.9945 35.366 58.4258 35.1195 58.0416 34.6863L57.2934 35.3498ZM59.8275 36.366C60.8632 36.366 61.7282 36.046 62.3456 35.3498L61.5974 34.6863C61.2121 35.1208 60.6478 35.366 59.8275 35.366V36.366ZM62.3452 35.3502C62.9637 34.6544 63.2395 33.7098 63.2395 32.586H62.2395C62.2395 33.553 62.0033 34.2297 61.5978 34.6859L62.3452 35.3502ZM63.2395 32.586V26.986H62.2395V32.586H63.2395ZM63.2395 26.986C63.2395 26.8216 63.288 26.7354 63.3597 26.6718L62.6953 25.9243C62.383 26.202 62.2395 26.5745 62.2395 26.986H63.2395ZM63.3609 26.6707C63.4561 26.5855 63.5915 26.526 63.8115 26.526V25.526C63.3915 25.526 63.0043 25.6479 62.6941 25.9254L63.3609 26.6707ZM63.8115 26.526C64.0403 26.526 64.1678 26.5851 64.2473 26.6558L64.9117 25.9083C64.6072 25.6377 64.2227 25.526 63.8115 25.526V26.526ZM64.2473 26.6558C64.3148 26.7158 64.3675 26.8046 64.3675 26.986H65.3675C65.3675 26.5702 65.2282 26.1897 64.9117 25.9083L64.2473 26.6558ZM64.3675 26.986V32.538H65.3675V26.986H64.3675ZM64.3675 32.538C64.3675 33.4564 64.1707 34.2442 63.7919 34.9166L64.6631 35.4075C65.1377 34.5652 65.3675 33.6037 65.3675 32.538H64.3675ZM63.7893 34.9213C63.42 35.5936 62.8979 36.1116 62.2134 36.4824L62.6896 37.3617C63.5411 36.9005 64.203 36.2452 64.6657 35.4028L63.7893 34.9213ZM62.2134 36.4824C61.5294 36.8529 60.7231 37.046 59.7795 37.046V38.046C60.8626 38.046 61.8376 37.8232 62.6896 37.3617L62.2134 36.4824ZM67.2263 26.81L66.8816 26.4477L66.8772 26.452L67.2263 26.81ZM75.4823 27.114L75.1789 27.5115L75.1789 27.5115L75.4823 27.114ZM75.6743 32.554L75.3323 32.1893L75.3294 32.192L75.6743 32.554ZM72.9543 33.514V33.014H71.7415L72.6019 33.8688L72.9543 33.514ZM75.3863 35.93L75.7398 35.5765L75.7386 35.5753L75.3863 35.93ZM75.3383 37.258L75.644 37.6537L75.654 37.6459L75.6637 37.6377L75.3383 37.258ZM73.8023 37.114L74.1697 36.7749L74.1648 36.7697L74.1598 36.7646L73.8023 37.114ZM70.3463 33.578L70.7038 33.2286L70.5567 33.078H70.3463V33.578ZM68.7143 33.578V33.078H68.2143V33.578H68.7143ZM68.4103 37.29L68.0882 36.9076L68.0882 36.9076L68.4103 37.29ZM66.8743 37.29L66.5421 37.6638L66.5421 37.6638L66.8743 37.29ZM73.4663 31.722L73.632 32.1938L73.632 32.1938L73.4663 31.722ZM74.2983 31.082L73.8641 30.834L73.8612 30.8392L74.2983 31.082ZM73.8823 28.314L73.587 28.7176L73.5916 28.7209L73.8823 28.314ZM68.8903 28.042L68.5229 27.7029L68.5155 27.7108L68.5086 27.7191L68.8903 28.042ZM68.7143 31.93H68.2143V32.43H68.7143V31.93ZM67.0863 28.554C67.0863 27.906 67.2683 27.4674 67.5753 27.168L66.8772 26.452C66.3309 26.9847 66.0863 27.7087 66.0863 28.554H67.0863ZM67.5709 27.1723C67.8918 26.867 68.3581 26.686 69.0343 26.686V25.686C68.1744 25.686 67.4353 25.9211 66.8816 26.4478L67.5709 27.1723ZM69.0343 26.686H71.8823V25.686H69.0343V26.686ZM71.8823 26.686C73.4194 26.686 74.4921 26.9873 75.1789 27.5115L75.7856 26.7166C74.8511 26.0034 73.5238 25.686 71.8823 25.686V26.686ZM75.1789 27.5115C75.84 28.016 76.1983 28.7759 76.1983 29.882H77.1983C77.1983 28.5349 76.7459 27.4494 75.7856 26.7166L75.1789 27.5115ZM76.1983 29.882C76.1983 30.9178 75.8925 31.664 75.3323 32.1893L76.0162 32.9188C76.8213 32.1641 77.1983 31.1289 77.1983 29.882H76.1983ZM75.3294 32.192C74.7707 32.7241 73.9983 33.014 72.9543 33.014V34.014C74.1929 34.014 75.2338 33.664 76.0191 32.9161L75.3294 32.192ZM72.6019 33.8688L75.0339 36.2848L75.7386 35.5753L73.3066 33.1593L72.6019 33.8688ZM75.0327 36.2836C75.1419 36.3928 75.1743 36.4881 75.1743 36.586H76.1743C76.1743 36.1933 76.0146 35.8513 75.7398 35.5765L75.0327 36.2836ZM75.1743 36.586C75.1743 36.673 75.1448 36.7653 75.0129 36.8784L75.6637 37.6377C75.9797 37.3668 76.1743 37.0111 76.1743 36.586H75.1743ZM75.0325 36.8624C74.8571 36.998 74.7325 37.03 74.6503 37.03V38.03C75.0161 38.03 75.3501 37.8808 75.644 37.6537L75.0325 36.8624ZM74.6503 37.03C74.5105 37.03 74.3535 36.974 74.1697 36.7749L73.4349 37.4532C73.763 37.8087 74.1714 38.03 74.6503 38.03V37.03ZM74.1598 36.7646L70.7038 33.2286L69.9887 33.9275L73.4447 37.4635L74.1598 36.7646ZM70.3463 33.078H68.7143V34.078H70.3463V33.078ZM68.2143 33.578V36.586H69.2143V33.578H68.2143ZM68.2143 36.586C68.2143 36.7583 68.1629 36.8447 68.0882 36.9076L68.7323 37.6725C69.063 37.3941 69.2143 37.0111 69.2143 36.586H68.2143ZM68.0882 36.9076C67.9904 36.99 67.8545 37.046 67.6423 37.046V38.046C68.0487 38.046 68.4248 37.9315 68.7323 37.6725L68.0882 36.9076ZM67.6423 37.046C67.4135 37.046 67.286 36.987 67.2064 36.9163L66.5421 37.6638C66.8465 37.9344 67.2311 38.046 67.6423 38.046V37.046ZM67.2064 36.9163C67.1389 36.8563 67.0863 36.7675 67.0863 36.586H66.0863C66.0863 37.0019 66.2256 37.3824 66.5421 37.6638L67.2064 36.9163ZM67.0863 36.586V28.554H66.0863V36.586H67.0863ZM71.8183 32.43C72.5456 32.43 73.1599 32.3596 73.632 32.1938L73.3005 31.2503C72.9833 31.3618 72.4989 31.43 71.8183 31.43V32.43ZM73.632 32.1938C74.1099 32.0259 74.5012 31.7462 74.7353 31.3249L73.8612 30.8392C73.7753 30.9939 73.6119 31.1409 73.3005 31.2503L73.632 32.1938ZM74.7324 31.3301C74.9615 30.9291 75.0543 30.4332 75.0543 29.882H74.0543C74.0543 30.3336 73.9763 30.6377 73.8641 30.834L74.7324 31.3301ZM75.0543 29.882C75.0543 29.0516 74.7922 28.3496 74.1729 27.9072L73.5916 28.7209C73.8683 28.9185 74.0543 29.2619 74.0543 29.882H75.0543ZM74.1775 27.9105C73.6117 27.4965 72.7937 27.334 71.8183 27.334V28.334C72.7201 28.334 73.2781 28.4916 73.587 28.7176L74.1775 27.9105ZM71.8183 27.334H69.4023V28.334H71.8183V27.334ZM69.4023 27.334C69.0695 27.334 68.7583 27.4478 68.5229 27.7029L69.2577 28.3812C69.2782 28.359 69.3084 28.334 69.4023 28.334V27.334ZM68.5086 27.7191C68.2917 27.9754 68.2143 28.2961 68.2143 28.618H69.2143C69.2143 28.4494 69.2542 28.386 69.2719 28.365L68.5086 27.7191ZM68.2143 28.618V31.93H69.2143V28.618H68.2143ZM68.7143 32.43H71.8183V31.43H68.7143V32.43ZM79.0083 36.746L79.3531 36.384L79.3531 36.384L79.0083 36.746ZM78.9763 26.81L78.6316 26.4477L78.6272 26.452L78.9763 26.81ZM86.4963 26.41L86.167 26.7863L86.1739 26.7923L86.181 26.7981L86.4963 26.41ZM86.4803 27.626L86.7956 28.0141L86.7981 28.012L86.4803 27.626ZM80.6403 28.042L80.2729 27.7029L80.2655 27.7108L80.2586 27.7191L80.6403 28.042ZM80.4643 30.842H79.9643V31.342H80.4643V30.842ZM85.2803 31.066L84.951 31.4423L84.9579 31.4483L84.965 31.4541L85.2803 31.066ZM85.2643 32.282L85.5796 32.6701L85.5821 32.668L85.2643 32.282ZM80.4643 32.49V31.99H79.9643V32.49H80.4643ZM80.6403 35.53L80.2586 35.853L80.2655 35.8613L80.2729 35.8692L80.6403 35.53ZM86.8483 35.962L86.519 36.3383L86.5259 36.3443L86.533 36.3501L86.8483 35.962ZM86.8323 37.178L87.1476 37.5661L87.1501 37.564L86.8323 37.178ZM80.8963 36.886C80.1729 36.886 79.6821 36.6973 79.3531 36.384L78.6634 37.1081C79.2304 37.6481 79.9983 37.886 80.8963 37.886V36.886ZM79.3531 36.384C79.0271 36.0735 78.8363 35.6204 78.8363 34.954H77.8363C77.8363 35.8236 78.0934 36.5653 78.6634 37.1081L79.3531 36.384ZM78.8363 34.954V28.554H77.8363V34.954H78.8363ZM78.8363 28.554C78.8363 27.906 79.0183 27.4674 79.3253 27.168L78.6272 26.452C78.0809 26.9847 77.8363 27.7087 77.8363 28.554H78.8363ZM79.3209 27.1723C79.6418 26.867 80.1081 26.686 80.7843 26.686V25.686C79.9244 25.686 79.1853 25.9211 78.6316 26.4478L79.3209 27.1723ZM80.7843 26.686H85.7603V25.686H80.7843V26.686ZM85.7603 26.686C86.0085 26.686 86.1188 26.7442 86.167 26.7863L86.8255 26.0338C86.5323 25.7772 86.152 25.686 85.7603 25.686V26.686ZM86.181 26.7981C86.2098 26.8216 86.2523 26.8666 86.2523 27.018H87.2523C87.2523 26.6362 87.124 26.2759 86.8116 26.022L86.181 26.7981ZM86.2523 27.018C86.2523 27.1399 86.2171 27.195 86.1624 27.2401L86.7981 28.012C87.1061 27.7584 87.2523 27.4082 87.2523 27.018H86.2523ZM86.165 27.238C86.1135 27.2798 86.0007 27.334 85.7603 27.334V28.334C86.1385 28.334 86.5057 28.2496 86.7956 28.0141L86.165 27.238ZM85.7603 27.334H81.1523V28.334H85.7603V27.334ZM81.1523 27.334C80.8195 27.334 80.5083 27.4478 80.2729 27.7029L81.0077 28.3812C81.0282 28.359 81.0584 28.334 81.1523 28.334V27.334ZM80.2586 27.7191C80.0417 27.9754 79.9643 28.2961 79.9643 28.618H80.9643C80.9643 28.4494 81.0042 28.386 81.0219 28.365L80.2586 27.7191ZM79.9643 28.618V30.842H80.9643V28.618H79.9643ZM80.4643 31.342H84.5443V30.342H80.4643V31.342ZM84.5443 31.342C84.7926 31.342 84.9028 31.4002 84.951 31.4423L85.6095 30.6898C85.3163 30.4332 84.936 30.342 84.5443 30.342V31.342ZM84.965 31.4541C84.9938 31.4776 85.0363 31.5226 85.0363 31.674H86.0363C86.0363 31.2922 85.908 30.9319 85.5956 30.678L84.965 31.4541ZM85.0363 31.674C85.0363 31.7959 85.0011 31.851 84.9464 31.8961L85.5821 32.668C85.8901 32.4144 86.0363 32.0642 86.0363 31.674H85.0363ZM84.949 31.894C84.8975 31.9358 84.7847 31.99 84.5443 31.99V32.99C84.9225 32.99 85.2897 32.9056 85.5796 32.6701L84.949 31.894ZM84.5443 31.99H80.4643V32.99H84.5443V31.99ZM79.9643 32.49V34.954H80.9643V32.49H79.9643ZM79.9643 34.954C79.9643 35.276 80.0417 35.5967 80.2586 35.853L81.0219 35.2071C81.0042 35.1861 80.9643 35.1227 80.9643 34.954H79.9643ZM80.2729 35.8692C80.5083 36.1243 80.8195 36.238 81.1523 36.238V35.238C81.0584 35.238 81.0282 35.2131 81.0077 35.1909L80.2729 35.8692ZM81.1523 36.238H86.1123V35.238H81.1523V36.238ZM86.1123 36.238C86.3606 36.238 86.4708 36.2962 86.519 36.3383L87.1775 35.5858C86.8843 35.3292 86.504 35.238 86.1123 35.238V36.238ZM86.533 36.3501C86.5618 36.3736 86.6043 36.4186 86.6043 36.57H87.6043C87.6043 36.1882 87.476 35.8279 87.1636 35.574L86.533 36.3501ZM86.6043 36.57C86.6043 36.6919 86.5691 36.747 86.5144 36.7921L87.1501 37.564C87.4581 37.3104 87.6043 36.9602 87.6043 36.57H86.6043ZM86.517 36.79C86.4655 36.8318 86.3527 36.886 86.1123 36.886V37.886C86.4905 37.886 86.8577 37.8016 87.1476 37.5661L86.517 36.79ZM86.1123 36.886H80.8963V37.886H86.1123V36.886Z" fill="white"/>
</svg>
