<svg width="172" height="21" viewBox="0 0 172 21" fill="none" xmlns="http://www.w3.org/2000/svg">
<path d="M6.37431 16.16C5.32898 16.16 4.34765 15.9893 3.43031 15.648C2.51298 15.296 1.71831 14.7947 1.04631 14.144C0.886313 13.984 0.806313 13.8027 0.806313 13.6C0.806313 13.3653 0.912979 13.1413 1.12631 12.928C1.29698 12.7573 1.48365 12.672 1.68631 12.672C1.89965 12.672 2.15565 12.7947 2.45431 13.04C2.95565 13.4987 3.54765 13.856 4.23031 14.112C4.92365 14.3573 5.63831 14.48 6.37431 14.48C7.07831 14.48 7.62765 14.3627 8.02231 14.128C8.41698 13.8827 8.61431 13.5413 8.61431 13.104C8.61431 12.6453 8.40098 12.2773 7.97431 12C7.54765 11.712 6.82231 11.456 5.79831 11.232C4.18765 10.88 3.01431 10.416 2.27831 9.84C1.55298 9.264 1.19031 8.52267 1.19031 7.616C1.19031 7.04 1.38231 6.528 1.76631 6.08C2.15031 5.62133 2.68365 5.26933 3.36631 5.024C4.05965 4.768 4.84898 4.64 5.73431 4.64C6.72631 4.64 7.60631 4.80533 8.37431 5.136C9.15298 5.456 9.74498 5.90933 10.1503 6.496C10.289 6.72 10.3583 6.912 10.3583 7.072C10.3476 7.33867 10.2143 7.568 9.95831 7.76C9.81965 7.856 9.65965 7.904 9.47831 7.904C9.14765 7.904 8.87565 7.776 8.66231 7.52C8.35298 7.14667 7.93698 6.85333 7.41431 6.64C6.90231 6.42667 6.34231 6.32 5.73431 6.32C4.97698 6.32 4.38498 6.43733 3.95831 6.672C3.54231 6.896 3.33431 7.21067 3.33431 7.616C3.33431 8.02133 3.53698 8.35733 3.94231 8.624C4.35831 8.88 5.07298 9.12533 6.08631 9.36C7.20631 9.62667 8.10765 9.93067 8.79031 10.272C9.47298 10.6027 9.96898 10.9973 10.2783 11.456C10.5983 11.9147 10.7583 12.464 10.7583 13.104C10.7583 13.712 10.577 14.2507 10.2143 14.72C9.85165 15.1787 9.33965 15.536 8.67831 15.792C8.01698 16.0373 7.24898 16.16 6.37431 16.16ZM13.3642 16.16C13.0442 16.16 12.7882 16.0747 12.5962 15.904C12.4042 15.7333 12.3082 15.4987 12.3082 15.2V9.168C12.3082 7.74933 12.7509 6.64 13.6362 5.84C14.5215 5.04 15.7482 4.64 17.3162 4.64C18.8842 4.64 20.1109 5.04 20.9962 5.84C21.8815 6.64 22.3242 7.74933 22.3242 9.168V15.2C22.3242 15.4987 22.2282 15.7333 22.0362 15.904C21.8442 16.0747 21.5882 16.16 21.2682 16.16C20.9482 16.16 20.6869 16.0747 20.4842 15.904C20.2922 15.7227 20.1962 15.488 20.1962 15.2V9.12C20.1962 8.21333 19.9509 7.52 19.4602 7.04C18.9695 6.56 18.2549 6.32 17.3162 6.32C16.3775 6.32 15.6629 6.56 15.1722 7.04C14.6815 7.52 14.4362 8.21333 14.4362 9.12V15.2C14.4362 15.488 14.3349 15.7227 14.1322 15.904C13.9402 16.0747 13.6842 16.16 13.3642 16.16ZM26.5888 16C25.7781 16 25.1488 15.7867 24.7008 15.36C24.2528 14.9333 24.0288 14.336 24.0288 13.568V7.168C24.0288 6.42133 24.2421 5.84 24.6688 5.424C25.1061 5.008 25.7088 4.8 26.4768 4.8H31.4528C31.7728 4.8 32.0181 4.87467 32.1888 5.024C32.3595 5.16267 32.4448 5.36533 32.4448 5.632C32.4448 5.888 32.3541 6.09067 32.1728 6.24C32.0021 6.37867 31.7621 6.448 31.4528 6.448H26.8448C26.6315 6.448 26.4608 6.51733 26.3328 6.656C26.2155 6.79467 26.1568 6.98667 26.1568 7.232V9.456H30.2368C30.5568 9.456 30.8021 9.53067 30.9728 9.68C31.1435 9.81867 31.2288 10.0213 31.2288 10.288C31.2288 10.544 31.1381 10.7467 30.9568 10.896C30.7861 11.0347 30.5461 11.104 30.2368 11.104H26.1568V13.568C26.1568 13.8133 26.2155 14.0053 26.3328 14.144C26.4608 14.2827 26.6315 14.352 26.8448 14.352H31.8048C32.1248 14.352 32.3701 14.4267 32.5408 14.576C32.7115 14.7147 32.7968 14.9173 32.7968 15.184C32.7968 15.44 32.7061 15.6427 32.5248 15.792C32.3541 15.9307 32.1141 16 31.8048 16H26.5888ZM35.4111 16.144C35.0911 16.144 34.8351 16.0587 34.6431 15.888C34.4511 15.7173 34.3551 15.4827 34.3551 15.184V9.584C34.3551 8.03733 34.7977 6.82667 35.6831 5.952C36.5684 5.07733 37.8004 4.64 39.3791 4.64C40.4137 4.64 41.3097 4.83733 42.0671 5.232C42.8244 5.62667 43.4004 6.19733 43.7951 6.944C44.2004 7.69067 44.4031 8.57067 44.4031 9.584V15.184C44.4031 15.4827 44.3071 15.7173 44.1151 15.888C43.9231 16.0587 43.6671 16.144 43.3471 16.144C43.0271 16.144 42.7657 16.0587 42.5631 15.888C42.3711 15.7067 42.2751 15.472 42.2751 15.184V12.576H36.4831V15.184C36.4831 15.472 36.3817 15.7067 36.1791 15.888C35.9871 16.0587 35.7311 16.144 35.4111 16.144ZM42.2751 10.928V9.536C42.2751 8.46933 42.0297 7.66933 41.5391 7.136C41.0591 6.592 40.3391 6.32 39.3791 6.32C37.4484 6.32 36.4831 7.392 36.4831 9.536V10.928H42.2751ZM54.7466 16.16C54.0746 16.16 53.6959 15.9253 53.6106 15.456C53.4079 14.3147 53.0079 13.3653 52.4106 12.608C51.8239 11.8507 50.9652 11.1787 49.8346 10.592L48.2506 11.904V15.2C48.2506 15.488 48.1492 15.7227 47.9466 15.904C47.7546 16.0747 47.4986 16.16 47.1786 16.16C46.8586 16.16 46.6026 16.0747 46.4106 15.904C46.2186 15.7333 46.1226 15.4987 46.1226 15.2V5.6C46.1226 5.30133 46.2186 5.06667 46.4106 4.896C46.6026 4.72533 46.8586 4.64 47.1786 4.64C47.4986 4.64 47.7546 4.73067 47.9466 4.912C48.1492 5.08267 48.2506 5.312 48.2506 5.6V9.584L53.5946 4.928C53.7866 4.74667 54.0106 4.656 54.2666 4.656C54.5226 4.656 54.7466 4.75733 54.9386 4.96C55.1412 5.184 55.2426 5.392 55.2426 5.584C55.2426 5.808 55.1146 6.032 54.8586 6.256L51.1786 9.456C52.4586 10.0107 53.4772 10.7947 54.2346 11.808C55.0026 12.8107 55.4612 13.92 55.6106 15.136C55.6426 15.4133 55.5732 15.6533 55.4026 15.856C55.2319 16.0587 55.0132 16.16 54.7466 16.16ZM59.8076 16C58.9969 16 58.3676 15.7867 57.9196 15.36C57.4716 14.9333 57.2476 14.336 57.2476 13.568V7.168C57.2476 6.42133 57.4609 5.84 57.8876 5.424C58.3249 5.008 58.9276 4.8 59.6956 4.8H64.6716C64.9916 4.8 65.2369 4.87467 65.4076 5.024C65.5782 5.16267 65.6636 5.36533 65.6636 5.632C65.6636 5.888 65.5729 6.09067 65.3916 6.24C65.2209 6.37867 64.9809 6.448 64.6716 6.448H60.0636C59.8502 6.448 59.6796 6.51733 59.5516 6.656C59.4342 6.79467 59.3756 6.98667 59.3756 7.232V9.456H63.4556C63.7756 9.456 64.0209 9.53067 64.1916 9.68C64.3622 9.81867 64.4476 10.0213 64.4476 10.288C64.4476 10.544 64.3569 10.7467 64.1756 10.896C64.0049 11.0347 63.7649 11.104 63.4556 11.104H59.3756V13.568C59.3756 13.8133 59.4342 14.0053 59.5516 14.144C59.6796 14.2827 59.8502 14.352 60.0636 14.352H65.0236C65.3436 14.352 65.5889 14.4267 65.7596 14.576C65.9302 14.7147 66.0156 14.9173 66.0156 15.184C66.0156 15.44 65.9249 15.6427 65.7436 15.792C65.5729 15.9307 65.3329 16 65.0236 16H59.8076ZM67.6538 7.168C67.6538 6.42133 67.8671 5.84 68.2938 5.424C68.7311 5.008 69.3338 4.8 70.1018 4.8H72.9498C74.5391 4.8 75.7391 5.10933 76.5498 5.728C77.3605 6.34667 77.7658 7.26933 77.7658 8.496C77.7658 9.63733 77.4245 10.528 76.7418 11.168C76.0698 11.808 75.1631 12.128 74.0218 12.128L76.4538 14.544C76.6458 14.736 76.7418 14.9547 76.7418 15.2C76.7418 15.456 76.6298 15.68 76.4058 15.872C76.1711 16.0533 75.9418 16.144 75.7178 16.144C75.4085 16.144 75.1258 16.0053 74.8698 15.728L71.4138 12.192H69.7818V15.2C69.7818 15.4987 69.6805 15.7333 69.4778 15.904C69.2751 16.0747 69.0191 16.16 68.7098 16.16C68.3898 16.16 68.1338 16.0747 67.9418 15.904C67.7498 15.7333 67.6538 15.4987 67.6538 15.2V7.168ZM72.8858 10.544C73.5898 10.544 74.1391 10.4747 74.5338 10.336C74.9285 10.1973 75.2058 9.984 75.3658 9.696C75.5365 9.39733 75.6218 8.99733 75.6218 8.496C75.6218 7.77067 75.3978 7.248 74.9498 6.928C74.5125 6.608 73.8245 6.448 72.8858 6.448H70.4698C70.2565 6.448 70.0858 6.51733 69.9578 6.656C69.8405 6.79467 69.7818 6.98667 69.7818 7.232V10.544H72.8858ZM84.8118 16.16C83.7665 16.16 82.7851 15.9893 81.8678 15.648C80.9505 15.296 80.1558 14.7947 79.4838 14.144C79.3238 13.984 79.2438 13.8027 79.2438 13.6C79.2438 13.3653 79.3505 13.1413 79.5638 12.928C79.7345 12.7573 79.9211 12.672 80.1238 12.672C80.3371 12.672 80.5931 12.7947 80.8918 13.04C81.3931 13.4987 81.9851 13.856 82.6678 14.112C83.3611 14.3573 84.0758 14.48 84.8118 14.48C85.5158 14.48 86.0651 14.3627 86.4598 14.128C86.8545 13.8827 87.0518 13.5413 87.0518 13.104C87.0518 12.6453 86.8385 12.2773 86.4118 12C85.9851 11.712 85.2598 11.456 84.2358 11.232C82.6251 10.88 81.4518 10.416 80.7158 9.84C79.9905 9.264 79.6278 8.52267 79.6278 7.616C79.6278 7.04 79.8198 6.528 80.2038 6.08C80.5878 5.62133 81.1211 5.26933 81.8038 5.024C82.4971 4.768 83.2865 4.64 84.1718 4.64C85.1638 4.64 86.0438 4.80533 86.8118 5.136C87.5905 5.456 88.1825 5.90933 88.5878 6.496C88.7265 6.72 88.7958 6.912 88.7958 7.072C88.7851 7.33867 88.6518 7.568 88.3958 7.76C88.2571 7.856 88.0971 7.904 87.9158 7.904C87.5851 7.904 87.3131 7.776 87.0998 7.52C86.7905 7.14667 86.3745 6.85333 85.8518 6.64C85.3398 6.42667 84.7798 6.32 84.1718 6.32C83.4145 6.32 82.8225 6.43733 82.3958 6.672C81.9798 6.896 81.7718 7.21067 81.7718 7.616C81.7718 8.02133 81.9745 8.35733 82.3798 8.624C82.7958 8.88 83.5105 9.12533 84.5238 9.36C85.6438 9.62667 86.5451 9.93067 87.2278 10.272C87.9105 10.6027 88.4065 10.9973 88.7158 11.456C89.0358 11.9147 89.1958 12.464 89.1958 13.104C89.1958 13.712 89.0145 14.2507 88.6518 14.72C88.2891 15.1787 87.7771 15.536 87.1158 15.792C86.4545 16.0373 85.6865 16.16 84.8118 16.16Z" fill="black"/>
<path d="M3.43031 15.648L3.25118 16.1148L3.25595 16.1166L3.43031 15.648ZM1.04631 14.144L0.692713 14.4976L0.698507 14.5032L1.04631 14.144ZM2.45431 13.04L2.79182 12.6711L2.78198 12.6621L2.77168 12.6536L2.45431 13.04ZM4.23031 14.112L4.05472 14.5802L4.06352 14.5834L4.23031 14.112ZM8.02231 14.128L8.2779 14.5579L8.28628 14.5526L8.02231 14.128ZM7.97431 12L7.69453 12.4145L7.70182 12.4192L7.97431 12ZM5.79831 11.232L5.90516 10.7435L5.90506 10.7435L5.79831 11.232ZM2.27831 9.84L1.96736 10.2316L1.97016 10.2338L2.27831 9.84ZM1.76631 6.08L2.14597 6.40542L2.14969 6.40097L1.76631 6.08ZM3.36631 5.024L3.53542 5.49455L3.5395 5.49305L3.36631 5.024ZM8.37431 5.136L8.17656 5.59531L8.18426 5.59847L8.37431 5.136ZM10.1503 6.496L10.5754 6.23282L10.5688 6.22213L10.5617 6.21178L10.1503 6.496ZM10.3583 7.072L10.8579 7.09198L10.8583 7.082V7.072H10.3583ZM9.95831 7.76L10.2429 8.1711L10.2507 8.16569L10.2583 8.16L9.95831 7.76ZM8.66231 7.52L8.2773 7.83901L8.2782 7.84009L8.66231 7.52ZM7.41431 6.64L7.222 7.10155L7.22536 7.10292L7.41431 6.64ZM3.95831 6.672L4.19537 7.11225L4.19927 7.11011L3.95831 6.672ZM3.94231 8.624L3.6675 9.04171L3.67382 9.04586L3.68026 9.04983L3.94231 8.624ZM6.08631 9.36L6.20213 8.87359L6.19912 8.87289L6.08631 9.36ZM8.79031 10.272L8.56669 10.7192L8.57235 10.722L8.79031 10.272ZM10.2783 11.456L9.86372 11.7356L9.86825 11.7421L10.2783 11.456ZM10.2143 14.72L10.6065 15.0301L10.61 15.0257L10.2143 14.72ZM8.67831 15.792L8.85223 16.2608L8.85881 16.2583L8.67831 15.792ZM6.37431 15.66C5.38443 15.66 4.46253 15.4986 3.60468 15.1794L3.25595 16.1166C4.23277 16.4801 5.27353 16.66 6.37431 16.66V15.66ZM3.60944 15.1812C2.75178 14.8521 2.01529 14.3862 1.39412 13.7848L0.698507 14.5032C1.42133 15.2031 2.27418 15.7399 3.25119 16.1148L3.60944 15.1812ZM1.39987 13.7904C1.32169 13.7123 1.30631 13.6541 1.30631 13.6H0.306313C0.306313 13.9513 0.45094 14.2557 0.692759 14.4976L1.39987 13.7904ZM1.30631 13.6C1.30631 13.5329 1.33228 13.4291 1.47987 13.2816L0.772759 12.5744C0.493683 12.8535 0.306313 13.1978 0.306313 13.6H1.30631ZM1.47987 13.2816C1.57597 13.1854 1.64115 13.172 1.68631 13.172V12.172C1.32614 12.172 1.01799 12.3292 0.772759 12.5744L1.47987 13.2816ZM1.68631 13.172C1.72156 13.172 1.86336 13.2016 2.13694 13.4264L2.77168 12.6536C2.44793 12.3877 2.07773 12.172 1.68631 12.172V13.172ZM2.11681 13.4089C2.66864 13.9138 3.31666 14.3034 4.05475 14.5802L4.40587 13.6438C3.77863 13.4086 3.24266 13.0836 2.79182 12.6711L2.11681 13.4089ZM4.06352 14.5834C4.81046 14.8477 5.58154 14.98 6.37431 14.98V13.98C5.69509 13.98 5.03683 13.867 4.3971 13.6406L4.06352 14.5834ZM6.37431 14.98C7.12413 14.98 7.77516 14.8567 8.27785 14.5578L7.76677 13.6982C7.48013 13.8687 7.0325 13.98 6.37431 13.98V14.98ZM8.28628 14.5526C8.81664 14.223 9.11431 13.7268 9.11431 13.104H8.11431C8.11431 13.3558 8.01732 13.5424 7.75835 13.7034L8.28628 14.5526ZM9.11431 13.104C9.11431 12.4553 8.797 11.9384 8.24681 11.5808L7.70182 12.4192C8.00496 12.6163 8.11431 12.8354 8.11431 13.104H9.11431ZM8.25405 11.5856C7.74452 11.2416 6.94034 10.97 5.90516 10.7435L5.69146 11.7204C6.70429 11.942 7.35077 12.1824 7.69458 12.4144L8.25405 11.5856ZM5.90506 10.7435C4.31991 10.3971 3.23407 9.95307 2.58647 9.44625L1.97016 10.2338C2.79456 10.8789 4.05538 11.3629 5.69156 11.7205L5.90506 10.7435ZM2.58925 9.44844C1.98036 8.96491 1.69031 8.36635 1.69031 7.616H0.690313C0.690313 8.67898 1.1256 9.56309 1.96737 10.2316L2.58925 9.44844ZM1.69031 7.616C1.69031 7.1625 1.83754 6.76519 2.14594 6.4054L1.38668 5.7546C0.927083 6.29081 0.690313 6.91749 0.690313 7.616H1.69031ZM2.14969 6.40097C2.46581 6.02338 2.91845 5.71626 3.53541 5.49454L3.19721 4.55346C2.44884 4.82241 1.83482 5.21928 1.38293 5.75903L2.14969 6.40097ZM3.5395 5.49305C4.16763 5.26112 4.8967 5.14 5.73431 5.14V4.14C4.80126 4.14 3.95167 4.27487 3.19313 4.55495L3.5395 5.49305ZM5.73431 5.14C6.67079 5.14 7.48155 5.29599 8.17658 5.59524L8.57204 4.67676C7.73107 4.31467 6.78184 4.14 5.73431 4.14V5.14ZM8.18426 5.59847C8.8899 5.88846 9.39789 6.28658 9.73895 6.78022L10.5617 6.21178C10.0921 5.53209 9.41606 5.02354 8.56437 4.67353L8.18426 5.59847ZM9.72518 6.75918C9.84328 6.94996 9.85831 7.04717 9.85831 7.072H10.8583C10.8583 6.77683 10.7347 6.49004 10.5754 6.23282L9.72518 6.75918ZM9.85871 7.05202C9.85527 7.13818 9.82055 7.23832 9.65831 7.36L10.2583 8.16C10.6081 7.89768 10.84 7.53915 10.8579 7.09198L9.85871 7.05202ZM9.67371 7.3489C9.62504 7.3826 9.56599 7.404 9.47831 7.404V8.404C9.7533 8.404 10.0143 8.3294 10.2429 8.1711L9.67371 7.3489ZM9.47831 7.404C9.29737 7.404 9.16562 7.34294 9.04642 7.19991L8.2782 7.84009C8.58568 8.20906 8.99792 8.404 9.47831 8.404V7.404ZM9.04732 7.20099C8.67745 6.75459 8.18956 6.41638 7.60326 6.17708L7.22536 7.10292C7.6844 7.29029 8.02851 7.53875 8.2773 7.83901L9.04732 7.20099ZM7.60662 6.17846C7.02806 5.93739 6.40195 5.82 5.73431 5.82V6.82C6.28268 6.82 6.77657 6.91594 7.22201 7.10154L7.60662 6.17846ZM5.73431 5.82C4.93525 5.82 4.2478 5.94214 3.71735 6.23389L4.19927 7.11011C4.52215 6.93252 5.01871 6.82 5.73431 6.82V5.82ZM3.72126 6.23176C3.1757 6.52553 2.83431 6.99264 2.83431 7.616H3.83431C3.83431 7.42869 3.90892 7.26647 4.19536 7.11224L3.72126 6.23176ZM2.83431 7.616C2.83431 8.22452 3.15353 8.70356 3.6675 9.04171L4.21712 8.20629C3.92043 8.0111 3.83431 7.81814 3.83431 7.616H2.83431ZM3.68026 9.04983C4.17014 9.35129 4.95319 9.61082 5.97351 9.84711L6.19912 8.87289C5.19277 8.63984 4.54648 8.40871 4.20436 8.19817L3.68026 9.04983ZM5.9705 9.8464C7.07001 10.1082 7.93097 10.4013 8.56671 10.7192L9.01392 9.82479C8.28432 9.45999 7.34262 9.14514 6.20212 8.8736L5.9705 9.8464ZM8.57235 10.722C9.20383 11.0279 9.61877 11.3723 9.86378 11.7356L10.6928 11.1764C10.3192 10.6224 9.74213 10.1775 9.00828 9.82201L8.57235 10.722ZM9.86825 11.7421C10.1215 12.1051 10.2583 12.551 10.2583 13.104H11.2583C11.2583 12.377 11.0751 11.7242 10.6884 11.1699L9.86825 11.7421ZM10.2583 13.104C10.2583 13.6043 10.1119 14.0348 9.81867 14.4143L10.61 15.0257C11.0421 14.4665 11.2583 13.8197 11.2583 13.104H10.2583ZM9.8221 14.4099C9.5255 14.785 9.09361 15.0951 8.49782 15.3257L8.85881 16.2583C9.58568 15.9769 10.1778 15.5723 10.6065 15.0301L9.8221 14.4099ZM8.50441 15.3232C7.91029 15.5436 7.20334 15.66 6.37431 15.66V16.66C7.29462 16.66 8.12367 16.5311 8.85222 16.2608L8.50441 15.3232ZM12.5962 15.904L12.9284 15.5303L12.9284 15.5303L12.5962 15.904ZM13.6362 5.84L13.301 5.46902L13.301 5.46902L13.6362 5.84ZM20.9962 5.84L21.3314 5.46902L21.3314 5.46902L20.9962 5.84ZM22.0362 15.904L22.3684 16.2777L22.3684 16.2777L22.0362 15.904ZM20.4842 15.904L20.1409 16.2675L20.1512 16.2773L20.1621 16.2865L20.4842 15.904ZM19.4602 7.04L19.1105 7.39742L19.1105 7.39742L19.4602 7.04ZM15.1722 7.04L15.5218 7.39742L15.5218 7.39742L15.1722 7.04ZM14.1322 15.904L14.4644 16.2777L14.4656 16.2766L14.1322 15.904ZM13.3642 15.66C13.1354 15.66 13.0079 15.601 12.9284 15.5303L12.264 16.2777C12.5685 16.5483 12.953 16.66 13.3642 16.66V15.66ZM12.9284 15.5303C12.8609 15.4703 12.8082 15.3814 12.8082 15.2H11.8082C11.8082 15.6159 11.9475 15.9964 12.264 16.2777L12.9284 15.5303ZM12.8082 15.2V9.168H11.8082V15.2H12.8082ZM12.8082 9.168C12.8082 7.86158 13.2108 6.89825 13.9714 6.21098L13.301 5.46902C12.2909 6.38175 11.8082 7.63709 11.8082 9.168H12.8082ZM13.9714 6.21098C14.7391 5.51731 15.8323 5.14 17.3162 5.14V4.14C15.6641 4.14 14.304 4.56269 13.301 5.46902L13.9714 6.21098ZM17.3162 5.14C18.8001 5.14 19.8933 5.51731 20.661 6.21098L21.3314 5.46902C20.3284 4.56269 18.9683 4.14 17.3162 4.14V5.14ZM20.661 6.21098C21.4215 6.89825 21.8242 7.86158 21.8242 9.168H22.8242C22.8242 7.63709 22.3415 6.38175 21.3314 5.46902L20.661 6.21098ZM21.8242 9.168V15.2H22.8242V9.168H21.8242ZM21.8242 15.2C21.8242 15.3814 21.7715 15.4703 21.704 15.5303L22.3684 16.2777C22.6849 15.9964 22.8242 15.6159 22.8242 15.2H21.8242ZM21.704 15.5303C21.6245 15.601 21.497 15.66 21.2682 15.66V16.66C21.6794 16.66 22.0639 16.5483 22.3684 16.2777L21.704 15.5303ZM21.2682 15.66C21.0405 15.66 20.901 15.6013 20.8063 15.5215L20.1621 16.2865C20.4727 16.548 20.8558 16.66 21.2682 16.66V15.66ZM20.8275 15.5405C20.7451 15.4627 20.6962 15.3643 20.6962 15.2H19.6962C19.6962 15.6117 19.8392 15.9826 20.1409 16.2675L20.8275 15.5405ZM20.6962 15.2V9.12H19.6962V15.2H20.6962ZM20.6962 9.12C20.6962 8.12371 20.4246 7.28398 19.8098 6.68258L19.1105 7.39742C19.4771 7.75601 19.6962 8.30295 19.6962 9.12H20.6962ZM19.8098 6.68258C19.1957 6.08184 18.3365 5.82 17.3162 5.82V6.82C18.1732 6.82 18.7433 7.03816 19.1105 7.39742L19.8098 6.68258ZM17.3162 5.82C16.2958 5.82 15.4366 6.08184 14.8225 6.68258L15.5218 7.39742C15.8891 7.03816 16.4592 6.82 17.3162 6.82V5.82ZM14.8225 6.68258C14.2078 7.28398 13.9362 8.12372 13.9362 9.12H14.9362C14.9362 8.30295 15.1553 7.75601 15.5218 7.39742L14.8225 6.68258ZM13.9362 9.12V15.2H14.9362V9.12H13.9362ZM13.9362 15.2C13.9362 15.3552 13.8886 15.451 13.7988 15.5314L14.4656 16.2766C14.7811 15.9943 14.9362 15.6208 14.9362 15.2H13.9362ZM13.8 15.5303C13.7205 15.601 13.593 15.66 13.3642 15.66V16.66C13.7754 16.66 14.1599 16.5483 14.4644 16.2777L13.8 15.5303ZM24.7008 15.36L25.0456 14.9979L25.0456 14.9979L24.7008 15.36ZM24.6688 5.424L24.3242 5.06169L24.3198 5.066L24.6688 5.424ZM32.1888 5.024L31.8596 5.40029L31.8664 5.4063L31.8735 5.41206L32.1888 5.024ZM32.1728 6.24L32.4881 6.62806L32.4907 6.62597L32.1728 6.24ZM26.3328 6.656L25.9654 6.31686L25.9581 6.32479L25.9511 6.33303L26.3328 6.656ZM26.1568 9.456H25.6568V9.956H26.1568V9.456ZM30.9728 9.68L30.6436 10.0563L30.6504 10.0623L30.6575 10.0681L30.9728 9.68ZM30.9568 10.896L31.2721 11.2841L31.2747 11.282L30.9568 10.896ZM26.1568 11.104V10.604H25.6568V11.104H26.1568ZM26.3328 14.144L25.9511 14.467L25.9581 14.4752L25.9654 14.4831L26.3328 14.144ZM32.5408 14.576L32.2116 14.9523L32.2184 14.9583L32.2255 14.9641L32.5408 14.576ZM32.5248 15.792L32.8401 16.1801L32.8427 16.178L32.5248 15.792ZM26.5888 15.5C25.8654 15.5 25.3746 15.3113 25.0456 14.9979L24.356 15.7221C24.923 16.2621 25.6909 16.5 26.5888 16.5V15.5ZM25.0456 14.9979C24.7196 14.6875 24.5288 14.2344 24.5288 13.568H23.5288C23.5288 14.4376 23.786 15.1792 24.356 15.7221L25.0456 14.9979ZM24.5288 13.568V7.168H23.5288V13.568H24.5288ZM24.5288 7.168C24.5288 6.52 24.7108 6.08135 25.0179 5.782L24.3198 5.066C23.7735 5.59865 23.5288 6.32267 23.5288 7.168H24.5288ZM25.0134 5.78628C25.3344 5.48095 25.8007 5.3 26.4768 5.3V4.3C25.6169 4.3 24.8779 4.53505 24.3242 5.06172L25.0134 5.78628ZM26.4768 5.3H31.4528V4.3H26.4768V5.3ZM31.4528 5.3C31.7011 5.3 31.8114 5.35813 31.8596 5.40029L32.5181 4.64771C32.2249 4.3912 31.8445 4.3 31.4528 4.3V5.3ZM31.8735 5.41206C31.9024 5.43552 31.9448 5.48053 31.9448 5.632H32.9448C32.9448 5.25013 32.8166 4.88981 32.5041 4.63594L31.8735 5.41206ZM31.9448 5.632C31.9448 5.75386 31.9097 5.80898 31.855 5.85403L32.4907 6.62597C32.7986 6.37236 32.9448 6.02214 32.9448 5.632H31.9448ZM31.8575 5.85194C31.8061 5.89373 31.6933 5.948 31.4528 5.948V6.948C31.831 6.948 32.1982 6.8636 32.4881 6.62806L31.8575 5.85194ZM31.4528 5.948H26.8448V6.948H31.4528V5.948ZM26.8448 5.948C26.512 5.948 26.2009 6.06176 25.9654 6.31686L26.7002 6.99514C26.7207 6.97291 26.7509 6.948 26.8448 6.948V5.948ZM25.9511 6.33303C25.7342 6.58934 25.6568 6.91003 25.6568 7.232H26.6568C26.6568 7.06331 26.6967 6.99999 26.7145 6.97897L25.9511 6.33303ZM25.6568 7.232V9.456H26.6568V7.232H25.6568ZM26.1568 9.956H30.2368V8.956H26.1568V9.956ZM30.2368 9.956C30.4851 9.956 30.5954 10.0141 30.6436 10.0563L31.3021 9.30371C31.0089 9.0472 30.6285 8.956 30.2368 8.956V9.956ZM30.6575 10.0681C30.6864 10.0915 30.7288 10.1365 30.7288 10.288H31.7288C31.7288 9.90613 31.6006 9.54581 31.2881 9.29194L30.6575 10.0681ZM30.7288 10.288C30.7288 10.4099 30.6937 10.465 30.639 10.51L31.2747 11.282C31.5826 11.0284 31.7288 10.6781 31.7288 10.288H30.7288ZM30.6415 10.5079C30.5901 10.5497 30.4773 10.604 30.2368 10.604V11.604C30.615 11.604 30.9822 11.5196 31.2721 11.2841L30.6415 10.5079ZM30.2368 10.604H26.1568V11.604H30.2368V10.604ZM25.6568 11.104V13.568H26.6568V11.104H25.6568ZM25.6568 13.568C25.6568 13.89 25.7342 14.2107 25.9511 14.467L26.7145 13.821C26.6967 13.8 26.6568 13.7367 26.6568 13.568H25.6568ZM25.9654 14.4831C26.2009 14.7382 26.512 14.852 26.8448 14.852V13.852C26.7509 13.852 26.7207 13.8271 26.7002 13.8049L25.9654 14.4831ZM26.8448 14.852H31.8048V13.852H26.8448V14.852ZM31.8048 14.852C32.0531 14.852 32.1634 14.9101 32.2116 14.9523L32.8701 14.1997C32.5769 13.9432 32.1965 13.852 31.8048 13.852V14.852ZM32.2255 14.9641C32.2544 14.9875 32.2968 15.0325 32.2968 15.184H33.2968C33.2968 14.8021 33.1686 14.4418 32.8561 14.1879L32.2255 14.9641ZM32.2968 15.184C32.2968 15.3059 32.2617 15.361 32.207 15.406L32.8427 16.178C33.1506 15.9244 33.2968 15.5741 33.2968 15.184H32.2968ZM32.2095 15.4039C32.1581 15.4457 32.0453 15.5 31.8048 15.5V16.5C32.183 16.5 32.5502 16.4156 32.8401 16.1801L32.2095 15.4039ZM31.8048 15.5H26.5888V16.5H31.8048V15.5ZM34.6431 15.888L34.9752 15.5143L34.9752 15.5143L34.6431 15.888ZM35.6831 5.952L35.3317 5.59631L35.3317 5.59631L35.6831 5.952ZM42.0671 5.232L42.2981 4.7886L42.2981 4.7886L42.0671 5.232ZM43.7951 6.944L43.353 7.17767L43.3556 7.18255L43.7951 6.944ZM44.1151 15.888L44.4472 16.2617L44.4472 16.2617L44.1151 15.888ZM42.5631 15.888L42.2198 16.2515L42.2301 16.2613L42.241 16.2705L42.5631 15.888ZM42.2751 12.576H42.7751V12.076H42.2751V12.576ZM36.4831 12.576V12.076H35.9831V12.576H36.4831ZM36.1791 15.888L36.5112 16.2617L36.5125 16.2606L36.1791 15.888ZM42.2751 10.928V11.428H42.7751V10.928H42.2751ZM41.5391 7.136L41.1641 7.46688L41.1711 7.47453L41.5391 7.136ZM36.4831 10.928H35.9831V11.428H36.4831V10.928ZM35.4111 15.644C35.1823 15.644 35.0548 15.585 34.9752 15.5143L34.3109 16.2617C34.6153 16.5323 34.9999 16.644 35.4111 16.644V15.644ZM34.9752 15.5143C34.9077 15.4543 34.8551 15.3654 34.8551 15.184H33.8551C33.8551 15.5999 33.9944 15.9804 34.3109 16.2617L34.9752 15.5143ZM34.8551 15.184V9.584H33.8551V15.184H34.8551ZM34.8551 9.584C34.8551 8.13659 35.2662 7.06672 36.0345 6.30769L35.3317 5.59631C34.3293 6.58661 33.8551 7.93808 33.8551 9.584H34.8551ZM36.0345 6.30769C36.8028 5.54862 37.8949 5.14 39.3791 5.14V4.14C37.7059 4.14 36.334 4.60605 35.3317 5.59631L36.0345 6.30769ZM39.3791 5.14C40.3501 5.14 41.1636 5.32499 41.836 5.6754L42.2981 4.7886C41.4559 4.34967 40.4773 4.14 39.3791 4.14V5.14ZM41.836 5.6754C42.5044 6.02374 43.0063 6.52176 43.353 7.17765L44.2371 6.71035C43.7945 5.87291 43.1444 5.22959 42.2981 4.7886L41.836 5.6754ZM43.3556 7.18255C43.7142 7.84309 43.9031 8.63796 43.9031 9.584H44.9031C44.9031 8.50337 44.6866 7.53824 44.2345 6.70545L43.3556 7.18255ZM43.9031 9.584V15.184H44.9031V9.584H43.9031ZM43.9031 15.184C43.9031 15.3654 43.8504 15.4543 43.7829 15.5143L44.4472 16.2617C44.7637 15.9804 44.9031 15.5999 44.9031 15.184H43.9031ZM43.7829 15.5143C43.7033 15.585 43.5759 15.644 43.3471 15.644V16.644C43.7583 16.644 44.1428 16.5323 44.4472 16.2617L43.7829 15.5143ZM43.3471 15.644C43.1194 15.644 42.9799 15.5853 42.8851 15.5055L42.241 16.2705C42.5516 16.532 42.9347 16.644 43.3471 16.644V15.644ZM42.9064 15.5245C42.824 15.4467 42.7751 15.3483 42.7751 15.184H41.7751C41.7751 15.5957 41.9181 15.9666 42.2198 16.2515L42.9064 15.5245ZM42.7751 15.184V12.576H41.7751V15.184H42.7751ZM42.2751 12.076H36.4831V13.076H42.2751V12.076ZM35.9831 12.576V15.184H36.9831V12.576H35.9831ZM35.9831 15.184C35.9831 15.3392 35.9354 15.435 35.8457 15.5154L36.5125 16.2606C36.828 15.9783 36.9831 15.6048 36.9831 15.184H35.9831ZM35.8469 15.5143C35.7673 15.585 35.6399 15.644 35.4111 15.644V16.644C35.8223 16.644 36.2068 16.5323 36.5112 16.2617L35.8469 15.5143ZM42.7751 10.928V9.536H41.7751V10.928H42.7751ZM42.7751 9.536C42.7751 8.40212 42.5151 7.45847 41.907 6.79747L41.1711 7.47453C41.5443 7.8802 41.7751 8.53655 41.7751 9.536H42.7751ZM41.914 6.80519C41.3109 6.12164 40.4335 5.82 39.3791 5.82V6.82C40.2446 6.82 40.8073 7.06236 41.1641 7.46681L41.914 6.80519ZM39.3791 5.82C38.3223 5.82 37.4421 6.11578 36.8355 6.78942C36.2379 7.45309 35.9831 8.39911 35.9831 9.536H36.9831C36.9831 8.52889 37.2109 7.86691 37.5786 7.45858C37.9373 7.06022 38.5051 6.82 39.3791 6.82V5.82ZM35.9831 9.536V10.928H36.9831V9.536H35.9831ZM36.4831 11.428H42.2751V10.428H36.4831V11.428ZM53.6106 15.456L53.1183 15.5434L53.1186 15.5454L53.6106 15.456ZM52.4106 12.608L52.0153 12.9142L52.018 12.9176L52.4106 12.608ZM49.8346 10.592L50.0648 10.1482L49.7708 9.9956L49.5156 10.2069L49.8346 10.592ZM48.2506 11.904L47.9316 11.5189L47.7506 11.6689V11.904H48.2506ZM47.9466 15.904L48.2787 16.2777L48.28 16.2766L47.9466 15.904ZM46.4106 15.904L46.0784 16.2777L46.0784 16.2777L46.4106 15.904ZM46.4106 4.896L46.7427 5.2697L46.7427 5.2697L46.4106 4.896ZM47.9466 4.912L47.6033 5.27551L47.6136 5.28528L47.6245 5.29446L47.9466 4.912ZM48.2506 9.584H47.7506V10.6828L48.579 9.96099L48.2506 9.584ZM53.5946 4.928L53.923 5.30499L53.9306 5.2984L53.9379 5.29151L53.5946 4.928ZM54.9386 4.96L55.3094 4.62445L55.3015 4.61613L54.9386 4.96ZM54.8586 6.256L55.1867 6.6333L55.1878 6.63229L54.8586 6.256ZM51.1786 9.456L50.8505 9.0787L50.2518 9.59931L50.9798 9.91478L51.1786 9.456ZM54.2346 11.808L53.834 12.1073L53.8376 12.112L54.2346 11.808ZM55.6106 15.136L56.1073 15.0787L56.1068 15.0751L55.6106 15.136ZM55.4026 15.856L55.785 16.1781L55.785 16.1781L55.4026 15.856ZM54.7466 15.66C54.4596 15.66 54.3017 15.6084 54.2219 15.559C54.1621 15.5219 54.1219 15.4732 54.1025 15.3666L53.1186 15.5454C53.1846 15.9082 53.3764 16.2114 53.6952 16.409C53.9941 16.5943 54.3615 16.66 54.7466 16.66V15.66ZM54.1029 15.3686C53.8887 14.1624 53.4609 13.1323 52.8031 12.2984L52.018 12.9176C52.5549 13.5984 52.9271 14.467 53.1183 15.5434L54.1029 15.3686ZM52.8058 12.3018C52.1627 11.4716 51.2396 10.7578 50.0648 10.1482L49.6043 11.0358C50.6908 11.5996 51.4851 12.2298 52.0153 12.9142L52.8058 12.3018ZM49.5156 10.2069L47.9316 11.5189L48.5695 12.2891L50.1535 10.9771L49.5156 10.2069ZM47.7506 11.904V15.2H48.7506V11.904H47.7506ZM47.7506 15.2C47.7506 15.3552 47.7029 15.451 47.6132 15.5314L48.28 16.2766C48.5955 15.9943 48.7506 15.6208 48.7506 15.2H47.7506ZM47.6144 15.5303C47.5348 15.601 47.4074 15.66 47.1786 15.66V16.66C47.5898 16.66 47.9743 16.5483 48.2787 16.2777L47.6144 15.5303ZM47.1786 15.66C46.9498 15.66 46.8223 15.601 46.7427 15.5303L46.0784 16.2777C46.3828 16.5483 46.7674 16.66 47.1786 16.66V15.66ZM46.7427 15.5303C46.6752 15.4703 46.6226 15.3814 46.6226 15.2H45.6226C45.6226 15.6159 45.7619 15.9964 46.0784 16.2777L46.7427 15.5303ZM46.6226 15.2V5.6H45.6226V15.2H46.6226ZM46.6226 5.6C46.6226 5.41856 46.6752 5.32972 46.7427 5.2697L46.0784 4.52229C45.7619 4.80362 45.6226 5.18411 45.6226 5.6H46.6226ZM46.7427 5.2697C46.8223 5.19901 46.9498 5.14 47.1786 5.14V4.14C46.7674 4.14 46.3828 4.25166 46.0784 4.5223L46.7427 5.2697ZM47.1786 5.14C47.3995 5.14 47.523 5.19967 47.6033 5.27551L48.2899 4.54849C47.9862 4.26167 47.5976 4.14 47.1786 4.14V5.14ZM47.6245 5.29446C47.7037 5.36113 47.7506 5.44494 47.7506 5.6H48.7506C48.7506 5.17906 48.5948 4.8042 48.2686 4.52954L47.6245 5.29446ZM47.7506 5.6V9.584H48.7506V5.6H47.7506ZM48.579 9.96099L53.923 5.30499L53.2661 4.55101L47.9221 9.20701L48.579 9.96099ZM53.9379 5.29151C54.0403 5.19476 54.1426 5.156 54.2666 5.156V4.156C53.8785 4.156 53.5328 4.29857 53.2513 4.56449L53.9379 5.29151ZM54.2666 5.156C54.372 5.156 54.4685 5.19085 54.5756 5.30387L55.3015 4.61613C55.0246 4.32381 54.6731 4.156 54.2666 4.156V5.156ZM54.5678 5.29546C54.7328 5.47787 54.7426 5.57027 54.7426 5.584H55.7426C55.7426 5.21373 55.5496 4.89013 55.3093 4.62454L54.5678 5.29546ZM54.7426 5.584C54.7426 5.60271 54.7333 5.7012 54.5293 5.87971L55.1878 6.63229C55.4958 6.3628 55.7426 6.01329 55.7426 5.584H54.7426ZM54.5305 5.8787L50.8505 9.0787L51.5067 9.8333L55.1867 6.6333L54.5305 5.8787ZM50.9798 9.91478C52.1882 10.4384 53.1341 11.1708 53.8341 12.1073L54.6351 11.5087C53.8203 10.4185 52.7289 9.5829 51.3774 8.99722L50.9798 9.91478ZM53.8376 12.112C54.5532 13.0463 54.9762 14.0722 55.1143 15.1969L56.1068 15.0751C55.9463 13.7678 55.4519 12.5751 54.6315 11.504L53.8376 12.112ZM55.1139 15.1933C55.131 15.3421 55.0969 15.4428 55.0201 15.5339L55.785 16.1781C56.0496 15.8639 56.1541 15.4846 56.1073 15.0787L55.1139 15.1933ZM55.0201 15.5339C54.9452 15.6229 54.8668 15.66 54.7466 15.66V16.66C55.1596 16.66 55.5186 16.4944 55.785 16.1781L55.0201 15.5339ZM57.9196 15.36L58.2644 14.9979L58.2644 14.9979L57.9196 15.36ZM57.8876 5.424L57.5429 5.06169L57.5385 5.066L57.8876 5.424ZM65.4076 5.024L65.0783 5.40029L65.0852 5.4063L65.0923 5.41206L65.4076 5.024ZM65.3916 6.24L65.7069 6.62806L65.7094 6.62597L65.3916 6.24ZM59.5516 6.656L59.1842 6.31686L59.1768 6.32479L59.1699 6.33303L59.5516 6.656ZM59.3756 9.456H58.8756V9.956H59.3756V9.456ZM64.1916 9.68L63.8623 10.0563L63.8692 10.0623L63.8763 10.0681L64.1916 9.68ZM64.1756 10.896L64.4909 11.2841L64.4934 11.282L64.1756 10.896ZM59.3756 11.104V10.604H58.8756V11.104H59.3756ZM59.5516 14.144L59.1699 14.467L59.1768 14.4752L59.1842 14.4831L59.5516 14.144ZM65.7596 14.576L65.4303 14.9523L65.4372 14.9583L65.4443 14.9641L65.7596 14.576ZM65.7436 15.792L66.0589 16.1801L66.0614 16.178L65.7436 15.792ZM59.8076 15.5C59.0842 15.5 58.5934 15.3113 58.2644 14.9979L57.5747 15.7221C58.1417 16.2621 58.9096 16.5 59.8076 16.5V15.5ZM58.2644 14.9979C57.9384 14.6875 57.7476 14.2344 57.7476 13.568H56.7476C56.7476 14.4376 57.0047 15.1792 57.5747 15.7221L58.2644 14.9979ZM57.7476 13.568V7.168H56.7476V13.568H57.7476ZM57.7476 7.168C57.7476 6.52 57.9296 6.08135 58.2366 5.782L57.5385 5.066C56.9922 5.59865 56.7476 6.32267 56.7476 7.168H57.7476ZM58.2322 5.78628C58.5532 5.48095 59.0194 5.3 59.6956 5.3V4.3C58.8357 4.3 58.0966 4.53505 57.543 5.06172L58.2322 5.78628ZM59.6956 5.3H64.6716V4.3H59.6956V5.3ZM64.6716 5.3C64.9199 5.3 65.0301 5.35813 65.0783 5.40029L65.7368 4.64771C65.4437 4.3912 65.0633 4.3 64.6716 4.3V5.3ZM65.0923 5.41206C65.1211 5.43552 65.1636 5.48053 65.1636 5.632H66.1636C66.1636 5.25013 66.0353 4.88981 65.7229 4.63594L65.0923 5.41206ZM65.1636 5.632C65.1636 5.75386 65.1284 5.80898 65.0737 5.85403L65.7094 6.62597C66.0174 6.37236 66.1636 6.02214 66.1636 5.632H65.1636ZM65.0763 5.85194C65.0248 5.89373 64.912 5.948 64.6716 5.948V6.948C65.0498 6.948 65.417 6.8636 65.7069 6.62806L65.0763 5.85194ZM64.6716 5.948H60.0636V6.948H64.6716V5.948ZM60.0636 5.948C59.7308 5.948 59.4196 6.06176 59.1842 6.31686L59.919 6.99514C59.9395 6.97291 59.9697 6.948 60.0636 6.948V5.948ZM59.1699 6.33303C58.953 6.58934 58.8756 6.91003 58.8756 7.232H59.8756C59.8756 7.06331 59.9155 6.99999 59.9333 6.97897L59.1699 6.33303ZM58.8756 7.232V9.456H59.8756V7.232H58.8756ZM59.3756 9.956H63.4556V8.956H59.3756V9.956ZM63.4556 9.956C63.7039 9.956 63.8141 10.0141 63.8623 10.0563L64.5208 9.30371C64.2277 9.0472 63.8473 8.956 63.4556 8.956V9.956ZM63.8763 10.0681C63.9051 10.0915 63.9476 10.1365 63.9476 10.288H64.9476C64.9476 9.90613 64.8193 9.54581 64.5069 9.29194L63.8763 10.0681ZM63.9476 10.288C63.9476 10.4099 63.9124 10.465 63.8577 10.51L64.4934 11.282C64.8014 11.0284 64.9476 10.6781 64.9476 10.288H63.9476ZM63.8603 10.5079C63.8088 10.5497 63.696 10.604 63.4556 10.604V11.604C63.8338 11.604 64.201 11.5196 64.4909 11.2841L63.8603 10.5079ZM63.4556 10.604H59.3756V11.604H63.4556V10.604ZM58.8756 11.104V13.568H59.8756V11.104H58.8756ZM58.8756 13.568C58.8756 13.89 58.953 14.2107 59.1699 14.467L59.9333 13.821C59.9155 13.8 59.8756 13.7367 59.8756 13.568H58.8756ZM59.1842 14.4831C59.4196 14.7382 59.7308 14.852 60.0636 14.852V13.852C59.9697 13.852 59.9395 13.8271 59.919 13.8049L59.1842 14.4831ZM60.0636 14.852H65.0236V13.852H60.0636V14.852ZM65.0236 14.852C65.2719 14.852 65.3821 14.9101 65.4303 14.9523L66.0888 14.1997C65.7957 13.9432 65.4153 13.852 65.0236 13.852V14.852ZM65.4443 14.9641C65.4731 14.9875 65.5156 15.0325 65.5156 15.184H66.5156C66.5156 14.8021 66.3873 14.4418 66.0749 14.1879L65.4443 14.9641ZM65.5156 15.184C65.5156 15.3059 65.4804 15.361 65.4257 15.406L66.0614 16.178C66.3694 15.9244 66.5156 15.5741 66.5156 15.184H65.5156ZM65.4283 15.4039C65.3768 15.4457 65.264 15.5 65.0236 15.5V16.5C65.4018 16.5 65.769 16.4156 66.0589 16.1801L65.4283 15.4039ZM65.0236 15.5H59.8076V16.5H65.0236V15.5ZM68.2938 5.424L67.9492 5.06169L67.9448 5.066L68.2938 5.424ZM76.5498 5.728L76.2465 6.12548L76.2465 6.12548L76.5498 5.728ZM76.7418 11.168L76.3998 10.8032L76.397 10.8059L76.7418 11.168ZM74.0218 12.128V11.628H72.809L73.6694 12.4827L74.0218 12.128ZM76.4538 14.544L76.8074 14.1904L76.8062 14.1893L76.4538 14.544ZM76.4058 15.872L76.7115 16.2676L76.7216 16.2599L76.7312 16.2516L76.4058 15.872ZM74.8698 15.728L75.2372 15.3889L75.2324 15.3836L75.2274 15.3785L74.8698 15.728ZM71.4138 12.192L71.7714 11.8425L71.6243 11.692H71.4138V12.192ZM69.7818 12.192V11.692H69.2818V12.192H69.7818ZM69.4778 15.904L69.1557 15.5215L69.1557 15.5215L69.4778 15.904ZM67.9418 15.904L67.6096 16.2777L67.6096 16.2777L67.9418 15.904ZM74.5338 10.336L74.6996 10.8077L74.6996 10.8077L74.5338 10.336ZM75.3658 9.696L74.9317 9.44791L74.9287 9.45318L75.3658 9.696ZM74.9498 6.928L74.6545 7.33154L74.6592 7.33487L74.9498 6.928ZM69.9578 6.656L69.5904 6.31686L69.5831 6.32479L69.5761 6.33303L69.9578 6.656ZM69.7818 10.544H69.2818V11.044H69.7818V10.544ZM68.1538 7.168C68.1538 6.52 68.3358 6.08135 68.6429 5.782L67.9448 5.066C67.3985 5.59865 67.1538 6.32267 67.1538 7.168H68.1538ZM68.6384 5.78628C68.9594 5.48095 69.4257 5.3 70.1018 5.3V4.3C69.2419 4.3 68.5029 4.53505 67.9492 5.06172L68.6384 5.78628ZM70.1018 5.3H72.9498V4.3H70.1018V5.3ZM72.9498 5.3C74.487 5.3 75.5596 5.6013 76.2465 6.12548L76.8531 5.33052C75.9187 4.61737 74.5913 4.3 72.9498 4.3V5.3ZM76.2465 6.12548C76.9075 6.62996 77.2658 7.38982 77.2658 8.496H78.2658C78.2658 7.14884 77.8134 6.06337 76.8531 5.33052L76.2465 6.12548ZM77.2658 8.496C77.2658 9.53179 76.9601 10.278 76.3998 10.8032L77.0838 11.5328C77.8889 10.778 78.2658 9.74287 78.2658 8.496H77.2658ZM76.397 10.8059C75.8383 11.338 75.0659 11.628 74.0218 11.628V12.628C75.2604 12.628 76.3014 12.278 77.0866 11.5301L76.397 10.8059ZM73.6694 12.4827L76.1014 14.8987L76.8062 14.1893L74.3742 11.7733L73.6694 12.4827ZM76.1003 14.8976C76.2095 15.0068 76.2418 15.102 76.2418 15.2H77.2418C77.2418 14.8073 77.0822 14.4652 76.8074 14.1904L76.1003 14.8976ZM76.2418 15.2C76.2418 15.287 76.2124 15.3793 76.0804 15.4924L76.7312 16.2516C77.0473 15.9807 77.2418 15.625 77.2418 15.2H76.2418ZM76.1001 15.4764C75.9246 15.6119 75.8 15.644 75.7178 15.644V16.644C76.0836 16.644 76.4177 16.4947 76.7115 16.2676L76.1001 15.4764ZM75.7178 15.644C75.578 15.644 75.421 15.588 75.2372 15.3889L74.5024 16.0671C74.8306 16.4227 75.2389 16.644 75.7178 16.644V15.644ZM75.2274 15.3785L71.7714 11.8425L71.0562 12.5415L74.5122 16.0775L75.2274 15.3785ZM71.4138 11.692H69.7818V12.692H71.4138V11.692ZM69.2818 12.192V15.2H70.2818V12.192H69.2818ZM69.2818 15.2C69.2818 15.3722 69.2304 15.4587 69.1557 15.5215L69.7999 16.2865C70.1305 16.008 70.2818 15.6251 70.2818 15.2H69.2818ZM69.1557 15.5215C69.0579 15.6039 68.9221 15.66 68.7098 15.66V16.66C69.1162 16.66 69.4924 16.5454 69.7999 16.2865L69.1557 15.5215ZM68.7098 15.66C68.481 15.66 68.3535 15.601 68.274 15.5303L67.6096 16.2777C67.9141 16.5483 68.2986 16.66 68.7098 16.66V15.66ZM68.274 15.5303C68.2065 15.4703 68.1538 15.3814 68.1538 15.2H67.1538C67.1538 15.6159 67.2931 15.9964 67.6096 16.2777L68.274 15.5303ZM68.1538 15.2V7.168H67.1538V15.2H68.1538ZM72.8858 11.044C73.6132 11.044 74.2275 10.9736 74.6996 10.8077L74.3681 9.86427C74.0508 9.97574 73.5664 10.044 72.8858 10.044V11.044ZM74.6996 10.8077C75.1775 10.6398 75.5688 10.3602 75.8029 9.93882L74.9287 9.45318C74.8428 9.60782 74.6795 9.75486 74.3681 9.86427L74.6996 10.8077ZM75.7999 9.94407C76.0291 9.54304 76.1218 9.04712 76.1218 8.496H75.1218C75.1218 8.94754 75.0439 9.25163 74.9317 9.44793L75.7999 9.94407ZM76.1218 8.496C76.1218 7.66552 75.8598 6.96354 75.2404 6.52113L74.6592 7.33487C74.9358 7.53246 75.1218 7.87581 75.1218 8.496H76.1218ZM75.2451 6.52448C74.6793 6.11049 73.8613 5.948 72.8858 5.948V6.948C73.7877 6.948 74.3457 7.10551 74.6546 7.33151L75.2451 6.52448ZM72.8858 5.948H70.4698V6.948H72.8858V5.948ZM70.4698 5.948C70.137 5.948 69.8259 6.06176 69.5904 6.31686L70.3252 6.99514C70.3457 6.97291 70.3759 6.948 70.4698 6.948V5.948ZM69.5761 6.33303C69.3592 6.58934 69.2818 6.91003 69.2818 7.232H70.2818C70.2818 7.06331 70.3217 6.99999 70.3395 6.97897L69.5761 6.33303ZM69.2818 7.232V10.544H70.2818V7.232H69.2818ZM69.7818 11.044H72.8858V10.044H69.7818V11.044ZM81.8678 15.648L81.6887 16.1148L81.6934 16.1166L81.8678 15.648ZM79.4838 14.144L79.1302 14.4976L79.136 14.5032L79.4838 14.144ZM80.8918 13.04L81.2293 12.6711L81.2195 12.6621L81.2092 12.6536L80.8918 13.04ZM82.6678 14.112L82.4922 14.5802L82.501 14.5834L82.6678 14.112ZM86.4598 14.128L86.7154 14.5579L86.7238 14.5526L86.4598 14.128ZM86.4118 12L86.132 12.4145L86.1393 12.4192L86.4118 12ZM84.2358 11.232L84.3427 10.7435L84.3426 10.7435L84.2358 11.232ZM80.7158 9.84L80.4049 10.2316L80.4077 10.2338L80.7158 9.84ZM80.2038 6.08L80.5835 6.40542L80.5872 6.40097L80.2038 6.08ZM81.8038 5.024L81.9729 5.49455L81.977 5.49305L81.8038 5.024ZM86.8118 5.136L86.6141 5.59531L86.6218 5.59847L86.8118 5.136ZM88.5878 6.496L89.0129 6.23282L89.0063 6.22213L88.9992 6.21178L88.5878 6.496ZM88.7958 7.072L89.2954 7.09198L89.2958 7.082V7.072H88.7958ZM88.3958 7.76L88.6804 8.1711L88.6882 8.16569L88.6958 8.16L88.3958 7.76ZM87.0998 7.52L86.7148 7.83901L86.7157 7.84009L87.0998 7.52ZM85.8518 6.64L85.6595 7.10155L85.6629 7.10292L85.8518 6.64ZM82.3958 6.672L82.6329 7.11225L82.6368 7.11011L82.3958 6.672ZM82.3798 8.624L82.105 9.04171L82.1113 9.04586L82.1178 9.04983L82.3798 8.624ZM84.5238 9.36L84.6396 8.87359L84.6366 8.87289L84.5238 9.36ZM87.2278 10.272L87.0042 10.7192L87.0098 10.722L87.2278 10.272ZM88.7158 11.456L88.3012 11.7356L88.3057 11.7421L88.7158 11.456ZM88.6518 14.72L89.044 15.0301L89.0475 15.0257L88.6518 14.72ZM87.1158 15.792L87.2897 16.2608L87.2963 16.2583L87.1158 15.792ZM84.8118 15.66C83.8219 15.66 82.9 15.4986 82.0422 15.1794L81.6934 16.1166C82.6703 16.4801 83.711 16.66 84.8118 16.66V15.66ZM82.0469 15.1812C81.1893 14.8521 80.4528 14.3862 79.8316 13.7848L79.136 14.5032C79.8588 15.2031 80.7117 15.7399 81.6887 16.1148L82.0469 15.1812ZM79.8374 13.7904C79.7592 13.7123 79.7438 13.6541 79.7438 13.6H78.7438C78.7438 13.9513 78.8884 14.2557 79.1303 14.4976L79.8374 13.7904ZM79.7438 13.6C79.7438 13.5329 79.7698 13.4291 79.9174 13.2816L79.2103 12.5744C78.9312 12.8535 78.7438 13.1978 78.7438 13.6H79.7438ZM79.9174 13.2816C80.0135 13.1854 80.0786 13.172 80.1238 13.172V12.172C79.7636 12.172 79.4555 12.3292 79.2103 12.5744L79.9174 13.2816ZM80.1238 13.172C80.1591 13.172 80.3009 13.2016 80.5744 13.4264L81.2092 12.6536C80.8854 12.3877 80.5152 12.172 80.1238 12.172V13.172ZM80.5543 13.4089C81.1061 13.9138 81.7542 14.3034 82.4923 14.5802L82.8434 13.6438C82.2161 13.4086 81.6802 13.0836 81.2293 12.6711L80.5543 13.4089ZM82.501 14.5834C83.248 14.8477 84.019 14.98 84.8118 14.98V13.98C84.1326 13.98 83.4743 13.867 82.8346 13.6406L82.501 14.5834ZM84.8118 14.98C85.5616 14.98 86.2127 14.8567 86.7154 14.5578L86.2043 13.6982C85.9176 13.8687 85.47 13.98 84.8118 13.98V14.98ZM86.7238 14.5526C87.2541 14.223 87.5518 13.7268 87.5518 13.104H86.5518C86.5518 13.3558 86.4548 13.5424 86.1958 13.7034L86.7238 14.5526ZM87.5518 13.104C87.5518 12.4553 87.2345 11.9384 86.6843 11.5808L86.1393 12.4192C86.4425 12.6163 86.5518 12.8354 86.5518 13.104H87.5518ZM86.6915 11.5856C86.182 11.2416 85.3778 10.97 84.3427 10.7435L84.129 11.7204C85.1418 11.942 85.7883 12.1824 86.1321 12.4144L86.6915 11.5856ZM84.3426 10.7435C82.7574 10.3971 81.6716 9.95307 81.024 9.44625L80.4077 10.2338C81.2321 10.8789 82.4929 11.3629 84.1291 11.7205L84.3426 10.7435ZM81.0268 9.44844C80.4179 8.96491 80.1278 8.36635 80.1278 7.616H79.1278C79.1278 8.67898 79.5631 9.56309 80.4049 10.2316L81.0268 9.44844ZM80.1278 7.616C80.1278 7.1625 80.275 6.76519 80.5834 6.4054L79.8242 5.7546C79.3646 6.29081 79.1278 6.91749 79.1278 7.616H80.1278ZM80.5872 6.40097C80.9033 6.02338 81.3559 5.71626 81.9729 5.49454L81.6347 4.55346C80.8863 4.82241 80.2723 5.21928 79.8204 5.75903L80.5872 6.40097ZM81.977 5.49305C82.6051 5.26112 83.3342 5.14 84.1718 5.14V4.14C83.2388 4.14 82.3892 4.27487 81.6306 4.55495L81.977 5.49305ZM84.1718 5.14C85.1083 5.14 85.9191 5.29599 86.6141 5.59524L87.0095 4.67676C86.1686 4.31467 85.2193 4.14 84.1718 4.14V5.14ZM86.6218 5.59847C87.3274 5.88846 87.8354 6.28658 88.1764 6.78022L88.9992 6.21178C88.5296 5.53209 87.8536 5.02354 87.0019 4.67353L86.6218 5.59847ZM88.1627 6.75918C88.2808 6.94996 88.2958 7.04717 88.2958 7.072H89.2958C89.2958 6.77683 89.1722 6.49004 89.0129 6.23282L88.1627 6.75918ZM88.2962 7.05202C88.2928 7.13818 88.2581 7.23832 88.0958 7.36L88.6958 8.16C89.0456 7.89768 89.2775 7.53915 89.2954 7.09198L88.2962 7.05202ZM88.1112 7.3489C88.0625 7.3826 88.0035 7.404 87.9158 7.404V8.404C88.1908 8.404 88.4518 8.3294 88.6804 8.1711L88.1112 7.3489ZM87.9158 7.404C87.7349 7.404 87.6031 7.34294 87.4839 7.19991L86.7157 7.84009C87.0232 8.20906 87.4354 8.404 87.9158 8.404V7.404ZM87.4848 7.20099C87.1149 6.75459 86.6271 6.41638 86.0408 6.17708L85.6629 7.10292C86.1219 7.29029 86.466 7.53875 86.7148 7.83901L87.4848 7.20099ZM86.0441 6.17846C85.4656 5.93739 84.8394 5.82 84.1718 5.82V6.82C84.7202 6.82 85.2141 6.91594 85.6595 7.10154L86.0441 6.17846ZM84.1718 5.82C83.3728 5.82 82.6853 5.94214 82.1549 6.23389L82.6368 7.11011C82.9597 6.93252 83.4562 6.82 84.1718 6.82V5.82ZM82.1588 6.23176C81.6132 6.52553 81.2718 6.99264 81.2718 7.616H82.2718C82.2718 7.42869 82.3464 7.26647 82.6329 7.11224L82.1588 6.23176ZM81.2718 7.616C81.2718 8.22452 81.591 8.70356 82.105 9.04171L82.6546 8.20629C82.3579 8.0111 82.2718 7.81814 82.2718 7.616H81.2718ZM82.1178 9.04983C82.6076 9.35129 83.3907 9.61082 84.411 9.84711L84.6366 8.87289C83.6303 8.63984 82.984 8.40871 82.6419 8.19817L82.1178 9.04983ZM84.408 9.8464C85.5075 10.1082 86.3685 10.4013 87.0042 10.7192L87.4514 9.82479C86.7218 9.45999 85.7801 9.14514 84.6396 8.8736L84.408 9.8464ZM87.0098 10.722C87.6413 11.0279 88.0563 11.3723 88.3013 11.7356L89.1303 11.1764C88.7567 10.6224 88.1796 10.1775 87.4458 9.82201L87.0098 10.722ZM88.3057 11.7421C88.559 12.1051 88.6958 12.551 88.6958 13.104H89.6958C89.6958 12.377 89.5126 11.7242 89.1259 11.1699L88.3057 11.7421ZM88.6958 13.104C88.6958 13.6043 88.5494 14.0348 88.2562 14.4143L89.0475 15.0257C89.4796 14.4665 89.6958 13.8197 89.6958 13.104H88.6958ZM88.2596 14.4099C87.963 14.785 87.5311 15.0951 86.9353 15.3257L87.2963 16.2583C88.0232 15.9769 88.6153 15.5723 89.044 15.0301L88.2596 14.4099ZM86.9419 15.3232C86.3478 15.5436 85.6408 15.66 84.8118 15.66V16.66C85.7321 16.66 86.5612 16.5311 87.2897 16.2608L86.9419 15.3232Z" fill="white" fill-opacity="0.5"/>
<path d="M101.764 16.16C100.559 16.16 99.5136 15.9307 98.6283 15.472C97.7429 15.0133 97.0656 14.352 96.5963 13.488C96.1269 12.624 95.8923 11.6 95.8923 10.416C95.8923 9.232 96.1269 8.208 96.5963 7.344C97.0656 6.46933 97.7376 5.80267 98.6123 5.344C99.4976 4.87467 100.538 4.64 101.732 4.64C102.724 4.64 103.642 4.81067 104.484 5.152C105.327 5.49333 105.951 5.94667 106.356 6.512C106.484 6.68267 106.548 6.85867 106.548 7.04C106.548 7.30667 106.404 7.54667 106.116 7.76C105.988 7.856 105.828 7.904 105.636 7.904C105.476 7.904 105.316 7.872 105.156 7.808C104.996 7.73333 104.863 7.632 104.756 7.504C104.394 7.088 103.972 6.78933 103.492 6.608C103.012 6.416 102.426 6.32 101.732 6.32C100.57 6.32 99.6629 6.68267 99.0123 7.408C98.3616 8.12267 98.0363 9.12533 98.0363 10.416C98.0363 11.696 98.3616 12.6933 99.0123 13.408C99.6736 14.1227 100.591 14.48 101.764 14.48C103.108 14.48 104.18 14.0853 104.98 13.296C105.311 12.9867 105.615 12.832 105.892 12.832C106.084 12.832 106.26 12.896 106.42 13.024C106.666 13.2373 106.788 13.472 106.788 13.728C106.788 13.92 106.719 14.1067 106.58 14.288C106.122 14.8747 105.466 15.3333 104.612 15.664C103.77 15.9947 102.82 16.16 101.764 16.16ZM113.339 16.16C112.337 16.16 111.457 15.9573 110.699 15.552C109.953 15.1467 109.371 14.5707 108.955 13.824C108.55 13.0667 108.347 12.176 108.347 11.152V5.6C108.347 5.30133 108.443 5.06667 108.635 4.896C108.827 4.72533 109.083 4.64 109.403 4.64C109.723 4.64 109.979 4.73067 110.171 4.912C110.374 5.08267 110.475 5.312 110.475 5.6V11.2C110.475 12.256 110.726 13.0667 111.227 13.632C111.729 14.1973 112.449 14.48 113.387 14.48C114.315 14.48 115.03 14.1973 115.531 13.632C116.043 13.056 116.299 12.2453 116.299 11.2V5.6C116.299 5.312 116.395 5.08267 116.587 4.912C116.79 4.73067 117.051 4.64 117.371 4.64C117.691 4.64 117.947 4.72533 118.139 4.896C118.331 5.06667 118.427 5.30133 118.427 5.6V11.152C118.427 12.144 118.214 13.0187 117.787 13.776C117.371 14.5333 116.779 15.12 116.011 15.536C115.243 15.952 114.353 16.16 113.339 16.16ZM122.706 16C121.895 16 121.266 15.7867 120.818 15.36C120.37 14.9333 120.146 14.336 120.146 13.568V5.6C120.146 5.30133 120.242 5.06667 120.434 4.896C120.626 4.72533 120.882 4.64 121.202 4.64C121.522 4.64 121.778 4.73067 121.97 4.912C122.173 5.08267 122.274 5.312 122.274 5.6V13.568C122.274 13.8133 122.333 14.0053 122.45 14.144C122.578 14.2827 122.749 14.352 122.962 14.352H128.082C128.402 14.352 128.647 14.4267 128.818 14.576C128.989 14.7147 129.074 14.9173 129.074 15.184C129.074 15.44 128.983 15.6427 128.802 15.792C128.631 15.9307 128.391 16 128.082 16H122.706ZM132.396 16.16C132.076 16.16 131.82 16.0747 131.628 15.904C131.436 15.7333 131.34 15.4987 131.34 15.2V6.448H128.252C127.942 6.448 127.697 6.37867 127.516 6.24C127.345 6.09067 127.26 5.888 127.26 5.632C127.26 5.36533 127.345 5.16267 127.516 5.024C127.686 4.87467 127.932 4.8 128.252 4.8H136.556C136.876 4.8 137.121 4.87467 137.292 5.024C137.462 5.16267 137.548 5.36533 137.548 5.632C137.548 5.888 137.457 6.09067 137.276 6.24C137.105 6.37867 136.865 6.448 136.556 6.448H133.468V15.2C133.468 15.488 133.366 15.7227 133.164 15.904C132.972 16.0747 132.716 16.16 132.396 16.16ZM143.777 16.16C142.774 16.16 141.894 15.9573 141.137 15.552C140.39 15.1467 139.809 14.5707 139.393 13.824C138.987 13.0667 138.785 12.176 138.785 11.152V5.6C138.785 5.30133 138.881 5.06667 139.073 4.896C139.265 4.72533 139.521 4.64 139.841 4.64C140.161 4.64 140.417 4.73067 140.609 4.912C140.811 5.08267 140.913 5.312 140.913 5.6V11.2C140.913 12.256 141.163 13.0667 141.665 13.632C142.166 14.1973 142.886 14.48 143.825 14.48C144.753 14.48 145.467 14.1973 145.969 13.632C146.481 13.056 146.737 12.2453 146.737 11.2V5.6C146.737 5.312 146.833 5.08267 147.025 4.912C147.227 4.73067 147.489 4.64 147.809 4.64C148.129 4.64 148.385 4.72533 148.577 4.896C148.769 5.06667 148.865 5.30133 148.865 5.6V11.152C148.865 12.144 148.651 13.0187 148.225 13.776C147.809 14.5333 147.217 15.12 146.449 15.536C145.681 15.952 144.79 16.16 143.777 16.16ZM150.584 7.168C150.584 6.42133 150.797 5.84 151.224 5.424C151.661 5.008 152.264 4.8 153.032 4.8H155.88C157.469 4.8 158.669 5.10933 159.48 5.728C160.29 6.34667 160.696 7.26933 160.696 8.496C160.696 9.63733 160.354 10.528 159.672 11.168C159 11.808 158.093 12.128 156.952 12.128L159.384 14.544C159.576 14.736 159.672 14.9547 159.672 15.2C159.672 15.456 159.56 15.68 159.336 15.872C159.101 16.0533 158.872 16.144 158.648 16.144C158.338 16.144 158.056 16.0053 157.8 15.728L154.344 12.192H152.712V15.2C152.712 15.4987 152.61 15.7333 152.408 15.904C152.205 16.0747 151.949 16.16 151.64 16.16C151.32 16.16 151.064 16.0747 150.872 15.904C150.68 15.7333 150.584 15.4987 150.584 15.2V7.168ZM155.816 10.544C156.52 10.544 157.069 10.4747 157.464 10.336C157.858 10.1973 158.136 9.984 158.296 9.696C158.466 9.39733 158.552 8.99733 158.552 8.496C158.552 7.77067 158.328 7.248 157.88 6.928C157.442 6.608 156.754 6.448 155.816 6.448H153.4C153.186 6.448 153.016 6.51733 152.888 6.656C152.77 6.79467 152.712 6.98667 152.712 7.232V10.544H155.816ZM164.894 16C164.083 16 163.454 15.7867 163.006 15.36C162.558 14.9333 162.334 14.336 162.334 13.568V7.168C162.334 6.42133 162.547 5.84 162.974 5.424C163.411 5.008 164.014 4.8 164.782 4.8H169.758C170.078 4.8 170.323 4.87467 170.494 5.024C170.664 5.16267 170.75 5.36533 170.75 5.632C170.75 5.888 170.659 6.09067 170.477 6.24C170.307 6.37867 170.067 6.448 169.758 6.448H165.15C164.936 6.448 164.766 6.51733 164.638 6.656C164.52 6.79467 164.462 6.98667 164.462 7.232V9.456H168.542C168.862 9.456 169.107 9.53067 169.278 9.68C169.448 9.81867 169.534 10.0213 169.534 10.288C169.534 10.544 169.443 10.7467 169.262 10.896C169.091 11.0347 168.851 11.104 168.542 11.104H164.462V13.568C164.462 13.8133 164.52 14.0053 164.638 14.144C164.766 14.2827 164.936 14.352 165.15 14.352H170.11C170.43 14.352 170.675 14.4267 170.845 14.576C171.016 14.7147 171.102 14.9173 171.102 15.184C171.102 15.44 171.011 15.6427 170.83 15.792C170.659 15.9307 170.419 16 170.11 16H164.894Z" fill="black"/>
<path d="M98.6283 15.472L98.3982 15.916L98.3982 15.916L98.6283 15.472ZM96.5963 7.344L97.0356 7.58267L97.0368 7.58041L96.5963 7.344ZM98.6123 5.344L98.8445 5.78681L98.8464 5.78576L98.6123 5.344ZM104.484 5.152L104.297 5.61542L104.297 5.61542L104.484 5.152ZM106.356 6.512L105.95 6.80341L105.956 6.812L106.356 6.512ZM106.116 7.76L105.819 7.35821L105.816 7.36L106.116 7.76ZM105.156 7.808L104.945 8.26109L104.958 8.26703L104.971 8.27224L105.156 7.808ZM104.756 7.504L105.14 7.18383L105.133 7.17543L104.756 7.504ZM103.492 6.608L103.307 7.07232L103.316 7.07574L103.492 6.608ZM99.0123 7.408L99.382 7.74462L99.3844 7.74188L99.0123 7.408ZM99.0123 13.408L98.6425 13.7446L98.6453 13.7476L99.0123 13.408ZM104.98 13.296L104.639 12.9307L104.629 12.9401L104.98 13.296ZM106.42 13.024L106.748 12.6467L106.741 12.64L106.733 12.6336L106.42 13.024ZM106.58 14.288L106.974 14.596L106.977 14.5917L106.58 14.288ZM104.612 15.664L104.432 15.1978L104.43 15.1986L104.612 15.664ZM101.764 15.66C100.622 15.66 99.6591 15.443 98.8583 15.028L98.3982 15.916C99.368 16.4184 100.495 16.66 101.764 16.66V15.66ZM98.8583 15.028C98.0603 14.6147 97.4565 14.0242 97.0356 13.2493L96.1569 13.7267C96.6746 14.6798 97.4255 15.412 98.3982 15.916L98.8583 15.028ZM97.0356 13.2493C96.6134 12.4722 96.3923 11.5336 96.3923 10.416H95.3923C95.3923 11.6664 95.6404 12.7758 96.1569 13.7267L97.0356 13.2493ZM96.3923 10.416C96.3923 9.29843 96.6134 8.35985 97.0356 7.58267L96.1569 7.10533C95.6404 8.05615 95.3923 9.16557 95.3923 10.416H96.3923ZM97.0368 7.58041C97.4592 6.79335 98.0588 6.1988 98.8445 5.78681L98.38 4.90119C97.4164 5.40653 96.672 6.14532 96.1557 7.10759L97.0368 7.58041ZM98.8464 5.78576C99.647 5.36138 100.604 5.14 101.732 5.14V4.14C100.472 4.14 99.3482 4.38795 98.3781 4.90224L98.8464 5.78576ZM101.732 5.14C102.666 5.14 103.519 5.30036 104.297 5.61542L104.672 4.68857C103.764 4.32097 102.783 4.14 101.732 4.14V5.14ZM104.297 5.61542C105.078 5.93194 105.614 6.33518 105.95 6.80334L106.763 6.22066C106.288 5.55815 105.576 5.05472 104.672 4.68857L104.297 5.61542ZM105.956 6.812C106.031 6.91192 106.048 6.98507 106.048 7.04H107.048C107.048 6.73227 106.937 6.45341 106.756 6.212L105.956 6.812ZM106.048 7.04C106.048 7.09724 106.027 7.20403 105.819 7.35822L106.414 8.16178C106.782 7.8893 107.048 7.5161 107.048 7.04H106.048ZM105.816 7.36C105.791 7.3789 105.742 7.404 105.636 7.404V8.404C105.914 8.404 106.185 8.3331 106.416 8.16L105.816 7.36ZM105.636 7.404C105.545 7.404 105.447 7.38597 105.342 7.34376L104.971 8.27224C105.185 8.35803 105.408 8.404 105.636 8.404V7.404ZM105.368 7.35491C105.27 7.30944 105.197 7.25207 105.14 7.18391L104.372 7.82409C104.529 8.01193 104.722 8.15722 104.945 8.26109L105.368 7.35491ZM105.133 7.17543C104.72 6.70206 104.232 6.35294 103.669 6.14026L103.316 7.07574C103.713 7.22573 104.067 7.47393 104.379 7.83257L105.133 7.17543ZM103.678 6.14376C103.122 5.92158 102.469 5.82 101.732 5.82V6.82C102.382 6.82 102.902 6.91042 103.307 7.07224L103.678 6.14376ZM101.732 5.82C100.458 5.82 99.4039 6.22266 98.6401 7.07412L99.3844 7.74188C99.922 7.14268 100.682 6.82 101.732 6.82V5.82ZM98.6425 7.07139C97.8832 7.90536 97.5363 9.04334 97.5363 10.416H98.5363C98.5363 9.20732 98.8399 8.33998 99.382 7.74461L98.6425 7.07139ZM97.5363 10.416C97.5363 11.7793 97.8839 12.9114 98.6425 13.7446L99.382 13.0714C98.8393 12.4753 98.5363 11.6127 98.5363 10.416H97.5363ZM98.6453 13.7476C99.4204 14.5852 100.482 14.98 101.764 14.98V13.98C100.699 13.98 99.9268 13.6601 99.3792 13.0684L98.6453 13.7476ZM101.764 14.98C103.212 14.98 104.42 14.5513 105.331 13.6519L104.629 12.9401C103.941 13.6194 103.004 13.98 101.764 13.98V14.98ZM105.322 13.6611C105.615 13.3867 105.801 13.332 105.892 13.332V12.332C105.428 12.332 105.007 12.5867 104.639 12.9309L105.322 13.6611ZM105.892 13.332C105.963 13.332 106.03 13.3522 106.108 13.4144L106.733 12.6336C106.49 12.4398 106.206 12.332 105.892 12.332V13.332ZM106.092 13.4013C106.26 13.5472 106.288 13.654 106.288 13.728H107.288C107.288 13.29 107.071 12.9274 106.748 12.6467L106.092 13.4013ZM106.288 13.728C106.288 13.7905 106.268 13.8731 106.183 13.9843L106.977 14.5917C107.17 14.3402 107.288 14.0495 107.288 13.728H106.288ZM106.186 13.98C105.795 14.4811 105.22 14.8923 104.432 15.1978L104.793 16.1302C105.711 15.7744 106.449 15.2683 106.974 14.596L106.186 13.98ZM104.43 15.1986C103.654 15.5029 102.768 15.66 101.764 15.66V16.66C102.873 16.66 103.885 16.4864 104.795 16.1294L104.43 15.1986ZM110.699 15.552L110.461 15.9914L110.463 15.9928L110.699 15.552ZM108.955 13.824L108.514 14.06L108.518 14.0674L108.955 13.824ZM108.635 4.896L108.967 5.2697L108.967 5.2697L108.635 4.896ZM110.171 4.912L109.828 5.27551L109.838 5.28528L109.849 5.29446L110.171 4.912ZM111.227 13.632L110.853 13.9637L110.853 13.9637L111.227 13.632ZM115.531 13.632L115.158 13.2998L115.157 13.3003L115.531 13.632ZM116.587 4.912L116.919 5.28571L116.921 5.28462L116.587 4.912ZM118.139 4.896L117.807 5.2697L117.807 5.2697L118.139 4.896ZM117.787 13.776L117.352 13.5306L117.349 13.5353L117.787 13.776ZM116.011 15.536L115.773 15.0964L115.773 15.0964L116.011 15.536ZM113.339 15.66C112.405 15.66 111.609 15.4716 110.935 15.1112L110.463 15.9928C111.304 16.443 112.268 16.66 113.339 16.66V15.66ZM110.938 15.1126C110.275 14.7528 109.762 14.245 109.392 13.5806L108.518 14.0674C108.98 14.8963 109.63 15.5406 110.461 15.9914L110.938 15.1126ZM109.396 13.5881C109.036 12.916 108.847 12.1094 108.847 11.152H107.847C107.847 12.2426 108.063 13.2173 108.514 14.0599L109.396 13.5881ZM108.847 11.152V5.6H107.847V11.152H108.847ZM108.847 5.6C108.847 5.41856 108.9 5.32972 108.967 5.2697L108.303 4.52229C107.987 4.80362 107.847 5.18411 107.847 5.6H108.847ZM108.967 5.2697C109.047 5.19901 109.174 5.14 109.403 5.14V4.14C108.992 4.14 108.608 4.25166 108.303 4.5223L108.967 5.2697ZM109.403 5.14C109.624 5.14 109.748 5.19967 109.828 5.27551L110.515 4.54849C110.211 4.26167 109.822 4.14 109.403 4.14V5.14ZM109.849 5.29446C109.928 5.36113 109.975 5.44494 109.975 5.6H110.975C110.975 5.17906 110.819 4.8042 110.493 4.52954L109.849 5.29446ZM109.975 5.6V11.2H110.975V5.6H109.975ZM109.975 11.2C109.975 12.3298 110.243 13.2762 110.853 13.9637L111.601 13.3003C111.208 12.8571 110.975 12.1822 110.975 11.2H109.975ZM110.853 13.9637C111.472 14.6612 112.343 14.98 113.387 14.98V13.98C112.554 13.98 111.986 13.7335 111.601 13.3003L110.853 13.9637ZM113.387 14.98C114.423 14.98 115.288 14.66 115.905 13.9637L115.157 13.3003C114.772 13.7347 114.208 13.98 113.387 13.98V14.98ZM115.905 13.9642C116.523 13.2684 116.799 12.3237 116.799 11.2H115.799C115.799 12.1669 115.563 12.8436 115.158 13.2998L115.905 13.9642ZM116.799 11.2V5.6H115.799V11.2H116.799ZM116.799 5.6C116.799 5.43555 116.848 5.3494 116.919 5.2857L116.255 4.53829C115.943 4.81593 115.799 5.18845 115.799 5.6H116.799ZM116.921 5.28462C117.016 5.19947 117.151 5.14 117.371 5.14V4.14C116.951 4.14 116.564 4.26186 116.254 4.53938L116.921 5.28462ZM117.371 5.14C117.6 5.14 117.728 5.19901 117.807 5.2697L118.471 4.5223C118.167 4.25166 117.782 4.14 117.371 4.14V5.14ZM117.807 5.2697C117.875 5.32972 117.927 5.41856 117.927 5.6H118.927C118.927 5.18411 118.788 4.80362 118.471 4.52229L117.807 5.2697ZM117.927 5.6V11.152H118.927V5.6H117.927ZM117.927 11.152C117.927 12.0703 117.73 12.8582 117.352 13.5306L118.223 14.0214C118.697 13.1791 118.927 12.2177 118.927 11.152H117.927ZM117.349 13.5353C116.98 14.2075 116.458 14.7256 115.773 15.0964L116.249 15.9756C117.101 15.5144 117.763 14.8592 118.225 14.0167L117.349 13.5353ZM115.773 15.0964C115.089 15.4668 114.283 15.66 113.339 15.66V16.66C114.422 16.66 115.397 16.4372 116.249 15.9756L115.773 15.0964ZM120.818 15.36L121.163 14.9979L121.163 14.9979L120.818 15.36ZM120.434 4.896L120.766 5.2697L120.766 5.2697L120.434 4.896ZM121.97 4.912L121.627 5.27551L121.637 5.28528L121.648 5.29446L121.97 4.912ZM122.45 14.144L122.068 14.467L122.075 14.4752L122.083 14.4831L122.45 14.144ZM128.818 14.576L128.489 14.9523L128.496 14.9583L128.503 14.9641L128.818 14.576ZM128.802 15.792L129.117 16.1801L129.12 16.178L128.802 15.792ZM122.706 15.5C121.983 15.5 121.492 15.3113 121.163 14.9979L120.473 15.7221C121.04 16.2621 121.808 16.5 122.706 16.5V15.5ZM121.163 14.9979C120.837 14.6875 120.646 14.2344 120.646 13.568H119.646C119.646 14.4376 119.903 15.1792 120.473 15.7221L121.163 14.9979ZM120.646 13.568V5.6H119.646V13.568H120.646ZM120.646 5.6C120.646 5.41856 120.699 5.32972 120.766 5.2697L120.102 4.52229C119.785 4.80362 119.646 5.18411 119.646 5.6H120.646ZM120.766 5.2697C120.846 5.19901 120.973 5.14 121.202 5.14V4.14C120.791 4.14 120.406 4.25166 120.102 4.5223L120.766 5.2697ZM121.202 5.14C121.423 5.14 121.546 5.19967 121.627 5.27551L122.313 4.54849C122.01 4.26167 121.621 4.14 121.202 4.14V5.14ZM121.648 5.29446C121.727 5.36113 121.774 5.44494 121.774 5.6H122.774C122.774 5.17906 122.618 4.8042 122.292 4.52954L121.648 5.29446ZM121.774 5.6V13.568H122.774V5.6H121.774ZM121.774 13.568C121.774 13.89 121.851 14.2107 122.068 14.467L122.832 13.821C122.814 13.8 122.774 13.7367 122.774 13.568H121.774ZM122.083 14.4831C122.318 14.7382 122.629 14.852 122.962 14.852V13.852C122.868 13.852 122.838 13.8271 122.817 13.8049L122.083 14.4831ZM122.962 14.852H128.082V13.852H122.962V14.852ZM128.082 14.852C128.33 14.852 128.441 14.9101 128.489 14.9523L129.147 14.1997C128.854 13.9432 128.474 13.852 128.082 13.852V14.852ZM128.503 14.9641C128.532 14.9875 128.574 15.0325 128.574 15.184H129.574C129.574 14.8021 129.446 14.4418 129.133 14.1879L128.503 14.9641ZM128.574 15.184C128.574 15.3059 128.539 15.361 128.484 15.406L129.12 16.178C129.428 15.9244 129.574 15.5741 129.574 15.184H128.574ZM128.487 15.4039C128.435 15.4457 128.322 15.5 128.082 15.5V16.5C128.46 16.5 128.827 16.4156 129.117 16.1801L128.487 15.4039ZM128.082 15.5H122.706V16.5H128.082V15.5ZM131.628 15.904L131.96 15.5303L131.96 15.5303L131.628 15.904ZM131.34 6.448H131.84V5.948H131.34V6.448ZM127.516 6.24L127.186 6.61629L127.199 6.62715L127.212 6.63718L127.516 6.24ZM127.516 5.024L127.831 5.41206L127.838 5.4063L127.845 5.40029L127.516 5.024ZM137.292 5.024L136.962 5.40029L136.969 5.4063L136.976 5.41206L137.292 5.024ZM137.276 6.24L137.591 6.62806L137.594 6.62597L137.276 6.24ZM133.468 6.448V5.948H132.968V6.448H133.468ZM133.164 15.904L133.496 16.2777L133.497 16.2766L133.164 15.904ZM132.396 15.66C132.167 15.66 132.039 15.601 131.96 15.5303L131.296 16.2777C131.6 16.5483 131.985 16.66 132.396 16.66V15.66ZM131.96 15.5303C131.892 15.4703 131.84 15.3814 131.84 15.2H130.84C130.84 15.6159 130.979 15.9964 131.296 16.2777L131.96 15.5303ZM131.84 15.2V6.448H130.84V15.2H131.84ZM131.34 5.948H128.252V6.948H131.34V5.948ZM128.252 5.948C128.014 5.948 127.887 5.89465 127.819 5.84282L127.212 6.63718C127.507 6.86269 127.871 6.948 128.252 6.948V5.948ZM127.845 5.86371C127.798 5.82216 127.76 5.76453 127.76 5.632H126.76C126.76 6.01147 126.893 6.35917 127.186 6.61629L127.845 5.86371ZM127.76 5.632C127.76 5.48053 127.802 5.43552 127.831 5.41206L127.2 4.63594C126.888 4.88981 126.76 5.25013 126.76 5.632H127.76ZM127.845 5.40029C127.893 5.35813 128.003 5.3 128.252 5.3V4.3C127.86 4.3 127.48 4.3912 127.186 4.64771L127.845 5.40029ZM128.252 5.3H136.556V4.3H128.252V5.3ZM136.556 5.3C136.804 5.3 136.914 5.35813 136.962 5.40029L137.621 4.64771C137.328 4.3912 136.947 4.3 136.556 4.3V5.3ZM136.976 5.41206C137.005 5.43552 137.048 5.48053 137.048 5.632H138.048C138.048 5.25013 137.919 4.88981 137.607 4.63594L136.976 5.41206ZM137.048 5.632C137.048 5.75386 137.013 5.80898 136.958 5.85403L137.594 6.62597C137.902 6.37236 138.048 6.02214 138.048 5.632H137.048ZM136.96 5.85194C136.909 5.89373 136.796 5.948 136.556 5.948V6.948C136.934 6.948 137.301 6.8636 137.591 6.62806L136.96 5.85194ZM136.556 5.948H133.468V6.948H136.556V5.948ZM132.968 6.448V15.2H133.968V6.448H132.968ZM132.968 15.2C132.968 15.3552 132.92 15.451 132.83 15.5314L133.497 16.2766C133.813 15.9943 133.968 15.6208 133.968 15.2H132.968ZM132.832 15.5303C132.752 15.601 132.625 15.66 132.396 15.66V16.66C132.807 16.66 133.191 16.5483 133.496 16.2777L132.832 15.5303ZM141.137 15.552L140.898 15.9914L140.901 15.9928L141.137 15.552ZM139.393 13.824L138.952 14.06L138.956 14.0674L139.393 13.824ZM139.073 4.896L139.405 5.2697L139.405 5.2697L139.073 4.896ZM140.609 4.912L140.265 5.27551L140.276 5.28528L140.287 5.29446L140.609 4.912ZM141.665 13.632L141.291 13.9637L141.291 13.9637L141.665 13.632ZM145.969 13.632L145.595 13.2998L145.595 13.3003L145.969 13.632ZM147.025 4.912L147.357 5.28571L147.358 5.28462L147.025 4.912ZM148.577 4.896L148.245 5.2697L148.245 5.2697L148.577 4.896ZM148.225 13.776L147.789 13.5306L147.787 13.5353L148.225 13.776ZM146.449 15.536L146.211 15.0964L146.211 15.0964L146.449 15.536ZM143.777 15.66C142.843 15.66 142.046 15.4716 141.373 15.1112L140.901 15.9928C141.742 16.443 142.706 16.66 143.777 16.66V15.66ZM141.375 15.1126C140.712 14.7528 140.2 14.245 139.83 13.5806L138.956 14.0674C139.418 14.8963 140.068 15.5406 140.898 15.9914L141.375 15.1126ZM139.834 13.5881C139.474 12.916 139.285 12.1094 139.285 11.152H138.285C138.285 12.2426 138.501 13.2173 138.952 14.0599L139.834 13.5881ZM139.285 11.152V5.6H138.285V11.152H139.285ZM139.285 5.6C139.285 5.41856 139.337 5.32972 139.405 5.2697L138.741 4.52229C138.424 4.80362 138.285 5.18411 138.285 5.6H139.285ZM139.405 5.2697C139.484 5.19901 139.612 5.14 139.841 5.14V4.14C139.43 4.14 139.045 4.25166 138.741 4.5223L139.405 5.2697ZM139.841 5.14C140.062 5.14 140.185 5.19967 140.265 5.27551L140.952 4.54849C140.648 4.26167 140.26 4.14 139.841 4.14V5.14ZM140.287 5.29446C140.366 5.36113 140.413 5.44494 140.413 5.6H141.413C141.413 5.17906 141.257 4.8042 140.931 4.52954L140.287 5.29446ZM140.413 5.6V11.2H141.413V5.6H140.413ZM140.413 11.2C140.413 12.3298 140.681 13.2762 141.291 13.9637L142.039 13.3003C141.646 12.8571 141.413 12.1822 141.413 11.2H140.413ZM141.291 13.9637C141.909 14.6612 142.78 14.98 143.825 14.98V13.98C142.992 13.98 142.423 13.7335 142.039 13.3003L141.291 13.9637ZM143.825 14.98C144.86 14.98 145.725 14.66 146.343 13.9637L145.595 13.3003C145.209 13.7347 144.645 13.98 143.825 13.98V14.98ZM146.342 13.9642C146.961 13.2684 147.237 12.3237 147.237 11.2H146.237C146.237 12.1669 146.001 12.8436 145.595 13.2998L146.342 13.9642ZM147.237 11.2V5.6H146.237V11.2H147.237ZM147.237 5.6C147.237 5.43555 147.285 5.3494 147.357 5.2857L146.693 4.53829C146.38 4.81593 146.237 5.18845 146.237 5.6H147.237ZM147.358 5.28462C147.453 5.19947 147.589 5.14 147.809 5.14V4.14C147.389 4.14 147.002 4.26186 146.691 4.53938L147.358 5.28462ZM147.809 5.14C148.038 5.14 148.165 5.19901 148.245 5.2697L148.909 4.5223C148.604 4.25166 148.22 4.14 147.809 4.14V5.14ZM148.245 5.2697C148.312 5.32972 148.365 5.41856 148.365 5.6H149.365C149.365 5.18411 149.225 4.80362 148.909 4.52229L148.245 5.2697ZM148.365 5.6V11.152H149.365V5.6H148.365ZM148.365 11.152C148.365 12.0703 148.168 12.8582 147.789 13.5306L148.66 14.0214C149.135 13.1791 149.365 12.2177 149.365 11.152H148.365ZM147.787 13.5353C147.417 14.2075 146.895 14.7256 146.211 15.0964L146.687 15.9756C147.538 15.5144 148.2 14.8592 148.663 14.0167L147.787 13.5353ZM146.211 15.0964C145.527 15.4668 144.72 15.66 143.777 15.66V16.66C144.86 16.66 145.835 16.4372 146.687 15.9756L146.211 15.0964ZM151.224 5.424L150.879 5.06169L150.874 5.066L151.224 5.424ZM159.48 5.728L159.176 6.12548L159.176 6.12548L159.48 5.728ZM159.672 11.168L159.33 10.8032L159.327 10.8059L159.672 11.168ZM156.952 12.128V11.628H155.739L156.599 12.4827L156.952 12.128ZM159.384 14.544L159.737 14.1904L159.736 14.1893L159.384 14.544ZM159.336 15.872L159.641 16.2676L159.651 16.2599L159.661 16.2516L159.336 15.872ZM157.8 15.728L158.167 15.3889L158.162 15.3836L158.157 15.3785L157.8 15.728ZM154.344 12.192L154.701 11.8425L154.554 11.692H154.344V12.192ZM152.712 12.192V11.692H152.212V12.192H152.712ZM152.408 15.904L152.085 15.5215L152.085 15.5215L152.408 15.904ZM150.872 15.904L150.539 16.2777L150.539 16.2777L150.872 15.904ZM157.464 10.336L157.629 10.8077L157.629 10.8077L157.464 10.336ZM158.296 9.696L157.861 9.44791L157.858 9.45318L158.296 9.696ZM157.88 6.928L157.584 7.33154L157.589 7.33487L157.88 6.928ZM152.888 6.656L152.52 6.31686L152.513 6.32479L152.506 6.33303L152.888 6.656ZM152.712 10.544H152.212V11.044H152.712V10.544ZM151.084 7.168C151.084 6.52 151.266 6.08135 151.573 5.782L150.874 5.066C150.328 5.59865 150.084 6.32267 150.084 7.168H151.084ZM151.568 5.78628C151.889 5.48095 152.355 5.3 153.032 5.3V4.3C152.172 4.3 151.433 4.53505 150.879 5.06172L151.568 5.78628ZM153.032 5.3H155.88V4.3H153.032V5.3ZM155.88 5.3C157.417 5.3 158.489 5.6013 159.176 6.12548L159.783 5.33052C158.848 4.61737 157.521 4.3 155.88 4.3V5.3ZM159.176 6.12548C159.837 6.62996 160.196 7.38982 160.196 8.496H161.196C161.196 7.14884 160.743 6.06337 159.783 5.33052L159.176 6.12548ZM160.196 8.496C160.196 9.53179 159.89 10.278 159.33 10.8032L160.013 11.5328C160.819 10.778 161.196 9.74287 161.196 8.496H160.196ZM159.327 10.8059C158.768 11.338 157.996 11.628 156.952 11.628V12.628C158.19 12.628 159.231 12.278 160.016 11.5301L159.327 10.8059ZM156.599 12.4827L159.031 14.8987L159.736 14.1893L157.304 11.7733L156.599 12.4827ZM159.03 14.8976C159.139 15.0068 159.172 15.102 159.172 15.2H160.172C160.172 14.8073 160.012 14.4652 159.737 14.1904L159.03 14.8976ZM159.172 15.2C159.172 15.287 159.142 15.3793 159.01 15.4924L159.661 16.2516C159.977 15.9807 160.172 15.625 160.172 15.2H159.172ZM159.03 15.4764C158.854 15.6119 158.73 15.644 158.648 15.644V16.644C159.013 16.644 159.347 16.4947 159.641 16.2676L159.03 15.4764ZM158.648 15.644C158.508 15.644 158.351 15.588 158.167 15.3889L157.432 16.0671C157.76 16.4227 158.169 16.644 158.648 16.644V15.644ZM158.157 15.3785L154.701 11.8425L153.986 12.5415L157.442 16.0775L158.157 15.3785ZM154.344 11.692H152.712V12.692H154.344V11.692ZM152.212 12.192V15.2H153.212V12.192H152.212ZM152.212 15.2C152.212 15.3722 152.16 15.4587 152.085 15.5215L152.73 16.2865C153.06 16.008 153.212 15.6251 153.212 15.2H152.212ZM152.085 15.5215C151.988 15.6039 151.852 15.66 151.64 15.66V16.66C152.046 16.66 152.422 16.5454 152.73 16.2865L152.085 15.5215ZM151.64 15.66C151.411 15.66 151.283 15.601 151.204 15.5303L150.539 16.2777C150.844 16.5483 151.228 16.66 151.64 16.66V15.66ZM151.204 15.5303C151.136 15.4703 151.084 15.3814 151.084 15.2H150.084C150.084 15.6159 150.223 15.9964 150.539 16.2777L151.204 15.5303ZM151.084 15.2V7.168H150.084V15.2H151.084ZM155.816 11.044C156.543 11.044 157.157 10.9736 157.629 10.8077L157.298 9.86427C156.981 9.97574 156.496 10.044 155.816 10.044V11.044ZM157.629 10.8077C158.107 10.6398 158.498 10.3602 158.733 9.93882L157.858 9.45318C157.773 9.60782 157.609 9.75486 157.298 9.86427L157.629 10.8077ZM158.73 9.94407C158.959 9.54304 159.052 9.04712 159.052 8.496H158.052C158.052 8.94754 157.974 9.25163 157.861 9.44793L158.73 9.94407ZM159.052 8.496C159.052 7.66552 158.789 6.96354 158.17 6.52113L157.589 7.33487C157.866 7.53246 158.052 7.87581 158.052 8.496H159.052ZM158.175 6.52448C157.609 6.11049 156.791 5.948 155.816 5.948V6.948C156.717 6.948 157.275 7.10551 157.584 7.33151L158.175 6.52448ZM155.816 5.948H153.4V6.948H155.816V5.948ZM153.4 5.948C153.067 5.948 152.756 6.06176 152.52 6.31686L153.255 6.99514C153.275 6.97291 153.306 6.948 153.4 6.948V5.948ZM152.506 6.33303C152.289 6.58934 152.212 6.91003 152.212 7.232H153.212C153.212 7.06331 153.251 6.99999 153.269 6.97897L152.506 6.33303ZM152.212 7.232V10.544H153.212V7.232H152.212ZM152.712 11.044H155.816V10.044H152.712V11.044ZM163.006 15.36L163.35 14.9979L163.35 14.9979L163.006 15.36ZM162.974 5.424L162.629 5.06169L162.624 5.066L162.974 5.424ZM170.494 5.024L170.164 5.40029L170.171 5.4063L170.178 5.41206L170.494 5.024ZM170.477 6.24L170.793 6.62806L170.795 6.62597L170.477 6.24ZM164.638 6.656L164.27 6.31686L164.263 6.32479L164.256 6.33303L164.638 6.656ZM164.462 9.456H163.962V9.956H164.462V9.456ZM169.278 9.68L168.948 10.0563L168.955 10.0623L168.962 10.0681L169.278 9.68ZM169.262 10.896L169.577 11.2841L169.579 11.282L169.262 10.896ZM164.462 11.104V10.604H163.962V11.104H164.462ZM164.638 14.144L164.256 14.467L164.263 14.4752L164.27 14.4831L164.638 14.144ZM170.845 14.576L170.516 14.9523L170.523 14.9583L170.53 14.9641L170.845 14.576ZM170.83 15.792L171.145 16.1801L171.147 16.178L170.83 15.792ZM164.894 15.5C164.17 15.5 163.679 15.3113 163.35 14.9979L162.661 15.7221C163.228 16.2621 163.996 16.5 164.894 16.5V15.5ZM163.35 14.9979C163.024 14.6875 162.834 14.2344 162.834 13.568H161.834C161.834 14.4376 162.091 15.1792 162.661 15.7221L163.35 14.9979ZM162.834 13.568V7.168H161.834V13.568H162.834ZM162.834 7.168C162.834 6.52 163.016 6.08135 163.323 5.782L162.624 5.066C162.078 5.59865 161.834 6.32267 161.834 7.168H162.834ZM163.318 5.78628C163.639 5.48095 164.105 5.3 164.782 5.3V4.3C163.922 4.3 163.183 4.53505 162.629 5.06172L163.318 5.78628ZM164.782 5.3H169.758V4.3H164.782V5.3ZM169.758 5.3C170.006 5.3 170.116 5.35813 170.164 5.40029L170.823 4.64771C170.53 4.3912 170.149 4.3 169.758 4.3V5.3ZM170.178 5.41206C170.207 5.43552 170.25 5.48053 170.25 5.632H171.25C171.25 5.25013 171.121 4.88981 170.809 4.63594L170.178 5.41206ZM170.25 5.632C170.25 5.75386 170.214 5.80898 170.16 5.85403L170.795 6.62597C171.103 6.37236 171.25 6.02214 171.25 5.632H170.25ZM170.162 5.85194C170.111 5.89373 169.998 5.948 169.758 5.948V6.948C170.136 6.948 170.503 6.8636 170.793 6.62806L170.162 5.85194ZM169.758 5.948H165.15V6.948H169.758V5.948ZM165.15 5.948C164.817 5.948 164.506 6.06176 164.27 6.31686L165.005 6.99514C165.025 6.97291 165.056 6.948 165.15 6.948V5.948ZM164.256 6.33303C164.039 6.58934 163.962 6.91003 163.962 7.232H164.962C164.962 7.06331 165.001 6.99999 165.019 6.97897L164.256 6.33303ZM163.962 7.232V9.456H164.962V7.232H163.962ZM164.462 9.956H168.542V8.956H164.462V9.956ZM168.542 9.956C168.79 9.956 168.9 10.0141 168.948 10.0563L169.607 9.30371C169.314 9.0472 168.933 8.956 168.542 8.956V9.956ZM168.962 10.0681C168.991 10.0915 169.034 10.1365 169.034 10.288H170.034C170.034 9.90613 169.905 9.54581 169.593 9.29194L168.962 10.0681ZM169.034 10.288C169.034 10.4099 168.998 10.465 168.944 10.51L169.579 11.282C169.887 11.0284 170.034 10.6781 170.034 10.288H169.034ZM168.946 10.5079C168.895 10.5497 168.782 10.604 168.542 10.604V11.604C168.92 11.604 169.287 11.5196 169.577 11.2841L168.946 10.5079ZM168.542 10.604H164.462V11.604H168.542V10.604ZM163.962 11.104V13.568H164.962V11.104H163.962ZM163.962 13.568C163.962 13.89 164.039 14.2107 164.256 14.467L165.019 13.821C165.001 13.8 164.962 13.7367 164.962 13.568H163.962ZM164.27 14.4831C164.506 14.7382 164.817 14.852 165.15 14.852V13.852C165.056 13.852 165.025 13.8271 165.005 13.8049L164.27 14.4831ZM165.15 14.852H170.11V13.852H165.15V14.852ZM170.11 14.852C170.358 14.852 170.468 14.9101 170.516 14.9523L171.175 14.1997C170.882 13.9432 170.501 13.852 170.11 13.852V14.852ZM170.53 14.9641C170.559 14.9875 170.602 15.0325 170.602 15.184H171.602C171.602 14.8021 171.473 14.4418 171.161 14.1879L170.53 14.9641ZM170.602 15.184C170.602 15.3059 170.566 15.361 170.512 15.406L171.147 16.178C171.455 15.9244 171.602 15.5741 171.602 15.184H170.602ZM170.514 15.4039C170.463 15.4457 170.35 15.5 170.11 15.5V16.5C170.488 16.5 170.855 16.4156 171.145 16.1801L170.514 15.4039ZM170.11 15.5H164.894V16.5H170.11V15.5Z" fill="white" fill-opacity="0.5"/>
</svg>
