<svg width="99" height="50" viewBox="0 0 99 50" fill="none" xmlns="http://www.w3.org/2000/svg">
<path d="M27.9503 31.6779C28.7248 33.9689 28.1327 36.5314 26.4535 38.8444C24.7751 41.1561 22.033 43.1786 18.615 44.334C15.197 45.4894 11.7904 45.5457 9.05378 44.7266C6.31582 43.907 4.29047 42.2292 3.51583 39.9376C2.74119 37.646 3.33329 35.0835 5.01252 32.7709C6.69093 30.4593 9.433 28.4373 12.8508 27.2819C16.2686 26.1266 19.6754 26.0705 22.4122 26.8897C25.1504 27.7093 27.1759 29.3869 27.9503 31.6779ZM41.8727 26.9717C42.6323 29.2188 42.6309 31.4655 42.0376 33.2745C41.4443 35.0834 40.2738 36.4242 38.7044 36.9547C37.135 37.4852 35.391 37.1293 33.8218 36.0513C32.2525 34.9731 30.8882 33.1879 30.1289 30.9415C29.3695 28.695 29.3708 26.4482 29.9641 24.6391C30.5573 22.83 31.7278 21.489 33.2971 20.9585C34.8665 20.428 36.6106 20.7838 38.1797 21.8619C39.749 22.9401 41.1133 24.7252 41.8727 26.9717ZM47.5671 25.0468C48.2648 27.1107 48.6437 29.0446 48.7017 30.4949C48.7309 31.2234 48.6777 31.8005 48.5615 32.2024C48.4402 32.6216 48.2887 32.7327 48.2146 32.7578C48.1406 32.7828 47.9527 32.7864 47.6019 32.5266C47.2657 32.2776 46.8732 31.851 46.4543 31.2541C45.6204 30.0659 44.7482 28.2988 44.0508 26.2354C43.3533 24.1721 42.9744 22.2382 42.9163 20.7878C42.8872 20.0591 42.9404 19.4819 43.0566 19.0799C43.1779 18.6606 43.3295 18.5494 43.4037 18.5243C43.4779 18.4992 43.6658 18.4956 44.0164 18.7553C44.3526 19.0042 44.745 19.4307 45.1638 20.0276C45.9975 21.2157 46.8694 22.9829 47.5671 25.0468Z" fill="#323232" fill-opacity="0.8" stroke="black"/>
<path d="M70.0959 17.315C69.332 15.0555 69.9303 12.52 71.6161 10.2248C73.3008 7.93105 76.0473 5.91938 79.4666 4.76357C82.8858 3.60775 86.2894 3.54015 89.0201 4.34117C91.7525 5.14272 93.7663 6.79513 94.5304 9.05535C95.2944 11.3156 94.6961 13.8509 93.0103 16.1459C91.3256 18.4394 88.579 20.4506 85.16 21.6064C81.741 22.7621 78.3372 22.8295 75.6063 22.0285C72.8736 21.2269 70.8597 19.5746 70.0959 17.315ZM56.1735 22.0213C55.4236 19.8027 55.4327 17.5815 56.0313 15.7907C56.6296 14.0003 57.8033 12.6681 59.3751 12.1368C60.9468 11.6055 62.6882 11.9526 64.2502 13.0129C65.8126 14.0735 67.1676 15.8335 67.9173 18.0515C68.6671 20.2694 68.6579 22.4906 68.0594 24.2816C67.4611 26.0722 66.2875 27.4046 64.7157 27.9359C63.144 28.4672 61.4027 28.1201 59.8406 27.0598C58.2782 25.9992 56.9233 24.2392 56.1735 22.0213ZM50.4791 23.9462C49.7898 21.907 49.4184 19.9958 49.3656 18.5621C49.3391 17.8419 49.3942 17.2716 49.5115 16.8745C49.6334 16.4613 49.7848 16.3493 49.8614 16.3234C49.938 16.2975 50.1262 16.2947 50.474 16.5493C50.8081 16.7939 51.198 17.2139 51.6139 17.8025C52.4419 18.9744 53.3063 20.719 53.9954 22.7575C54.6845 24.7961 55.0559 26.7073 55.1087 28.1412C55.1352 28.8615 55.0801 29.4319 54.9628 29.8291C54.8408 30.2424 54.6894 30.3545 54.6127 30.3804C54.5359 30.4064 54.3476 30.4092 54 30.1547C53.666 29.9102 53.2762 29.4903 52.8603 28.9016C52.0326 27.7299 51.1684 25.9852 50.4791 23.9462Z" fill="#323232" fill-opacity="0.8" stroke="black"/>
<path d="M30.6896 29.6665C31.3369 31.5816 30.8447 33.7312 29.4296 35.6803C28.0153 37.6284 25.7016 39.3362 22.8137 40.3124C19.9257 41.2887 17.0505 41.3351 14.7446 40.6448C12.4372 39.9541 10.7417 38.5441 10.0942 36.6284C9.44665 34.7128 9.93894 32.5633 11.3541 30.6144C12.7684 28.6666 15.082 26.959 17.9698 25.9829C20.8575 25.0067 23.7329 24.9604 26.0391 25.6507C28.3466 26.3414 30.0422 27.7514 30.6896 29.6665ZM42.5061 25.6721C43.146 27.5653 43.1438 29.4554 42.6458 30.9738C42.1479 32.4921 41.1688 33.6083 39.8644 34.0493C38.5601 34.4902 37.1045 34.1967 35.7874 33.2918C34.4702 32.3868 33.3217 30.8857 32.6819 28.993C32.0421 27.1004 32.0443 25.2102 32.5423 23.6917C33.0402 22.1733 34.0192 21.0568 35.3235 20.6159C36.6278 20.175 38.0835 20.4685 39.4005 21.3733C40.7177 22.2783 41.8663 23.7794 42.5061 25.6721ZM47.3392 24.0384C47.9297 25.7853 48.2494 27.4193 48.2983 28.6412C48.3229 29.2556 48.2776 29.7363 48.1821 30.0665C48.0817 30.4138 47.9637 30.4779 47.9362 30.4872C47.9088 30.4964 47.7761 30.5172 47.4854 30.3019C47.2092 30.0973 46.8815 29.7425 46.5282 29.2391C45.8257 28.238 45.0884 26.7452 44.498 24.9988C43.9077 23.2524 43.588 21.6183 43.5391 20.3963C43.5145 19.7819 43.5598 19.301 43.6553 18.9708C43.7558 18.6233 43.8738 18.5592 43.9014 18.5498C43.929 18.5405 44.0617 18.5199 44.3522 18.735C44.6284 18.9395 44.956 19.2943 45.3092 19.7976C46.0116 20.7986 46.7487 22.2915 47.3392 24.0384Z" fill="#FF0000" fill-opacity="0.9" stroke="black"/>
<path d="M66.6036 17.4276C65.9654 15.5396 66.4625 13.4132 67.8833 11.4788C69.3029 9.54599 71.6204 7.84713 74.5096 6.87051C77.3987 5.89388 80.2715 5.83794 82.5725 6.51293C84.8753 7.18844 86.5606 8.57711 87.199 10.4657C87.8374 12.3543 87.3403 14.4806 85.9196 16.4148C84.4999 18.3474 82.1824 20.0459 79.2934 21.0225C76.4045 21.999 73.5315 22.0548 71.2303 21.3798C68.9273 20.7043 67.2419 19.3157 66.6036 17.4276ZM54.7871 21.422C54.1554 19.5532 54.1642 17.685 54.6665 16.1821C55.1686 14.6796 56.1503 13.5702 57.457 13.1285C58.7637 12.6868 60.2172 12.9732 61.5281 13.863C62.8393 14.7531 63.9798 16.2328 64.6113 18.1011C65.2429 19.9694 65.2341 21.8376 64.7319 23.3407C64.2297 24.8434 63.2482 25.9529 61.9414 26.3946C60.6347 26.8364 59.1813 26.5499 57.8704 25.6601C56.5592 24.77 55.4187 23.2903 54.7871 21.422ZM49.954 23.0558C49.3706 21.33 49.0574 19.7152 49.0129 18.5075C48.9905 17.9003 49.0374 17.4254 49.1336 17.0993C49.2346 16.7572 49.3523 16.692 49.3823 16.6819C49.4123 16.6718 49.5454 16.6521 49.8333 16.8629C50.1077 17.0638 50.4331 17.413 50.7838 17.9093C51.4813 18.8964 52.212 20.3701 52.7952 22.0954C53.3784 23.8207 53.6917 25.4354 53.7362 26.6433C53.7585 27.2506 53.7116 27.7256 53.6154 28.0517C53.5144 28.3939 53.3966 28.4592 53.3665 28.4694C53.3364 28.4796 53.2032 28.4991 52.9154 28.2885C52.6411 28.0877 52.3158 27.7386 51.9652 27.2423C51.2679 26.2552 50.5374 24.7815 49.954 23.0558Z" fill="#FF0000" fill-opacity="0.9" stroke="black"/>
<path d="M10.3743 23.16C9.32898 23.16 8.34765 22.9893 7.43031 22.648C6.51298 22.296 5.71831 21.7946 5.04631 21.144C4.88631 20.984 4.80631 20.8026 4.80631 20.6C4.80631 20.3653 4.91298 20.1413 5.12631 19.928C5.29698 19.7573 5.48365 19.672 5.68631 19.672C5.89965 19.672 6.15565 19.7946 6.45431 20.04C6.95565 20.4986 7.54765 20.856 8.23031 21.112C8.92365 21.3573 9.63831 21.48 10.3743 21.48C11.0783 21.48 11.6276 21.3626 12.0223 21.128C12.417 20.8826 12.6143 20.5413 12.6143 20.104C12.6143 19.6453 12.401 19.2773 11.9743 19C11.5476 18.712 10.8223 18.456 9.79831 18.232C8.18765 17.88 7.01431 17.416 6.27831 16.84C5.55298 16.264 5.19031 15.5226 5.19031 14.616C5.19031 14.04 5.38231 13.528 5.76631 13.08C6.15031 12.6213 6.68365 12.2693 7.36631 12.024C8.05965 11.768 8.84898 11.64 9.73431 11.64C10.7263 11.64 11.6063 11.8053 12.3743 12.136C13.153 12.456 13.745 12.9093 14.1503 13.496C14.289 13.72 14.3583 13.912 14.3583 14.072C14.3476 14.3386 14.2143 14.568 13.9583 14.76C13.8196 14.856 13.6596 14.904 13.4783 14.904C13.1476 14.904 12.8756 14.776 12.6623 14.52C12.353 14.1466 11.937 13.8533 11.4143 13.64C10.9023 13.4266 10.3423 13.32 9.73431 13.32C8.97698 13.32 8.38498 13.4373 7.95831 13.672C7.54231 13.896 7.33431 14.2106 7.33431 14.616C7.33431 15.0213 7.53698 15.3573 7.94231 15.624C8.35831 15.88 9.07298 16.1253 10.0863 16.36C11.2063 16.6266 12.1076 16.9306 12.7903 17.272C13.473 17.6026 13.969 17.9973 14.2783 18.456C14.5983 18.9146 14.7583 19.464 14.7583 20.104C14.7583 20.712 14.577 21.2506 14.2143 21.72C13.8516 22.1786 13.3396 22.536 12.6783 22.792C12.017 23.0373 11.249 23.16 10.3743 23.16ZM17.3642 23.16C17.0442 23.16 16.7882 23.0746 16.5962 22.904C16.4042 22.7333 16.3082 22.4986 16.3082 22.2V16.168C16.3082 14.7493 16.7509 13.64 17.6362 12.84C18.5215 12.04 19.7482 11.64 21.3162 11.64C22.8842 11.64 24.1109 12.04 24.9962 12.84C25.8815 13.64 26.3242 14.7493 26.3242 16.168V22.2C26.3242 22.4986 26.2282 22.7333 26.0362 22.904C25.8442 23.0746 25.5882 23.16 25.2682 23.16C24.9482 23.16 24.6869 23.0746 24.4842 22.904C24.2922 22.7226 24.1962 22.488 24.1962 22.2V16.12C24.1962 15.2133 23.9509 14.52 23.4602 14.04C22.9695 13.56 22.2549 13.32 21.3162 13.32C20.3775 13.32 19.6629 13.56 19.1722 14.04C18.6815 14.52 18.4362 15.2133 18.4362 16.12V22.2C18.4362 22.488 18.3349 22.7226 18.1322 22.904C17.9402 23.0746 17.6842 23.16 17.3642 23.16ZM30.5888 23C29.7781 23 29.1488 22.7866 28.7008 22.36C28.2528 21.9333 28.0288 21.336 28.0288 20.568V14.168C28.0288 13.4213 28.2421 12.84 28.6688 12.424C29.1061 12.008 29.7088 11.8 30.4768 11.8H35.4528C35.7728 11.8 36.0181 11.8746 36.1888 12.024C36.3595 12.1626 36.4448 12.3653 36.4448 12.632C36.4448 12.888 36.3541 13.0906 36.1728 13.24C36.0021 13.3786 35.7621 13.448 35.4528 13.448H30.8448C30.6315 13.448 30.4608 13.5173 30.3328 13.656C30.2155 13.7946 30.1568 13.9866 30.1568 14.232V16.456H34.2368C34.5568 16.456 34.8021 16.5306 34.9728 16.68C35.1435 16.8186 35.2288 17.0213 35.2288 17.288C35.2288 17.544 35.1381 17.7466 34.9568 17.896C34.7861 18.0346 34.5461 18.104 34.2368 18.104H30.1568V20.568C30.1568 20.8133 30.2155 21.0053 30.3328 21.144C30.4608 21.2826 30.6315 21.352 30.8448 21.352H35.8048C36.1248 21.352 36.3701 21.4266 36.5408 21.576C36.7115 21.7146 36.7968 21.9173 36.7968 22.184C36.7968 22.44 36.7061 22.6426 36.5248 22.792C36.3541 22.9306 36.1141 23 35.8048 23H30.5888ZM39.4111 23.144C39.0911 23.144 38.8351 23.0586 38.6431 22.888C38.4511 22.7173 38.3551 22.4826 38.3551 22.184V16.584C38.3551 15.0373 38.7977 13.8266 39.6831 12.952C40.5684 12.0773 41.8004 11.64 43.3791 11.64C44.4137 11.64 45.3097 11.8373 46.0671 12.232C46.8244 12.6266 47.4004 13.1973 47.7951 13.944C48.2004 14.6906 48.4031 15.5706 48.4031 16.584V22.184C48.4031 22.4826 48.3071 22.7173 48.1151 22.888C47.9231 23.0586 47.6671 23.144 47.3471 23.144C47.0271 23.144 46.7657 23.0586 46.5631 22.888C46.3711 22.7066 46.2751 22.472 46.2751 22.184V19.576H40.4831V22.184C40.4831 22.472 40.3817 22.7066 40.1791 22.888C39.9871 23.0586 39.7311 23.144 39.4111 23.144ZM46.2751 17.928V16.536C46.2751 15.4693 46.0297 14.6693 45.5391 14.136C45.0591 13.592 44.3391 13.32 43.3791 13.32C41.4484 13.32 40.4831 14.392 40.4831 16.536V17.928H46.2751ZM58.7466 23.16C58.0746 23.16 57.6959 22.9253 57.6106 22.456C57.4079 21.3146 57.0079 20.3653 56.4106 19.608C55.8239 18.8506 54.9652 18.1786 53.8346 17.592L52.2506 18.904V22.2C52.2506 22.488 52.1492 22.7226 51.9466 22.904C51.7546 23.0746 51.4986 23.16 51.1786 23.16C50.8586 23.16 50.6026 23.0746 50.4106 22.904C50.2186 22.7333 50.1226 22.4986 50.1226 22.2V12.6C50.1226 12.3013 50.2186 12.0666 50.4106 11.896C50.6026 11.7253 50.8586 11.64 51.1786 11.64C51.4986 11.64 51.7546 11.7306 51.9466 11.912C52.1492 12.0826 52.2506 12.312 52.2506 12.6V16.584L57.5946 11.928C57.7866 11.7466 58.0106 11.656 58.2666 11.656C58.5226 11.656 58.7466 11.7573 58.9386 11.96C59.1412 12.184 59.2426 12.392 59.2426 12.584C59.2426 12.808 59.1146 13.032 58.8586 13.256L55.1786 16.456C56.4586 17.0106 57.4772 17.7946 58.2346 18.808C59.0026 19.8106 59.4612 20.92 59.6106 22.136C59.6426 22.4133 59.5732 22.6533 59.4026 22.856C59.2319 23.0586 59.0132 23.16 58.7466 23.16ZM63.8076 23C62.9969 23 62.3676 22.7866 61.9196 22.36C61.4716 21.9333 61.2476 21.336 61.2476 20.568V14.168C61.2476 13.4213 61.4609 12.84 61.8876 12.424C62.3249 12.008 62.9276 11.8 63.6956 11.8H68.6716C68.9916 11.8 69.2369 11.8746 69.4076 12.024C69.5782 12.1626 69.6636 12.3653 69.6636 12.632C69.6636 12.888 69.5729 13.0906 69.3916 13.24C69.2209 13.3786 68.9809 13.448 68.6716 13.448H64.0636C63.8502 13.448 63.6796 13.5173 63.5516 13.656C63.4342 13.7946 63.3756 13.9866 63.3756 14.232V16.456H67.4556C67.7756 16.456 68.0209 16.5306 68.1916 16.68C68.3622 16.8186 68.4476 17.0213 68.4476 17.288C68.4476 17.544 68.3569 17.7466 68.1756 17.896C68.0049 18.0346 67.7649 18.104 67.4556 18.104H63.3756V20.568C63.3756 20.8133 63.4342 21.0053 63.5516 21.144C63.6796 21.2826 63.8502 21.352 64.0636 21.352H69.0236C69.3436 21.352 69.5889 21.4266 69.7596 21.576C69.9302 21.7146 70.0156 21.9173 70.0156 22.184C70.0156 22.44 69.9249 22.6426 69.7436 22.792C69.5729 22.9306 69.3329 23 69.0236 23H63.8076ZM71.6538 14.168C71.6538 13.4213 71.8671 12.84 72.2938 12.424C72.7311 12.008 73.3338 11.8 74.1018 11.8H76.9498C78.5391 11.8 79.7391 12.1093 80.5498 12.728C81.3605 13.3466 81.7658 14.2693 81.7658 15.496C81.7658 16.6373 81.4245 17.528 80.7418 18.168C80.0698 18.808 79.1631 19.128 78.0218 19.128L80.4538 21.544C80.6458 21.736 80.7418 21.9546 80.7418 22.2C80.7418 22.456 80.6298 22.68 80.4058 22.872C80.1711 23.0533 79.9418 23.144 79.7178 23.144C79.4085 23.144 79.1258 23.0053 78.8698 22.728L75.4138 19.192H73.7818V22.2C73.7818 22.4986 73.6805 22.7333 73.4778 22.904C73.2751 23.0746 73.0191 23.16 72.7098 23.16C72.3898 23.16 72.1338 23.0746 71.9418 22.904C71.7498 22.7333 71.6538 22.4986 71.6538 22.2V14.168ZM76.8858 17.544C77.5898 17.544 78.1391 17.4746 78.5338 17.336C78.9285 17.1973 79.2058 16.984 79.3658 16.696C79.5365 16.3973 79.6218 15.9973 79.6218 15.496C79.6218 14.7706 79.3978 14.248 78.9498 13.928C78.5125 13.608 77.8245 13.448 76.8858 13.448H74.4698C74.2565 13.448 74.0858 13.5173 73.9578 13.656C73.8405 13.7946 73.7818 13.9866 73.7818 14.232V17.544H76.8858ZM88.8118 23.16C87.7665 23.16 86.7851 22.9893 85.8678 22.648C84.9505 22.296 84.1558 21.7946 83.4838 21.144C83.3238 20.984 83.2438 20.8026 83.2438 20.6C83.2438 20.3653 83.3505 20.1413 83.5638 19.928C83.7345 19.7573 83.9211 19.672 84.1238 19.672C84.3371 19.672 84.5931 19.7946 84.8918 20.04C85.3931 20.4986 85.9851 20.856 86.6678 21.112C87.3611 21.3573 88.0758 21.48 88.8118 21.48C89.5158 21.48 90.0651 21.3626 90.4598 21.128C90.8545 20.8826 91.0518 20.5413 91.0518 20.104C91.0518 19.6453 90.8385 19.2773 90.4118 19C89.9851 18.712 89.2598 18.456 88.2358 18.232C86.6251 17.88 85.4518 17.416 84.7158 16.84C83.9905 16.264 83.6278 15.5226 83.6278 14.616C83.6278 14.04 83.8198 13.528 84.2038 13.08C84.5878 12.6213 85.1211 12.2693 85.8038 12.024C86.4971 11.768 87.2865 11.64 88.1718 11.64C89.1638 11.64 90.0438 11.8053 90.8118 12.136C91.5905 12.456 92.1825 12.9093 92.5878 13.496C92.7265 13.72 92.7958 13.912 92.7958 14.072C92.7851 14.3386 92.6518 14.568 92.3958 14.76C92.2571 14.856 92.0971 14.904 91.9158 14.904C91.5851 14.904 91.3131 14.776 91.0998 14.52C90.7905 14.1466 90.3745 13.8533 89.8518 13.64C89.3398 13.4266 88.7798 13.32 88.1718 13.32C87.4145 13.32 86.8225 13.4373 86.3958 13.672C85.9798 13.896 85.7718 14.2106 85.7718 14.616C85.7718 15.0213 85.9745 15.3573 86.3798 15.624C86.7958 15.88 87.5105 16.1253 88.5238 16.36C89.6438 16.6266 90.5451 16.9306 91.2278 17.272C91.9105 17.6026 92.4065 17.9973 92.7158 18.456C93.0358 18.9146 93.1958 19.464 93.1958 20.104C93.1958 20.712 93.0145 21.2506 92.6518 21.72C92.2891 22.1786 91.7771 22.536 91.1158 22.792C90.4545 23.0373 89.6865 23.16 88.8118 23.16Z" fill="black"/>
<path d="M7.43031 22.648L7.25118 23.1148L7.25595 23.1166L7.43031 22.648ZM5.04631 21.144L4.69271 21.4976L4.69851 21.5032L5.04631 21.144ZM6.45431 20.04L6.79182 19.6711L6.78198 19.6621L6.77168 19.6536L6.45431 20.04ZM8.23031 21.112L8.05472 21.5802L8.06352 21.5833L8.23031 21.112ZM12.0223 21.128L12.2779 21.5578L12.2863 21.5526L12.0223 21.128ZM11.9743 19L11.6945 19.4145L11.7018 19.4192L11.9743 19ZM9.79831 18.232L9.90516 17.7435L9.90506 17.7435L9.79831 18.232ZM6.27831 16.84L5.96736 17.2315L5.97016 17.2337L6.27831 16.84ZM5.76631 13.08L6.14597 13.4054L6.14969 13.4009L5.76631 13.08ZM7.36631 12.024L7.53542 12.4945L7.5395 12.493L7.36631 12.024ZM12.3743 12.136L12.1766 12.5953L12.1843 12.5984L12.3743 12.136ZM14.1503 13.496L14.5754 13.2328L14.5688 13.2221L14.5617 13.2118L14.1503 13.496ZM14.3583 14.072L14.8579 14.092L14.8583 14.082V14.072H14.3583ZM13.9583 14.76L14.2429 15.1711L14.2507 15.1657L14.2583 15.16L13.9583 14.76ZM12.6623 14.52L12.2773 14.839L12.2782 14.8401L12.6623 14.52ZM11.4143 13.64L11.222 14.1015L11.2254 14.1029L11.4143 13.64ZM7.95831 13.672L8.19537 14.1122L8.19927 14.1101L7.95831 13.672ZM7.94231 15.624L7.6675 16.0417L7.67382 16.0458L7.68026 16.0498L7.94231 15.624ZM10.0863 16.36L10.2021 15.8736L10.1991 15.8729L10.0863 16.36ZM12.7903 17.272L12.5667 17.7192L12.5723 17.722L12.7903 17.272ZM14.2783 18.456L13.8637 18.7356L13.8682 18.7421L14.2783 18.456ZM14.2143 21.72L14.6065 22.0301L14.61 22.0257L14.2143 21.72ZM12.6783 22.792L12.8522 23.2608L12.8588 23.2583L12.6783 22.792ZM10.3743 22.66C9.38443 22.66 8.46253 22.4986 7.60468 22.1794L7.25595 23.1166C8.23277 23.4801 9.27353 23.66 10.3743 23.66V22.66ZM7.60944 22.1812C6.75178 21.8521 6.01529 21.3862 5.39412 20.7848L4.69851 21.5032C5.42133 22.2031 6.27418 22.7399 7.25119 23.1148L7.60944 22.1812ZM5.39987 20.7904C5.32169 20.7122 5.30631 20.654 5.30631 20.6H4.30631C4.30631 20.9512 4.45094 21.2557 4.69276 21.4975L5.39987 20.7904ZM5.30631 20.6C5.30631 20.5329 5.33228 20.4291 5.47987 20.2815L4.77276 19.5744C4.49368 19.8535 4.30631 20.1977 4.30631 20.6H5.30631ZM5.47987 20.2815C5.57597 20.1854 5.64115 20.172 5.68631 20.172V19.172C5.32614 19.172 5.01799 19.3292 4.77276 19.5744L5.47987 20.2815ZM5.68631 20.172C5.72156 20.172 5.86336 20.2016 6.13694 20.4263L6.77168 19.6536C6.44793 19.3877 6.07773 19.172 5.68631 19.172V20.172ZM6.11681 20.4089C6.66864 20.9137 7.31666 21.3034 8.05475 21.5801L8.40587 20.6438C7.77863 20.4086 7.24266 20.0835 6.79182 19.6711L6.11681 20.4089ZM8.06352 21.5833C8.81046 21.8476 9.58154 21.98 10.3743 21.98V20.98C9.69509 20.98 9.03683 20.867 8.3971 20.6406L8.06352 21.5833ZM10.3743 21.98C11.1241 21.98 11.7752 21.8566 12.2779 21.5577L11.7668 20.6982C11.4801 20.8686 11.0325 20.98 10.3743 20.98V21.98ZM12.2863 21.5526C12.8166 21.2229 13.1143 20.7268 13.1143 20.104H12.1143C12.1143 20.3558 12.0173 20.5424 11.7583 20.7033L12.2863 21.5526ZM13.1143 20.104C13.1143 19.4553 12.797 18.9384 12.2468 18.5808L11.7018 19.4192C12.005 19.6162 12.1143 19.8354 12.1143 20.104H13.1143ZM12.254 18.5856C11.7445 18.2416 10.9403 17.97 9.90516 17.7435L9.69146 18.7204C10.7043 18.942 11.3508 19.1823 11.6946 19.4144L12.254 18.5856ZM9.90506 17.7435C8.31991 17.3971 7.23407 16.953 6.58647 16.4462L5.97016 17.2337C6.79456 17.8789 8.05538 18.3629 9.69156 18.7204L9.90506 17.7435ZM6.58925 16.4484C5.98036 15.9649 5.69031 15.3663 5.69031 14.616H4.69031C4.69031 15.679 5.1256 16.5631 5.96737 17.2315L6.58925 16.4484ZM5.69031 14.616C5.69031 14.1625 5.83754 13.7652 6.14594 13.4054L5.38668 12.7546C4.92708 13.2908 4.69031 13.9175 4.69031 14.616H5.69031ZM6.14969 13.4009C6.46581 13.0234 6.91845 12.7162 7.53541 12.4945L7.19721 11.5534C6.44884 11.8224 5.83482 12.2193 5.38293 12.759L6.14969 13.4009ZM7.5395 12.493C8.16763 12.2611 8.8967 12.14 9.73431 12.14V11.14C8.80126 11.14 7.95167 11.2749 7.19313 11.5549L7.5395 12.493ZM9.73431 12.14C10.6708 12.14 11.4816 12.296 12.1766 12.5952L12.572 11.6767C11.7311 11.3147 10.7818 11.14 9.73431 11.14V12.14ZM12.1843 12.5984C12.8899 12.8884 13.3979 13.2866 13.7389 13.7802L14.5617 13.2118C14.0921 12.5321 13.4161 12.0235 12.5644 11.6735L12.1843 12.5984ZM13.7252 13.7592C13.8433 13.9499 13.8583 14.0471 13.8583 14.072H14.8583C14.8583 13.7768 14.7347 13.49 14.5754 13.2328L13.7252 13.7592ZM13.8587 14.052C13.8553 14.1382 13.8206 14.2383 13.6583 14.36L14.2583 15.16C14.6081 14.8977 14.84 14.5391 14.8579 14.092L13.8587 14.052ZM13.6737 14.3489C13.625 14.3826 13.566 14.404 13.4783 14.404V15.404C13.7533 15.404 14.0143 15.3294 14.2429 15.1711L13.6737 14.3489ZM13.4783 14.404C13.2974 14.404 13.1656 14.3429 13.0464 14.1999L12.2782 14.8401C12.5857 15.209 12.9979 15.404 13.4783 15.404V14.404ZM13.0473 14.201C12.6774 13.7546 12.1896 13.4164 11.6033 13.1771L11.2254 14.1029C11.6844 14.2903 12.0285 14.5387 12.2773 14.839L13.0473 14.201ZM11.6066 13.1784C11.0281 12.9374 10.4019 12.82 9.73431 12.82V13.82C10.2827 13.82 10.7766 13.9159 11.222 14.1015L11.6066 13.1784ZM9.73431 12.82C8.93525 12.82 8.2478 12.9421 7.71735 13.2339L8.19927 14.1101C8.52215 13.9325 9.01871 13.82 9.73431 13.82V12.82ZM7.72126 13.2317C7.1757 13.5255 6.83431 13.9926 6.83431 14.616H7.83431C7.83431 14.4287 7.90892 14.2665 8.19536 14.1122L7.72126 13.2317ZM6.83431 14.616C6.83431 15.2245 7.15353 15.7035 7.6675 16.0417L8.21712 15.2063C7.92043 15.0111 7.83431 14.8181 7.83431 14.616H6.83431ZM7.68026 16.0498C8.17014 16.3513 8.95319 16.6108 9.97351 16.8471L10.1991 15.8729C9.19277 15.6398 8.54648 15.4087 8.20436 15.1981L7.68026 16.0498ZM9.9705 16.8464C11.07 17.1082 11.931 17.4013 12.5667 17.7192L13.0139 16.8248C12.2843 16.46 11.3426 16.1451 10.2021 15.8736L9.9705 16.8464ZM12.5723 17.722C13.2038 18.0278 13.6188 18.3723 13.8638 18.7355L14.6928 18.1764C14.3192 17.6224 13.7421 17.1774 13.0083 16.822L12.5723 17.722ZM13.8682 18.7421C14.1215 19.1051 14.2583 19.551 14.2583 20.104H15.2583C15.2583 19.3769 15.0751 18.7242 14.6884 18.1699L13.8682 18.7421ZM14.2583 20.104C14.2583 20.6043 14.1119 21.0348 13.8187 21.4143L14.61 22.0257C15.0421 21.4665 15.2583 20.8196 15.2583 20.104H14.2583ZM13.8221 21.4099C13.5255 21.785 13.0936 22.0951 12.4978 22.3257L12.8588 23.2583C13.5857 22.9769 14.1778 22.5723 14.6065 22.0301L13.8221 21.4099ZM12.5044 22.3232C11.9103 22.5436 11.2033 22.66 10.3743 22.66V23.66C11.2946 23.66 12.1237 23.531 12.8522 23.2608L12.5044 22.3232ZM16.5962 22.904L16.9284 22.5303L16.9284 22.5303L16.5962 22.904ZM17.6362 12.84L17.301 12.469L17.301 12.469L17.6362 12.84ZM24.9962 12.84L25.3314 12.469L25.3314 12.469L24.9962 12.84ZM26.0362 22.904L26.3684 23.2777L26.3684 23.2777L26.0362 22.904ZM24.4842 22.904L24.1409 23.2675L24.1512 23.2773L24.1621 23.2864L24.4842 22.904ZM23.4602 14.04L23.1105 14.3974L23.1105 14.3974L23.4602 14.04ZM19.1722 14.04L19.5218 14.3974L19.5218 14.3974L19.1722 14.04ZM18.1322 22.904L18.4644 23.2777L18.4656 23.2766L18.1322 22.904ZM17.3642 22.66C17.1354 22.66 17.0079 22.601 16.9284 22.5303L16.264 23.2777C16.5685 23.5483 16.953 23.66 17.3642 23.66V22.66ZM16.9284 22.5303C16.8609 22.4703 16.8082 22.3814 16.8082 22.2H15.8082C15.8082 22.6159 15.9475 22.9964 16.264 23.2777L16.9284 22.5303ZM16.8082 22.2V16.168H15.8082V22.2H16.8082ZM16.8082 16.168C16.8082 14.8616 17.2108 13.8982 17.9714 13.211L17.301 12.469C16.2909 13.3817 15.8082 14.6371 15.8082 16.168H16.8082ZM17.9714 13.211C18.7391 12.5173 19.8323 12.14 21.3162 12.14V11.14C19.6641 11.14 18.304 11.5627 17.301 12.469L17.9714 13.211ZM21.3162 12.14C22.8001 12.14 23.8933 12.5173 24.661 13.211L25.3314 12.469C24.3284 11.5627 22.9683 11.14 21.3162 11.14V12.14ZM24.661 13.211C25.4215 13.8982 25.8242 14.8616 25.8242 16.168H26.8242C26.8242 14.6371 26.3415 13.3817 25.3314 12.469L24.661 13.211ZM25.8242 16.168V22.2H26.8242V16.168H25.8242ZM25.8242 22.2C25.8242 22.3814 25.7715 22.4703 25.704 22.5303L26.3684 23.2777C26.6849 22.9964 26.8242 22.6159 26.8242 22.2H25.8242ZM25.704 22.5303C25.6245 22.601 25.497 22.66 25.2682 22.66V23.66C25.6794 23.66 26.0639 23.5483 26.3684 23.2777L25.704 22.5303ZM25.2682 22.66C25.0405 22.66 24.901 22.6013 24.8063 22.5215L24.1621 23.2864C24.4727 23.548 24.8558 23.66 25.2682 23.66V22.66ZM24.8275 22.5405C24.7451 22.4627 24.6962 22.3643 24.6962 22.2H23.6962C23.6962 22.6117 23.8392 22.9826 24.1409 23.2675L24.8275 22.5405ZM24.6962 22.2V16.12H23.6962V22.2H24.6962ZM24.6962 16.12C24.6962 15.1237 24.4246 14.284 23.8098 13.6826L23.1105 14.3974C23.4771 14.756 23.6962 15.3029 23.6962 16.12H24.6962ZM23.8098 13.6826C23.1957 13.0818 22.3365 12.82 21.3162 12.82V13.82C22.1732 13.82 22.7433 14.0381 23.1105 14.3974L23.8098 13.6826ZM21.3162 12.82C20.2958 12.82 19.4366 13.0818 18.8225 13.6826L19.5218 14.3974C19.8891 14.0381 20.4592 13.82 21.3162 13.82V12.82ZM18.8225 13.6826C18.2078 14.284 17.9362 15.1237 17.9362 16.12H18.9362C18.9362 15.3029 19.1553 14.756 19.5218 14.3974L18.8225 13.6826ZM17.9362 16.12V22.2H18.9362V16.12H17.9362ZM17.9362 22.2C17.9362 22.3552 17.8886 22.451 17.7988 22.5314L18.4656 23.2766C18.7811 22.9943 18.9362 22.6207 18.9362 22.2H17.9362ZM17.8 22.5303C17.7205 22.601 17.593 22.66 17.3642 22.66V23.66C17.7754 23.66 18.1599 23.5483 18.4644 23.2777L17.8 22.5303ZM28.7008 22.36L29.0456 21.9979L29.0456 21.9979L28.7008 22.36ZM28.6688 12.424L28.3242 12.0617L28.3198 12.066L28.6688 12.424ZM36.1888 12.024L35.8596 12.4003L35.8664 12.4063L35.8735 12.412L36.1888 12.024ZM36.1728 13.24L36.4881 13.628L36.4907 13.6259L36.1728 13.24ZM30.3328 13.656L29.9654 13.3168L29.9581 13.3248L29.9511 13.333L30.3328 13.656ZM30.1568 16.456H29.6568V16.956H30.1568V16.456ZM34.9728 16.68L34.6436 17.0563L34.6504 17.0623L34.6575 17.068L34.9728 16.68ZM34.9568 17.896L35.2721 18.284L35.2747 18.2819L34.9568 17.896ZM30.1568 18.104V17.604H29.6568V18.104H30.1568ZM30.3328 21.144L29.9511 21.4669L29.9581 21.4752L29.9654 21.4831L30.3328 21.144ZM36.5408 21.576L36.2116 21.9523L36.2184 21.9583L36.2255 21.964L36.5408 21.576ZM36.5248 22.792L36.8401 23.18L36.8427 23.1779L36.5248 22.792ZM30.5888 22.5C29.8654 22.5 29.3746 22.3112 29.0456 21.9979L28.356 22.722C28.923 23.262 29.6909 23.5 30.5888 23.5V22.5ZM29.0456 21.9979C28.7196 21.6874 28.5288 21.2344 28.5288 20.568H27.5288C27.5288 21.4376 27.786 22.1792 28.356 22.722L29.0456 21.9979ZM28.5288 20.568V14.168H27.5288V20.568H28.5288ZM28.5288 14.168C28.5288 13.52 28.7108 13.0813 29.0179 12.782L28.3198 12.066C27.7735 12.5986 27.5288 13.3226 27.5288 14.168H28.5288ZM29.0134 12.7863C29.3344 12.4809 29.8007 12.3 30.4768 12.3V11.3C29.6169 11.3 28.8779 11.535 28.3242 12.0617L29.0134 12.7863ZM30.4768 12.3H35.4528V11.3H30.4768V12.3ZM35.4528 12.3C35.7011 12.3 35.8114 12.3581 35.8596 12.4003L36.5181 11.6477C36.2249 11.3912 35.8445 11.3 35.4528 11.3V12.3ZM35.8735 12.412C35.9024 12.4355 35.9448 12.4805 35.9448 12.632H36.9448C36.9448 12.2501 36.8166 11.8898 36.5041 11.6359L35.8735 12.412ZM35.9448 12.632C35.9448 12.7538 35.9097 12.809 35.855 12.854L36.4907 13.6259C36.7986 13.3723 36.9448 13.0221 36.9448 12.632H35.9448ZM35.8575 12.8519C35.8061 12.8937 35.6933 12.948 35.4528 12.948V13.948C35.831 13.948 36.1982 13.8636 36.4881 13.628L35.8575 12.8519ZM35.4528 12.948H30.8448V13.948H35.4528V12.948ZM30.8448 12.948C30.512 12.948 30.2009 13.0617 29.9654 13.3168L30.7002 13.9951C30.7207 13.9729 30.7509 13.948 30.8448 13.948V12.948ZM29.9511 13.333C29.7342 13.5893 29.6568 13.91 29.6568 14.232H30.6568C30.6568 14.0633 30.6967 14 30.7145 13.9789L29.9511 13.333ZM29.6568 14.232V16.456H30.6568V14.232H29.6568ZM30.1568 16.956H34.2368V15.956H30.1568V16.956ZM34.2368 16.956C34.4851 16.956 34.5954 17.0141 34.6436 17.0563L35.3021 16.3037C35.0089 16.0472 34.6285 15.956 34.2368 15.956V16.956ZM34.6575 17.068C34.6864 17.0915 34.7288 17.1365 34.7288 17.288H35.7288C35.7288 16.9061 35.6006 16.5458 35.2881 16.2919L34.6575 17.068ZM34.7288 17.288C34.7288 17.4098 34.6937 17.465 34.639 17.51L35.2747 18.2819C35.5826 18.0283 35.7288 17.6781 35.7288 17.288H34.7288ZM34.6415 17.5079C34.5901 17.5497 34.4773 17.604 34.2368 17.604V18.604C34.615 18.604 34.9822 18.5196 35.2721 18.284L34.6415 17.5079ZM34.2368 17.604H30.1568V18.604H34.2368V17.604ZM29.6568 18.104V20.568H30.6568V18.104H29.6568ZM29.6568 20.568C29.6568 20.89 29.7342 21.2106 29.9511 21.4669L30.7145 20.821C30.6967 20.8 30.6568 20.7367 30.6568 20.568H29.6568ZM29.9654 21.4831C30.2009 21.7382 30.512 21.852 30.8448 21.852V20.852C30.7509 20.852 30.7207 20.8271 30.7002 20.8048L29.9654 21.4831ZM30.8448 21.852H35.8048V20.852H30.8448V21.852ZM35.8048 21.852C36.0531 21.852 36.1634 21.9101 36.2116 21.9523L36.8701 21.1997C36.5769 20.9432 36.1965 20.852 35.8048 20.852V21.852ZM36.2255 21.964C36.2544 21.9875 36.2968 22.0325 36.2968 22.184H37.2968C37.2968 21.8021 37.1686 21.4418 36.8561 21.1879L36.2255 21.964ZM36.2968 22.184C36.2968 22.3058 36.2617 22.361 36.207 22.406L36.8427 23.1779C37.1506 22.9243 37.2968 22.5741 37.2968 22.184H36.2968ZM36.2095 22.4039C36.1581 22.4457 36.0453 22.5 35.8048 22.5V23.5C36.183 23.5 36.5502 23.4156 36.8401 23.18L36.2095 22.4039ZM35.8048 22.5H30.5888V23.5H35.8048V22.5ZM38.6431 22.888L38.9752 22.5143L38.9752 22.5143L38.6431 22.888ZM39.6831 12.952L39.3317 12.5963L39.3317 12.5963L39.6831 12.952ZM46.0671 12.232L46.2981 11.7886L46.2981 11.7886L46.0671 12.232ZM47.7951 13.944L47.353 14.1776L47.3556 14.1825L47.7951 13.944ZM48.1151 22.888L48.4472 23.2617L48.4472 23.2617L48.1151 22.888ZM46.5631 22.888L46.2198 23.2515L46.2301 23.2613L46.241 23.2704L46.5631 22.888ZM46.2751 19.576H46.7751V19.076H46.2751V19.576ZM40.4831 19.576V19.076H39.9831V19.576H40.4831ZM40.1791 22.888L40.5112 23.2617L40.5125 23.2606L40.1791 22.888ZM46.2751 17.928V18.428H46.7751V17.928H46.2751ZM45.5391 14.136L45.1641 14.4669L45.1711 14.4745L45.5391 14.136ZM40.4831 17.928H39.9831V18.428H40.4831V17.928ZM39.4111 22.644C39.1823 22.644 39.0548 22.585 38.9752 22.5143L38.3109 23.2617C38.6153 23.5323 38.9999 23.644 39.4111 23.644V22.644ZM38.9752 22.5143C38.9077 22.4543 38.8551 22.3654 38.8551 22.184H37.8551C37.8551 22.5999 37.9944 22.9804 38.3109 23.2617L38.9752 22.5143ZM38.8551 22.184V16.584H37.8551V22.184H38.8551ZM38.8551 16.584C38.8551 15.1366 39.2662 14.0667 40.0345 13.3077L39.3317 12.5963C38.3293 13.5866 37.8551 14.9381 37.8551 16.584H38.8551ZM40.0345 13.3077C40.8028 12.5486 41.8949 12.14 43.3791 12.14V11.14C41.7059 11.14 40.334 11.606 39.3317 12.5963L40.0345 13.3077ZM43.3791 12.14C44.3501 12.14 45.1636 12.325 45.836 12.6754L46.2981 11.7886C45.4559 11.3497 44.4773 11.14 43.3791 11.14V12.14ZM45.836 12.6754C46.5044 13.0237 47.0063 13.5217 47.353 14.1776L48.2371 13.7103C47.7945 12.8729 47.1444 12.2296 46.2981 11.7886L45.836 12.6754ZM47.3556 14.1825C47.7142 14.8431 47.9031 15.6379 47.9031 16.584H48.9031C48.9031 15.5033 48.6866 14.5382 48.2345 13.7054L47.3556 14.1825ZM47.9031 16.584V22.184H48.9031V16.584H47.9031ZM47.9031 22.184C47.9031 22.3654 47.8504 22.4543 47.7829 22.5143L48.4472 23.2617C48.7637 22.9804 48.9031 22.5999 48.9031 22.184H47.9031ZM47.7829 22.5143C47.7033 22.585 47.5759 22.644 47.3471 22.644V23.644C47.7583 23.644 48.1428 23.5323 48.4472 23.2617L47.7829 22.5143ZM47.3471 22.644C47.1194 22.644 46.9799 22.5853 46.8851 22.5055L46.241 23.2704C46.5516 23.532 46.9347 23.644 47.3471 23.644V22.644ZM46.9064 22.5245C46.824 22.4467 46.7751 22.3483 46.7751 22.184H45.7751C45.7751 22.5957 45.9181 22.9666 46.2198 23.2515L46.9064 22.5245ZM46.7751 22.184V19.576H45.7751V22.184H46.7751ZM46.2751 19.076H40.4831V20.076H46.2751V19.076ZM39.9831 19.576V22.184H40.9831V19.576H39.9831ZM39.9831 22.184C39.9831 22.3392 39.9354 22.435 39.8457 22.5154L40.5125 23.2606C40.828 22.9783 40.9831 22.6047 40.9831 22.184H39.9831ZM39.8469 22.5143C39.7673 22.585 39.6399 22.644 39.4111 22.644V23.644C39.8223 23.644 40.2068 23.5323 40.5112 23.2617L39.8469 22.5143ZM46.7751 17.928V16.536H45.7751V17.928H46.7751ZM46.7751 16.536C46.7751 15.4021 46.5151 14.4584 45.907 13.7975L45.1711 14.4745C45.5443 14.8802 45.7751 15.5365 45.7751 16.536H46.7751ZM45.914 13.8052C45.3109 13.1216 44.4335 12.82 43.3791 12.82V13.82C44.2446 13.82 44.8073 14.0623 45.1641 14.4668L45.914 13.8052ZM43.3791 12.82C42.3223 12.82 41.4421 13.1158 40.8355 13.7894C40.2379 14.4531 39.9831 15.3991 39.9831 16.536H40.9831C40.9831 15.5289 41.2109 14.8669 41.5786 14.4586C41.9373 14.0602 42.5051 13.82 43.3791 13.82V12.82ZM39.9831 16.536V17.928H40.9831V16.536H39.9831ZM40.4831 18.428H46.2751V17.428H40.4831V18.428ZM57.6106 22.456L57.1183 22.5434L57.1186 22.5454L57.6106 22.456ZM56.4106 19.608L56.0153 19.9142L56.018 19.9176L56.4106 19.608ZM53.8346 17.592L54.0648 17.1482L53.7708 16.9956L53.5156 17.2069L53.8346 17.592ZM52.2506 18.904L51.9316 18.5189L51.7506 18.6689V18.904H52.2506ZM51.9466 22.904L52.2787 23.2777L52.28 23.2766L51.9466 22.904ZM50.4106 22.904L50.0784 23.2777L50.0784 23.2777L50.4106 22.904ZM50.4106 11.896L50.7427 12.2697L50.7427 12.2697L50.4106 11.896ZM51.9466 11.912L51.6033 12.2755L51.6136 12.2853L51.6245 12.2944L51.9466 11.912ZM52.2506 16.584H51.7506V17.6828L52.579 16.961L52.2506 16.584ZM57.5946 11.928L57.923 12.305L57.9306 12.2984L57.9379 12.2915L57.5946 11.928ZM58.9386 11.96L59.3094 11.6244L59.3015 11.6161L58.9386 11.96ZM58.8586 13.256L59.1867 13.6333L59.1878 13.6323L58.8586 13.256ZM55.1786 16.456L54.8505 16.0787L54.2518 16.5993L54.9798 16.9148L55.1786 16.456ZM58.2346 18.808L57.834 19.1073L57.8376 19.112L58.2346 18.808ZM59.6106 22.136L60.1073 22.0787L60.1068 22.075L59.6106 22.136ZM59.4026 22.856L59.785 23.178L59.785 23.178L59.4026 22.856ZM58.7466 22.66C58.4596 22.66 58.3017 22.6084 58.2219 22.559C58.1621 22.5219 58.1219 22.4731 58.1025 22.3665L57.1186 22.5454C57.1846 22.9081 57.3764 23.2114 57.6952 23.409C57.9941 23.5942 58.3615 23.66 58.7466 23.66V22.66ZM58.1029 22.3686C57.8887 21.1624 57.4609 20.1322 56.8031 19.2983L56.018 19.9176C56.5549 20.5984 56.9271 21.4669 57.1183 22.5434L58.1029 22.3686ZM56.8058 19.3018C56.1627 18.4716 55.2396 17.7577 54.0648 17.1482L53.6043 18.0358C54.6908 18.5996 55.4851 19.2297 56.0153 19.9142L56.8058 19.3018ZM53.5156 17.2069L51.9316 18.5189L52.5695 19.289L54.1535 17.977L53.5156 17.2069ZM51.7506 18.904V22.2H52.7506V18.904H51.7506ZM51.7506 22.2C51.7506 22.3552 51.7029 22.451 51.6132 22.5314L52.28 23.2766C52.5955 22.9943 52.7506 22.6207 52.7506 22.2H51.7506ZM51.6144 22.5303C51.5348 22.601 51.4074 22.66 51.1786 22.66V23.66C51.5898 23.66 51.9743 23.5483 52.2787 23.2777L51.6144 22.5303ZM51.1786 22.66C50.9498 22.66 50.8223 22.601 50.7427 22.5303L50.0784 23.2777C50.3828 23.5483 50.7674 23.66 51.1786 23.66V22.66ZM50.7427 22.5303C50.6752 22.4703 50.6226 22.3814 50.6226 22.2H49.6226C49.6226 22.6159 49.7619 22.9964 50.0784 23.2777L50.7427 22.5303ZM50.6226 22.2V12.6H49.6226V22.2H50.6226ZM50.6226 12.6C50.6226 12.4185 50.6752 12.3297 50.7427 12.2697L50.0784 11.5223C49.7619 11.8036 49.6226 12.1841 49.6226 12.6H50.6226ZM50.7427 12.2697C50.8223 12.199 50.9498 12.14 51.1786 12.14V11.14C50.7674 11.14 50.3828 11.2516 50.0784 11.5223L50.7427 12.2697ZM51.1786 12.14C51.3995 12.14 51.523 12.1996 51.6033 12.2755L52.2899 11.5485C51.9862 11.2616 51.5976 11.14 51.1786 11.14V12.14ZM51.6245 12.2944C51.7037 12.3611 51.7506 12.4449 51.7506 12.6H52.7506C52.7506 12.179 52.5948 11.8042 52.2686 11.5295L51.6245 12.2944ZM51.7506 12.6V16.584H52.7506V12.6H51.7506ZM52.579 16.961L57.923 12.305L57.2661 11.551L51.9221 16.207L52.579 16.961ZM57.9379 12.2915C58.0403 12.1947 58.1426 12.156 58.2666 12.156V11.156C57.8785 11.156 57.5328 11.2986 57.2513 11.5645L57.9379 12.2915ZM58.2666 12.156C58.372 12.156 58.4685 12.1908 58.5756 12.3039L59.3015 11.6161C59.0246 11.3238 58.6731 11.156 58.2666 11.156V12.156ZM58.5678 12.2954C58.7328 12.4778 58.7426 12.5703 58.7426 12.584H59.7426C59.7426 12.2137 59.5496 11.8901 59.3093 11.6245L58.5678 12.2954ZM58.7426 12.584C58.7426 12.6027 58.7333 12.7012 58.5293 12.8797L59.1878 13.6323C59.4958 13.3628 59.7426 13.0133 59.7426 12.584H58.7426ZM58.5305 12.8787L54.8505 16.0787L55.5067 16.8333L59.1867 13.6333L58.5305 12.8787ZM54.9798 16.9148C56.1882 17.4384 57.1341 18.1708 57.8341 19.1073L58.6351 18.5087C57.8203 17.4185 56.7289 16.5829 55.3774 15.9972L54.9798 16.9148ZM57.8376 19.112C58.5532 20.0462 58.9762 21.0722 59.1143 22.1969L60.1068 22.075C59.9463 20.7678 59.4519 19.5751 58.6315 18.5039L57.8376 19.112ZM59.1139 22.1933C59.131 22.3421 59.0969 22.4428 59.0201 22.5339L59.785 23.178C60.0496 22.8639 60.1541 22.4846 60.1073 22.0787L59.1139 22.1933ZM59.0201 22.5339C58.9452 22.6229 58.8668 22.66 58.7466 22.66V23.66C59.1596 23.66 59.5186 23.4944 59.785 23.178L59.0201 22.5339ZM61.9196 22.36L62.2644 21.9979L62.2644 21.9979L61.9196 22.36ZM61.8876 12.424L61.5429 12.0617L61.5385 12.066L61.8876 12.424ZM69.4076 12.024L69.0783 12.4003L69.0852 12.4063L69.0923 12.412L69.4076 12.024ZM69.3916 13.24L69.7069 13.628L69.7094 13.6259L69.3916 13.24ZM63.5516 13.656L63.1842 13.3168L63.1768 13.3248L63.1699 13.333L63.5516 13.656ZM63.3756 16.456H62.8756V16.956H63.3756V16.456ZM68.1916 16.68L67.8623 17.0563L67.8692 17.0623L67.8763 17.068L68.1916 16.68ZM68.1756 17.896L68.4909 18.284L68.4934 18.2819L68.1756 17.896ZM63.3756 18.104V17.604H62.8756V18.104H63.3756ZM63.5516 21.144L63.1699 21.4669L63.1768 21.4752L63.1842 21.4831L63.5516 21.144ZM69.7596 21.576L69.4303 21.9523L69.4372 21.9583L69.4443 21.964L69.7596 21.576ZM69.7436 22.792L70.0589 23.18L70.0614 23.1779L69.7436 22.792ZM63.8076 22.5C63.0842 22.5 62.5934 22.3112 62.2644 21.9979L61.5747 22.722C62.1417 23.262 62.9096 23.5 63.8076 23.5V22.5ZM62.2644 21.9979C61.9384 21.6874 61.7476 21.2344 61.7476 20.568H60.7476C60.7476 21.4376 61.0047 22.1792 61.5747 22.722L62.2644 21.9979ZM61.7476 20.568V14.168H60.7476V20.568H61.7476ZM61.7476 14.168C61.7476 13.52 61.9296 13.0813 62.2366 12.782L61.5385 12.066C60.9922 12.5986 60.7476 13.3226 60.7476 14.168H61.7476ZM62.2322 12.7863C62.5532 12.4809 63.0194 12.3 63.6956 12.3V11.3C62.8357 11.3 62.0966 11.535 61.543 12.0617L62.2322 12.7863ZM63.6956 12.3H68.6716V11.3H63.6956V12.3ZM68.6716 12.3C68.9199 12.3 69.0301 12.3581 69.0783 12.4003L69.7368 11.6477C69.4437 11.3912 69.0633 11.3 68.6716 11.3V12.3ZM69.0923 12.412C69.1211 12.4355 69.1636 12.4805 69.1636 12.632H70.1636C70.1636 12.2501 70.0353 11.8898 69.7229 11.6359L69.0923 12.412ZM69.1636 12.632C69.1636 12.7538 69.1284 12.809 69.0737 12.854L69.7094 13.6259C70.0174 13.3723 70.1636 13.0221 70.1636 12.632H69.1636ZM69.0763 12.8519C69.0248 12.8937 68.912 12.948 68.6716 12.948V13.948C69.0498 13.948 69.417 13.8636 69.7069 13.628L69.0763 12.8519ZM68.6716 12.948H64.0636V13.948H68.6716V12.948ZM64.0636 12.948C63.7308 12.948 63.4196 13.0617 63.1842 13.3168L63.919 13.9951C63.9395 13.9729 63.9697 13.948 64.0636 13.948V12.948ZM63.1699 13.333C62.953 13.5893 62.8756 13.91 62.8756 14.232H63.8756C63.8756 14.0633 63.9155 14 63.9333 13.9789L63.1699 13.333ZM62.8756 14.232V16.456H63.8756V14.232H62.8756ZM63.3756 16.956H67.4556V15.956H63.3756V16.956ZM67.4556 16.956C67.7039 16.956 67.8141 17.0141 67.8623 17.0563L68.5208 16.3037C68.2277 16.0472 67.8473 15.956 67.4556 15.956V16.956ZM67.8763 17.068C67.9051 17.0915 67.9476 17.1365 67.9476 17.288H68.9476C68.9476 16.9061 68.8193 16.5458 68.5069 16.2919L67.8763 17.068ZM67.9476 17.288C67.9476 17.4098 67.9124 17.465 67.8577 17.51L68.4934 18.2819C68.8014 18.0283 68.9476 17.6781 68.9476 17.288H67.9476ZM67.8603 17.5079C67.8088 17.5497 67.696 17.604 67.4556 17.604V18.604C67.8338 18.604 68.201 18.5196 68.4909 18.284L67.8603 17.5079ZM67.4556 17.604H63.3756V18.604H67.4556V17.604ZM62.8756 18.104V20.568H63.8756V18.104H62.8756ZM62.8756 20.568C62.8756 20.89 62.953 21.2106 63.1699 21.4669L63.9333 20.821C63.9155 20.8 63.8756 20.7367 63.8756 20.568H62.8756ZM63.1842 21.4831C63.4196 21.7382 63.7308 21.852 64.0636 21.852V20.852C63.9697 20.852 63.9395 20.8271 63.919 20.8048L63.1842 21.4831ZM64.0636 21.852H69.0236V20.852H64.0636V21.852ZM69.0236 21.852C69.2719 21.852 69.3821 21.9101 69.4303 21.9523L70.0888 21.1997C69.7957 20.9432 69.4153 20.852 69.0236 20.852V21.852ZM69.4443 21.964C69.4731 21.9875 69.5156 22.0325 69.5156 22.184H70.5156C70.5156 21.8021 70.3873 21.4418 70.0749 21.1879L69.4443 21.964ZM69.5156 22.184C69.5156 22.3058 69.4804 22.361 69.4257 22.406L70.0614 23.1779C70.3694 22.9243 70.5156 22.5741 70.5156 22.184H69.5156ZM69.4283 22.4039C69.3768 22.4457 69.264 22.5 69.0236 22.5V23.5C69.4018 23.5 69.769 23.4156 70.0589 23.18L69.4283 22.4039ZM69.0236 22.5H63.8076V23.5H69.0236V22.5ZM72.2938 12.424L71.9492 12.0617L71.9448 12.066L72.2938 12.424ZM80.5498 12.728L80.2465 13.1255L80.2465 13.1255L80.5498 12.728ZM80.7418 18.168L80.3998 17.8032L80.397 17.8059L80.7418 18.168ZM78.0218 19.128V18.628H76.809L77.6694 19.4827L78.0218 19.128ZM80.4538 21.544L80.8074 21.1904L80.8062 21.1893L80.4538 21.544ZM80.4058 22.872L80.7115 23.2676L80.7216 23.2599L80.7312 23.2516L80.4058 22.872ZM78.8698 22.728L79.2372 22.3888L79.2324 22.3836L79.2274 22.3785L78.8698 22.728ZM75.4138 19.192L75.7714 18.8425L75.6243 18.692H75.4138V19.192ZM73.7818 19.192V18.692H73.2818V19.192H73.7818ZM73.4778 22.904L73.1557 22.5215L73.1557 22.5215L73.4778 22.904ZM71.9418 22.904L71.6096 23.2777L71.6096 23.2777L71.9418 22.904ZM78.5338 17.336L78.6996 17.8077L78.6996 17.8077L78.5338 17.336ZM79.3658 16.696L78.9317 16.4479L78.9287 16.4532L79.3658 16.696ZM78.9498 13.928L78.6545 14.3315L78.6592 14.3348L78.9498 13.928ZM73.9578 13.656L73.5904 13.3168L73.5831 13.3248L73.5761 13.333L73.9578 13.656ZM73.7818 17.544H73.2818V18.044H73.7818V17.544ZM72.1538 14.168C72.1538 13.52 72.3358 13.0813 72.6429 12.782L71.9448 12.066C71.3985 12.5986 71.1538 13.3226 71.1538 14.168H72.1538ZM72.6384 12.7863C72.9594 12.4809 73.4257 12.3 74.1018 12.3V11.3C73.2419 11.3 72.5029 11.535 71.9492 12.0617L72.6384 12.7863ZM74.1018 12.3H76.9498V11.3H74.1018V12.3ZM76.9498 12.3C78.487 12.3 79.5596 12.6013 80.2465 13.1255L80.8531 12.3305C79.9187 11.6173 78.5913 11.3 76.9498 11.3V12.3ZM80.2465 13.1255C80.9075 13.6299 81.2658 14.3898 81.2658 15.496H82.2658C82.2658 14.1488 81.8134 13.0634 80.8531 12.3305L80.2465 13.1255ZM81.2658 15.496C81.2658 16.5318 80.9601 17.278 80.3998 17.8032L81.0838 18.5327C81.8889 17.778 82.2658 16.7429 82.2658 15.496H81.2658ZM80.397 17.8059C79.8383 18.338 79.0659 18.628 78.0218 18.628V19.628C79.2604 19.628 80.3014 19.2779 81.0866 18.53L80.397 17.8059ZM77.6694 19.4827L80.1014 21.8987L80.8062 21.1893L78.3742 18.7733L77.6694 19.4827ZM80.1003 21.8975C80.2095 22.0067 80.2418 22.102 80.2418 22.2H81.2418C81.2418 21.8073 81.0822 21.4652 80.8074 21.1904L80.1003 21.8975ZM80.2418 22.2C80.2418 22.287 80.2124 22.3792 80.0804 22.4924L80.7312 23.2516C81.0473 22.9807 81.2418 22.625 81.2418 22.2H80.2418ZM80.1001 22.4763C79.9246 22.6119 79.8 22.644 79.7178 22.644V23.644C80.0836 23.644 80.4177 23.4947 80.7115 23.2676L80.1001 22.4763ZM79.7178 22.644C79.578 22.644 79.421 22.588 79.2372 22.3888L78.5024 23.0671C78.8306 23.4227 79.2389 23.644 79.7178 23.644V22.644ZM79.2274 22.3785L75.7714 18.8425L75.0562 19.5415L78.5122 23.0775L79.2274 22.3785ZM75.4138 18.692H73.7818V19.692H75.4138V18.692ZM73.2818 19.192V22.2H74.2818V19.192H73.2818ZM73.2818 22.2C73.2818 22.3722 73.2304 22.4586 73.1557 22.5215L73.7999 23.2864C74.1305 23.008 74.2818 22.6251 74.2818 22.2H73.2818ZM73.1557 22.5215C73.0579 22.6039 72.9221 22.66 72.7098 22.66V23.66C73.1162 23.66 73.4924 23.5454 73.7999 23.2864L73.1557 22.5215ZM72.7098 22.66C72.481 22.66 72.3535 22.601 72.274 22.5303L71.6096 23.2777C71.9141 23.5483 72.2986 23.66 72.7098 23.66V22.66ZM72.274 22.5303C72.2065 22.4703 72.1538 22.3814 72.1538 22.2H71.1538C71.1538 22.6159 71.2931 22.9964 71.6096 23.2777L72.274 22.5303ZM72.1538 22.2V14.168H71.1538V22.2H72.1538ZM76.8858 18.044C77.6132 18.044 78.2275 17.9736 78.6996 17.8077L78.3681 16.8642C78.0508 16.9757 77.5664 17.044 76.8858 17.044V18.044ZM78.6996 17.8077C79.1775 17.6398 79.5688 17.3602 79.8029 16.9388L78.9287 16.4532C78.8428 16.6078 78.6795 16.7548 78.3681 16.8642L78.6996 17.8077ZM79.7999 16.944C80.0291 16.543 80.1218 16.0471 80.1218 15.496H79.1218C79.1218 15.9475 79.0439 16.2516 78.9317 16.4479L79.7999 16.944ZM80.1218 15.496C80.1218 14.6655 79.8598 13.9635 79.2404 13.5211L78.6592 14.3348C78.9358 14.5324 79.1218 14.8758 79.1218 15.496H80.1218ZM79.2451 13.5245C78.6793 13.1105 77.8613 12.948 76.8858 12.948V13.948C77.7877 13.948 78.3457 14.1055 78.6546 14.3315L79.2451 13.5245ZM76.8858 12.948H74.4698V13.948H76.8858V12.948ZM74.4698 12.948C74.137 12.948 73.8259 13.0617 73.5904 13.3168L74.3252 13.9951C74.3457 13.9729 74.3759 13.948 74.4698 13.948V12.948ZM73.5761 13.333C73.3592 13.5893 73.2818 13.91 73.2818 14.232H74.2818C74.2818 14.0633 74.3217 14 74.3395 13.9789L73.5761 13.333ZM73.2818 14.232V17.544H74.2818V14.232H73.2818ZM73.7818 18.044H76.8858V17.044H73.7818V18.044ZM85.8678 22.648L85.6887 23.1148L85.6934 23.1166L85.8678 22.648ZM83.4838 21.144L83.1302 21.4976L83.136 21.5032L83.4838 21.144ZM84.8918 20.04L85.2293 19.6711L85.2195 19.6621L85.2092 19.6536L84.8918 20.04ZM86.6678 21.112L86.4922 21.5802L86.501 21.5833L86.6678 21.112ZM90.4598 21.128L90.7154 21.5578L90.7238 21.5526L90.4598 21.128ZM90.4118 19L90.132 19.4145L90.1393 19.4192L90.4118 19ZM88.2358 18.232L88.3427 17.7435L88.3426 17.7435L88.2358 18.232ZM84.7158 16.84L84.4049 17.2315L84.4077 17.2337L84.7158 16.84ZM84.2038 13.08L84.5835 13.4054L84.5872 13.4009L84.2038 13.08ZM85.8038 12.024L85.9729 12.4945L85.977 12.493L85.8038 12.024ZM90.8118 12.136L90.6141 12.5953L90.6218 12.5984L90.8118 12.136ZM92.5878 13.496L93.0129 13.2328L93.0063 13.2221L92.9992 13.2118L92.5878 13.496ZM92.7958 14.072L93.2954 14.092L93.2958 14.082V14.072H92.7958ZM92.3958 14.76L92.6804 15.1711L92.6882 15.1657L92.6958 15.16L92.3958 14.76ZM91.0998 14.52L90.7148 14.839L90.7157 14.8401L91.0998 14.52ZM89.8518 13.64L89.6595 14.1015L89.6629 14.1029L89.8518 13.64ZM86.3958 13.672L86.6329 14.1122L86.6368 14.1101L86.3958 13.672ZM86.3798 15.624L86.105 16.0417L86.1113 16.0458L86.1178 16.0498L86.3798 15.624ZM88.5238 16.36L88.6396 15.8736L88.6366 15.8729L88.5238 16.36ZM91.2278 17.272L91.0042 17.7192L91.0098 17.722L91.2278 17.272ZM92.7158 18.456L92.3012 18.7356L92.3057 18.7421L92.7158 18.456ZM92.6518 21.72L93.044 22.0301L93.0475 22.0257L92.6518 21.72ZM91.1158 22.792L91.2897 23.2608L91.2963 23.2583L91.1158 22.792ZM88.8118 22.66C87.8219 22.66 86.9 22.4986 86.0422 22.1794L85.6934 23.1166C86.6703 23.4801 87.711 23.66 88.8118 23.66V22.66ZM86.0469 22.1812C85.1893 21.8521 84.4528 21.3862 83.8316 20.7848L83.136 21.5032C83.8588 22.2031 84.7117 22.7399 85.6887 23.1148L86.0469 22.1812ZM83.8374 20.7904C83.7592 20.7122 83.7438 20.654 83.7438 20.6H82.7438C82.7438 20.9512 82.8884 21.2557 83.1303 21.4975L83.8374 20.7904ZM83.7438 20.6C83.7438 20.5329 83.7698 20.4291 83.9174 20.2815L83.2103 19.5744C82.9312 19.8535 82.7438 20.1977 82.7438 20.6H83.7438ZM83.9174 20.2815C84.0135 20.1854 84.0786 20.172 84.1238 20.172V19.172C83.7636 19.172 83.4555 19.3292 83.2103 19.5744L83.9174 20.2815ZM84.1238 20.172C84.1591 20.172 84.3009 20.2016 84.5744 20.4263L85.2092 19.6536C84.8854 19.3877 84.5152 19.172 84.1238 19.172V20.172ZM84.5543 20.4089C85.1061 20.9137 85.7542 21.3034 86.4923 21.5801L86.8434 20.6438C86.2161 20.4086 85.6802 20.0835 85.2293 19.6711L84.5543 20.4089ZM86.501 21.5833C87.248 21.8476 88.019 21.98 88.8118 21.98V20.98C88.1326 20.98 87.4743 20.867 86.8346 20.6406L86.501 21.5833ZM88.8118 21.98C89.5616 21.98 90.2127 21.8566 90.7154 21.5577L90.2043 20.6982C89.9176 20.8686 89.47 20.98 88.8118 20.98V21.98ZM90.7238 21.5526C91.2541 21.2229 91.5518 20.7268 91.5518 20.104H90.5518C90.5518 20.3558 90.4548 20.5424 90.1958 20.7033L90.7238 21.5526ZM91.5518 20.104C91.5518 19.4553 91.2345 18.9384 90.6843 18.5808L90.1393 19.4192C90.4425 19.6162 90.5518 19.8354 90.5518 20.104H91.5518ZM90.6915 18.5856C90.182 18.2416 89.3778 17.97 88.3427 17.7435L88.129 18.7204C89.1418 18.942 89.7883 19.1823 90.1321 19.4144L90.6915 18.5856ZM88.3426 17.7435C86.7574 17.3971 85.6716 16.953 85.024 16.4462L84.4077 17.2337C85.2321 17.8789 86.4929 18.3629 88.1291 18.7204L88.3426 17.7435ZM85.0268 16.4484C84.4179 15.9649 84.1278 15.3663 84.1278 14.616H83.1278C83.1278 15.679 83.5631 16.5631 84.4049 17.2315L85.0268 16.4484ZM84.1278 14.616C84.1278 14.1625 84.275 13.7652 84.5834 13.4054L83.8242 12.7546C83.3646 13.2908 83.1278 13.9175 83.1278 14.616H84.1278ZM84.5872 13.4009C84.9033 13.0234 85.3559 12.7162 85.9729 12.4945L85.6347 11.5534C84.8863 11.8224 84.2723 12.2193 83.8204 12.759L84.5872 13.4009ZM85.977 12.493C86.6051 12.2611 87.3342 12.14 88.1718 12.14V11.14C87.2388 11.14 86.3892 11.2749 85.6306 11.5549L85.977 12.493ZM88.1718 12.14C89.1083 12.14 89.9191 12.296 90.6141 12.5952L91.0095 11.6767C90.1686 11.3147 89.2193 11.14 88.1718 11.14V12.14ZM90.6218 12.5984C91.3274 12.8884 91.8354 13.2866 92.1764 13.7802L92.9992 13.2118C92.5296 12.5321 91.8536 12.0235 91.0019 11.6735L90.6218 12.5984ZM92.1627 13.7592C92.2808 13.9499 92.2958 14.0471 92.2958 14.072H93.2958C93.2958 13.7768 93.1722 13.49 93.0129 13.2328L92.1627 13.7592ZM92.2962 14.052C92.2928 14.1382 92.2581 14.2383 92.0958 14.36L92.6958 15.16C93.0456 14.8977 93.2775 14.5391 93.2954 14.092L92.2962 14.052ZM92.1112 14.3489C92.0625 14.3826 92.0035 14.404 91.9158 14.404V15.404C92.1908 15.404 92.4518 15.3294 92.6804 15.1711L92.1112 14.3489ZM91.9158 14.404C91.7349 14.404 91.6031 14.3429 91.4839 14.1999L90.7157 14.8401C91.0232 15.209 91.4354 15.404 91.9158 15.404V14.404ZM91.4848 14.201C91.1149 13.7546 90.6271 13.4164 90.0408 13.1771L89.6629 14.1029C90.1219 14.2903 90.466 14.5387 90.7148 14.839L91.4848 14.201ZM90.0441 13.1784C89.4656 12.9374 88.8394 12.82 88.1718 12.82V13.82C88.7202 13.82 89.2141 13.9159 89.6595 14.1015L90.0441 13.1784ZM88.1718 12.82C87.3728 12.82 86.6853 12.9421 86.1549 13.2339L86.6368 14.1101C86.9597 13.9325 87.4562 13.82 88.1718 13.82V12.82ZM86.1588 13.2317C85.6132 13.5255 85.2718 13.9926 85.2718 14.616H86.2718C86.2718 14.4287 86.3464 14.2665 86.6329 14.1122L86.1588 13.2317ZM85.2718 14.616C85.2718 15.2245 85.591 15.7035 86.105 16.0417L86.6546 15.2063C86.3579 15.0111 86.2718 14.8181 86.2718 14.616H85.2718ZM86.1178 16.0498C86.6076 16.3513 87.3907 16.6108 88.411 16.8471L88.6366 15.8729C87.6303 15.6398 86.984 15.4087 86.6419 15.1981L86.1178 16.0498ZM88.408 16.8464C89.5075 17.1082 90.3685 17.4013 91.0042 17.7192L91.4514 16.8248C90.7218 16.46 89.7801 16.1451 88.6396 15.8736L88.408 16.8464ZM91.0098 17.722C91.6413 18.0278 92.0563 18.3723 92.3013 18.7355L93.1303 18.1764C92.7567 17.6224 92.1796 17.1774 91.4458 16.822L91.0098 17.722ZM92.3057 18.7421C92.559 19.1051 92.6958 19.551 92.6958 20.104H93.6958C93.6958 19.3769 93.5126 18.7242 93.1259 18.1699L92.3057 18.7421ZM92.6958 20.104C92.6958 20.6043 92.5494 21.0348 92.2562 21.4143L93.0475 22.0257C93.4796 21.4665 93.6958 20.8196 93.6958 20.104H92.6958ZM92.2596 21.4099C91.963 21.785 91.5311 22.0951 90.9353 22.3257L91.2963 23.2583C92.0232 22.9769 92.6153 22.5723 93.044 22.0301L92.2596 21.4099ZM90.9419 22.3232C90.3478 22.5436 89.6408 22.66 88.8118 22.66V23.66C89.7321 23.66 90.5612 23.531 91.2897 23.2608L90.9419 22.3232Z" fill="white" fill-opacity="0.5"/>
<path d="M17.7643 37.16C16.5589 37.16 15.5136 36.9306 14.6283 36.472C13.7429 36.0133 13.0656 35.352 12.5963 34.488C12.1269 33.624 11.8923 32.6 11.8923 31.416C11.8923 30.232 12.1269 29.208 12.5963 28.344C13.0656 27.4693 13.7376 26.8026 14.6123 26.344C15.4976 25.8746 16.5376 25.64 17.7323 25.64C18.7243 25.64 19.6416 25.8106 20.4843 26.152C21.3269 26.4933 21.9509 26.9466 22.3563 27.512C22.4843 27.6826 22.5483 27.8586 22.5483 28.04C22.5483 28.3066 22.4043 28.5466 22.1163 28.76C21.9883 28.856 21.8283 28.904 21.6363 28.904C21.4763 28.904 21.3163 28.872 21.1562 28.808C20.9963 28.7333 20.8629 28.632 20.7563 28.504C20.3936 28.088 19.9723 27.7893 19.4923 27.608C19.0123 27.416 18.4256 27.32 17.7323 27.32C16.5696 27.32 15.6629 27.6826 15.0123 28.408C14.3616 29.1226 14.0363 30.1253 14.0363 31.416C14.0363 32.696 14.3616 33.6933 15.0123 34.408C15.6736 35.1226 16.5909 35.48 17.7643 35.48C19.1083 35.48 20.1803 35.0853 20.9803 34.296C21.3109 33.9866 21.6149 33.832 21.8923 33.832C22.0843 33.832 22.2603 33.896 22.4203 34.024C22.6656 34.2373 22.7883 34.472 22.7883 34.728C22.7883 34.92 22.7189 35.1066 22.5803 35.288C22.1216 35.8746 21.4656 36.3333 20.6123 36.664C19.7696 36.9946 18.8203 37.16 17.7643 37.16ZM29.3393 37.16C28.3366 37.16 27.4566 36.9573 26.6993 36.552C25.9526 36.1466 25.3713 35.5706 24.9553 34.824C24.5499 34.0666 24.3473 33.176 24.3473 32.152V26.6C24.3473 26.3013 24.4433 26.0666 24.6353 25.896C24.8273 25.7253 25.0833 25.64 25.4033 25.64C25.7233 25.64 25.9793 25.7306 26.1713 25.912C26.3739 26.0826 26.4753 26.312 26.4753 26.6V32.2C26.4753 33.256 26.7259 34.0666 27.2273 34.632C27.7286 35.1973 28.4486 35.48 29.3873 35.48C30.3153 35.48 31.0299 35.1973 31.5312 34.632C32.0433 34.056 32.2993 33.2453 32.2993 32.2V26.6C32.2993 26.312 32.3953 26.0826 32.5873 25.912C32.7899 25.7306 33.0513 25.64 33.3713 25.64C33.6913 25.64 33.9473 25.7253 34.1393 25.896C34.3313 26.0666 34.4273 26.3013 34.4273 26.6V32.152C34.4273 33.144 34.2139 34.0186 33.7873 34.776C33.3713 35.5333 32.7793 36.12 32.0113 36.536C31.2433 36.952 30.3526 37.16 29.3393 37.16ZM38.706 37C37.8953 37 37.266 36.7866 36.818 36.36C36.37 35.9333 36.146 35.336 36.146 34.568V26.6C36.146 26.3013 36.242 26.0666 36.434 25.896C36.626 25.7253 36.882 25.64 37.202 25.64C37.522 25.64 37.778 25.7306 37.97 25.912C38.1727 26.0826 38.274 26.312 38.274 26.6V34.568C38.274 34.8133 38.3327 35.0053 38.45 35.144C38.578 35.2826 38.7487 35.352 38.962 35.352H44.082C44.402 35.352 44.6473 35.4266 44.818 35.576C44.9887 35.7146 45.074 35.9173 45.074 36.184C45.074 36.44 44.9833 36.6426 44.802 36.792C44.6313 36.9306 44.3913 37 44.082 37H38.706ZM48.3958 37.16C48.0758 37.16 47.8198 37.0746 47.6278 36.904C47.4358 36.7333 47.3398 36.4986 47.3398 36.2V27.448H44.2518C43.9424 27.448 43.6971 27.3786 43.5158 27.24C43.3451 27.0906 43.2598 26.888 43.2598 26.632C43.2598 26.3653 43.3451 26.1626 43.5158 26.024C43.6864 25.8746 43.9318 25.8 44.2518 25.8H52.5558C52.8758 25.8 53.1211 25.8746 53.2918 26.024C53.4624 26.1626 53.5478 26.3653 53.5478 26.632C53.5478 26.888 53.4571 27.0906 53.2758 27.24C53.1051 27.3786 52.8651 27.448 52.5558 27.448H49.4678V36.2C49.4678 36.488 49.3664 36.7226 49.1638 36.904C48.9718 37.0746 48.7158 37.16 48.3958 37.16ZM59.7768 37.16C58.7741 37.16 57.8941 36.9573 57.1368 36.552C56.3901 36.1466 55.8088 35.5706 55.3928 34.824C54.9874 34.0666 54.7848 33.176 54.7848 32.152V26.6C54.7848 26.3013 54.8808 26.0666 55.0728 25.896C55.2648 25.7253 55.5208 25.64 55.8408 25.64C56.1608 25.64 56.4168 25.7306 56.6088 25.912C56.8114 26.0826 56.9128 26.312 56.9128 26.6V32.2C56.9128 33.256 57.1634 34.0666 57.6648 34.632C58.1661 35.1973 58.8861 35.48 59.8248 35.48C60.7528 35.48 61.4674 35.1973 61.9688 34.632C62.4808 34.056 62.7368 33.2453 62.7368 32.2V26.6C62.7368 26.312 62.8328 26.0826 63.0248 25.912C63.2274 25.7306 63.4888 25.64 63.8088 25.64C64.1288 25.64 64.3848 25.7253 64.5768 25.896C64.7688 26.0666 64.8648 26.3013 64.8648 26.6V32.152C64.8648 33.144 64.6514 34.0186 64.2248 34.776C63.8088 35.5333 63.2168 36.12 62.4488 36.536C61.6808 36.952 60.7901 37.16 59.7768 37.16ZM66.5835 28.168C66.5835 27.4213 66.7968 26.84 67.2235 26.424C67.6608 26.008 68.2635 25.8 69.0315 25.8H71.8795C73.4688 25.8 74.6688 26.1093 75.4795 26.728C76.2902 27.3466 76.6955 28.2693 76.6955 29.496C76.6955 30.6373 76.3542 31.528 75.6715 32.168C74.9995 32.808 74.0928 33.128 72.9515 33.128L75.3835 35.544C75.5755 35.736 75.6715 35.9546 75.6715 36.2C75.6715 36.456 75.5595 36.68 75.3355 36.872C75.1008 37.0533 74.8715 37.144 74.6475 37.144C74.3382 37.144 74.0555 37.0053 73.7995 36.728L70.3435 33.192H68.7115V36.2C68.7115 36.4986 68.6102 36.7333 68.4075 36.904C68.2048 37.0746 67.9488 37.16 67.6395 37.16C67.3195 37.16 67.0635 37.0746 66.8715 36.904C66.6795 36.7333 66.5835 36.4986 66.5835 36.2V28.168ZM71.8155 31.544C72.5195 31.544 73.0688 31.4746 73.4635 31.336C73.8582 31.1973 74.1355 30.984 74.2955 30.696C74.4662 30.3973 74.5515 29.9973 74.5515 29.496C74.5515 28.7706 74.3275 28.248 73.8795 27.928C73.4422 27.608 72.7542 27.448 71.8155 27.448H69.3995C69.1862 27.448 69.0155 27.5173 68.8875 27.656C68.7702 27.7946 68.7115 27.9866 68.7115 28.232V31.544H71.8155ZM80.8935 37C80.0828 37 79.4535 36.7866 79.0055 36.36C78.5575 35.9333 78.3335 35.336 78.3335 34.568V28.168C78.3335 27.4213 78.5468 26.84 78.9735 26.424C79.4108 26.008 80.0135 25.8 80.7815 25.8H85.7575C86.0775 25.8 86.3228 25.8746 86.4935 26.024C86.6642 26.1626 86.7495 26.3653 86.7495 26.632C86.7495 26.888 86.6588 27.0906 86.4775 27.24C86.3068 27.3786 86.0668 27.448 85.7575 27.448H81.1495C80.9362 27.448 80.7655 27.5173 80.6375 27.656C80.5202 27.7946 80.4615 27.9866 80.4615 28.232V30.456H84.5415C84.8615 30.456 85.1068 30.5306 85.2775 30.68C85.4482 30.8186 85.5335 31.0213 85.5335 31.288C85.5335 31.544 85.4428 31.7466 85.2615 31.896C85.0908 32.0346 84.8508 32.104 84.5415 32.104H80.4615V34.568C80.4615 34.8133 80.5202 35.0053 80.6375 35.144C80.7655 35.2826 80.9362 35.352 81.1495 35.352H86.1095C86.4295 35.352 86.6748 35.4266 86.8455 35.576C87.0162 35.7146 87.1015 35.9173 87.1015 36.184C87.1015 36.44 87.0108 36.6426 86.8295 36.792C86.6588 36.9306 86.4188 37 86.1095 37H80.8935Z" fill="black"/>
<path d="M14.6283 36.472L14.3982 36.9159L14.3982 36.9159L14.6283 36.472ZM12.5963 28.344L13.0356 28.5826L13.0368 28.5804L12.5963 28.344ZM14.6123 26.344L14.8445 26.7868L14.8464 26.7857L14.6123 26.344ZM20.4843 26.152L20.2965 26.6154L20.2965 26.6154L20.4843 26.152ZM22.3563 27.512L21.9498 27.8034L21.9563 27.812L22.3563 27.512ZM22.1163 28.76L21.8186 28.3582L21.8163 28.36L22.1163 28.76ZM21.1562 28.808L20.9448 29.2611L20.9575 29.267L20.9706 29.2722L21.1562 28.808ZM20.7563 28.504L21.1405 28.1838L21.1331 28.1754L20.7563 28.504ZM19.4923 27.608L19.3065 28.0723L19.3156 28.0757L19.4923 27.608ZM15.0123 28.408L15.382 28.7446L15.3844 28.7419L15.0123 28.408ZM15.0123 34.408L14.6425 34.7446L14.6453 34.7476L15.0123 34.408ZM20.9803 34.296L20.6386 33.9307L20.6291 33.9401L20.9803 34.296ZM22.4203 34.024L22.7483 33.6467L22.7406 33.6399L22.7326 33.6335L22.4203 34.024ZM22.5803 35.288L22.9742 35.596L22.9774 35.5917L22.5803 35.288ZM20.6123 36.664L20.4316 36.1978L20.4296 36.1985L20.6123 36.664ZM17.7643 36.66C16.6224 36.66 15.6591 36.4429 14.8583 36.028L14.3982 36.9159C15.368 37.4184 16.4954 37.66 17.7643 37.66V36.66ZM14.8583 36.028C14.0603 35.6146 13.4565 35.0242 13.0356 34.2493L12.1569 34.7266C12.6746 35.6798 13.4255 36.412 14.3982 36.9159L14.8583 36.028ZM13.0356 34.2493C12.6134 33.4721 12.3923 32.5335 12.3923 31.416H11.3923C11.3923 32.6664 11.6404 33.7758 12.1569 34.7266L13.0356 34.2493ZM12.3923 31.416C12.3923 30.2984 12.6134 29.3598 13.0356 28.5826L12.1569 28.1053C11.6404 29.0561 11.3923 30.1655 11.3923 31.416H12.3923ZM13.0368 28.5804C13.4592 27.7933 14.0588 27.1988 14.8445 26.7868L14.38 25.9012C13.4164 26.4065 12.672 27.1453 12.1557 28.1076L13.0368 28.5804ZM14.8464 26.7857C15.647 26.3614 16.6036 26.14 17.7323 26.14V25.14C16.4716 25.14 15.3482 25.3879 14.3781 25.9022L14.8464 26.7857ZM17.7323 26.14C18.6658 26.14 19.5187 26.3003 20.2965 26.6154L20.672 25.6886C19.7644 25.3209 18.7827 25.14 17.7323 25.14V26.14ZM20.2965 26.6154C21.0779 26.9319 21.6142 27.3352 21.9499 27.8033L22.7626 27.2206C22.2876 26.5581 21.5759 26.0547 20.672 25.6886L20.2965 26.6154ZM21.9563 27.812C22.0312 27.9119 22.0483 27.985 22.0483 28.04H23.0483C23.0483 27.7322 22.9373 27.4534 22.7563 27.212L21.9563 27.812ZM22.0483 28.04C22.0483 28.0972 22.0268 28.204 21.8186 28.3582L22.4139 29.1618C22.7817 28.8893 23.0483 28.5161 23.0483 28.04H22.0483ZM21.8163 28.36C21.7911 28.3789 21.7423 28.404 21.6363 28.404V29.404C21.9142 29.404 22.1854 29.3331 22.4163 29.16L21.8163 28.36ZM21.6363 28.404C21.5446 28.404 21.4475 28.386 21.3419 28.3437L20.9706 29.2722C21.185 29.358 21.4079 29.404 21.6363 29.404V28.404ZM21.3677 28.3549C21.2703 28.3094 21.1972 28.252 21.1404 28.1839L20.3721 28.8241C20.5287 29.0119 20.7222 29.1572 20.9448 29.2611L21.3677 28.3549ZM21.1331 28.1754C20.7205 27.702 20.2319 27.3529 19.669 27.1402L19.3156 28.0757C19.7126 28.2257 20.0667 28.4739 20.3794 28.8325L21.1331 28.1754ZM19.6779 27.1437C19.1225 26.9216 18.4688 26.82 17.7323 26.82V27.82C18.3824 27.82 18.902 27.9104 19.3066 28.0722L19.6779 27.1437ZM17.7323 26.82C16.4575 26.82 15.4039 27.2226 14.6401 28.0741L15.3844 28.7419C15.922 28.1427 16.6817 27.82 17.7323 27.82V26.82ZM14.6425 28.0714C13.8832 28.9053 13.5363 30.0433 13.5363 31.416H14.5363C14.5363 30.2073 14.8399 29.34 15.382 28.7446L14.6425 28.0714ZM13.5363 31.416C13.5363 32.7792 13.8839 33.9113 14.6425 34.7446L15.382 34.0714C14.8393 33.4753 14.5363 32.6127 14.5363 31.416H13.5363ZM14.6453 34.7476C15.4204 35.5852 16.4825 35.98 17.7643 35.98V34.98C16.6993 34.98 15.9268 34.6601 15.3792 34.0684L14.6453 34.7476ZM17.7643 35.98C19.2122 35.98 20.4199 35.5512 21.3314 34.6519L20.6291 33.9401C19.9406 34.6194 19.0043 34.98 17.7643 34.98V35.98ZM21.3218 34.6611C21.6152 34.3866 21.8013 34.332 21.8923 34.332V33.332C21.4285 33.332 21.0066 33.5867 20.6387 33.9308L21.3218 34.6611ZM21.8923 34.332C21.9628 34.332 22.0302 34.3522 22.1079 34.4144L22.7326 33.6335C22.4903 33.4397 22.2057 33.332 21.8923 33.332V34.332ZM22.0922 34.4013C22.26 34.5472 22.2883 34.654 22.2883 34.728H23.2883C23.2883 34.29 23.0712 33.9274 22.7483 33.6467L22.0922 34.4013ZM22.2883 34.728C22.2883 34.7905 22.2681 34.8731 22.1831 34.9843L22.9774 35.5917C23.1698 35.3402 23.2883 35.0494 23.2883 34.728H22.2883ZM22.1863 34.98C21.7946 35.4811 21.22 35.8922 20.4316 36.1978L20.7929 37.1302C21.7111 36.7744 22.4485 36.2682 22.9742 35.5959L22.1863 34.98ZM20.4296 36.1985C19.654 36.5029 18.768 36.66 17.7643 36.66V37.66C18.8725 37.66 19.8852 37.4864 20.7949 37.1294L20.4296 36.1985ZM26.6993 36.552L26.4607 36.9914L26.4633 36.9928L26.6993 36.552ZM24.9553 34.824L24.5144 35.06L24.5185 35.0673L24.9553 34.824ZM24.6353 25.896L24.9674 26.2697L24.9674 26.2697L24.6353 25.896ZM26.1713 25.912L25.8279 26.2755L25.8383 26.2853L25.8492 26.2944L26.1713 25.912ZM27.2273 34.632L26.8532 34.9637L26.8532 34.9637L27.2273 34.632ZM31.5312 34.632L31.1575 34.2998L31.1572 34.3002L31.5312 34.632ZM32.5873 25.912L32.9194 26.2857L32.9206 26.2846L32.5873 25.912ZM34.1393 25.896L33.8071 26.2697L33.8071 26.2697L34.1393 25.896ZM33.7873 34.776L33.3516 34.5305L33.349 34.5353L33.7873 34.776ZM32.0113 36.536L31.7731 36.0963L31.7731 36.0963L32.0113 36.536ZM29.3393 36.66C28.4051 36.66 27.6087 36.4716 26.9352 36.1111L26.4633 36.9928C27.3045 37.443 28.2681 37.66 29.3393 37.66V36.66ZM26.9378 36.1126C26.275 35.7527 25.7622 35.245 25.392 34.5806L24.5185 35.0673C24.9803 35.8963 25.6302 36.5405 26.4607 36.9914L26.9378 36.1126ZM25.3961 34.588C25.0364 33.916 24.8473 33.1094 24.8473 32.152H23.8473C23.8473 33.2425 24.0634 34.2173 24.5144 35.0599L25.3961 34.588ZM24.8473 32.152V26.6H23.8473V32.152H24.8473ZM24.8473 26.6C24.8473 26.4185 24.8999 26.3297 24.9674 26.2697L24.3031 25.5223C23.9866 25.8036 23.8473 26.1841 23.8473 26.6H24.8473ZM24.9674 26.2697C25.047 26.199 25.1744 26.14 25.4033 26.14V25.14C24.9921 25.14 24.6075 25.2516 24.3031 25.5223L24.9674 26.2697ZM25.4033 26.14C25.6242 26.14 25.7476 26.1996 25.8279 26.2755L26.5146 25.5485C26.2109 25.2616 25.8223 25.14 25.4033 25.14V26.14ZM25.8492 26.2944C25.9284 26.3611 25.9753 26.4449 25.9753 26.6H26.9753C26.9753 26.179 26.8195 25.8042 26.4933 25.5295L25.8492 26.2944ZM25.9753 26.6V32.2H26.9753V26.6H25.9753ZM25.9753 32.2C25.9753 33.3297 26.2435 34.2762 26.8532 34.9637L27.6013 34.3002C27.2084 33.8571 26.9753 33.1822 26.9753 32.2H25.9753ZM26.8532 34.9637C27.4717 35.6612 28.343 35.98 29.3873 35.98V34.98C28.5542 34.98 27.9855 34.7334 27.6013 34.3002L26.8532 34.9637ZM29.3873 35.98C30.4229 35.98 31.2879 35.6599 31.9053 34.9637L31.1572 34.3002C30.7719 34.7347 30.2076 34.98 29.3873 34.98V35.98ZM31.905 34.9642C32.5235 34.2683 32.7993 33.3237 32.7993 32.2H31.7993C31.7993 33.1669 31.563 33.8436 31.1575 34.2998L31.905 34.9642ZM32.7993 32.2V26.6H31.7993V32.2H32.7993ZM32.7993 26.6C32.7993 26.4355 32.8478 26.3494 32.9194 26.2857L32.2551 25.5383C31.9427 25.8159 31.7993 26.1884 31.7993 26.6H32.7993ZM32.9206 26.2846C33.0158 26.1994 33.1512 26.14 33.3713 26.14V25.14C32.9513 25.14 32.564 25.2618 32.2539 25.5394L32.9206 26.2846ZM33.3713 26.14C33.6001 26.14 33.7275 26.199 33.8071 26.2697L34.4714 25.5223C34.167 25.2516 33.7824 25.14 33.3713 25.14V26.14ZM33.8071 26.2697C33.8746 26.3297 33.9273 26.4185 33.9273 26.6H34.9273C34.9273 26.1841 34.7879 25.8036 34.4714 25.5223L33.8071 26.2697ZM33.9273 26.6V32.152H34.9273V26.6H33.9273ZM33.9273 32.152C33.9273 33.0703 33.7304 33.8582 33.3516 34.5306L34.2229 35.0214C34.6974 34.1791 34.9273 33.2176 34.9273 32.152H33.9273ZM33.349 34.5353C32.9798 35.2075 32.4577 35.7255 31.7731 36.0963L32.2494 36.9756C33.1008 36.5144 33.7627 35.8591 34.2255 35.0167L33.349 34.5353ZM31.7731 36.0963C31.0892 36.4668 30.2828 36.66 29.3393 36.66V37.66C30.4223 37.66 31.3973 37.4372 32.2494 36.9756L31.7731 36.0963ZM36.818 36.36L37.1628 35.9979L37.1628 35.9979L36.818 36.36ZM36.434 25.896L36.7662 26.2697L36.7662 26.2697L36.434 25.896ZM37.97 25.912L37.6267 26.2755L37.637 26.2853L37.6479 26.2944L37.97 25.912ZM38.45 35.144L38.0683 35.4669L38.0753 35.4752L38.0826 35.4831L38.45 35.144ZM44.818 35.576L44.4887 35.9523L44.4956 35.9583L44.5027 35.964L44.818 35.576ZM44.802 36.792L45.1173 37.18L45.1199 37.1779L44.802 36.792ZM38.706 36.5C37.9826 36.5 37.4918 36.3112 37.1628 35.9979L36.4732 36.722C37.0402 37.262 37.8081 37.5 38.706 37.5V36.5ZM37.1628 35.9979C36.8368 35.6874 36.646 35.2344 36.646 34.568H35.646C35.646 35.4376 35.9032 36.1792 36.4732 36.722L37.1628 35.9979ZM36.646 34.568V26.6H35.646V34.568H36.646ZM36.646 26.6C36.646 26.4185 36.6987 26.3297 36.7662 26.2697L36.1018 25.5223C35.7853 25.8036 35.646 26.1841 35.646 26.6H36.646ZM36.7662 26.2697C36.8457 26.199 36.9732 26.14 37.202 26.14V25.14C36.7908 25.14 36.4063 25.2516 36.1018 25.5223L36.7662 26.2697ZM37.202 26.14C37.4229 26.14 37.5464 26.1996 37.6267 26.2755L38.3133 25.5485C38.0096 25.2616 37.6211 25.14 37.202 25.14V26.14ZM37.6479 26.2944C37.7271 26.3611 37.774 26.4449 37.774 26.6H38.774C38.774 26.179 38.6182 25.8042 38.2921 25.5295L37.6479 26.2944ZM37.774 26.6V34.568H38.774V26.6H37.774ZM37.774 34.568C37.774 34.89 37.8514 35.2106 38.0683 35.4669L38.8317 34.821C38.8139 34.8 38.774 34.7367 38.774 34.568H37.774ZM38.0826 35.4831C38.3181 35.7382 38.6292 35.852 38.962 35.852V34.852C38.8681 34.852 38.8379 34.8271 38.8174 34.8048L38.0826 35.4831ZM38.962 35.852H44.082V34.852H38.962V35.852ZM44.082 35.852C44.3303 35.852 44.4406 35.9101 44.4887 35.9523L45.1473 35.1997C44.8541 34.9432 44.4737 34.852 44.082 34.852V35.852ZM44.5027 35.964C44.5316 35.9875 44.574 36.0325 44.574 36.184H45.574C45.574 35.8021 45.4457 35.4418 45.1333 35.1879L44.5027 35.964ZM44.574 36.184C44.574 36.3058 44.5389 36.361 44.4841 36.406L45.1199 37.1779C45.4278 36.9243 45.574 36.5741 45.574 36.184H44.574ZM44.4867 36.4039C44.4353 36.4457 44.3224 36.5 44.082 36.5V37.5C44.4602 37.5 44.8274 37.4156 45.1173 37.18L44.4867 36.4039ZM44.082 36.5H38.706V37.5H44.082V36.5ZM47.6278 36.904L47.9599 36.5303L47.9599 36.5303L47.6278 36.904ZM47.3398 27.448H47.8398V26.948H47.3398V27.448ZM43.5158 27.24L43.1865 27.6163L43.1989 27.6271L43.212 27.6372L43.5158 27.24ZM43.5158 26.024L43.831 26.412L43.8381 26.4063L43.845 26.4003L43.5158 26.024ZM53.2918 26.024L52.9625 26.4003L52.9694 26.4063L52.9765 26.412L53.2918 26.024ZM53.2758 27.24L53.5911 27.628L53.5936 27.6259L53.2758 27.24ZM49.4678 27.448V26.948H48.9678V27.448H49.4678ZM49.1638 36.904L49.4959 37.2777L49.4971 37.2766L49.1638 36.904ZM48.3958 36.66C48.1669 36.66 48.0395 36.601 47.9599 36.5303L47.2956 37.2777C47.6 37.5483 47.9846 37.66 48.3958 37.66V36.66ZM47.9599 36.5303C47.8924 36.4703 47.8398 36.3814 47.8398 36.2H46.8398C46.8398 36.6159 46.9791 36.9964 47.2956 37.2777L47.9599 36.5303ZM47.8398 36.2V27.448H46.8398V36.2H47.8398ZM47.3398 26.948H44.2518V27.948H47.3398V26.948ZM44.2518 26.948C44.0136 26.948 43.8872 26.8946 43.8195 26.8428L43.212 27.6372C43.5069 27.8627 43.8712 27.948 44.2518 27.948V26.948ZM43.845 26.8637C43.7975 26.8221 43.7598 26.7645 43.7598 26.632H42.7598C42.7598 27.0115 42.8927 27.3592 43.1865 27.6163L43.845 26.8637ZM43.7598 26.632C43.7598 26.4805 43.8022 26.4355 43.831 26.412L43.2005 25.6359C42.888 25.8898 42.7598 26.2501 42.7598 26.632H43.7598ZM43.845 26.4003C43.8932 26.3581 44.0035 26.3 44.2518 26.3V25.3C43.86 25.3 43.4797 25.3912 43.1865 25.6477L43.845 26.4003ZM44.2518 26.3H52.5558V25.3H44.2518V26.3ZM52.5558 26.3C52.804 26.3 52.9143 26.3581 52.9625 26.4003L53.621 25.6477C53.3278 25.3912 52.9475 25.3 52.5558 25.3V26.3ZM52.9765 26.412C53.0053 26.4355 53.0478 26.4805 53.0478 26.632H54.0478C54.0478 26.2501 53.9195 25.8898 53.607 25.6359L52.9765 26.412ZM53.0478 26.632C53.0478 26.7538 53.0126 26.809 52.9579 26.854L53.5936 27.6259C53.9016 27.3723 54.0478 27.0221 54.0478 26.632H53.0478ZM52.9605 26.8519C52.909 26.8937 52.7962 26.948 52.5558 26.948V27.948C52.934 27.948 53.3011 27.8636 53.591 27.628L52.9605 26.8519ZM52.5558 26.948H49.4678V27.948H52.5558V26.948ZM48.9678 27.448V36.2H49.9678V27.448H48.9678ZM48.9678 36.2C48.9678 36.3552 48.9201 36.451 48.8304 36.5314L49.4971 37.2766C49.8127 36.9943 49.9678 36.6207 49.9678 36.2H48.9678ZM48.8316 36.5303C48.752 36.601 48.6246 36.66 48.3958 36.66V37.66C48.8069 37.66 49.1915 37.5483 49.4959 37.2777L48.8316 36.5303ZM57.1368 36.552L56.8982 36.9914L56.9008 36.9928L57.1368 36.552ZM55.3928 34.824L54.9519 35.06L54.956 35.0673L55.3928 34.824ZM55.0728 25.896L55.4049 26.2697L55.4049 26.2697L55.0728 25.896ZM56.6088 25.912L56.2654 26.2755L56.2758 26.2853L56.2867 26.2944L56.6088 25.912ZM57.6648 34.632L57.2907 34.9637L57.2907 34.9637L57.6648 34.632ZM61.9688 34.632L61.595 34.2998L61.5947 34.3002L61.9688 34.632ZM63.0248 25.912L63.3569 26.2857L63.3581 26.2846L63.0248 25.912ZM64.5768 25.896L64.2446 26.2697L64.2446 26.2697L64.5768 25.896ZM64.2248 34.776L63.7891 34.5305L63.7865 34.5353L64.2248 34.776ZM62.4488 36.536L62.2106 36.0963L62.2106 36.0963L62.4488 36.536ZM59.7768 36.66C58.8426 36.66 58.0462 36.4716 57.3727 36.1111L56.9008 36.9928C57.742 37.443 58.7056 37.66 59.7768 37.66V36.66ZM57.3753 36.1126C56.7125 35.7527 56.1997 35.245 55.8295 34.5806L54.956 35.0673C55.4178 35.8963 56.0677 36.5405 56.8982 36.9914L57.3753 36.1126ZM55.8336 34.588C55.4739 33.916 55.2848 33.1094 55.2848 32.152H54.2848C54.2848 33.2425 54.5009 34.2173 54.9519 35.0599L55.8336 34.588ZM55.2848 32.152V26.6H54.2848V32.152H55.2848ZM55.2848 26.6C55.2848 26.4185 55.3374 26.3297 55.4049 26.2697L54.7406 25.5223C54.4241 25.8036 54.2848 26.1841 54.2848 26.6H55.2848ZM55.4049 26.2697C55.4845 26.199 55.6119 26.14 55.8408 26.14V25.14C55.4296 25.14 55.045 25.2516 54.7406 25.5223L55.4049 26.2697ZM55.8408 26.14C56.0617 26.14 56.1851 26.1996 56.2654 26.2755L56.9521 25.5485C56.6484 25.2616 56.2598 25.14 55.8408 25.14V26.14ZM56.2867 26.2944C56.3659 26.3611 56.4128 26.4449 56.4128 26.6H57.4128C57.4128 26.179 57.257 25.8042 56.9308 25.5295L56.2867 26.2944ZM56.4128 26.6V32.2H57.4128V26.6H56.4128ZM56.4128 32.2C56.4128 33.3297 56.681 34.2762 57.2907 34.9637L58.0388 34.3002C57.6459 33.8571 57.4128 33.1822 57.4128 32.2H56.4128ZM57.2907 34.9637C57.9092 35.6612 58.7805 35.98 59.8248 35.98V34.98C58.9917 34.98 58.423 34.7334 58.0388 34.3002L57.2907 34.9637ZM59.8248 35.98C60.8604 35.98 61.7254 35.6599 62.3428 34.9637L61.5947 34.3002C61.2094 34.7347 60.6451 34.98 59.8248 34.98V35.98ZM62.3425 34.9642C62.961 34.2683 63.2368 33.3237 63.2368 32.2H62.2368C62.2368 33.1669 62.0005 33.8436 61.595 34.2998L62.3425 34.9642ZM63.2368 32.2V26.6H62.2368V32.2H63.2368ZM63.2368 26.6C63.2368 26.4355 63.2853 26.3494 63.3569 26.2857L62.6926 25.5383C62.3802 25.8159 62.2368 26.1884 62.2368 26.6H63.2368ZM63.3581 26.2846C63.4533 26.1994 63.5887 26.14 63.8088 26.14V25.14C63.3888 25.14 63.0015 25.2618 62.6914 25.5394L63.3581 26.2846ZM63.8088 26.14C64.0376 26.14 64.165 26.199 64.2446 26.2697L64.9089 25.5223C64.6045 25.2516 64.2199 25.14 63.8088 25.14V26.14ZM64.2446 26.2697C64.3121 26.3297 64.3648 26.4185 64.3648 26.6H65.3648C65.3648 26.1841 65.2254 25.8036 64.9089 25.5223L64.2446 26.2697ZM64.3648 26.6V32.152H65.3648V26.6H64.3648ZM64.3648 32.152C64.3648 33.0703 64.1679 33.8582 63.7891 34.5306L64.6604 35.0214C65.1349 34.1791 65.3648 33.2176 65.3648 32.152H64.3648ZM63.7865 34.5353C63.4173 35.2075 62.8952 35.7255 62.2106 36.0963L62.6869 36.9756C63.5383 36.5144 64.2002 35.8591 64.663 35.0167L63.7865 34.5353ZM62.2106 36.0963C61.5267 36.4668 60.7203 36.66 59.7768 36.66V37.66C60.8598 37.66 61.8348 37.4372 62.6869 36.9756L62.2106 36.0963ZM67.2235 26.424L66.8789 26.0617L66.8745 26.066L67.2235 26.424ZM75.4795 26.728L75.1762 27.1255L75.1762 27.1255L75.4795 26.728ZM75.6715 32.168L75.3295 31.8032L75.3267 31.8059L75.6715 32.168ZM72.9515 33.128V32.628H71.7387L72.5991 33.4827L72.9515 33.128ZM75.3835 35.544L75.7371 35.1904L75.7359 35.1893L75.3835 35.544ZM75.3355 36.872L75.6412 37.2676L75.6513 37.2599L75.6609 37.2516L75.3355 36.872ZM73.7995 36.728L74.1669 36.3888L74.1621 36.3836L74.1571 36.3785L73.7995 36.728ZM70.3435 33.192L70.7011 32.8425L70.554 32.692H70.3435V33.192ZM68.7115 33.192V32.692H68.2115V33.192H68.7115ZM68.4075 36.904L68.0854 36.5215L68.0854 36.5215L68.4075 36.904ZM66.8715 36.904L66.5393 37.2777L66.5393 37.2777L66.8715 36.904ZM73.4635 31.336L73.6292 31.8077L73.6292 31.8077L73.4635 31.336ZM74.2955 30.696L73.8613 30.4479L73.8584 30.4532L74.2955 30.696ZM73.8795 27.928L73.5842 28.3315L73.5889 28.3348L73.8795 27.928ZM68.8875 27.656L68.5201 27.3168L68.5128 27.3248L68.5058 27.333L68.8875 27.656ZM68.7115 31.544H68.2115V32.044H68.7115V31.544ZM67.0835 28.168C67.0835 27.52 67.2655 27.0813 67.5725 26.782L66.8745 26.066C66.3281 26.5986 66.0835 27.3226 66.0835 28.168H67.0835ZM67.5681 26.7863C67.8891 26.4809 68.3554 26.3 69.0315 26.3V25.3C68.1716 25.3 67.4326 25.535 66.8789 26.0617L67.5681 26.7863ZM69.0315 26.3H71.8795V25.3H69.0315V26.3ZM71.8795 26.3C73.4166 26.3 74.4893 26.6013 75.1762 27.1255L75.7828 26.3305C74.8484 25.6173 73.521 25.3 71.8795 25.3V26.3ZM75.1762 27.1255C75.8372 27.6299 76.1955 28.3898 76.1955 29.496H77.1955C77.1955 28.1488 76.7431 27.0634 75.7828 26.3305L75.1762 27.1255ZM76.1955 29.496C76.1955 30.5318 75.8898 31.278 75.3295 31.8032L76.0135 32.5327C76.8185 31.778 77.1955 30.7429 77.1955 29.496H76.1955ZM75.3267 31.8059C74.768 32.338 73.9956 32.628 72.9515 32.628V33.628C74.1901 33.628 75.231 33.2779 76.0163 32.53L75.3267 31.8059ZM72.5991 33.4827L75.0311 35.8987L75.7359 35.1893L73.3039 32.7733L72.5991 33.4827ZM75.0299 35.8975C75.1392 36.0067 75.1715 36.102 75.1715 36.2H76.1715C76.1715 35.8073 76.0118 35.4652 75.7371 35.1904L75.0299 35.8975ZM75.1715 36.2C75.1715 36.287 75.1421 36.3792 75.0101 36.4924L75.6609 37.2516C75.9769 36.9807 76.1715 36.625 76.1715 36.2H75.1715ZM75.0298 36.4763C74.8543 36.6119 74.7297 36.644 74.6475 36.644V37.644C75.0133 37.644 75.3473 37.4947 75.6412 37.2676L75.0298 36.4763ZM74.6475 36.644C74.5077 36.644 74.3507 36.588 74.1669 36.3888L73.4321 37.0671C73.7603 37.4227 74.1686 37.644 74.6475 37.644V36.644ZM74.1571 36.3785L70.7011 32.8425L69.9859 33.5415L73.4419 37.0775L74.1571 36.3785ZM70.3435 32.692H68.7115V33.692H70.3435V32.692ZM68.2115 33.192V36.2H69.2115V33.192H68.2115ZM68.2115 36.2C68.2115 36.3722 68.1601 36.4586 68.0854 36.5215L68.7296 37.2864C69.0602 37.008 69.2115 36.6251 69.2115 36.2H68.2115ZM68.0854 36.5215C67.9876 36.6039 67.8518 36.66 67.6395 36.66V37.66C68.0459 37.66 68.422 37.5454 68.7296 37.2864L68.0854 36.5215ZM67.6395 36.66C67.4107 36.66 67.2832 36.601 67.2037 36.5303L66.5393 37.2777C66.8438 37.5483 67.2283 37.66 67.6395 37.66V36.66ZM67.2037 36.5303C67.1362 36.4703 67.0835 36.3814 67.0835 36.2H66.0835C66.0835 36.6159 66.2228 36.9964 66.5393 37.2777L67.2037 36.5303ZM67.0835 36.2V28.168H66.0835V36.2H67.0835ZM71.8155 32.044C72.5429 32.044 73.1572 31.9736 73.6292 31.8077L73.2978 30.8642C72.9805 30.9757 72.4961 31.044 71.8155 31.044V32.044ZM73.6292 31.8077C74.1072 31.6398 74.4985 31.3602 74.7326 30.9388L73.8584 30.4532C73.7725 30.6078 73.6092 30.7548 73.2978 30.8642L73.6292 31.8077ZM74.7296 30.944C74.9588 30.543 75.0515 30.0471 75.0515 29.496H74.0515C74.0515 29.9475 73.9736 30.2516 73.8614 30.4479L74.7296 30.944ZM75.0515 29.496C75.0515 28.6655 74.7895 27.9635 74.1701 27.5211L73.5889 28.3348C73.8655 28.5324 74.0515 28.8758 74.0515 29.496H75.0515ZM74.1748 27.5245C73.609 27.1105 72.791 26.948 71.8155 26.948V27.948C72.7174 27.948 73.2754 28.1055 73.5842 28.3315L74.1748 27.5245ZM71.8155 26.948H69.3995V27.948H71.8155V26.948ZM69.3995 26.948C69.0667 26.948 68.7556 27.0617 68.5201 27.3168L69.2549 27.9951C69.2754 27.9729 69.3056 27.948 69.3995 27.948V26.948ZM68.5058 27.333C68.2889 27.5893 68.2115 27.91 68.2115 28.232H69.2115C69.2115 28.0633 69.2514 28 69.2692 27.9789L68.5058 27.333ZM68.2115 28.232V31.544H69.2115V28.232H68.2115ZM68.7115 32.044H71.8155V31.044H68.7115V32.044ZM79.0055 36.36L79.3503 35.9979L79.3503 35.9979L79.0055 36.36ZM78.9735 26.424L78.6289 26.0617L78.6245 26.066L78.9735 26.424ZM86.4935 26.024L86.1642 26.4003L86.1711 26.4063L86.1782 26.412L86.4935 26.024ZM86.4775 27.24L86.7928 27.628L86.7954 27.6259L86.4775 27.24ZM80.6375 27.656L80.2701 27.3168L80.2628 27.3248L80.2558 27.333L80.6375 27.656ZM80.4615 30.456H79.9615V30.956H80.4615V30.456ZM85.2775 30.68L84.9482 31.0563L84.9551 31.0623L84.9622 31.068L85.2775 30.68ZM85.2615 31.896L85.5768 32.284L85.5794 32.2819L85.2615 31.896ZM80.4615 32.104V31.604H79.9615V32.104H80.4615ZM80.6375 35.144L80.2558 35.4669L80.2628 35.4752L80.2701 35.4831L80.6375 35.144ZM86.8455 35.576L86.5162 35.9523L86.5231 35.9583L86.5302 35.964L86.8455 35.576ZM86.8295 36.792L87.1448 37.18L87.1474 37.1779L86.8295 36.792ZM80.8935 36.5C80.1701 36.5 79.6793 36.3112 79.3503 35.9979L78.6607 36.722C79.2277 37.262 79.9956 37.5 80.8935 37.5V36.5ZM79.3503 35.9979C79.0243 35.6874 78.8335 35.2344 78.8335 34.568H77.8335C77.8335 35.4376 78.0907 36.1792 78.6607 36.722L79.3503 35.9979ZM78.8335 34.568V28.168H77.8335V34.568H78.8335ZM78.8335 28.168C78.8335 27.52 79.0155 27.0813 79.3225 26.782L78.6245 26.066C78.0781 26.5986 77.8335 27.3226 77.8335 28.168H78.8335ZM79.3181 26.7863C79.6391 26.4809 80.1054 26.3 80.7815 26.3V25.3C79.9216 25.3 79.1826 25.535 78.6289 26.0617L79.3181 26.7863ZM80.7815 26.3H85.7575V25.3H80.7815V26.3ZM85.7575 26.3C86.0058 26.3 86.1161 26.3581 86.1642 26.4003L86.8228 25.6477C86.5296 25.3912 86.1492 25.3 85.7575 25.3V26.3ZM86.1782 26.412C86.2071 26.4355 86.2495 26.4805 86.2495 26.632H87.2495C87.2495 26.2501 87.1212 25.8898 86.8088 25.6359L86.1782 26.412ZM86.2495 26.632C86.2495 26.7538 86.2144 26.809 86.1596 26.854L86.7954 27.6259C87.1033 27.3723 87.2495 27.0221 87.2495 26.632H86.2495ZM86.1622 26.8519C86.1108 26.8937 85.9979 26.948 85.7575 26.948V27.948C86.1357 27.948 86.5029 27.8636 86.7928 27.628L86.1622 26.8519ZM85.7575 26.948H81.1495V27.948H85.7575V26.948ZM81.1495 26.948C80.8167 26.948 80.5056 27.0617 80.2701 27.3168L81.0049 27.9951C81.0254 27.9729 81.0556 27.948 81.1495 27.948V26.948ZM80.2558 27.333C80.0389 27.5893 79.9615 27.91 79.9615 28.232H80.9615C80.9615 28.0633 81.0014 28 81.0192 27.9789L80.2558 27.333ZM79.9615 28.232V30.456H80.9615V28.232H79.9615ZM80.4615 30.956H84.5415V29.956H80.4615V30.956ZM84.5415 30.956C84.7898 30.956 84.9001 31.0141 84.9482 31.0563L85.6068 30.3037C85.3136 30.0472 84.9332 29.956 84.5415 29.956V30.956ZM84.9622 31.068C84.9911 31.0915 85.0335 31.1365 85.0335 31.288H86.0335C86.0335 30.9061 85.9052 30.5458 85.5928 30.2919L84.9622 31.068ZM85.0335 31.288C85.0335 31.4098 84.9984 31.465 84.9436 31.51L85.5794 32.2819C85.8873 32.0283 86.0335 31.6781 86.0335 31.288H85.0335ZM84.9462 31.5079C84.8948 31.5497 84.7819 31.604 84.5415 31.604V32.604C84.9197 32.604 85.2869 32.5196 85.5768 32.284L84.9462 31.5079ZM84.5415 31.604H80.4615V32.604H84.5415V31.604ZM79.9615 32.104V34.568H80.9615V32.104H79.9615ZM79.9615 34.568C79.9615 34.89 80.0389 35.2106 80.2558 35.4669L81.0192 34.821C81.0014 34.8 80.9615 34.7367 80.9615 34.568H79.9615ZM80.2701 35.4831C80.5056 35.7382 80.8167 35.852 81.1495 35.852V34.852C81.0556 34.852 81.0254 34.8271 81.0049 34.8048L80.2701 35.4831ZM81.1495 35.852H86.1095V34.852H81.1495V35.852ZM86.1095 35.852C86.3578 35.852 86.4681 35.9101 86.5162 35.9523L87.1748 35.1997C86.8816 34.9432 86.5012 34.852 86.1095 34.852V35.852ZM86.5302 35.964C86.5591 35.9875 86.6015 36.0325 86.6015 36.184H87.6015C87.6015 35.8021 87.4732 35.4418 87.1608 35.1879L86.5302 35.964ZM86.6015 36.184C86.6015 36.3058 86.5664 36.361 86.5116 36.406L87.1474 37.1779C87.4553 36.9243 87.6015 36.5741 87.6015 36.184H86.6015ZM86.5142 36.4039C86.4628 36.4457 86.3499 36.5 86.1095 36.5V37.5C86.4877 37.5 86.8549 37.4156 87.1448 37.18L86.5142 36.4039ZM86.1095 36.5H80.8935V37.5H86.1095V36.5Z" fill="white" fill-opacity="0.5"/>
</svg>
