<svg width="50" height="49" viewBox="0 0 50 49" fill="none" xmlns="http://www.w3.org/2000/svg">
<path d="M48.6098 37.2118H48.5968C48.0137 37.2123 47.5418 37.686 47.5422 38.2682C47.5422 38.8597 48.0053 39.3478 48.6098 39.3481C49.2028 39.3481 49.6782 38.8601 49.6782 38.2682C49.6783 37.6891 49.2029 37.2118 48.6098 37.2118ZM48.6093 39.2187C48.0934 39.2187 47.6578 38.7953 47.6578 38.2681C47.6578 37.7541 48.0936 37.3408 48.6093 37.3408C49.1197 37.3435 49.5335 37.7571 49.5366 38.2681C49.5366 38.7953 49.1118 39.2187 48.6093 39.2187ZM19.9701 39.4391H21.8803V37.2361H19.9701V39.4391ZM19.9701 48.7867H21.8803V40.0425H19.9701V48.7867ZM39.5536 40.8835C38.8416 40.3503 37.9402 40.0311 36.9666 40.0311C34.5228 40.0311 32.5426 42.0092 32.5426 44.4384C32.5426 46.8796 34.5228 48.8578 36.9666 48.8578C37.9401 48.8578 38.8414 48.5498 39.5536 48.0046L39.5769 48.7866H41.4744V40.0424H39.5536V40.8835ZM37.0223 46.8994H37.0124C35.6505 46.8994 34.5594 45.8103 34.5594 44.4385C34.5594 43.0782 35.6505 41.9782 37.0124 41.9782C38.3623 41.9782 39.4663 43.0782 39.4663 44.4385C39.4722 45.7919 38.3779 46.894 37.0223 46.8994ZM46.5864 43.4438C46.1955 43.4192 44.5943 43.3363 44.5943 42.3998C44.5943 41.7727 45.651 41.6078 46.1363 41.6078C47.0601 41.6078 47.6423 42.1273 47.7494 42.8516L49.6704 42.8379C49.6243 41.1447 48.1416 39.9833 46.1842 39.9942C43.8232 40.0078 42.6248 41.2154 42.6248 42.7441C42.6248 43.5965 43.0995 44.0948 43.6561 44.5329C44.154 44.947 45.354 45.1617 45.9813 45.2326C47.0972 45.3506 47.8679 45.529 47.8679 46.358C47.8679 46.8796 47.1194 47.3287 46.0654 47.3287C45.4833 47.3287 44.451 46.9617 44.3447 45.9773H42.4584C42.6842 48.0646 44.3918 48.9874 46.0769 48.9874C46.837 48.9874 48.0821 48.8101 48.6873 48.3719C49.3983 47.8503 49.8965 47.1167 49.8965 46.1328C49.8966 44.8061 49.1498 43.6806 46.5864 43.4438ZM7.00851 40.8835C6.2966 40.3503 5.395 40.0311 4.42155 40.0311C1.97766 40.0311 -0.00244141 42.0092 -0.00244141 44.4384C-0.00244141 46.8796 1.97766 48.8578 4.42155 48.8578C5.395 48.8578 6.29628 48.5498 7.00851 48.0046L7.03182 48.7866H8.92942V40.0424H7.00851V40.8835ZM4.47729 46.8994H4.46741C3.10546 46.8994 2.01428 45.8103 2.01428 44.4385C2.01428 43.0782 3.10546 41.9782 4.46741 41.9782C5.81734 41.9782 6.92129 43.0782 6.92129 44.4385C6.92698 45.7919 5.8328 46.894 4.47729 46.8994ZM29.8117 37.2469V40.8835C29.0997 40.3503 28.1981 40.0311 27.2247 40.0311C24.7808 40.0311 22.8007 42.0092 22.8007 44.4384C22.8007 46.8796 24.7808 48.8578 27.2247 48.8578C28.1981 48.8578 29.0992 48.5498 29.8117 48.0046L29.835 48.7866H31.7324V37.2468L29.8117 37.2469ZM27.2805 46.8994H27.2705C25.9085 46.8994 24.8173 45.8103 24.8173 44.4385C24.8173 43.0782 25.9085 41.9782 27.2705 41.9782C28.6204 41.9782 29.7244 43.0782 29.7244 44.4385C29.73 45.7919 28.6358 46.894 27.2805 46.8994ZM16.8046 37.2469V40.8835C16.0927 40.3503 15.1911 40.0311 14.2176 40.0311C11.7737 40.0311 9.79364 42.0092 9.79364 44.4384C9.79364 46.8796 11.7738 48.8578 14.2176 48.8578C15.191 48.8578 16.0923 48.5498 16.8046 48.0046L16.8279 48.7866H18.7255V37.2468L16.8046 37.2469ZM14.2734 46.8994H14.2634C12.9014 46.8994 11.8103 45.8103 11.8103 44.4385C11.8103 43.0782 12.9014 41.9782 14.2634 41.9782C15.6133 41.9782 16.7173 43.0782 16.7173 44.4385C16.7231 45.7919 15.6289 46.894 14.2734 46.8994ZM25.1583 20.8641H31.4647C31.6147 19.7257 31.6959 18.566 31.6959 17.3866C31.6959 10.7241 29.2252 4.64278 25.1583 0C21.0913 4.64278 18.6207 10.7241 18.6207 17.3866C18.6207 18.566 18.7019 19.7257 18.8517 20.8641H25.1583ZM22.1424 30.5511C23.0116 32.0574 24.0196 33.4739 25.1583 34.7738C26.2971 33.4738 27.3051 32.0574 28.174 30.5511H25.1583H22.1424ZM15.676 18.2259C11.5792 13.5127 6.07716 10.7258 0.319896 9.93518C0.289391 13.6654 1.10753 17.4093 2.78946 20.8642H17.6749C17.0682 19.9412 16.4005 19.0598 15.676 18.2259ZM11.2267 30.5511C14.411 32.69 18.0039 34.0273 21.7047 34.5356C21.7157 33.2045 21.6136 31.872 21.4086 30.5511H11.2267ZM34.6405 18.2259C33.9162 19.0598 33.2485 19.9412 32.6417 20.8641H47.5272C49.209 17.4092 50.0271 13.6653 49.9967 9.93507C44.2394 10.7258 38.7373 13.5127 34.6405 18.2259ZM28.6119 34.5356C32.3127 34.0274 35.9057 32.69 39.0898 30.5511H28.9079C28.7029 31.872 28.601 33.2045 28.6119 34.5356ZM25.1583 26.8253H6.87629C7.43882 27.4341 8.03135 28.0144 8.65166 28.5641H41.6649C42.2853 28.0145 42.8778 27.4342 43.4402 26.8253H37.3857H25.1583ZM25.1583 22.8511H3.87451C4.29025 23.5349 4.73907 24.198 5.21939 24.838H45.0973C45.5776 24.198 46.0264 23.5349 46.4421 22.8511H34.8446H25.1583Z" fill="black"/>
</svg>
