<svg width="160" height="15" viewBox="0 0 160 15" fill="none" xmlns="http://www.w3.org/2000/svg">
<path d="M24.4725 3.28945L27.1638 9.03548H21.7621L24.4534 3.28945H24.4725ZM20.6583 11.5316H28.2867L29.7199 14.6078H32.856L25.9055 0.309896H23.0784L16.1279 14.6078H19.2252L20.6583 11.5316ZM115.972 3.28945L118.664 9.03548H113.261L115.952 3.28945H115.972ZM112.158 11.5316H119.786L121.219 14.6078H124.356L117.404 0.309896H114.577L107.628 14.6078H110.725L112.158 11.5316ZM83.7573 7.42998C83.7573 11.8027 86.9901 14.9177 91.714 14.9177C94.7923 14.9177 96.4576 13.7758 97.9106 12.5769L96.3031 10.4864C95.3158 11.2417 93.9209 12.2861 91.7727 12.2861C88.7911 12.2861 86.7769 10.294 86.7769 7.42998C86.7769 4.56685 88.7712 2.63167 91.6562 2.63167C93.5927 2.63167 94.8701 3.25058 95.9352 4.14053L97.5227 2.03183C96.0319 0.793299 94.2898 0 91.6563 0C87.1259 0 83.7574 3.09616 83.7574 7.42998M139.961 1.91628C138.238 0.677569 136.651 0 133.998 0C129.39 0 126.002 3.05729 126.002 7.42998C126.002 11.8216 129.312 14.9177 133.998 14.9177C136.98 14.9177 139.032 13.9114 140.736 12.3447V6.84923H133.804V9.2876H138.025V11.183C137.425 11.6673 136.186 12.3449 134.076 12.3449C131.075 12.3449 128.983 10.2942 128.983 7.43015C128.983 4.56703 131.094 2.61206 133.998 2.61206C136.012 2.61206 137.329 3.27072 138.374 4.02497L139.961 1.91628ZM8.49916 8.39661C9.19629 8.39661 9.68091 8.4943 10.0869 8.80315C10.4746 9.09414 10.7449 9.55846 10.7449 10.1963C10.7449 10.8352 10.4746 11.3186 10.0869 11.6092C9.68091 11.9184 9.19629 11.9961 8.49916 11.9961H2.8271V8.39643L8.49916 8.39661ZM7.9378 2.92178C8.75145 2.92178 9.17737 3.0762 9.46751 3.34723C9.73873 3.63822 9.89326 4.00589 9.89326 4.41155C9.89326 4.8181 9.73873 5.18577 9.46751 5.47588C9.17737 5.74586 8.75145 5.90133 7.9378 5.90133H2.8271V2.92178H7.9378ZM49.7198 14.6078H61.801V11.996H52.5467V8.39661H59.4775V5.90133H52.5467V2.92178H61.414V0.309896H49.7198V14.6078ZM151.618 3.28945L154.308 9.03548H148.906L151.598 3.28945H151.618ZM147.803 11.5316H155.431L156.864 14.6078H160L153.05 0.309896H150.223L143.272 14.6078H146.37L147.803 11.5316ZM104.355 0.309896H101.528V14.6078H104.355V0.309896ZM45.8089 11.996H38.9549V0.309896H36.1278V14.6078H45.8087L45.8089 11.996ZM69.0038 10.274C69.0038 7.23669 68.8682 4.56703 68.8682 4.56703H68.9071C68.9071 4.56703 70.2234 6.44339 72.6248 9.40316L76.8458 14.6078H79.614V0.309896H76.7871V4.72145C76.7871 7.75878 76.9027 10.4484 76.9027 10.4484H76.8649C76.8649 10.4484 75.5477 8.57187 73.1663 5.59161L68.9458 0.309896H66.1767V14.6078H69.0037L69.0038 10.274ZM8.69276 14.6078C10.3192 14.6078 11.3065 14.2601 12.0812 13.6601C13.1074 12.867 13.7465 11.6283 13.7465 10.1385C13.7465 8.02981 12.3524 6.90771 11.1906 6.61689V6.5789C12.2944 6.07571 12.8949 4.93383 12.8949 3.81172C12.8949 2.53502 12.3913 1.64525 11.5975 1.08411C10.8227 0.542056 9.77762 0.309896 7.95778 0.309896H0V14.6078H8.69276Z" fill="#141414"/>
</svg>
