<svg width="50" height="47" viewBox="0 0 50 47" fill="none" xmlns="http://www.w3.org/2000/svg">
<path d="M27.1606 3.17916C27.1414 3.07558 27.1282 2.97095 27.1213 2.86582C27.0188 1.39017 28.1296 0.110564 29.6051 0.00660334C31.0822 -0.0963152 32.3614 1.016 32.4645 2.49165C32.5676 3.9673 31.4563 5.24691 29.9809 5.35087C29.8876 5.35795 29.7951 5.3592 29.7046 5.35566C29.6448 5.37108 29.609 5.37837 29.5576 5.42379C29.4057 5.66046 29.9438 5.61629 29.578 6.65068C29.578 6.65068 29.5755 6.76423 29.5348 6.87777C29.5061 7.27486 29.3534 8.45155 29.3315 9.07823C29.4092 9.16906 29.4311 9.21323 29.4226 9.43344C29.388 9.73116 29.3196 10.4608 29.2098 10.9283C29.1167 11.3289 28.9532 11.4054 28.8213 11.5035C28.6359 12.3335 28.5869 13.021 28.1113 14.0292C28.0681 14.7933 28.0144 15.0015 27.8542 15.3746C27.8363 16.4998 27.914 16.6673 27.1548 18.449C26.9588 19.2824 27.1452 19.8588 27.3521 20.7247C27.5638 21.6145 28.1509 21.9864 28.2382 22.8976C28.4438 25.0437 28.3923 26.5048 27.9319 28.1875L28.3338 29.1392C28.8325 29.368 30.0701 29.9934 29.3838 30.9834C30.3503 31.4913 31.8101 32.0307 33.0143 33.0607C33.4987 33.4641 34.0103 33.9039 34.4695 34.4201C35.3437 34.5564 35.2504 34.6258 35.8983 35.0239C37.8035 36.1921 40.8588 38.5094 42.6299 40.15C42.9349 40.3282 43.0593 40.4565 43.3055 40.5857C43.3441 40.6594 43.3545 40.6765 43.3459 40.6965C43.2613 40.9107 43.2645 40.9169 43.188 41.0876C43.2836 41.1932 43.4618 41.2919 43.5682 41.3844C43.6678 41.4155 43.6678 41.3678 43.8386 41.3259C44.0609 41.534 44.3364 41.7017 44.4351 41.6919C44.7366 41.6155 44.6851 41.6778 44.9399 41.3928C45.0316 41.2984 45.1851 41.394 45.1851 41.394C45.2808 41.2817 45.4864 41.058 45.7606 40.8963C45.9793 40.7673 46.3968 40.753 46.3968 40.753C46.5366 40.7542 46.5104 40.8976 46.4983 40.9442C46.3404 41.0257 46.0058 41.1153 45.8178 41.2538C45.4087 41.6769 45.0883 42.2478 45.0883 42.2478C45.912 42.1353 46.4181 42.3397 47.1045 42.2609C47.4789 42.2392 47.7552 42.2634 48.1483 41.9788C48.1483 41.9788 48.5262 41.7099 48.8648 41.5672C49.1935 41.4238 49.5056 41.5003 49.795 41.7105C49.9994 41.9411 50.1225 41.9424 49.8117 42.268C49.6994 42.3945 49.5367 42.5357 49.33 42.7403C48.9664 43.0995 48.4771 43.5782 47.9704 43.9745C47.4573 44.3751 46.875 44.7349 46.5114 44.8999C45.5943 45.5589 45.8108 45.3866 45.0897 46.0397C44.9987 46.1212 44.7572 46.2668 44.6401 46.3445C44.3557 46.5312 44.267 46.3756 44.0816 46.0337C44.0816 46.0337 43.9968 45.906 43.8568 45.6331C43.7039 45.3353 43.5891 44.9949 43.6355 45.0005C43.4647 44.9789 42.6955 44.0772 42.6936 43.8839C42.5309 43.8466 41.8372 43.1749 41.8124 43.0466L41.1978 42.5538C40.4946 42.6999 40.3334 42.2632 38.4763 40.9455C38.2644 40.9417 37.9371 40.8273 37.4679 40.4794C36.63 39.8082 34.6195 38.2896 34.2787 38.116C33.9126 37.9296 33.4753 37.754 33.207 37.5325C32.8051 37.4585 32.5853 37.4165 32.3843 37.3604C32.1788 37.3042 31.992 37.2315 31.472 37.1619C30.6255 37.0567 29.7476 36.7062 28.9117 36.2879C28.5161 36.1004 28.1715 36.0048 27.8309 35.8583C27.0667 35.5356 26.4115 35.245 25.9037 35.1277C25.71 35.1085 24.7891 34.8322 24.3062 34.5504C24.1387 34.4641 24.0418 34.3816 23.9318 34.3564C23.6783 34.2981 23.5156 34.3983 23.401 34.4368C22.7816 34.7595 22.2016 35.0383 21.6657 35.3266C21.167 35.5933 20.7078 35.8704 20.2211 36.1506C19.7822 36.4041 19.2751 36.6431 18.7538 36.8921C18.7538 36.8921 17.2673 37.6371 16.4554 37.9267C15.7511 38.5017 14.3112 39.4965 13.4325 39.9892C12.9973 40.1961 12.1518 40.7317 11.7618 40.8515C11.5393 41.0307 10.7466 41.5963 10.1259 42.0628C9.64636 42.4215 9.28406 42.724 9.28406 42.724C9.00551 42.9738 9.02447 43.0924 8.49488 42.8674C8.34779 42.9882 8.23425 43.0634 8.13966 43.1328C7.75715 43.4103 7.72465 43.3434 7.58486 43.3361C7.31819 43.567 7.28465 43.4476 7.05152 43.7132C6.89839 43.9503 7.05506 43.8937 6.73214 44.0087C6.66401 44.0349 6.63172 44.1172 6.57922 44.1628C6.31963 44.3766 6.31859 44.9808 5.6967 45.0239C5.33669 45.2808 5.42878 45.591 5.15377 45.5774C5.17065 45.8439 4.6671 46.2329 4.57626 46.2316C3.78333 46.5052 3.72833 45.9222 2.77644 46.3572C2.65331 46.4137 2.47268 46.5693 2.23476 46.6143C1.81621 46.6933 1.31037 46.6106 1.00182 46.3716C0.516189 45.9972 0.069097 45.2749 0.069097 45.2749C-0.0852808 44.9101 0.00451246 44.6795 0.486396 44.3347C0.687233 44.207 0.724317 44.1114 1.06162 44.0882C1.22912 44.0249 1.18349 44.1218 1.48266 44.0145C1.656 43.9522 1.656 43.9966 2.00517 43.9668C2.08518 43.9128 2.19768 43.8937 2.34831 43.8447C2.62456 43.7537 2.89373 43.6522 2.89373 43.6522C2.89373 43.6522 2.96415 43.5816 3.22978 43.6068C3.45458 43.5147 3.68541 43.378 3.80375 43.3361C3.77375 42.9801 3.81208 42.9968 3.97709 42.8534C4.18271 42.6761 4.2198 42.7051 4.37293 42.8149C4.43751 42.7776 4.46855 42.7649 4.46147 42.7107C4.43626 42.5253 4.2773 42.438 4.32522 42.0292C4.25459 41.8655 4.15063 41.6634 4.17334 41.5413C4.20688 41.4096 4.23917 41.3461 4.31917 41.3042C4.40418 41.259 4.43168 41.3201 4.47709 41.3711C4.55835 41.4657 4.62418 41.7457 4.62418 41.7457C4.65293 42.0615 4.75085 42.4705 5.06294 42.2397C5.24711 42.053 5.28294 41.5557 5.65837 41.6622L5.92629 41.8951C6.15358 41.6813 6.16442 41.6813 6.30067 41.5953C6.30067 41.5953 6.08775 41.3801 6.27442 41.2126C6.40234 41.0988 6.55651 41.0173 6.83047 40.7138C7.58257 39.8827 7.96882 39.5154 8.78217 38.8456C10.4049 37.511 12.2512 36.575 13.4243 36.1096C13.8068 35.6239 14.1789 35.3012 15.0279 35.2197C16.0371 33.5155 17.9696 31.9936 18.4134 31.7509C18.7744 31.0965 18.9311 31.1661 19.4034 31.0347C19.7776 30.7347 19.8626 30.7347 20.0301 30.4213C20.1928 29.7746 19.6547 28.0465 21.0284 27.9592C21.3203 27.5469 21.2474 27.6459 21.5726 27.2561C21.3526 26.7131 21.2618 26.259 21.202 25.8677C21.1912 25.8223 20.6568 25.4456 20.8084 24.9539C20.5813 24.6837 20.1568 24.0531 20.024 23.7577C19.9632 23.7589 19.9128 23.736 19.8459 23.7268C19.7765 23.7158 19.6903 23.7197 19.5936 23.7114C19.3797 24.2635 19.1465 24.3045 18.7661 24.4264C18.0869 25.8739 17.8478 26.4867 15.9261 27.6834C15.1631 28.5375 14.9192 29.4892 14.9227 29.4751C14.7912 29.7571 14.8377 30.1519 14.9071 30.3636C14.8067 30.677 14.8329 30.708 14.8329 30.708C14.8748 30.8263 14.9837 30.983 15.1175 31.0163C15.3483 31.0774 15.5792 31.0676 15.5658 31.3247C15.5348 31.6463 15.1127 31.5936 14.9129 31.5578C14.1439 31.4357 14.3869 30.9347 13.8952 31.102C13.5185 31.3484 13.3775 32.0755 12.7627 31.9811C12.6814 31.9274 12.7064 31.7684 12.7614 31.6536C12.8477 31.4743 13.0006 31.3259 12.9097 31.2586C12.5089 31.387 12.1086 31.5174 11.7091 31.6499C11.3324 31.7526 10.9197 31.5649 11.2906 31.3172C11.4628 31.2503 11.7091 31.1663 12.0129 30.9718C12.0129 30.9718 12.1693 30.7588 11.8693 30.8653C11.5416 30.9824 11.0585 31.0553 10.7118 31.0172C10.7118 31.0172 9.99303 30.9228 9.90094 30.8663C9.80761 30.8099 9.72282 30.5878 9.94761 30.589C10.2322 30.5915 10.9449 30.5076 11.4974 30.3605C11.7641 30.2565 12.2712 29.9565 12.5558 29.8153C12.5558 29.8153 12.8643 29.3657 13.0341 29.2771C13.3175 28.9509 13.5566 28.7582 13.8077 28.4244C14.0529 27.9184 14.3064 27.1175 15.1183 25.8773C15.4938 25.3056 15.9602 24.6398 16.5473 24.0443C16.5473 24.0443 16.6992 23.0914 17.4634 22.4133C17.6321 22.0162 17.888 21.5487 18.1403 21.1157C18.2384 20.9495 18.3315 20.8049 18.4249 20.647C18.6617 20.2751 18.9105 19.5828 19.8336 19.4738C19.8336 19.4738 20.2282 19.1822 20.3801 18.9749C20.617 18.7728 20.563 18.4584 20.7555 18.2369C20.4613 17.9501 19.7092 17.4107 19.6361 16.6609C19.5584 15.8656 19.8418 15.2115 20.3226 14.7273C20.8559 14.1939 21.418 13.9273 22.1007 13.9679C22.9533 14.0946 23.1147 14.3769 23.3862 14.6567C23.6468 14.9221 23.7437 14.7512 23.8537 15.0621C24.5689 15.2523 24.5293 15.1685 24.5233 15.6948C24.6333 15.8429 24.8175 15.9806 24.815 16.2879C25.0554 15.7892 25.1031 15.6973 25.7454 15.1483C25.8973 14.7023 26.0004 14.2635 26.1337 13.8175C26.259 13.405 26.4146 12.9804 26.5352 12.661C26.4073 11.7593 26.67 11.6099 27.0206 10.8195C26.9585 10.7108 26.9719 10.6797 26.9981 10.5014C27.1344 9.97887 27.3473 9.28761 27.474 8.83676C27.474 8.83676 27.5158 8.65739 27.7013 8.64426C27.8617 8.07383 28.1021 7.01194 28.1425 6.79548C28.3075 6.1988 28.2011 6.00734 28.0744 5.67129C28.0338 5.56129 28.0527 5.40462 27.9825 5.28253C27.7827 4.93461 27.5677 4.48252 27.4219 4.1596C27.3273 3.95397 27.1777 3.17895 27.1777 3.17895C27.0494 2.78332 27.1606 3.17916 27.1606 3.17916Z" fill="black"/>
</svg>
