<svg width="70" height="33" viewBox="0 0 70 33" fill="none" xmlns="http://www.w3.org/2000/svg">
<path fill-rule="evenodd" clip-rule="evenodd" d="M28.993 14.8394L20.9449 15.126L28.5866 15.5507L28.993 14.8394ZM28.0303 16.5306L19.9631 16.8175L27.6333 17.2437L28.0303 16.5306ZM27.0676 18.236L19.0105 18.5188L26.6713 18.9446L27.0676 18.236ZM26.1247 19.9328L18.0575 20.2201L25.7094 20.6452L26.1247 19.9328ZM35.9863 6.30302L25.7142 6.66857L36.0155 7.24103L35.9863 6.30302ZM35.9212 4.62456L26.6934 4.94821L35.9504 5.47913L35.9212 4.62456ZM35.8553 3.00559L27.6337 3.27611L35.895 3.73482L35.8553 3.00559ZM35.8 1.34359L28.5934 1.58455L35.8284 2.01183L35.8 1.34359ZM35.7532 0H29.4853L35.7626 0.332998L35.7532 0ZM25.1526 21.6288L17.1049 21.9203H24.9884L25.1526 21.6288Z" fill="black"/>
<path fill-rule="evenodd" clip-rule="evenodd" d="M52.4263 0.0543213H40.8282L40.4993 0.636507L46.3032 0.944436C46.3713 0.944436 46.3713 1.04097 46.2741 1.04097L40.1611 1.24526L39.5714 2.27718L45.3357 2.61766C45.4131 2.62739 45.394 2.73365 45.3263 2.73365L39.2033 2.93494L38.6334 3.92309L44.3883 4.24262C44.514 4.25235 44.514 4.35898 44.3883 4.35898L38.2754 4.57337L37.695 5.60679L43.4309 5.93567C43.5566 5.9454 43.5472 6.06139 43.4309 6.06139L37.3179 6.27915L36.7275 7.29984L42.4726 7.619C42.5594 7.62872 42.5699 7.73536 42.4536 7.73536L24.8394 8.3254L41.5541 9.25406C41.66 9.25406 41.6506 9.3895 41.5343 9.3895L23.8917 10.0185L40.6063 10.9467C40.6838 10.9467 40.7029 11.0725 40.5865 11.0725L22.9148 11.7108L39.6294 12.6394C39.6975 12.6491 39.7645 12.7749 39.6201 12.7846L21.9764 13.4124L38.6907 14.3407C38.7389 14.3504 38.7872 14.4761 38.6716 14.4761L29.7918 14.7927L29.8209 15.5941L37.7332 16.0338C37.7908 16.0435 37.82 16.1595 37.7134 16.1595L29.8501 16.439L29.8887 17.3354L36.7567 17.7171C36.824 17.7268 36.8532 17.8623 36.7368 17.8623L29.9272 18.1013L29.9568 19.085L35.8089 19.4101C35.8763 19.4195 35.8957 19.5452 35.7797 19.5452L29.9859 19.7521L30.0245 20.8342L34.8608 21.1028C34.9289 21.1125 34.9289 21.2289 34.832 21.2289L30.0439 21.4021L30.0634 21.8672H45.6754C49.8151 21.8672 53.5289 18.8493 54.2256 16.4502C54.9227 14.0515 54.9227 11.8847 51.5949 10.8016C53.4526 10.3758 56.6827 8.28088 57.3214 5.38454C57.9006 2.7531 56.9337 0.0640493 52.4263 0.0543213ZM44.5735 16.8539H39.7761L42.4842 12.0561H46.0439C49.7197 12.0561 47.9394 16.8539 44.5735 16.8539ZM50.783 6.56126C50.6281 7.14157 49.4667 8.61201 47.9974 8.61201H44.4377L46.7201 4.58834H48.5388C50.8597 4.66579 50.9372 5.98132 50.783 6.56126ZM70 28.8194C70 26.9602 68.4544 25.403 66.5952 25.403C64.6877 25.403 63.1305 26.9849 63.1305 28.9283C63.1286 29.3854 63.2172 29.8384 63.3913 30.2611C63.5653 30.6838 63.8214 31.0679 64.1446 31.3911C64.4679 31.7143 64.852 31.9703 65.2747 32.1443C65.6974 32.3183 66.1504 32.4069 66.6075 32.4049C68.0192 32.4049 69.3595 31.4392 69.7579 30.1233H67.9953C67.6451 30.6786 67.1871 30.9319 66.5585 30.9319C65.7619 30.9319 65.0503 30.3886 64.8206 29.616H69.9147C69.9757 29.2422 70 29.0607 70 28.8194ZM64.7727 28.3539C65.002 27.4485 65.7264 26.8689 66.6195 26.8689C67.5134 26.8689 68.2134 27.4365 68.4304 28.3539H64.7727ZM47.1144 25.7251V26.2673C46.6078 25.724 45.8737 25.415 45.0887 25.415C43.3504 25.415 41.8684 26.8996 41.8684 28.8314C41.8684 30.6539 43.1794 32.2886 45.1231 32.2886C45.9803 32.2886 46.6321 32.0906 47.2476 31.3906V32.2478H48.721V25.7251H47.1144ZM45.3151 30.9061C44.7782 30.9061 44.2633 30.6928 43.8836 30.3131C43.504 29.9335 43.2907 29.4186 43.2907 28.8817C43.2907 28.3448 43.504 27.8299 43.8836 27.4502C44.2633 27.0706 44.7782 26.8573 45.3151 26.8573C45.852 26.8573 46.3669 27.0706 46.7465 27.4502C47.1262 27.8299 47.3395 28.3448 47.3395 28.8817C47.3395 29.4186 47.1262 29.9335 46.7465 30.3131C46.3669 30.6928 45.852 30.9061 45.3151 30.9061ZM3.21138 25.4026C2.54762 25.4026 2.04064 25.632 1.48502 26.1996V25.5598H0V32.2478H1.60588V29.0966C1.60588 28.2398 1.67809 26.8753 2.86117 26.8753C3.97166 26.8753 4.09251 28.1549 4.09251 28.9758V32.2474H5.69801V28.6619C5.69801 27.7201 5.6258 27.2738 5.37212 26.7425C4.99797 25.9459 4.11683 25.4026 3.21138 25.4026ZM13.1879 28.8194C13.1879 26.9602 11.6426 25.403 9.78342 25.403C7.87597 25.403 6.31874 26.9849 6.31874 28.9283C6.31686 29.3854 6.4055 29.8383 6.57955 30.261C6.7536 30.6836 7.00962 31.0676 7.33283 31.3908C7.65604 31.714 8.04006 31.9701 8.46271 32.1441C8.88537 32.3182 9.3383 32.4068 9.79539 32.4049C11.2078 32.4049 12.5477 31.4392 12.9462 30.1233H11.1839C10.8337 30.6786 10.375 30.9319 9.74712 30.9319C8.95055 30.9319 8.23816 30.3886 8.0088 29.616H13.1029C13.1639 29.2422 13.1879 29.0607 13.1879 28.8194ZM7.96091 28.3539C8.19026 27.4485 8.91463 26.8689 9.80811 26.8689C10.7016 26.8689 11.4016 27.4365 11.619 28.3539H7.96091ZM39.6051 32.2422H41.2106V23.3208H39.6051V32.2422ZM52.9568 25.4026C52.2927 25.4026 51.7854 25.632 51.2301 26.1996V25.5598H49.7451V32.2478H51.3513V29.0966C51.3513 28.2398 51.4236 26.8753 52.6066 26.8753C53.7168 26.8753 53.838 28.1549 53.838 28.9758V32.2474H55.4435V28.6619C55.4435 27.7201 55.3713 27.2738 55.1176 26.7425C54.7434 25.9459 53.8623 25.4026 52.9568 25.4026ZM59.4514 26.8757C60.1874 26.8757 60.6098 27.1174 61.0087 27.7931H62.8188C62.3242 26.3567 61.0569 25.4026 59.5113 25.4026C57.5556 25.4026 55.986 26.9598 55.986 28.8796C55.986 30.811 57.5676 32.4046 59.5113 32.4046C60.0071 32.402 60.4969 32.2965 60.9498 32.095C61.4028 31.8934 61.809 31.6 62.1427 31.2334C62.481 30.8593 62.6018 30.6419 62.8188 30.0507H61.0087C60.6338 30.6299 60.1515 30.9315 59.548 30.9315C58.4248 30.9315 57.5923 30.0623 57.5923 28.9032C57.5923 27.7328 58.3888 26.8757 59.4514 26.8757ZM19.3248 29.6403L18.1877 25.5601H16.8957L15.7463 29.6403L14.387 25.5601H12.9705L15.2034 32.2478H16.232L17.5359 27.9143L18.8032 32.2478H19.8826L22.0239 25.5601H20.6964L19.3248 29.6403ZM27.927 25.4097C27.1424 25.4097 26.4083 25.7188 25.9013 26.2617V23.3212H24.2954V32.2422H25.7681V31.3854C26.3839 32.0854 27.0357 32.283 27.8929 32.283C29.8367 32.283 31.1477 30.6486 31.1477 28.8258C31.1481 26.8944 29.6657 25.4097 27.927 25.4097ZM27.7006 30.9061C27.1637 30.9061 26.6488 30.6928 26.2692 30.3131C25.8895 29.9335 25.6762 29.4186 25.6762 28.8817C25.6762 28.3448 25.8895 27.8299 26.2692 27.4502C26.6488 27.0706 27.1637 26.8573 27.7006 26.8573C28.2375 26.8573 28.7524 27.0706 29.132 27.4502C29.5117 27.8299 29.725 28.3448 29.725 28.8817C29.725 29.4186 29.5117 29.9335 29.132 30.3131C28.7524 30.6928 28.2375 30.9061 27.7006 30.9061ZM36.9265 25.7251V26.2673C36.4195 25.724 35.6858 25.415 34.9008 25.415C33.1625 25.415 31.6797 26.8996 31.6797 28.8314C31.6797 30.6539 32.9912 32.2886 34.9345 32.2886C35.7917 32.2886 36.4435 32.0906 37.0594 31.3906V32.2478H38.532V25.7251H36.9265ZM35.1276 30.9061C34.5907 30.9061 34.0758 30.6928 33.6961 30.3131C33.3165 29.9335 33.1032 29.4186 33.1032 28.8817C33.1032 28.3448 33.3165 27.8299 33.6961 27.4502C34.0758 27.0706 34.5907 26.8573 35.1276 26.8573C35.6645 26.8573 36.1794 27.0706 36.559 27.4502C36.9387 27.8299 37.152 28.3448 37.152 28.8817C37.152 29.4186 36.9387 29.9335 36.559 30.3131C36.1794 30.6928 35.6645 30.9061 35.1276 30.9061Z" fill="black"/>
</svg>
