<svg width="70" height="35" viewBox="0 0 70 35" fill="none" xmlns="http://www.w3.org/2000/svg">
<path d="M37.7247 0.118286C37.4957 0.153609 37.2755 0.996855 36.8329 1.43614C36.5092 1.75318 36.1052 1.73334 35.8906 2.12529C35.8091 2.27172 35.8355 2.52167 35.743 2.76166C35.5625 3.24164 34.9262 3.28455 34.9262 3.80752C34.924 4.37229 35.4568 4.48016 35.9181 4.88088C36.2781 5.20345 36.3133 5.42581 36.7492 5.58212C37.1214 5.70879 37.6751 5.2948 38.1738 5.44344C38.5834 5.56568 38.9753 5.65371 39.0678 6.07427C39.1492 6.4618 39.0623 7.06284 38.5658 6.99354C38.3984 6.97481 37.6729 6.73039 36.7812 6.82506C35.7056 6.94731 34.478 7.2984 34.3581 8.49741C34.292 9.16783 35.121 9.95829 35.9214 9.79756C36.4751 9.68851 36.2131 9.03579 36.5148 8.71867C36.91 8.3125 39.1492 10.1366 41.231 10.1366C42.1074 10.1366 42.7591 9.91538 43.4065 9.23721C43.467 9.18545 43.5408 9.07427 43.6344 9.06763C43.7225 9.07427 43.8766 9.1612 43.9272 9.19865C45.6039 10.5461 46.871 13.2489 53.0329 13.2809C53.8993 13.2852 54.8867 13.6992 55.6926 14.4346C56.4115 15.0996 56.8321 16.1332 57.2405 17.1824C57.857 18.7568 58.9624 20.2882 60.6379 21.9924C60.7293 22.0837 62.1087 23.156 62.2188 23.2364C62.2364 23.2474 62.3377 23.4896 62.3026 23.625C62.2618 24.6466 62.1131 27.6179 64.3281 27.7523C64.8698 27.7798 64.7278 27.3989 64.7278 27.1369C64.7267 26.6194 64.632 26.1053 64.9051 25.5758C65.2782 24.847 64.1135 24.5112 64.1477 22.9358C64.1718 21.7611 63.1854 21.9615 62.6845 21.0664C62.396 20.5479 62.1395 20.2727 62.1583 19.6385C62.2706 16.0695 61.3986 13.7245 60.9638 13.1487C60.6248 12.7139 60.344 12.5411 60.6544 12.3395C62.5029 11.1187 62.9223 9.98247 62.9223 9.98247C63.9054 7.6717 64.7895 5.56118 66.0082 4.63212C66.2537 4.44049 66.8834 3.97046 67.2698 3.78547C68.407 3.24931 69.0059 2.9246 69.3363 2.60306C69.8591 2.09337 70.272 1.03099 69.771 0.386962C69.1479 -0.407923 68.0702 0.222911 67.5946 0.504705C64.1961 2.52167 63.6952 6.07972 62.5182 8.12308C61.5792 9.75568 60.0522 10.9546 58.6871 11.0526C57.6632 11.1285 56.5602 10.9216 55.4614 10.4394C52.7896 9.26803 51.3275 7.75539 50.9829 7.4879C50.2651 6.93411 44.6923 1.46364 40.1774 1.24016C40.1774 1.24016 39.6172 0.118365 39.4762 0.0996369C39.1459 0.0577551 38.808 0.770061 38.5658 0.852719C38.3379 0.92858 37.9548 0.0808296 37.7247 0.118286ZM17.8488 32.7681C17.4239 32.7581 17.0628 32.4091 17.0628 31.9776L17.0639 17.8947H12.4225V33.4187C12.4225 34.1794 13.0389 34.8004 13.7952 34.8004H21.9079C22.6697 34.8004 23.2785 34.1794 23.2785 33.4187V17.8947H18.6415L18.6371 31.9776C18.6371 32.4091 18.276 32.7581 17.8488 32.7681ZM33.3893 17.8947H26.3644C25.5332 17.8947 24.8561 18.5707 24.8561 19.4107V34.8003H29.5019V20.6834C29.5052 20.2508 29.8552 19.9084 30.2869 19.9084C30.7206 19.9084 31.0685 20.243 31.0783 20.6713V34.8004H35.7055V20.6712C35.711 20.243 36.0589 19.9083 36.4915 19.9083C36.9209 19.9083 37.2754 20.2507 37.2787 20.6833V34.8004H41.9245V19.4107C41.9245 18.5707 41.2464 17.8947 40.4152 17.8947H33.3893ZM6.21108 20.7131C6.2144 20.243 5.8313 19.9083 5.42504 19.9083H4.6368V28.4591H5.42504C5.83461 28.4591 6.21448 28.1332 6.21108 27.6654V20.7131ZM9.32558 30.5519H4.6368V34.8004H-0.00244141V17.8947H9.35537C10.1931 17.8947 10.847 18.5751 10.847 19.4173V29.0294C10.847 29.8727 10.1678 30.5519 9.32558 30.5519ZM57.8449 31.0198C56.9125 31.0198 56.1297 31.8256 56.1297 32.8022C56.1297 33.782 56.9125 34.5812 57.8746 34.5812C58.8291 34.5812 59.602 33.782 59.602 32.8022C59.602 31.8234 58.8291 31.0198 57.8745 31.0198H57.8449ZM59.9344 32.7967C59.9344 33.9449 59.0141 34.8785 57.8746 34.8785C56.723 34.8785 55.7983 33.9516 55.7983 32.7967C55.7983 31.6638 56.723 30.717 57.8405 30.717C59.0141 30.717 59.9344 31.6353 59.9344 32.7967Z" fill="black"/>
<path d="M57.66 32.6646C57.9825 32.6646 58.1521 32.5501 58.1521 32.3212C58.1521 32.1174 57.9881 32.0129 57.6743 32.0129H57.5818V32.6646H57.66ZM58.8479 34.0011H58.2941L57.5818 33.0532V34.0011H57.1293V31.6044H57.605C58.2512 31.6044 58.5946 31.8488 58.5946 32.3156C58.5946 32.6271 58.3921 32.9035 58.1091 32.986L58.0761 32.9982L58.8479 34.0011ZM49.7136 28.4624V20.6779C49.7026 20.2474 49.3558 19.9172 48.9232 19.9172C48.4949 19.9172 48.1404 20.2606 48.1371 20.69V28.4624H49.7136ZM49.7136 34.8004V30.5563H48.1371V34.8004H43.5001V19.4107C43.5001 18.5707 44.1771 17.8948 45.0083 17.8948H52.8424C53.6758 17.8948 54.3529 18.5707 54.3529 19.4107V34.8003L49.7136 34.8004Z" fill="black"/>
</svg>
