<svg width="110" height="30" viewBox="0 0 110 30" fill="none" xmlns="http://www.w3.org/2000/svg">
<path d="M74.7837 7.94328H79.1299V8.78464C81.7454 7.71706 84.2866 7.20573 86.3458 9.52219C87.5188 9.02636 88.5863 8.37868 89.7438 8.10907C93.1123 7.3111 95.4567 9.34865 95.0368 12.7838C94.6169 16.219 93.9522 19.6402 93.3975 23.0832H88.9923C89.2325 21.5492 89.4571 20.0617 89.7144 18.5727C89.984 16.9194 90.2706 15.2645 90.5418 13.6143C90.5396 13.5887 90.5444 13.563 90.5557 13.54C90.7215 12.2911 90.3001 11.3444 89.4587 11.1042C88.5414 10.8485 87.3994 11.3599 86.9935 12.4863C86.5875 13.6128 86.4357 14.8105 86.2188 15.9897C85.8422 18.2008 85.5122 20.4398 85.1202 22.6524C85.082 22.7621 85.0187 22.8612 84.9353 22.942C84.8519 23.0227 84.7507 23.0827 84.6398 23.1173C83.346 23.1622 82.0383 23.1312 80.6546 23.1312C80.9258 21.4175 81.1969 19.7487 81.4665 18.0799C81.7222 16.4716 82.0088 14.8772 82.2413 13.2766C82.3761 12.4042 81.9856 11.5474 81.324 11.2173C80.6624 10.8873 79.8055 11.0965 79.1439 11.7426C78.3025 12.57 78.2576 13.667 78.0763 14.7191C77.6114 17.5082 77.1745 20.2972 76.7081 23.1095H72.3185C73.1459 18.0319 73.9578 13.0255 74.7837 7.94328ZM35.1528 21.5647C34.688 24.4513 34.2356 27.2032 33.7692 30H29.364C30.5664 22.6323 31.7549 15.311 32.9572 7.95878H37.3624C37.3175 8.33375 37.257 8.67928 37.2276 8.97988C38.1294 8.63435 39.0017 8.15401 39.933 7.95878C43.0908 7.28166 45.7063 8.93494 46.5957 12.0478C47.8724 16.5119 44.7131 21.8498 40.1592 22.8647C38.3246 23.249 36.6713 22.8724 35.1528 21.5647ZM42.158 15.0693C42.1735 13.3649 41.5274 12.2431 40.4536 11.8371C39.3798 11.4311 38.1387 11.882 37.2214 12.9946C36.7941 13.5006 36.4738 14.088 36.2799 14.7213C36.086 15.3546 36.0226 16.0207 36.0934 16.6792C36.1987 17.7917 36.6651 18.7229 37.7978 19.1134C38.8824 19.4899 39.8121 19.084 40.6101 18.348C41.5359 17.5003 42.0918 16.3229 42.158 15.0693ZM0 19.3691C1.00716 18.5277 1.98487 17.7158 2.96259 16.8899C3.39799 17.3873 3.77451 17.8971 4.22541 18.3185C5.31004 19.3567 6.58525 19.3706 7.94414 18.9058C9.25189 18.4549 10.0933 17.5825 10.3334 16.1834C10.4884 15.2366 10.2141 14.4402 9.38669 13.9134C8.80099 13.5384 8.16881 13.2363 7.55212 12.9062C7.17715 12.711 6.78668 12.5297 6.41016 12.35C1.11252 9.76236 1.98487 3.96114 5.80432 1.28211C8.34545 -0.492038 10.9764 -0.267365 13.6229 0.997004C14.1932 1.26816 14.72 1.64313 15.3274 2.00416C14.4705 3.07175 13.6741 4.06341 12.8916 5.02563C12.185 4.71573 11.5234 4.35006 10.8169 4.13933C9.14808 3.62801 7.64509 4.31907 6.8781 5.88404C6.36678 6.93613 6.59145 7.88285 7.5986 8.4701C8.60576 9.05735 9.64391 9.5067 10.6511 10.0475C12.5306 11.0562 13.905 12.4832 14.1993 14.6959C14.6642 18.0939 12.9598 21.0394 9.8097 22.4432C6.07392 24.0764 2.25758 22.9174 0 19.3691ZM17.5617 7.94328H21.9823C21.4555 11.16 20.9597 14.3488 20.4329 17.5206C20.2221 18.7989 20.5878 19.2947 21.8615 19.4001C23.4543 19.5349 24.1857 18.9352 24.4321 17.3858C24.9279 14.2574 25.4547 11.1305 25.9815 7.94328H30.3867C30.0861 9.85223 29.7855 11.7317 29.4694 13.6267C29.2587 14.9345 29.0324 16.2422 28.8078 17.55C28.3119 20.4816 26.3565 22.4525 23.4404 22.9329C21.7856 23.204 20.1478 23.218 18.5534 22.623C16.6134 21.887 15.5923 20.0679 15.9379 18.0071C16.4786 14.6943 17.0054 11.3568 17.5617 7.94328ZM71.928 16.1679H62.4762C62.3569 17.7313 63.1084 19.2947 64.2364 19.6557C66.1159 20.2755 67.0921 19.0096 68.0094 17.6554C69.0475 18.0474 70.0702 18.4301 71.0913 18.8128C69.8284 21.4903 66.0555 24.1507 62.2965 22.9034C59.65 22.0311 58.3872 19.9718 58.1315 17.2943C57.7286 13.1603 60.8012 8.96593 64.8159 8.06414C68.3038 7.28941 71.3717 9.30372 71.897 12.8675C72.0473 13.9118 71.928 15.0244 71.928 16.1679ZM62.876 13.4609H68.3193C67.8684 11.7565 66.9805 10.8594 65.8401 10.8454C64.5912 10.8299 63.3734 11.8975 62.876 13.4609ZM105.982 17.6554C107.019 18.0474 108.026 18.4301 109.035 18.7989C107.245 22.4665 101.983 24.7829 98.4193 21.9102C96.374 20.2569 95.7588 18.0009 96.1648 15.5062C96.7211 11.9719 98.6749 9.41683 102.118 8.24388C106.072 6.89119 109.71 9.40133 109.966 13.5818C110.026 14.4232 109.981 15.2645 109.981 16.1679H100.434C100.269 17.6414 101.066 19.1893 102.178 19.6557C103.381 20.181 104.419 19.6557 105.982 17.6554ZM106.193 13.5059C106.117 12.1114 105.02 10.8718 103.832 10.8299C102.539 10.785 101.021 12.1532 100.888 13.5059H106.193ZM58.6971 7.92779C58.3066 9.25103 57.9456 10.4689 57.569 11.7472C57.4075 11.7254 57.2472 11.6954 57.0887 11.6574C54.9985 11.0097 53.1949 12.0773 52.8029 14.2574C52.3225 16.9194 51.9166 19.5798 51.4796 22.2418C51.4347 22.5114 51.3743 22.7826 51.3247 23.0832H46.9397C47.7671 18.0164 48.579 12.9946 49.4049 7.94328H53.7651C53.7511 8.28881 53.7201 8.6204 53.6907 9.01087C55.2092 7.86736 56.878 7.71706 58.6971 7.92779Z" fill="black"/>
</svg>
