<svg width="103" height="41" viewBox="0 0 103 41" fill="none" xmlns="http://www.w3.org/2000/svg">
<path d="M6.248 26.888L0.396 9.2H5.544L8.844 20.508H8.932L12.232 9.2H16.94L11.088 26.888V40H6.248V26.888ZM23.5204 9.2H36.7204V13.6H28.3604V21.74H35.0044V26.14H28.3604V35.6H36.7204V40H23.5204V9.2ZM43.9048 9.2H57.1048V13.6H48.7448V21.74H55.3888V26.14H48.7448V35.6H57.1048V40H43.9048V9.2ZM63.4071 35.688L72.3831 13.6H63.8471V9.2H77.5751V13.512L68.5991 35.6H77.5751V40H63.4071V35.688ZM89.1605 26.888L83.3085 9.2H88.4565L91.7565 20.508H91.8445L95.1445 9.2H99.8525L94.0005 26.888V40H89.1605V26.888Z" fill="black"/>
<rect x="63" y="22.4182" width="16" height="5" fill="black"/>
</svg>
