<svg width="35" height="35" viewBox="0 0 35 35" fill="none" xmlns="http://www.w3.org/2000/svg">
<circle cx="17.5" cy="17.5" r="17.5" fill="white"/>
<path d="M28 17.9999C28 12.477 23.5229 7.9999 18 7.9999C12.4771 7.9999 8 12.477 8 17.9999C8 22.9912 11.6569 27.1282 16.4375 27.8784V20.8905H13.8984V17.9999H16.4375V15.7968C16.4375 13.2905 17.9304 11.9062 20.2146 11.9062C21.3087 11.9062 22.4531 12.1015 22.4531 12.1015V14.5624H21.1921C19.9499 14.5624 19.5625 15.3332 19.5625 16.1241V17.9999H22.3359L21.8926 20.8905H19.5625V27.8784C24.3431 27.1282 28 22.9912 28 17.9999Z" fill="black"/>
</svg>
