<svg width="35" height="35" viewBox="0 0 35 35" fill="none" xmlns="http://www.w3.org/2000/svg">
<circle cx="17.5" cy="17.5" r="17.5" fill="white"/>
<path fill-rule="evenodd" clip-rule="evenodd" d="M18 8C15.284 8 14.944 8.01133 13.8773 8.06C12.8127 8.10867 12.0853 8.278 11.4493 8.52533C10.7827 8.776 10.178 9.16933 9.678 9.67867C9.16948 10.1781 8.77591 10.7823 8.52467 11.4493C8.27867 12.0853 8.10867 12.8133 8.06 13.878C8.012 14.944 8 15.2833 8 18C8 20.7167 8.01133 21.056 8.06 22.1227C8.10867 23.1873 8.278 23.9147 8.52533 24.5507C8.776 25.2173 9.16933 25.822 9.67867 26.322C10.1781 26.8305 10.7823 27.2241 11.4493 27.4753C12.0853 27.722 12.8127 27.8913 13.8773 27.94C14.944 27.9887 15.284 28 18 28C20.716 28 21.056 27.9887 22.1227 27.94C23.1873 27.8913 23.9147 27.722 24.5507 27.4747C25.2173 27.224 25.822 26.8307 26.322 26.3213C26.8305 25.8219 27.2241 25.2177 27.4753 24.5507C27.722 23.9147 27.8913 23.1873 27.94 22.1227C27.9887 21.056 28 20.716 28 18C28 15.284 27.9887 14.944 27.94 13.8773C27.8913 12.8127 27.722 12.0853 27.4747 11.4493C27.2236 10.782 26.83 10.1775 26.3213 9.678C25.8219 9.16948 25.2177 8.77591 24.5507 8.52467C23.9147 8.27867 23.1867 8.10867 22.122 8.06C21.056 8.012 20.7167 8 18 8ZM18 9.802C20.67 9.802 20.9867 9.812 22.0413 9.86C23.016 9.90467 23.5453 10.0667 23.898 10.2047C24.3647 10.3853 24.698 10.6027 25.048 10.952C25.398 11.302 25.6147 11.6353 25.7953 12.102C25.9327 12.4547 26.0953 12.984 26.14 13.9587C26.188 15.0133 26.198 15.33 26.198 18C26.198 20.67 26.188 20.9867 26.14 22.0413C26.0953 23.016 25.9333 23.5453 25.7953 23.898C25.6353 24.3324 25.3799 24.7253 25.048 25.048C24.7254 25.38 24.3324 25.6354 23.898 25.7953C23.5453 25.9327 23.016 26.0953 22.0413 26.14C20.9867 26.188 20.6707 26.198 18 26.198C15.3293 26.198 15.0133 26.188 13.9587 26.14C12.984 26.0953 12.4547 25.9333 12.102 25.7953C11.6676 25.6353 11.2747 25.3799 10.952 25.048C10.6201 24.7253 10.3648 24.3323 10.2047 23.898C10.0673 23.5453 9.90467 23.016 9.86 22.0413C9.812 20.9867 9.802 20.67 9.802 18C9.802 15.33 9.812 15.0133 9.86 13.9587C9.90467 12.984 10.0667 12.4547 10.2047 12.102C10.3853 11.6353 10.6027 11.302 10.952 10.952C11.2746 10.62 11.6676 10.3647 12.102 10.2047C12.4547 10.0673 12.984 9.90467 13.9587 9.86C15.0133 9.812 15.33 9.802 18 9.802Z" fill="black"/>
<path fill-rule="evenodd" clip-rule="evenodd" d="M18 21.3367C17.5618 21.3367 17.128 21.2504 16.7231 21.0827C16.3183 20.915 15.9505 20.6692 15.6406 20.3594C15.3308 20.0495 15.085 19.6817 14.9173 19.2769C14.7497 18.8721 14.6633 18.4382 14.6633 18C14.6633 17.5618 14.7497 17.1279 14.9173 16.7231C15.085 16.3183 15.3308 15.9505 15.6406 15.6406C15.9505 15.3308 16.3183 15.085 16.7231 14.9173C17.128 14.7496 17.5618 14.6633 18 14.6633C18.885 14.6633 19.7336 15.0149 20.3594 15.6406C20.9851 16.2664 21.3367 17.1151 21.3367 18C21.3367 18.8849 20.9851 19.7336 20.3594 20.3594C19.7336 20.9851 18.885 21.3367 18 21.3367ZM18 12.86C16.6368 12.86 15.3294 13.4015 14.3655 14.3655C13.4015 15.3294 12.86 16.6368 12.86 18C12.86 19.3632 13.4015 20.6706 14.3655 21.6345C15.3294 22.5985 16.6368 23.14 18 23.14C19.3632 23.14 20.6706 22.5985 21.6345 21.6345C22.5985 20.6706 23.14 19.3632 23.14 18C23.14 16.6368 22.5985 15.3294 21.6345 14.3655C20.6706 13.4015 19.3632 12.86 18 12.86ZM24.6353 12.7667C24.6353 13.0889 24.5073 13.3979 24.2795 13.6258C24.0516 13.8537 23.7426 13.9817 23.4204 13.9817C23.0981 13.9817 22.7891 13.8537 22.5612 13.6258C22.3334 13.3979 22.2053 13.0889 22.2053 12.7667C22.2053 12.4444 22.3334 12.1354 22.5612 11.9075C22.7891 11.6797 23.0981 11.5517 23.4204 11.5517C23.7426 11.5517 24.0516 11.6797 24.2795 11.9075C24.5073 12.1354 24.6353 12.4444 24.6353 12.7667Z" fill="black"/>
</svg>
