<svg width="35" height="35" viewBox="0 0 35 35" fill="none" xmlns="http://www.w3.org/2000/svg">
<circle cx="17.5" cy="17.5" r="17.5" fill="white"/>
<path d="M28 9.47059V26.5294C28 26.9194 27.8451 27.2935 27.5693 27.5693C27.2935 27.8451 26.9194 28 26.5294 28H9.47059C9.08056 28 8.70651 27.8451 8.43073 27.5693C8.15494 27.2935 8 26.9194 8 26.5294V9.47059C8 9.08056 8.15494 8.70651 8.43073 8.43073C8.70651 8.15494 9.08056 8 9.47059 8H26.5294C26.9194 8 27.2935 8.15494 27.5693 8.43073C27.8451 8.70651 28 9.08056 28 9.47059ZM13.8824 15.6471H10.9412V25.0588H13.8824V15.6471ZM14.1471 12.4118C14.1486 12.1893 14.1063 11.9687 14.0226 11.7626C13.9389 11.5564 13.8154 11.3688 13.6592 11.2104C13.503 11.052 13.3171 10.9259 13.1121 10.8393C12.9072 10.7528 12.6872 10.7074 12.4647 10.7059H12.4118C11.9593 10.7059 11.5254 10.8856 11.2055 11.2055C10.8856 11.5254 10.7059 11.9593 10.7059 12.4118C10.7059 12.8642 10.8856 13.2981 11.2055 13.618C11.5254 13.9379 11.9593 14.1176 12.4118 14.1176C12.6343 14.1231 12.8556 14.0847 13.0633 14.0046C13.2709 13.9245 13.4607 13.8042 13.6219 13.6507C13.783 13.4972 13.9124 13.3135 14.0025 13.11C14.0926 12.9065 14.1417 12.6872 14.1471 12.4647V12.4118ZM25.0588 19.3412C25.0588 16.5118 23.2588 15.4118 21.4706 15.4118C20.8851 15.3824 20.3021 15.5072 19.7799 15.7734C19.2576 16.0397 18.8143 16.4383 18.4941 16.9294H18.4118V15.6471H15.6471V25.0588H18.5882V20.0529C18.5457 19.5403 18.7072 19.0315 19.0376 18.6372C19.3681 18.2429 19.8407 17.9949 20.3529 17.9471H20.4647C21.4 17.9471 22.0941 18.5353 22.0941 20.0176V25.0588H25.0353L25.0588 19.3412Z" fill="black"/>
</svg>
