<svg width="35" height="35" viewBox="0 0 35 35" fill="none" xmlns="http://www.w3.org/2000/svg">
<circle cx="17.5" cy="17.5" r="17.5" fill="white"/>
<path d="M28 10.9246C27.2645 11.2505 26.4744 11.4707 25.6438 11.5702C26.4911 11.0629 27.1412 10.2578 27.4477 9.29948C26.655 9.76984 25.7768 10.1116 24.8422 10.2948C24.0935 9.49855 23.0277 9 21.8474 9C19.582 9 17.7446 10.8374 17.7446 13.1046C17.7446 13.4253 17.7816 13.7371 17.8503 14.0383C14.4388 13.8666 11.4167 12.2326 9.39258 9.75046C9.04025 10.3582 8.83766 11.0629 8.83766 11.8134C8.83766 13.2368 9.56258 14.4937 10.6627 15.2292C9.98978 15.2072 9.35735 15.0231 8.80419 14.7157V14.7685C8.80419 16.7565 10.2179 18.4151 12.0958 18.7921C11.7506 18.8855 11.3885 18.9348 11.0151 18.9348C10.7508 18.9348 10.4927 18.9102 10.2426 18.8626C10.7649 20.4921 12.2799 21.6795 14.0759 21.7112C12.671 22.8122 10.9014 23.4684 8.97948 23.4684C8.64829 23.4684 8.3215 23.449 8 23.4112C9.81626 24.5765 11.9725 25.2547 14.2891 25.2547C21.8378 25.2547 25.9644 19.0026 25.9644 13.5803C25.9644 13.4041 25.96 13.2262 25.9521 13.05C26.7536 12.4704 27.4495 11.7491 27.9982 10.9272L28 10.9246Z" fill="black"/>
</svg>
