<svg width="28" height="28" viewBox="0 0 28 28" fill="none" xmlns="http://www.w3.org/2000/svg">
<path d="M28 14.315C28 13.3933 27.9166 12.5183 27.7735 11.6667H14.304V16.9283H22.0162C21.6705 18.655 20.6573 20.1133 19.1554 21.105V24.605H23.7565C26.4504 22.1667 28 18.5733 28 14.315Z" fill="black"/>
<path d="M14.304 5.54167C16.4138 5.54167 18.2971 6.25334 19.7871 7.64167L23.8638 3.65167C21.3963 1.38833 18.166 0 14.304 0C8.7135 0 3.88591 3.15 1.53767 7.72334L6.28182 11.3283C7.41422 8.00334 10.573 5.54167 14.304 5.54167Z" fill="black"/>
<path fill-rule="evenodd" clip-rule="evenodd" d="M14.304 28C8.7135 28 3.88591 24.85 1.53767 20.2767L6.28182 16.6717C7.41422 19.9967 10.573 22.4583 14.304 22.4583C16.235 22.4583 17.868 21.945 19.1554 21.105L23.7565 24.605C21.3963 26.74 18.166 28 14.304 28ZM6.28182 11.3283V7.72334H1.53767L6.28182 11.3283Z" fill="black"/>
<path d="M1.53767 16.6717H6.28182C5.98382 15.8317 5.82886 14.9333 5.82886 14C5.82886 13.0667 5.99574 12.1683 6.28182 11.3283L1.53767 7.72334C0.560237 9.61334 0 11.7367 0 14C0 16.2633 0.560237 18.3867 1.53767 20.2767V16.6717Z" fill="black"/>
<path d="M6.28182 16.6717H1.53767V20.2767L6.28182 16.6717Z" fill="black"/>
</svg>
