<svg width="41" height="40" viewBox="0 0 41 40" fill="none" xmlns="http://www.w3.org/2000/svg">
<path d="M40.1402 20.45C40.1402 19.1333 40.021 17.8833 39.8167 16.6667H20.5744V24.1833H31.5919C31.0981 26.65 29.6506 28.7333 27.505 30.15V35.15H34.078C37.9265 31.6667 40.1402 26.5333 40.1402 20.45Z" fill="white"/>
<path d="M20.5744 7.91667C23.5885 7.91667 26.279 8.93334 28.4075 10.9167L34.2313 5.21667C30.7064 1.98334 26.0917 0 20.5744 0C12.588 0 5.69149 4.5 2.33688 11.0333L9.11423 16.1833C10.7319 11.4333 15.2445 7.91667 20.5744 7.91667Z" fill="white"/>
<path fill-rule="evenodd" clip-rule="evenodd" d="M20.5744 40C12.588 40 5.69149 35.5 2.33688 28.9667L9.11423 23.8167C10.7319 28.5667 15.2445 32.0833 20.5744 32.0833C23.333 32.0833 25.666 31.35 27.505 30.15L34.078 35.15C30.7064 38.2 26.0917 40 20.5744 40ZM9.11423 16.1833V11.0333H2.33688L9.11423 16.1833Z" fill="white"/>
<path d="M2.33688 23.8167H9.11423C8.68852 22.6167 8.46714 21.3333 8.46714 20C8.46714 18.6667 8.70555 17.3833 9.11423 16.1833L2.33688 11.0333C0.940537 13.7333 0.140198 16.7667 0.140198 20C0.140198 23.2333 0.940537 26.2667 2.33688 28.9667V23.8167Z" fill="white"/>
<path d="M9.11423 23.8167H2.33688V28.9667L9.11423 23.8167Z" fill="white"/>
</svg>
