<svg width="28" height="28" viewBox="0 0 28 28" fill="none" xmlns="http://www.w3.org/2000/svg">
<path fill-rule="evenodd" clip-rule="evenodd" d="M14 0C10.1976 0 9.7216 0.0158667 8.22827 0.084C6.73773 0.152133 5.71947 0.3892 4.82907 0.735467C3.89573 1.0864 3.0492 1.63707 2.3492 2.35013C1.63727 3.04932 1.08627 3.89526 0.734533 4.82907C0.390133 5.71947 0.152133 6.73867 0.084 8.2292C0.0168 9.7216 0 10.1967 0 14C0 17.8033 0.0158667 18.2784 0.084 19.7717C0.152133 21.2623 0.3892 22.2805 0.735467 23.1709C1.0864 24.1043 1.63707 24.9508 2.35013 25.6508C3.04934 26.3627 3.89528 26.9137 4.82907 27.2655C5.71947 27.6108 6.73773 27.8479 8.22827 27.916C9.7216 27.9841 10.1976 28 14 28C17.8024 28 18.2784 27.9841 19.7717 27.916C21.2623 27.8479 22.2805 27.6108 23.1709 27.2645C24.1043 26.9136 24.9508 26.3629 25.6508 25.6499C26.3627 24.9507 26.9137 24.1047 27.2655 23.1709C27.6108 22.2805 27.8479 21.2623 27.916 19.7717C27.9841 18.2784 28 17.8024 28 14C28 10.1976 27.9841 9.7216 27.916 8.22827C27.8479 6.73773 27.6108 5.71947 27.2645 4.82907C26.9131 3.89486 26.362 3.04857 25.6499 2.3492C24.9507 1.63727 24.1047 1.08627 23.1709 0.734533C22.2805 0.390133 21.2613 0.152133 19.7708 0.084C18.2784 0.0168 17.8033 0 14 0ZM14 2.5228C17.738 2.5228 18.1813 2.5368 19.6579 2.604C21.0224 2.66653 21.7635 2.89333 22.2572 3.08653C22.9105 3.33947 23.3772 3.64373 23.8672 4.1328C24.3572 4.6228 24.6605 5.08947 24.9135 5.7428C25.1057 6.23653 25.3335 6.9776 25.396 8.34213C25.4632 9.81867 25.4772 10.262 25.4772 14C25.4772 17.738 25.4632 18.1813 25.396 19.6579C25.3335 21.0224 25.1067 21.7635 24.9135 22.2572C24.6894 22.8653 24.3319 23.4155 23.8672 23.8672C23.4155 24.332 22.8654 24.6895 22.2572 24.9135C21.7635 25.1057 21.0224 25.3335 19.6579 25.396C18.1813 25.4632 17.7389 25.4772 14 25.4772C10.2611 25.4772 9.81867 25.4632 8.34213 25.396C6.9776 25.3335 6.23653 25.1067 5.7428 24.9135C5.13469 24.6894 4.58454 24.3319 4.1328 23.8672C3.66816 23.4154 3.31065 22.8653 3.08653 22.2572C2.89427 21.7635 2.66653 21.0224 2.604 19.6579C2.5368 18.1813 2.5228 17.738 2.5228 14C2.5228 10.262 2.5368 9.81867 2.604 8.34213C2.66653 6.9776 2.89333 6.23653 3.08653 5.7428C3.33947 5.08947 3.64373 4.6228 4.1328 4.1328C4.58448 3.66804 5.13465 3.31051 5.7428 3.08653C6.23653 2.89427 6.9776 2.66653 8.34213 2.604C9.81867 2.5368 10.262 2.5228 14 2.5228Z" fill="black"/>
<path fill-rule="evenodd" clip-rule="evenodd" d="M14 18.6713C13.3866 18.6713 12.7791 18.5505 12.2124 18.3158C11.6456 18.081 11.1307 17.7369 10.6969 17.3031C10.2631 16.8694 9.91903 16.3544 9.68427 15.7876C9.44952 15.2209 9.32869 14.6134 9.32869 14C9.32869 13.3866 9.44952 12.7791 9.68427 12.2124C9.91903 11.6456 10.2631 11.1306 10.6969 10.6969C11.1307 10.2631 11.6456 9.91901 12.2124 9.68425C12.7791 9.44949 13.3866 9.32867 14 9.32867C15.2389 9.32867 16.4271 9.82082 17.3032 10.6969C18.1792 11.5729 18.6714 12.7611 18.6714 14C18.6714 15.2389 18.1792 16.4271 17.3032 17.3031C16.4271 18.1792 15.2389 18.6713 14 18.6713ZM14 6.804C12.0915 6.804 10.2612 7.56215 8.91168 8.91166C7.56217 10.2612 6.80402 12.0915 6.80402 14C6.80402 15.9085 7.56217 17.7388 8.91168 19.0883C10.2612 20.4379 12.0915 21.196 14 21.196C15.9085 21.196 17.7389 20.4379 19.0884 19.0883C20.4379 17.7388 21.196 15.9085 21.196 14C21.196 12.0915 20.4379 10.2612 19.0884 8.91166C17.7389 7.56215 15.9085 6.804 14 6.804ZM23.2895 6.67333C23.2895 7.12447 23.1103 7.55712 22.7913 7.87612C22.4723 8.19512 22.0396 8.37433 21.5885 8.37433C21.1374 8.37433 20.7047 8.19512 20.3857 7.87612C20.0667 7.55712 19.8875 7.12447 19.8875 6.67333C19.8875 6.2222 20.0667 5.78954 20.3857 5.47054C20.7047 5.15155 21.1374 4.97233 21.5885 4.97233C22.0396 4.97233 22.4723 5.15155 22.7913 5.47054C23.1103 5.78954 23.2895 6.2222 23.2895 6.67333Z" fill="black"/>
</svg>
