<svg width="41" height="40" viewBox="0 0 41 40" fill="none" xmlns="http://www.w3.org/2000/svg">
<path fill-rule="evenodd" clip-rule="evenodd" d="M20.1402 0C14.7082 0 14.0282 0.0226667 11.8949 0.12C9.76553 0.217333 8.31086 0.556 7.03886 1.05067C5.70553 1.552 4.4962 2.33867 3.4962 3.35733C2.47916 4.35618 1.69201 5.56466 1.18953 6.89867C0.697531 8.17067 0.357531 9.62667 0.260198 11.756C0.164198 13.888 0.140198 14.5667 0.140198 20C0.140198 25.4333 0.162864 26.112 0.260198 28.2453C0.357531 30.3747 0.696198 31.8293 1.19086 33.1013C1.6922 34.4347 2.47886 35.644 3.49753 36.644C4.4964 37.661 5.70488 38.4482 7.03886 38.9507C8.31086 39.444 9.76553 39.7827 11.8949 39.88C14.0282 39.9773 14.7082 40 20.1402 40C25.5722 40 26.2522 39.9773 28.3855 39.88C30.5149 39.7827 31.9695 39.444 33.2415 38.9493C34.5749 38.448 35.7842 37.6613 36.7842 36.6427C37.8012 35.6438 38.5884 34.4353 39.0909 33.1013C39.5842 31.8293 39.9229 30.3747 40.0202 28.2453C40.1175 26.112 40.1402 25.432 40.1402 20C40.1402 14.568 40.1175 13.888 40.0202 11.7547C39.9229 9.62533 39.5842 8.17067 39.0895 6.89867C38.5874 5.56409 37.8002 4.35509 36.7829 3.356C35.784 2.33896 34.5755 1.55181 33.2415 1.04933C31.9695 0.557333 30.5135 0.217333 28.3842 0.12C26.2522 0.024 25.5735 0 20.1402 0ZM20.1402 3.604C25.4802 3.604 26.1135 3.624 28.2229 3.72C30.1722 3.80933 31.2309 4.13333 31.9362 4.40933C32.8695 4.77067 33.5362 5.20533 34.2362 5.904C34.9362 6.604 35.3695 7.27067 35.7309 8.204C36.0055 8.90933 36.3309 9.968 36.4202 11.9173C36.5162 14.0267 36.5362 14.66 36.5362 20C36.5362 25.34 36.5162 25.9733 36.4202 28.0827C36.3309 30.032 36.0069 31.0907 35.7309 31.796C35.4108 32.6647 34.9 33.4507 34.2362 34.096C33.591 34.76 32.805 35.2707 31.9362 35.5907C31.2309 35.8653 30.1722 36.1907 28.2229 36.28C26.1135 36.376 25.4815 36.396 20.1402 36.396C14.7989 36.396 14.1669 36.376 12.0575 36.28C10.1082 36.1907 9.04953 35.8667 8.3442 35.5907C7.47547 35.2706 6.68954 34.7598 6.0442 34.096C5.38043 33.4506 4.8697 32.6647 4.54953 31.796C4.27486 31.0907 3.94953 30.032 3.8602 28.0827C3.7642 25.9733 3.7442 25.34 3.7442 20C3.7442 14.66 3.7642 14.0267 3.8602 11.9173C3.94953 9.968 4.27353 8.90933 4.54953 8.204C4.91086 7.27067 5.34553 6.604 6.0442 5.904C6.68945 5.24006 7.47541 4.7293 8.3442 4.40933C9.04953 4.13467 10.1082 3.80933 12.0575 3.72C14.1669 3.624 14.8002 3.604 20.1402 3.604Z" fill="white"/>
<path fill-rule="evenodd" clip-rule="evenodd" d="M20.1402 26.6733C19.2639 26.6733 18.3961 26.5007 17.5865 26.1654C16.7768 25.83 16.0411 25.3384 15.4215 24.7188C14.8018 24.0991 14.3102 23.3634 13.9749 22.5538C13.6395 21.7441 13.4669 20.8764 13.4669 20C13.4669 19.1236 13.6395 18.2559 13.9749 17.4462C14.3102 16.6366 14.8018 15.9009 15.4215 15.2812C16.0411 14.6616 16.7768 14.17 17.5865 13.8346C18.3961 13.4993 19.2639 13.3267 20.1402 13.3267C21.9101 13.3267 23.6075 14.0297 24.859 15.2812C26.1105 16.5327 26.8136 18.2301 26.8136 20C26.8136 21.7699 26.1105 23.4673 24.859 24.7188C23.6075 25.9703 21.9101 26.6733 20.1402 26.6733ZM20.1402 9.72C17.4138 9.72 14.799 10.8031 12.8712 12.7309C10.9433 14.6588 9.86023 17.2736 9.86023 20C9.86023 22.7264 10.9433 25.3412 12.8712 27.2691C14.799 29.1969 17.4138 30.28 20.1402 30.28C22.8667 30.28 25.4814 29.1969 27.4093 27.2691C29.3372 25.3412 30.4202 22.7264 30.4202 20C30.4202 17.2736 29.3372 14.6588 27.4093 12.7309C25.4814 10.8031 22.8667 9.72 20.1402 9.72ZM33.4109 9.53333C33.4109 10.1778 33.1549 10.7959 32.6992 11.2516C32.2435 11.7073 31.6254 11.9633 30.9809 11.9633C30.3364 11.9633 29.7183 11.7073 29.2626 11.2516C28.8069 10.7959 28.5509 10.1778 28.5509 9.53333C28.5509 8.88886 28.8069 8.27078 29.2626 7.81506C29.7183 7.35935 30.3364 7.10333 30.9809 7.10333C31.6254 7.10333 32.2435 7.35935 32.6992 7.81506C33.1549 8.27078 33.4109 8.88886 33.4109 9.53333Z" fill="white"/>
</svg>
