<svg width="28" height="28" viewBox="0 0 28 28" fill="none" xmlns="http://www.w3.org/2000/svg">
<path d="M0 13.9582C0 21.6478 6.33333 28 14 28C21.6667 28 28 21.6478 28 13.9582C28 6.26866 21.6667 0 14 0C6.33333 0 0 6.26866 0 13.9582ZM19.1667 20.4776C15.9167 18.4716 11.75 17.9701 6.91667 19.0567C5.75 19.2239 5.58333 17.5522 6.58333 17.3851C11.9167 16.1313 16.4167 16.7164 20.0833 18.9731C21 19.5582 20.0833 20.9791 19.1667 20.4776ZM20.5833 16.7164C16.8333 14.3761 11.0833 13.7075 6.66667 15.0448C5.25 15.4627 4.75 13.2896 6.08333 12.9552C11.1667 11.4507 17.4167 12.203 21.75 14.8776C22.9167 15.6299 21.75 17.4687 20.5833 16.7164ZM6 10.7821C4.58333 11.2836 3.66667 8.8597 5.25 8.27463C10.1667 6.77015 18.5 7.0209 23.6667 10.1134C25.0833 10.8657 23.75 13.206 22.25 12.3701C17.75 9.69552 10.25 9.44478 6 10.7821Z" fill="black"/>
</svg>
