<svg width="41" height="40" viewBox="0 0 41 40" fill="none" xmlns="http://www.w3.org/2000/svg">
<path d="M0.140198 19.9403C0.140198 30.9254 9.18782 40 20.1402 40C31.0926 40 40.1402 30.9254 40.1402 19.9403C40.1402 8.95522 31.0926 0 20.1402 0C9.18782 0 0.140198 8.95522 0.140198 19.9403ZM27.5212 29.2537C22.8783 26.3881 16.9259 25.6716 10.0212 27.2239C8.35448 27.4627 8.11639 25.0746 9.54496 24.8358C17.164 23.0448 23.5926 23.8806 28.8307 27.1045C30.1402 27.9403 28.8307 29.9701 27.5212 29.2537ZM29.545 23.8806C24.1878 20.5373 15.9735 19.5821 9.66401 21.4925C7.6402 22.0896 6.92591 18.9851 8.83067 18.5075C16.0926 16.3582 25.0212 17.4328 31.2116 21.2537C32.8783 22.3284 31.2116 24.9552 29.545 23.8806ZM8.71163 15.403C6.68782 16.1194 5.37829 12.6567 7.6402 11.8209C14.664 9.67164 26.5688 10.0299 33.9497 14.4478C35.9735 15.5224 34.0688 18.8657 31.9259 17.6716C25.4973 13.8507 14.7831 13.4925 8.71163 15.403Z" fill="white"/>
</svg>
