<svg width="40" height="28" viewBox="0 0 40 28" fill="none" xmlns="http://www.w3.org/2000/svg">
<path fill-rule="evenodd" clip-rule="evenodd" d="M35.6272 0.836351C37.3493 1.29733 38.7027 2.65065 39.1636 4.37274C39.9966 7.49094 40 14.0007 40 14.0007C40 14.0007 40 20.5104 39.1636 23.6286C38.7027 25.3507 37.3493 26.704 35.6272 27.1649C32.5091 28.0013 19.9999 28.0013 19.9999 28.0013C19.9999 28.0013 7.49094 28.0013 4.37273 27.1649C2.65065 26.704 1.29733 25.3507 0.836351 23.6286C2.50351e-07 20.5104 0 14.0007 0 14.0007C0 14.0007 2.50351e-07 7.49094 0.836351 4.37274C1.29733 2.65065 2.65065 1.29733 4.37273 0.836351C7.49094 2.50351e-07 19.9999 0 19.9999 0C19.9999 0 32.5091 2.50351e-07 35.6272 0.836351ZM26.388 14.0012L15.9962 20.0005V8.00184L26.388 14.0012Z" fill="black"/>
</svg>
